<svg fill="none" height="64" viewBox="0 0 64 64" width="64" xmlns="http://www.w3.org/2000/svg"><path d="m31.3717 47.6998c-3.2018.0002-6.3319-.949-8.9943-2.7276-2.6623-1.7787-4.7375-4.3069-5.963-7.2649-1.2255-2.9581-1.5464-6.2131-.922-9.3534.6244-3.1404 2.166-6.0251 4.4298-8.2893 2.2639-2.2643 5.1482-3.8065 8.2885-4.4314 3.1402-.625 6.3954-.3047 9.3536.9203 2.9583 1.2249 5.4869 3.2996 7.266 5.9616 1.7792 2.6621 2.729 5.7918 2.7294 8.9937.0002 2.126-.4183 4.2313-1.2317 6.1957-.8134 1.9643-2.0057 3.7492-3.5089 5.2526-1.5032 1.5035-3.2879 2.6962-5.2521 3.5099-1.9641.8138-4.0693 1.2327-6.1953 1.2328zm30.089-22.16c-2.762-12.7-17.9901-20.16798-34.0141-16.68398-16.024 3.48398-26.775992 16.60008-24.01399 29.30008 2.762 12.7 17.98909 20.168 34.01309 16.683s26.775-16.6001 24.015-29.3001z" fill="#656766"/><path d="m31.2968 47.3919c-3.1479.0004-6.2253-.9327-8.8429-2.6813s-4.6579-4.2341-5.8629-7.1423-1.5206-6.1084-.9068-9.1959c.6139-3.0875 2.1294-5.9237 4.3551-8.1498 2.2258-2.2262 5.0617-3.7423 8.1491-4.3567s6.2876-.2994 9.196.905c2.9084 1.2045 5.3943 3.2443 7.1434 5.8616 1.749 2.6173 2.6827 5.6945 2.6829 8.8424.0003 2.0901-.4112 4.1596-1.2108 6.0907s-1.9717 3.6858-3.4494 5.1638c-1.4778 1.4781-3.2322 2.6505-5.1631 3.4505-1.9309.7999-4.0005 1.2119-6.0906 1.212zm4.032-35.9651c-4.0941 0-8.0963 1.2141-11.5004 3.4887-3.4041 2.2745-6.0572 5.5073-7.6239 9.2897-1.5667 3.7825-1.9767 7.9446-1.178 11.96s2.7702 7.7038 5.6652 10.5988c2.8949 2.8949 6.5832 4.8664 10.5986 5.6651s8.1776.3888 11.96-1.178c3.7824-1.5667 7.0154-4.2199 9.2899-7.624s3.4885-7.4061 3.4885-11.5002c0-2.7184-.5354-5.4102-1.5757-7.9217-1.0402-2.5114-2.565-4.7932-4.4871-6.7154-1.9222-1.9222-4.2042-3.447-6.7156-4.4873-2.5115-1.0403-5.2032-1.5757-7.9215-1.5757z" fill="#b7bbb9"/><g fill="#252626"><path d="m25.5507 29.8038-1.7371-3.641c-.3697-.7484-.6988-1.5161-.986-2.2999l-.0339.033c.056.65.067 1.468.078 2.151l.0449 3.7529h-1.266v-7.752h1.4571l1.8819 3.7861c.3152.6435.581 1.3101.7951 1.994l.0339-.0331c-.034-.392-.1119-1.4999-.1119-2.2069l-.022-3.5401h1.2209v7.752h-1.3549"/><path d="m30.2987 24.9308c-.695 0-1.0751.5491-1.0751 1.4671h2.094c0-.918-.3999-1.4671-1.0189-1.4671zm-1.0871 2.375v.0901c0 .784.2911 1.6129 1.4001 1.6129.5242-.003 1.0281-.2028 1.412-.5599l.4809.75c-.565.4911-1.2903.7582-2.0389.751-1.6 0-2.61-1.154-2.61-2.969-.0627-.8031.1906-1.5989.7059-2.218.2122-.2509.4789-.45.7798-.5821.3009-.132.628-.1936.9563-.1799.5755-.0181 1.1349.1914 1.557.583.2941.3328.5125.7254.6403 1.1508.1277.4254.1618.8734.0997 1.3132v.2579z"/><path d="m39.1487 29.8259h-1.1541l-.6939-2.61c-.18-.672-.37-1.546-.37-1.546h-.0221s-.089.56-.37 1.6l-.683 2.5539h-1.1539l-1.5461-5.6119 1.221-.168.6161 2.745c.157.706.2909 1.49.2909 1.49h.034c.0824-.5132.1909-1.0219.325-1.5241l.728-2.6209h1.21l.638 2.5539c.235.919.359 1.614.359 1.614h.034s.134-.863.279-1.524l.583-2.6439h1.277l-1.6 5.691"/><path d="m22.7837 33.0718h-.7061v2.453h.661c.2221.0329.4484.0211.6658-.0347s.4215-.1545.6002-.2903c.1173-.126.2084-.2741.268-.4356.0596-.1616.0864-.3334.0791-.5054 0-.784-.426-1.187-1.568-1.187zm1.792 6.7101-.672-1.2001c-.3511-.6961-.7959-1.3406-1.322-1.9159-.0613-.0732-.1378-.1321-.2242-.1727-.0863-.0406-.1804-.0619-.2758-.0624v3.349h-1.266v-7.751h2.364c1.736 0 2.5199 1.008 2.5199 2.218.0198.2678-.0148.5368-.1021.7907-.0872.2539-.225.4874-.4052.6864s-.399.3593-.643.4712-.5083.1731-.7767.1798c.4836.4446.8894.9671 1.2001 1.5459l1.1429 1.8601z"/><path d="m28.8887 34.9089c-.694 0-1.0749.549-1.0749 1.468h2.0999c0-.919-.4-1.468-1.02-1.468zm-1.087 2.375v.09c0 .784.291 1.613 1.4 1.613.5239-.0031 1.0275-.203 1.411-.56l.4821.75c-.5651.4911-1.2905.7582-2.0391.751-1.6 0-2.61-1.1539-2.61-2.9679-.0624-.8031.1909-1.5989.7061-2.2181.2123-.2509.4791-.4502.7801-.5822.3011-.1321.6284-.1936.9568-.1798.5755-.018 1.1349.1914 1.557.583.2942.3329.5128.7258.6405 1.1513.1278.4256.1617.8738.0995 1.3138v.2569z"/><path d="m33.4927 39.9098c-1.244 0-1.244-1.12-1.244-1.6v-4.828c.0129-.5549-.0246-1.1098-.1121-1.6579l1.2661-.28c.0926.5134.1261 1.0358.1 1.557v4.806c0 .762.0329.8849.1229 1.0189.0484.0557.1134.0945.1853.1107.072.0162.1472.009.2147-.0206l.2001.762c-.2352.0926-.4863.1382-.739.134"/><path d="m35.0167 39.7819v-5.579l1.244-.224v5.7999zm.6159-6.509c-.1065 0-.2118-.0213-.31-.0625-.0982-.0413-.1872-.1017-.2618-.1778-.0745-.0761-.133-.1663-.1722-.2653-.0392-.0991-.0582-.205-.0559-.3114.001-.1609.0498-.3179.1401-.451.0904-.1331.2183-.2364.3675-.2967.1491-.0604.3128-.075.4703-.0421.1575.0328.3016.1118.4142.2268.1126.1149.1884.2608.218.4189.0296.1582.0116.3215-.0519.4694-.0634.1478-.1694.2735-.3044.3611-.135.0875-.293.1329-.4539.1306z"/><path d="m39.7876 39.9278c-1.546 0-2.408-1.0869-2.408-2.9119 0-2.061 1.232-3.047 2.5-3.047.29-.0133.5795.0347.8496.1408.2702.1062.515.2681.7184.4751l-.617.818c-.2486-.2636-.5901-.42-.9521-.436-.1895-.004-.376.0481-.5361.1496-.1601.1016-.2866.2482-.3638.4214-.1882.504-.2684 1.042-.2351 1.579-.0629.5442.072 1.093.38 1.546.0952.1041.2114.1868.3409.2428.1294.056.2692.084.4102.0822.2183-.0121.432-.0679.6283-.1641.1964-.0962.3713-.2308.5147-.3959l.583.75c-.2309.2482-.5125.4436-.8257.5732-.3132.1295-.6505.1902-.9893.1778"/><path d="m42.7186 38.7649c-.0326-.0086-.0662-.0129-.1-.013h-.067v.252h.063c.081 0 .116-.009.141-.031.0238-.0255.0367-.0592.036-.094.0027-.0237-.0023-.0476-.0144-.0681-.0121-.0206-.0306-.0368-.0526-.0459zm.1.77c-.036-.063-.0519-.087-.0869-.154-.091-.168-.1211-.214-.1541-.228-.0089-.0047-.0189-.007-.029-.0069v.3889h-.183v-.933h.347c.0366-.0025.0734.0029.1078.0157s.0657.0328.0918.0586.0464.0568.0596.0911.0189.071.0168.1077c-.0394-.0182-.0843-.021-.1256-.0077s-.0761.0416-.0975.0793c-.0214.0378-.0278.0822-.018.1245.0099.0423.0352.0793.0711.1038.054.067.224.363.224.363zm-.163-1.127c-.1335-.0058-.2657.0285-.3795.0985-.1138.0701-.2041.1727-.2592.2945-.055.1218-.0722.2572-.0495.3889s.0843.2536.1769.35c.0926.0963.2119.1628.3426.1908.1307.0279.2667.0159.3906-.0342.1239-.0502.23-.1363.3045-.2472.0745-.111.1141-.2416.1136-.3753.0023-.0859-.0125-.1714-.0435-.2515-.0311-.0802-.0777-.1533-.1373-.2153-.0595-.0619-.1308-.1114-.2097-.1456-.0788-.0342-.1636-.0524-.2495-.0536zm0 1.5c-.1647.0008-.326-.0473-.4634-.1383-.1373-.0909-.2445-.2206-.3081-.3725-.0636-.152-.0807-.3193-.049-.481.0316-.1617.1106-.3104.2268-.4271.1162-.1168.2644-.1964.4259-.2288s.329-.0162.4813.0466c.1523.0629.2824.1695.374.3064.0916.137.1405.298.1405.4627.0005.1091-.0205.2172-.0619.3181-.0413.1009-.1022.1927-.1792.27-.0769.0773-.1684.1386-.2691.1804-.1008.0419-.2087.0635-.3178.0635z"/></g></svg>