<svg fill="none" height="64" viewBox="0 0 64 64" width="64" xmlns="http://www.w3.org/2000/svg"><path d="m33.9131 21.536h-.0291v8.969h.0291c1.8664 0 3.6564.7414 4.9762 2.0612s2.0613 3.1099 2.0613 4.9763c0 1.8665-.7415 3.6565-2.0613 4.9762-1.3198 1.3198-3.1098 2.0613-4.9762 2.0613h-.0291v8.966h.0291c4.2442.0006 8.3149-1.6848 11.3165-4.6855 3.0016-3.0006 4.6883-7.0708 4.689-11.315.0006-4.2443-1.6848-8.3149-4.6854-11.3165-3.0007-3.0017-7.0708-4.6884-11.3151-4.689h-.005z" fill="#000"/><path d="m30 42.006h.0291v-8.959h-.0291c-1.8665 0-3.6565-.7415-4.9763-2.0613-1.3198-1.3197-2.0612-3.1097-2.0612-4.9762 0-1.8664.7414-3.6565 2.0612-4.9763s3.1098-2.0613 4.9763-2.0613h.0291v-8.9709h-.0291c-4.2443 0-8.3147 1.686-11.3158 4.6871-3.0011 3.0012-4.6873 7.0717-4.6873 11.316 0 4.2442 1.6862 8.3146 4.6873 11.3157 3.0011 3.0012 7.0715 4.6872 11.3158 4.6872z" fill="#b9bdbb"/></svg>