<svg fill="none" height="64" viewBox="0 0 64 64" width="64" xmlns="http://www.w3.org/2000/svg"><path d="m18.4631 26.459c-.0157.6192.0604 1.2372.2259 1.834.1832.5101.4034 1.0061.659 1.484.0921.1412.1424.3055.1451.474-.012.1269-.0537.2492-.1216.3571-.0679.1078-.1602.1982-.2694.2639l-1.3.865c-.1566.1132-.343.178-.536.186-.2357-.0151-.4573-.1178-.6211-.288-.2776-.2986-.526-.6231-.742-.969-.206-.35-.4119-.742-.6389-1.216-.7267.9045-1.6504 1.6309-2.7007 2.1238s-2.1993.7392-3.35934.7202c-.75113.0396-1.50258-.0712-2.21027-.3261-.70769-.2548-1.35731-.6485-1.91071-1.1579-1.03799-1.1353-1.58385-2.6356-1.51806-4.1725.06578-1.5369.73781-2.985 1.86902-4.0275 1.43128-1.1332 3.22704-1.705 5.05006-1.608.7312.006 1.4612.0612 2.185.165.763.1 1.546.268 2.371.452v-1.5c.1192-1.1842-.2285-2.3682-.969-3.3-.9588-.7316-2.1602-1.0706-3.36-.948-.75006.0002-1.49739.0901-2.22604.2679-.75756.1806-1.50143.4146-2.22601.7001-.23404.1055-.47492.1949-.72101.268-.10668.0355-.21765.0564-.32996.062-.288 0-.43304-.2061-.43304-.6391v-1.0099c-.02212-.2494.02791-.5001.14404-.722.15574-.1873.35338-.3353.57697-.432.8278-.4088 1.70036-.7198 2.60003-.927 1.05118-.2693 2.13292-.4007 3.21792-.391 2.453 0 4.2461.5569 5.4001 1.6689.6122.6861 1.0794 1.489 1.3734 2.3603.2941.8713.4089 1.793.3376 2.7098v6.678zm-8.3681 3.1329c.7231-.0078 1.4401-.1331 2.123-.3709.7566-.2613 1.4316-.716 1.958-1.319.332-.3797.5716-.8312.7001-1.319.1418-.5869.211-1.1892.2059-1.7931v-.8659c-.6263-.1521-1.2605-.2689-1.8999-.35-.6425-.0816-1.2894-.123-1.937-.124-1.0879-.0861-2.17233.2048-3.07101.824-.51449.3755-.89338.9078-1.07978 1.5169-.18639.6091-.17024 1.2622.04596 1.8613.21621.5992.62082 1.1121 1.1532 1.4618.53239.3498 1.16381.5175 1.79953.4779zm16.5511 2.2261c-.2777.0289-.5564-.0444-.784-.206-.215-.2218-.3645-.4986-.432-.8l-4.844-15.9331c-.0937-.2665-.1558-.543-.185-.8239-.0088-.0587-.0059-.1184.0084-.1759.0143-.0576.0399-.1118.0752-.1595.0353-.0476.0796-.0878.1305-.1183.0508-.0304.1072-.0506.1659-.0593.0378-.0047.0761-.0047.1139 0h2.0201c.283-.0333.5682.0401.7999.206.2074.2243.3498.5009.412.8l3.463 13.644 3.2151-13.644c.0434-.3012.1806-.5811.3919-.8.2476-.1512.5355-.223.825-.206h1.649c.2904-.0299.582.0429.8241.206.2149.2164.3526.4975.3919.8l3.2561 13.809 3.566-13.809c.0662-.2977.2081-.5733.4119-.8.2387-.1505.5184-.2225.8-.206h1.919c.0597-.008.1204-.0042.1786.0113.0582.0154.1128.0422.1607.0788.0478.0366.088.0823.1181.1344.0302.0521.0498.1097.0577.1694.0056.0405.0056.0816 0 .1221-.0044.111-.0181.2213-.0411.33-.032.176-.0802.3487-.1439.516l-4.9681 15.9329c-.0626.3035-.2132.5817-.4329.8001-.2328.1495-.5069.2216-.7831.206h-1.7639c-.2904.0305-.5822-.0425-.824-.206-.2152-.2259-.3526-.5146-.392-.824l-3.195-13.2941-3.1741 13.2741c-.0479.3069-.184.5932-.3919.824-.243.1609-.5339.2336-.8241.206zm26.4859.557c-1.0689.0012-2.1341-.1234-3.1739-.3711-.8237-.1671-1.6212-.4442-2.371-.8239-.2654-.1251-.4877-.3259-.639-.5771-.0803-.1818-.1225-.3781-.124-.5769v-1.052c0-.433.165-.639.4739-.639.1262.0007.2515.0216.3711.062.124.041.3089.1239.5149.2059.7279.3203 1.4879.5621 2.2671.7211.8073.1641 1.6291.2468 2.453.247 1.0468.0628 2.0899-.1719 3.0089-.6771.336-.2023.6124-.4901.8009-.8341.1885-.3439.2824-.7318.2721-1.1239.0072-.2654-.0383-.5295-.1339-.7772s-.2394-.474-.4231-.6658c-.6027-.5122-1.315-.8793-2.0819-1.073l-2.9891-.927c-1.2953-.3312-2.4513-1.0668-3.2999-2.0999-.6636-.8556-1.0261-1.9063-1.031-2.989-.016-.7981.1759-1.5866.557-2.288.3683-.6628.8743-1.2392 1.484-1.6901.6428-.4866 1.37-.8504 2.145-1.073.8449-.2431 1.7208-.361 2.6-.3499.4616-.0033.9229.0242 1.3809.082.474.062.9071.1449 1.3401.2259.412.1.8.2061 1.175.3301.3005.093.5904.2173.865.371.2435.122.456.2982.621.515.133.1998.1979.4373.185.677v.969c0 .433-.165.6589-.474.6589-.2749-.0309-.5411-.1147-.784-.2469-1.2461-.5492-2.5964-.8222-3.958-.8001-.9488-.0557-1.8952.1436-2.7411.5771-.3146.1872-.5714.4575-.7424.7812-.1709.3237-.2493.6883-.2265 1.0537-.0056.2736.0465.5454.153.7975s.2649.4788.4649.6655c.6688.5312 1.4409.9175 2.2671 1.1341l2.927.928c1.242.3164 2.3571 1.0061 3.195 1.976.6291.8293.9628 1.8452.948 2.886.0105.8279-.1731 1.6468-.536 2.391-.3642.7052-.8757 1.3239-1.5 1.814-.6804.5299-1.4576.9223-2.2881 1.155-.9546.2949-1.9488.442-2.948.436z" fill="#2c2d2c"/><g clip-rule="evenodd" fill="#9ea19f" fill-rule="evenodd"><path d="m57.029 42.3919c-6.781 5.008-16.633 7.667-25.1 7.667-11.3155.0593-22.24543-4.1081-30.64901-11.6859-.639001-.577-.06199-1.3601.70001-.9071 8.1407 4.6955 17.258 7.4424 26.6376 8.0253 9.3797.5829 18.767-1.0138 27.4264-4.6652 1.129-.513 2.099.7419.985 1.5659z"/><path d="m59.85 39.177c-.865-1.113-5.73-.5359-7.936-.2679-.659.082-.763-.495-.165-.928 3.875-2.721 10.244-1.937 10.986-1.031.742.928-.206 7.2999-3.834 10.3469-.557.474-1.093.226-.847-.391.829-2.041 2.661-6.638 1.796-7.729z"/></g></svg>