<svg fill="none" height="64" viewBox="0 0 64 64" width="64" xmlns="http://www.w3.org/2000/svg"><path d="m29.886 49.856c6.633-1.172 12.1119-2.1411 12.1749-2.1551l.1131-.0239-6.263-7.449c-3.444-4.1-6.2621-7.465-6.2621-7.485 0-.036 6.467-17.844 6.5-17.908.012-.021 4.4131 7.5769 10.6701 18.4179 5.856 10.149 10.6839 18.5171 10.7259 18.6001l.0821.143h-39.8071zm-23.886-2.271c0-.011 2.94998-5.1341 6.558-11.3841l6.558-11.365 7.6419-6.4129c4.2-3.527 7.653-6.418 7.667-6.423-.0276.1078-.0689.2116-.1229.309-.081.176-3.815 8.186-8.3 17.8l-8.1501 17.48-5.9279.0069c-3.25705.004-5.924-.0009-5.924-.0119z" fill="#626463"/></svg>