<svg fill="none" height="64" viewBox="0 0 64 64" width="64" xmlns="http://www.w3.org/2000/svg"><g fill="#424443"><path d="m53.29 49.46-1.2589-13.136-3.4591 7.254-4.4829-2.989-3.776 6.292-4.405-1.3371-3.8531 5.9001.156 1.87z"/><path clip-rule="evenodd" d="m6.00098 10.1911 5.50502 44.521 5.271-.7961c-.6073-.8494-1.3506-1.5928-2.2-2.2-1.578-1.262-1.022-3.463-.078-4.8.4279-.8277 1.5187-1.7481 2.72-2.7618 2.1092-1.7797 4.5591-3.8469 4.359-6.2042-.0087-1.5804-.5649-3.1088-1.574-4.325-.0458.313-.0458.631 0 .944.045.313-.55-.63-.787-1.574-.2728-.285-.5103-.6019-.707-.944-.0976.3588-.1506.7283-.1579 1.1-.2221-.5842-.3804-1.1907-.4721-1.8089-.1663.3462-.2727.7181-.3149 1.0999-.2838-.7809-.4169-1.6086-.3921-2.4391-.722-1.7376-.9928-3.6296-.787-5.5.8947.4905 1.9315.6567 2.9347.4705s1.9112-.7135 2.5703-1.4924c.392-.55.629-2.124-.158-5.192-.6584-2.052-1.4738-4.0502-2.4389-5.977l-.078.078c.4126 1.2214.7793 2.4546 1.0999 3.7.0202.0883.04.1748.0593.2595.5842 2.5571.7946 3.4779.4907 4.6965-.236 1.106-.865 1.813-2.517 2.6-1.574.787-3.776-1.18-3.854-1.259-1.3672-1.0988-2.3798-2.5764-2.911-4.2479-.1094-.7696.2387-1.3089.5928-1.8575.1544-.2392.3099-.4801.4292-.7426-.4047.1269-.7988.285-1.179.473.4962-.532 1.0499-1.0072 1.651-1.417.3587-.2085.7004-.445 1.022-.707h-1.022c.6252-.3533 1.2842-.6431 1.967-.865h-1.416l3.776-1.652c.4734-.2615 1.0232-.3497 1.5546-.2493s1.0111.3831 1.3564.7993c.8324 1.1981 2.105 2.0182 3.54 2.281.932-.4815 1.9065-.8762 2.911-1.179.5714-.7562 1.3712-1.3082 2.281-1.574-.3943.3534-.669.8206-.786 1.337.4798-.3664.9785-.7075 1.494-1.0219-.2215.291-.4065.608-.551.9439l.078.078c.865-.472 1.809-.865 1.809-.865-.2329.2432-.4437.5066-.63.787l2.359.078c1.925.0516 2.8521-1.3066 3.5774-2.3691.3715-.54433.6901-1.01103 1.0627-1.17091.0451-.01506.0895-.02995.1331-.0446 1.3247-.44477 1.987-.66714 4.2718 1.61861 2.045 2.044 3.618 5.5841 2.831 6.3711-.63.63-1.967-.2351-3.461-2.0441-.8275-1.0299-1.3942-2.2443-1.652-3.5401-.112-.7283-.4732-1.3952-1.022-1.88691.3161.69361.5025 1.43931.5501 2.20011-.0331 1.321.2935 2.6262.9449 3.776-.0357.0728-.0721.2642-.1086.4564-.0422.2221-.0846.4452-.1264.4875-.6994-.865-1.9973-1.5439-2.8431-1.9864-.3113-.1628-.5613-.2936-.6977-.3898-.01-.0082-.0199-.0162-.0298-.0242l-.0474-.0385c.0188.0189.0448.0398.0772.0627 1.2942 1.0504 4.0368 3.2861 5.1148 5.4421.5825 1.2107.6283 2.344.6622 3.1824.0256.6326.0444 1.0973.2818 1.3007 1.0535 1.2058 1.9291 2.5561 2.6001 4.01.296 1.0129.3719 2.0774.2227 3.1221-.1492 1.0446-.52 2.0453-1.0877 2.9349l-2.5171.3931c-.3287-.0569-.647-.1632-.944-.3151.2206-.4024.4047-.8238.5501-1.259l-.1571-.235c-.8791 1.1459-1.9749 2.1079-3.225 2.831-.6363.3354-1.3346.5363-2.0518.5905-.7171.0542-1.4377-.0396-2.1172-.2755-2.3874-.7961-4.6218-1.9931-6.607-3.5399-.0029.1862.0234.3718.078.5499 1.274 1.3406 2.6996 2.5286 4.248 3.54l-3.618.393 1.732 13.3711c-.5826.073-1.1608.1778-1.732.3139-.5233-2.161-1.8451-4.0438-3.7-5.27-1.5237-.8778-3.3284-1.1313-5.035-.707l-.078.1581c1.492-.1675 2.9955.1942 4.248 1.0219 1.494.946 2.674 3.385 3.146 4.8.55 1.887.945 3.853-.55 5.977-1.102 1.494-4.247 2.3591-6.764.5501.2802.5452.6807 1.0197 1.1711 1.3877.4904.3679 1.058.6196 1.6599.7362.8433.1646 1.7128.137 2.5438-.081.8311-.218 1.6024-.6206 2.2563-1.178 1.022-1.022 1.574-3.226 1.417-5.585l1.651-.235.5499 4.169 26.822-3.226-2.359-21.395-1.337.2351-2.6769-26.97306zm31.85702 27.2939c.5979-.3836 1.1295-.8619 1.574-1.416l13.9191-2.439 1.3369 17.069-23.676 4.248-2.044-17.0691 3.3831-.4719c.5097.2035 1.0364.3613 1.574.4719.6461.2158 1.3306.2925 2.0085.2248.6779-.0678 1.3337-.2783 1.9244-.6177z" fill-rule="evenodd"/><path d="m37.88 29.125c-.472.312-.233 1.1.156 1.4h-.0179c.8876.8058 2.0275 1.2783 3.2249 1.337.63-.078 1.26-1.101 1.652-2.044.315-.629.315-1.337-.156-1.558-.6207-.0806-1.2493-.0806-1.87 0-1.0408.1031-2.054.3963-2.989.865z"/><path d="m38.3771 20.3471c-.1211.303-.1211.6409 0 .9439l-.0301.017v.078l.078.156c.2318.6466.6754 1.1957 1.259 1.558.0778 0 .1567-.0194.2357-.0389.0793-.0195.1587-.0391.2373-.0391.3729-.0114.7451.0417 1.1.157v-.472c-.0117-.1215-.0161-.2579-.0208-.4045-.0256-.805-.0612-1.9187-1.3791-2.5845-.2715-.1377-.5764-.1963-.8796-.1687-.3031.0276-.5923.1402-.8344.3247h.156c.3132.1247.2254.2513.1377.3778-.022.0318-.0441.0635-.0597.0953z"/><path d="m31.1666 22.1653c-.1833-.2022-.281-.3099.0995-.6903.393-.315-1.807-.7861-3.54.3139-.2902.2105-.5277.4853-.6939.8029s-.2566.6694-.2642 1.0278c-.0075.3584.0679.7137.2206 1.038s.3784.6089.6595.8314c.1174.0591.2237.1383.3139.234.2108-.1044.492-.2102.7727-.3158.1388-.0522.2774-.1043.4074-.1562.6429-.2054 1.2999-.3635 1.9659-.4731.1859-.2292.3234-.4936.4046-.7773.0811-.2837.1041-.5809.0675-.8737-.0356-.545-.2561-.7881-.4135-.9616z"/></g></svg>