<svg fill="none" height="64" viewBox="0 0 64 64" width="64" xmlns="http://www.w3.org/2000/svg"><path d="m38.901 22.1901h1.677l4.781-4.781.235-2.032c-2.739-2.417-6.049-4.096-9.6172-4.8782s-7.2769-.6419-10.7759.4076c-3.4989 1.0495-6.6726 2.9736-9.2212 5.5906-2.5487 2.617-4.3881 5.8405-5.3447 9.366.5326-.2176 1.1223-.2527 1.677-.1l9.561-1.578s.485-.805.741-.756c2.0487-2.2502 4.88-3.6322 7.9143-3.863 3.0343-.2309 6.0421.7067 8.4077 2.6209z" fill="#6e706f"/><path d="m45.676 15.396c3.1375 2.782 5.394 6.42 6.492 10.4669l.0011-.0059c2.7654 1.8678 4.8559 4.5765 5.962 7.7249 1.1061 3.1485 1.1691 6.5694.1796 9.7564-.9896 3.187-2.979 5.9708-5.6739 7.9391-2.6948 1.9683-5.9518 3.0165-9.2888 2.9896h-11.945l-.0728-.073h-11.8892c-3.38.0144-6.671-1.083-9.366-3.123l.419-1.677 4.8129-4.781 1.677-.522c.7717.3535 1.6103.5369 2.4591.538h11.944v.0903l.016-.0163h11.945c1.5706-.0203 3.0701-.6585 4.1735-1.7763 1.1035-1.1179 1.7223-2.6254 1.7223-4.1962s-.6188-3.0783-1.7223-4.1962c-1.1034-1.1178-2.6029-1.756-4.1735-1.7763v-1.191c.0339-1.8057-.3426-3.5956-1.1009-5.2348-.7584-1.6392-1.8789-3.0849-3.2771-4.2282z" fill="#767977"/><path d="m19.441 23.18c-3.2362.0189-6.3855 1.0482-9.0082 2.9441-2.62274 1.8959-4.58775 4.5637-5.62041 7.6308-1.03266 3.067-1.08142 6.38-.13952 9.4761.94189 3.0962 2.8274 5.8207 5.39313 7.793l6.926-6.926c-.8807-.3975-1.6519-1.0028-2.2472-1.7639-.5954-.7612-.9971-1.6554-1.1708-2.606s-.1141-1.9291.1736-2.8515c.2878-.9225.795-1.7615 1.4783-2.4447.6833-.6833 1.5222-1.1906 2.4446-1.4783.9225-.2877 1.901-.3473 2.8516-.1736s1.8448.5754 2.606 1.1708c.7611.5953 1.3664 1.3664 1.7639 2.2472l6.926-6.929c-1.453-1.9015-3.3265-3.4408-5.4738-4.4972s-4.5101-1.6012-6.9032-1.5918z" fill="#b1b4b2"/></svg>