<svg fill="none" height="64" viewBox="0 0 64 64" width="64" xmlns="http://www.w3.org/2000/svg"><path d="m14.7524 18.9528c-.6921-.4294-1.192-1.1091-1.3958-1.8977-.2037-.7886-.0957-1.6254.3018-2.3363.1856-.3505.441-.6593.7506-.9071.3096-.2479.6668-.4296 1.0495-.5339.382-.1028.7806-.128 1.1726-.0743.3919.0538.7691.1854 1.1093.3872l5.7701 3.46v-6.9499c-.0152-.3906.0466-.78027.1821-1.1469.1354-.36662.3417-.70298.6072-.98986.2654-.28689.5848-.51878.9398-.68225.355-.16348.7388-.25534 1.1294-.27051.3905-.01517.7802.04668 1.1468.18213.3667.13544.703.34174.9899.60717.2869.26544.5186.58481.6821.93982.1635.35502.2555.73885.2707 1.1294v.231 12.2109c.0019.4238-.0822.8436-.2472 1.234-.1651.3904-.4076.7431-.7129 1.037-.4565.4717-1.0592.775-1.71.8603-.6508.0854-1.3114-.0521-1.874-.3902l-10.162-6.093zm24.417 6.0829c-.6625.3981-1.4559.517-2.2059.3304-.7501-.1865-1.3954-.6633-1.7941-1.3254-.026-.044-.0519-.0889-.0759-.1339-.3126-.5632-.4472-1.2078-.386-1.849v-11.9661c-.0307-.78873.2532-1.5573.7893-2.1367.5361-.57939 1.2803-.92212 2.0691-.95276.7887-.03063 1.5574.25336 2.1368.78943.5794.53608.9221 1.28034.9528 2.06909v.23094 6.9051l5.6999-3.4141c.037-.022.0741-.0429.1131-.0619.685-.3668 1.4876-.4465 2.2314-.2214.7438.225 1.3677.7363 1.7345 1.4213.3967.7111.5045 1.5477.3008 2.3361s-.7032 1.4681-1.3948 1.898l-10.162 6.093zm-9.0349 6.998c.0094.1963.0839.3839.2119.533l1.185 1.234c.1396.1326.3217.2113.514.2221h.045c.192-.0107.3739-.0894.5131-.2221l1.1859-1.234c.1286-.1488.2036-.3365.213-.533v-.047c-.0091-.1962-.0842-.3836-.213-.5319l-1.1859-1.234c-.14-.1311-.3216-.2089-.5131-.22h-.045c-.1916.0118-.3731.0895-.514.22l-1.185 1.234c-.129.1477-.2036.335-.2119.531zm-3.6001-.5479c.0136-.2675.1157-.5229.29-.7261l4.031-4.193c.1906-.1795.4385-.2857.7-.2999h1.025c.2614.0142.5095.1204.7001.2999l4.0299 4.1851c.1753.2027.2778.4582.291.7259v1.066c-.013.2681-.1155.5241-.291.7271l-4.0299 4.184c-.1905.1797-.4386.2859-.7001.2999h-1.021c-.2615-.014-.5095-.1202-.6999-.2999l-4.0311-4.184c-.1752-.2031-.2773-.4591-.29-.7271v-1.066zm-17.03799-2.908c-.69212-.4294-1.19199-1.1091-1.39575-1.8977s-.09572-1.6254.30176-2.3363c.18555-.3505.44101-.6593.75061-.9071.3096-.2479.66682-.4296 1.04947-.5339.382-.1027.7807-.128 1.1726-.0743.3919.0538.7691.1855 1.1094.3872l10.1619 6.0931c.4555.2946.8298.6986 1.089 1.1751s.3951 1.0104.395 1.5529c.0035.5431-.1308 1.0781-.3903 1.5552-.2596.477-.6358.8805-1.0937 1.1727l-10.1619 6.093c-.33.1969-.6955.3268-1.0756.3823-.3802.0556-.7676.0357-1.14-.0584-.3725-.0942-.72272-.2607-1.03079-.4903-.30806-.2295-.5679-.5175-.76464-.8475-.024-.0393-.04666-.0793-.068-.12-.39673-.7115-.50463-1.5484-.30115-2.3372.20349-.7888.70265-1.4691 1.39405-1.8999l5.75303-3.447-5.75303-3.4499zm30.46999 3.4819c-.013-.5472.118-1.0882.3799-1.5689.2618-.4807.6454-.8842 1.1122-1.1701l10.155-6.093c.6623-.3985 1.4557-.5176 2.2058-.3312s1.3955.6631 1.7942 1.3252c.027.045.0519.09.0769.135.397.7111.5049 1.5478.3011 2.3362-.2037.7885-.7034 1.4681-1.3951 1.8978l-5.7529 3.45 5.7459 3.448c.6927.4289 1.1932 1.1086 1.397 1.8975.2038.7888.0953 1.6257-.303 2.3365-.1805.339-.426.6391-.7225.8832s-.6383.4273-1.0056.5393c-.3674.112-.7533.1505-1.1355.1134-.3823-.0372-.7535-.1492-1.0924-.3298-.042-.022-.084-.0461-.125-.0711l-10.154-6.093c-.4633-.2839-.8446-.6837-1.1063-1.16-.2616-.4763-.3947-1.0126-.3857-1.5559zm-13.01 6.589c.7096.1309 1.3501.5088 1.8077 1.0667s.7028 1.2598.6923 1.9813v12.2211c.0232.3945-.0322.7896-.1634 1.1624-.1311.3729-.3352.7159-.6003 1.009s-.5859.5304-.9437.6982-.7455.2626-1.1404.2789c-.3949.0164-.789-.0462-1.1594-.1838-.3705-.1376-.7099-.3476-.9983-.6178s-.5201-.5952-.6815-.9559c-.1615-.3607-.2495-.75-.2589-1.1451 0-.082 0-.1639 0-.2459v-6.9001l-5.7691 3.46c-.33.1969-.6956.3269-1.0758.3825-.3802.0555-.7677.0356-1.1403-.0585-.3725-.0942-.7228-.2608-1.031-.4904-.3081-.2295-.568-.5175-.7649-.8475-.023-.039-.046-.078-.067-.119-.3969-.7111-.5047-1.5478-.301-2.3362.2037-.7885.7033-1.4681 1.395-1.8978l10.162-6.0931c.6115-.3687 1.3379-.498 2.0391-.363zm22.3861 6.4711c.6919.4296 1.1916 1.1092 1.3954 1.8977.2037.7885.0958 1.6253-.3014 2.3363-.1856.3505-.4412.6591-.7508.907-.3096.2478-.6667.4296-1.0493.5339-.382.103-.7807.1284-1.1727.0746s-.7691-.1855-1.1093-.3876l-5.692-3.4139v6.8459c.0162.3906-.0448.7805-.1793 1.1475s-.34.7039-.6047.9915c-.2648.2875-.5836.5203-.9383.6847-.3546.1643-.7381.2572-1.1286.2734-.3906.0161-.7805-.0448-1.1475-.1793-.367-.1346-.704-.3402-.9916-.6049-.2875-.2647-.5201-.5835-.6845-.9381s-.2573-.7382-.2735-1.1288c0-.082 0-.164 0-.246v-11.9119c-.0609-.6422.0736-1.2878.386-1.8521.366-.684.9887-1.1945 1.7311-1.4195.7424-.2251 1.5437-.1461 2.2279.2196.041.022.0821.0449.1221.0689l10.162 6.0921" fill="#898c8a"/></svg>