<svg width="423" height="703" viewBox="0 0 423 703" fill="none" xmlns="http://www.w3.org/2000/svg">
<path d="M343.721 483.063C338.979 464.364 311.827 403.254 224.925 403.254C192.085 403.254 158.869 408.111 129.668 422.645L129.781 423.039C129.562 423.07 129.343 423.039 129.124 423.039L129.086 422.845V423.045C123.054 423.47 117.436 420.01 112.068 417.175C93.4594 407.411 71.928 404.222 51.1605 408.153L67.6714 419.621C67.6714 419.621 50.3087 446.479 50.5843 484.932C48.5047 489.328 51.837 466.331 51.837 466.331C47.7254 473.697 43.2199 480.851 38.3389 487.762C37.93 486.858 37.2403 486.1 36.3659 485.594L40.3746 483.943C39.0342 483.451 35.4765 482.389 34.0484 482.352C33.3335 482.303 32.6171 482.425 31.9619 482.706C31.3067 482.988 30.7328 483.421 30.2902 483.967C29.4634 485.133 29.5824 486.614 30.0522 487.998L29.2129 486.827C27.8912 487.312 27.196 488.794 27.2649 490.172C25.6677 490.469 24.8659 492.4 25.2543 493.936C25.6426 495.472 26.8515 496.692 28.0165 497.815C28.4242 498.257 28.9046 498.63 29.4384 498.92C29.67 499.022 29.9177 499.086 30.1712 499.108C24.3586 507 18.3894 514.85 12.5141 523.289C18.5585 523.38 24.8785 528.146 27.7535 533.306L31.3237 523.392H31.3926L31.3362 523.337L32.8646 519.088C33.0542 519.651 33.3106 520.191 33.6287 520.696C32.0419 524.068 30.4593 527.455 28.8809 530.859C27.2899 534.283 25.7032 537.736 24.1206 541.216C22.4795 545.666 31.7622 552.951 44.8468 557.493C57.9315 562.034 69.9012 562.106 71.5235 557.656C71.7356 557.043 71.766 556.385 71.6112 555.756L72.1624 555.926C72.6008 547.354 73.1813 538.79 73.9037 530.234C78.5417 529.939 83.1564 529.365 87.7212 528.516C102.679 525.723 117.003 520.429 131.272 515.251C140.536 511.888 153.552 507.413 165.653 503.309L198.061 492.035L227.656 503.977C243.804 514.006 280.765 536.469 296.913 546.474C296.913 546.474 296.637 542.607 295.103 532.389C298.235 548.501 286.584 540.184 286.584 540.184C284.705 543.948 286.089 579.269 284.492 582.183C284.154 582.79 279.018 593.269 279.005 593.967C279.005 594.003 279.005 594.04 279.005 594.082L278.911 593.973L277.54 598.587C278.479 597.603 279.419 596.614 280.364 595.63L280.271 595.527C281.06 595.563 281.705 594.847 282.15 594.191L285.219 589.79C284.417 592.218 283.613 594.659 282.807 597.112C282.529 597.83 282.5 598.616 282.726 599.352L282.544 599.285C282.168 600.56 281.788 601.837 281.404 603.116C282.621 602.414 283.55 601.327 284.035 600.038C284.676 599.856 285.238 599.474 285.632 598.951C287.175 597.133 288.344 595.045 289.077 592.801C288.252 594.916 287.744 597.134 287.568 599.388C287.474 600.457 287.618 601.738 288.294 602.478C287.877 604.065 287.474 605.653 287.085 607.244C288.213 605.852 289.338 604.463 290.461 603.079L290.186 602.958C290.745 602.787 291.231 602.444 291.57 601.98C291.608 601.932 291.614 601.877 291.645 601.829C291.564 602.09 291.476 602.333 291.395 602.6C291.196 603.138 291.113 603.711 291.15 604.281C291.188 604.457 291.265 604.623 291.376 604.767L291.125 604.7L290.336 608.634C291.064 608.334 291.713 607.88 292.237 607.306C292.76 606.731 293.144 606.05 293.361 605.313H293.324C293.519 605.226 293.702 605.116 293.869 604.986C296.027 603.362 297.816 601.324 299.124 599L299.174 599.212C298.41 601.958 298.101 604.805 298.26 607.645C298.237 608.28 298.393 608.91 298.711 609.466V609.466C298.748 610.838 298.792 612.799 298.83 614.171C299.663 612.884 300.621 611.02 301.454 609.733C302.707 609.181 304.586 604.573 305.907 602.065C305.433 604.183 305.543 606.383 306.227 608.446C306.386 609.094 306.707 609.694 307.16 610.194C308.413 611.348 310.555 610.231 310.874 609.436C311.146 608.621 311.257 607.764 311.2 606.91C311.2 604.98 311.106 602.26 311.106 602.26C308.845 589.049 311.269 575.748 312.985 562.459C317.32 529.178 317.439 504.936 313.336 471.625C313.336 471.625 327.817 481.339 336.017 508.421C345.775 540.621 347.761 599.995 352.145 599.722C357.695 599.37 355.866 593.997 352.452 541.441C351.212 522.226 348.469 501.761 343.721 483.063ZM39.2346 505.288L38.7523 504.936C38.4958 504.871 38.2338 504.829 37.9694 504.809L38.2512 504.032C38.5472 504.473 38.8759 504.893 39.2346 505.288V505.288ZM34.5808 493.043L34.0734 493.748C34.0279 493.62 33.9601 493.501 33.873 493.395L33.2466 492.503C33.6515 492.764 34.1044 492.948 34.5808 493.043V493.043ZM31.8123 495.921C32.0369 495.948 32.2641 495.948 32.4887 495.921L31.9688 496.625C31.9125 496.401 31.8498 496.182 31.7935 495.921H31.8123ZM290.53 516.404C291.558 519.027 292.453 521.735 293.242 524.515C292.146 520.909 290.95 517.6 290.511 516.404H290.53Z" fill="white"/>
<path d="M13.3618 523.557C13.2305 523.51 13.0903 523.492 12.951 523.503C12.8117 523.514 12.6764 523.554 12.5545 523.62C12.4326 523.687 12.3269 523.778 12.2446 523.887C12.1623 523.997 12.1054 524.122 12.0778 524.255C11.7333 526.076 12.6603 528.068 13.7752 529.664C16.3809 533.367 19.9835 536.306 24.1916 538.164L27.5614 531.783L26.1959 530.466C24.8105 529.103 23.3058 527.86 21.6987 526.75C19.5715 525.36 17.1907 524.375 14.6834 523.848L13.3618 523.557Z" fill="white"/>
<path d="M13.6109 521.563C13.1604 521.425 12.6728 521.453 12.2424 521.642C11.812 521.832 11.4694 522.169 11.2808 522.589C11.1287 522.989 11.0565 523.414 11.0679 523.84C11.0693 524.247 11.107 524.653 11.1806 525.054C11.5145 526.569 12.1857 527.994 13.1474 529.231C14.8796 531.636 17.0234 533.737 19.4862 535.442C20.815 536.362 22.2331 537.155 23.7204 537.81C23.939 537.93 24.1975 537.962 24.4407 537.901C24.6765 537.839 24.8785 537.691 25.0044 537.488L26.1444 535.32L27.9483 531.896L28.3679 531.101C28.4688 530.927 28.5093 530.726 28.4834 530.529C28.4574 530.331 28.3665 530.146 28.2239 530.002C26.896 528.727 25.5869 527.434 24.1463 526.287C22.9826 525.334 21.7236 524.496 20.3881 523.785C19.0506 523.103 17.6443 522.556 16.1915 522.152C15.3334 521.916 14.4628 521.733 13.5984 521.545C13.361 521.489 13.1104 521.524 12.8996 521.644C12.6888 521.764 12.5344 521.958 12.4692 522.187C12.404 522.415 12.4331 522.659 12.5504 522.867C12.6676 523.074 12.8638 523.23 13.0973 523.3C13.7612 523.445 14.4314 523.585 15.0891 523.755C15.7924 523.924 16.4864 524.126 17.1686 524.362L17.6572 524.538L17.8827 524.629L18.008 524.678C18.3337 524.818 18.6343 524.963 18.9788 525.115C19.6264 525.421 20.254 525.766 20.8579 526.147C21.1648 526.335 21.4842 526.542 21.7536 526.754L22.1795 527.058C22.1795 527.058 22.3236 527.167 22.2233 527.058C22.1231 526.948 22.2233 527.058 22.2609 527.094L22.4802 527.258C23.5529 528.1 24.5774 528.998 25.5493 529.947L26.9085 531.247L26.7582 530.148L25.6182 532.309L23.8143 535.739L23.3947 536.529L24.6787 536.207C23.4429 535.662 22.2552 535.02 21.1272 534.288C20.8454 534.106 20.5635 533.918 20.2942 533.724C20.1564 533.633 20.0186 533.529 19.887 533.432C19.7555 533.335 19.6114 533.256 19.8244 533.39C19.7439 533.338 19.6684 533.279 19.5989 533.214C19.0665 532.807 18.5529 532.376 18.0581 531.927C17.5632 531.477 17.0872 531.01 16.63 530.524C16.4045 530.281 16.179 530.033 15.966 529.778C15.8595 529.662 15.7593 529.541 15.6591 529.425L15.5025 529.231C15.4773 529.197 15.4501 529.165 15.4211 529.134C15.3146 529 15.5025 529.237 15.4211 529.134C15.0077 528.606 14.6005 528.059 14.2373 527.495C14.0494 527.197 13.8677 526.888 13.7049 526.572C13.6234 526.414 13.5483 526.256 13.4731 526.092C13.4633 526.061 13.4507 526.031 13.4355 526.001C13.5232 526.111 13.4794 526.117 13.4355 526.038C13.3917 525.959 13.3604 525.856 13.3291 525.765C13.19 525.401 13.0811 525.028 13.0033 524.648C12.9721 524.557 12.9552 524.463 12.9532 524.368C12.9532 524.484 12.9532 524.52 12.9532 524.423V524.265C12.9532 524.077 12.9532 523.895 12.9532 523.707C12.9472 523.614 12.9472 523.52 12.9532 523.427C12.9507 523.387 12.9507 523.346 12.9532 523.306C12.9532 523.306 12.9157 523.53 12.9532 523.306C12.9497 523.272 12.9497 523.237 12.9532 523.203C12.9971 523.039 12.9532 523.203 12.9219 523.251C12.9426 523.225 12.9595 523.197 12.972 523.166C13.0409 523.039 12.853 523.275 12.9344 523.221L13.0033 523.154C13.0722 523.081 12.8154 523.257 12.9532 523.197L13.0409 523.154L12.9094 523.209H12.9845C12.9845 523.209 13.1724 523.172 12.9845 523.209C12.7966 523.245 12.9845 523.209 12.9845 523.209C12.9845 523.209 12.9845 523.269 12.8906 523.209C12.9387 523.229 12.9892 523.243 13.0409 523.251C13.2776 523.314 13.5302 523.286 13.7461 523.173C13.962 523.06 14.1245 522.871 14.1997 522.644C14.2503 522.426 14.2188 522.197 14.1109 521.999C14.003 521.8 13.8257 521.646 13.6109 521.563V521.563Z" fill="#1B1B1A"/>
<path d="M120.564 488.297L126.909 489.523L125.193 499.328L115.716 502.163L120.564 488.297Z" fill="#EE7779"/>
<path d="M71.9246 555.588C73.4965 525.134 76.7415 494.782 81.6457 464.663L61.8151 459.988C49.2879 487.593 36.4225 513.273 23.8828 540.878" fill="white"/>
<path d="M72.8652 555.587C73.4791 543.696 74.3476 531.821 75.4709 519.963C76.6067 508.157 77.9763 496.385 79.5798 484.648C80.4901 478.047 81.4819 471.458 82.555 464.881C82.6167 464.653 82.5863 464.41 82.4699 464.202C82.3536 463.995 82.16 463.838 81.9287 463.764L75.1828 462.186L64.5347 459.672L62.0731 459.095C61.8743 459.044 61.6637 459.057 61.4729 459.131C61.2821 459.206 61.1213 459.338 61.0145 459.508C56.1916 470.126 51.2183 480.684 46.2074 491.217C41.2466 501.659 36.2483 512.077 31.3376 522.543C28.5482 528.48 25.7964 534.432 23.0822 540.397C22.9665 540.608 22.937 540.853 22.9997 541.084C23.0624 541.315 23.2127 541.514 23.4204 541.642C23.636 541.762 23.8915 541.795 24.1318 541.733C24.3721 541.672 24.5778 541.521 24.7045 541.314C29.5274 530.696 34.5007 520.145 39.5053 509.612C44.5099 499.079 49.4707 488.746 54.3751 478.286C57.1645 472.348 59.9163 466.397 62.6305 460.431L61.572 460.844L68.2928 462.428L78.9409 464.942L81.4025 465.549L80.7449 464.426C78.8157 476.264 77.1454 488.139 75.734 500.05C74.3309 511.876 73.1784 523.727 72.2765 535.601C71.7712 542.259 71.3536 548.923 71.0237 555.593C70.9674 556.759 72.8402 556.759 72.9028 555.593L72.8652 555.587Z" fill="#1B1F1D"/>
<path d="M71.2922 557.353C72.9344 552.905 63.6542 545.618 50.5642 541.078C37.4743 536.538 25.5314 536.463 23.8891 540.911C22.2469 545.359 31.5272 552.645 44.6171 557.186C57.7071 561.726 69.6499 561.801 71.2922 557.353Z" fill="white" stroke="#1B1F1D" stroke-width="2" stroke-miterlimit="10"/>
<path d="M28.8936 531.394C30.2947 531.014 31.7195 530.723 33.1591 530.52L33.4473 530.484C33.5036 530.484 33.6289 530.484 33.3721 530.484H33.4911L34.0736 530.411L35.2011 530.307C35.959 530.247 36.7231 530.204 37.4873 530.186C39.0499 530.144 40.6137 530.18 42.1725 530.295C42.9617 530.356 43.7571 530.429 44.5464 530.526L44.8282 530.562C44.88 530.553 44.933 530.553 44.9848 530.562C44.9848 530.562 44.7468 530.532 44.9222 530.562L45.5485 530.654C45.9431 530.708 46.344 530.769 46.7386 530.836C49.9278 531.367 53.0601 532.18 56.0964 533.264L57.2239 533.683L57.75 533.889L57.988 533.98L58.1321 534.041C58.3576 534.132 57.9943 533.98 58.1697 534.041C58.8963 534.339 59.6103 534.648 60.3181 534.982C61.7327 535.64 63.1105 536.369 64.4458 537.168C65.0722 537.556 65.7361 537.963 66.3687 538.382C66.6756 538.595 66.9951 538.807 67.2895 539.026L67.7154 539.335C67.7523 539.369 67.7921 539.399 67.8344 539.426C67.8344 539.426 67.659 539.293 67.7843 539.39L68.0411 539.584C69.1834 540.459 70.2651 541.407 71.2794 542.419C71.5237 542.668 71.7679 542.923 72.006 543.184C72.092 543.274 72.1957 543.346 72.311 543.395C72.4262 543.445 72.5506 543.472 72.6768 543.474C72.8029 543.476 72.9282 543.454 73.0452 543.408C73.1622 543.362 73.2685 543.294 73.3577 543.207C73.4469 543.121 73.5172 543.018 73.5645 542.905C73.6118 542.791 73.635 542.67 73.6327 542.547C73.6305 542.425 73.6029 542.304 73.5515 542.193C73.5002 542.081 73.4262 541.981 73.3338 541.897C71.2665 539.704 68.9148 537.78 66.3374 536.172C63.6225 534.477 60.7368 533.053 57.725 531.922C54.6959 530.764 51.5635 529.878 48.3672 529.275C45.1456 528.651 41.8687 528.334 38.5834 528.328C35.5014 528.321 32.4294 528.67 29.4323 529.366C29.0815 529.445 28.737 529.536 28.3925 529.634C28.1533 529.698 27.9503 529.852 27.8282 530.061C27.706 530.271 27.6747 530.519 27.7411 530.751C27.8076 530.982 27.9663 531.179 28.1825 531.298C28.3986 531.416 28.6544 531.446 28.8936 531.382V531.394Z" fill="#1B1F1D"/>
<path d="M290.927 604.301L290.137 608.234C290.865 607.936 291.514 607.483 292.038 606.91C292.561 606.336 292.946 605.656 293.163 604.92" fill="white"/>
<path d="M290.475 604.18L289.686 608.114C289.624 608.411 289.899 608.824 290.263 608.678C291.067 608.353 291.787 607.857 292.368 607.226C292.949 606.596 293.376 605.847 293.62 605.036C293.636 604.978 293.641 604.918 293.633 604.858C293.626 604.799 293.606 604.741 293.575 604.689C293.545 604.637 293.504 604.591 293.455 604.554C293.406 604.517 293.351 604.49 293.291 604.474C293.231 604.458 293.169 604.454 293.108 604.461C293.046 604.469 292.987 604.488 292.933 604.517C292.879 604.547 292.832 604.586 292.794 604.634C292.756 604.681 292.728 604.735 292.712 604.793C292.516 605.454 292.173 606.066 291.707 606.584C291.24 607.102 290.661 607.515 290.012 607.792L290.588 608.35L291.384 604.417C291.411 604.3 291.392 604.178 291.331 604.074C291.269 603.97 291.17 603.893 291.052 603.858C290.932 603.826 290.804 603.842 290.697 603.901C290.589 603.96 290.509 604.058 290.475 604.174V604.18Z" fill="#1B1F1D"/>
<path d="M288.177 601.758L286.924 606.846L290.294 602.681" fill="white"/>
<path d="M287.726 601.636L286.435 606.723C286.411 606.821 286.419 606.923 286.458 607.016C286.498 607.109 286.566 607.187 286.655 607.24C286.745 607.289 286.849 607.309 286.952 607.296C287.055 607.283 287.151 607.237 287.225 607.167L290.594 603.002C290.679 602.915 290.727 602.8 290.727 602.68C290.727 602.56 290.679 602.445 290.594 602.358C290.506 602.273 290.387 602.225 290.262 602.225C290.138 602.225 290.018 602.273 289.93 602.358L286.561 606.523L287.344 606.966L288.634 601.879C288.778 601.308 287.87 601.065 287.726 601.636Z" fill="#1B1F1D"/>
<path d="M35.7156 529.051L33.3918 536.336C33.3267 536.565 33.3555 536.81 33.4722 537.02C33.589 537.229 33.7845 537.386 34.0182 537.459C34.2539 537.518 34.5035 537.487 34.7173 537.375C34.931 537.262 35.0929 537.076 35.1707 536.852L37.4945 529.567C37.561 529.338 37.5327 529.093 37.4157 528.885C37.2987 528.676 37.1022 528.52 36.8681 528.45C36.6315 528.388 36.3796 528.417 36.1641 528.53C35.9485 528.643 35.7858 528.831 35.7093 529.057L35.7156 529.051Z" fill="#1B1F1D"/>
<path d="M307.802 610.444L309.305 615.251C309.53 613.321 309.781 611.913 310.013 609.988" fill="white"/>
<path d="M307.343 610.567L308.853 615.375C308.884 615.48 308.954 615.57 309.048 615.63C309.142 615.689 309.256 615.714 309.367 615.699C309.479 615.684 309.581 615.631 309.656 615.55C309.73 615.468 309.772 615.363 309.774 615.254C309.98 613.493 310.275 611.745 310.481 609.99C310.481 609.87 310.432 609.754 310.344 609.669C310.256 609.583 310.136 609.535 310.012 609.535C309.887 609.535 309.768 609.583 309.68 609.669C309.591 609.754 309.542 609.87 309.542 609.99C309.335 611.745 309.041 613.493 308.834 615.254L309.761 615.132L308.252 610.324C308.076 609.766 307.168 610.009 307.343 610.567Z" fill="#1B1F1D"/>
<path d="M298.505 609.043C298.549 610.415 298.586 612.376 298.624 613.754C299.463 612.461 300.415 610.597 301.249 609.31" fill="white"/>
<path d="M298.036 609.041C298.086 610.614 298.111 612.18 298.155 613.752C298.16 613.85 298.197 613.944 298.261 614.02C298.324 614.096 298.411 614.15 298.509 614.175C298.606 614.2 298.71 614.194 298.804 614.159C298.898 614.123 298.978 614.059 299.032 613.977C299.965 612.532 300.723 610.984 301.656 609.539C301.976 609.041 301.162 608.586 300.842 609.078C299.909 610.529 299.157 612.071 298.224 613.522L299.094 613.752C299.051 612.18 299.026 610.614 298.975 609.041C298.975 608.921 298.926 608.805 298.838 608.719C298.75 608.634 298.63 608.586 298.506 608.586C298.381 608.586 298.262 608.634 298.174 608.719C298.085 608.805 298.036 608.921 298.036 609.041V609.041Z" fill="#1B1F1D"/>
<path d="M282.388 598.934L281.242 602.765C282.516 602.039 283.476 600.892 283.948 599.535" fill="white"/>
<path d="M281.932 598.812L280.792 602.642C280.769 602.729 280.774 602.82 280.804 602.904C280.835 602.989 280.89 603.063 280.963 603.118C281.036 603.172 281.123 603.205 281.215 603.212C281.307 603.22 281.399 603.201 281.481 603.158C282.852 602.364 283.887 601.122 284.399 599.655C284.43 599.54 284.414 599.417 284.353 599.312C284.292 599.208 284.192 599.131 284.074 599.097C283.954 599.068 283.828 599.085 283.721 599.144C283.614 599.203 283.534 599.299 283.497 599.413C283.051 600.655 282.163 601.703 280.992 602.369L281.687 602.885L282.827 599.054C282.844 598.997 282.848 598.936 282.841 598.877C282.833 598.817 282.813 598.76 282.783 598.708C282.752 598.656 282.711 598.61 282.663 598.573C282.614 598.536 282.558 598.509 282.498 598.493C282.439 598.477 282.376 598.473 282.315 598.48C282.254 598.487 282.194 598.506 282.141 598.536C282.087 598.566 282.039 598.605 282.001 598.652C281.963 598.7 281.935 598.754 281.919 598.812H281.932Z" fill="#1B1F1D"/>
<path d="M278.737 593.629L277.359 598.237L280.184 595.286" fill="white"/>
<path d="M278.287 593.507L276.909 598.115C276.882 598.212 276.889 598.314 276.928 598.407C276.967 598.499 277.037 598.576 277.126 598.627C277.215 598.677 277.319 598.698 277.421 598.685C277.523 598.673 277.619 598.628 277.692 598.558L280.517 595.608C280.602 595.521 280.65 595.406 280.65 595.286C280.65 595.166 280.602 595.051 280.517 594.964C280.429 594.879 280.31 594.831 280.185 594.831C280.061 594.831 279.941 594.879 279.853 594.964L277.028 597.915L277.811 598.358L279.189 593.75C279.211 593.638 279.188 593.522 279.126 593.425C279.064 593.329 278.967 593.258 278.853 593.228C278.74 593.197 278.619 593.209 278.514 593.261C278.409 593.312 278.328 593.401 278.287 593.507V593.507Z" fill="#1B1F1D"/>
<path d="M42.7241 530.228L40.488 538.297C40.4248 538.525 40.4545 538.769 40.5711 538.977C40.6876 539.184 40.8821 539.341 41.1144 539.414C41.3509 539.474 41.6022 539.445 41.8173 539.332C42.0324 539.219 42.1954 539.031 42.2731 538.807L44.5092 530.732C44.5607 530.504 44.5199 530.266 44.3952 530.066C44.2705 529.866 44.0714 529.721 43.8391 529.659C43.6069 529.598 43.359 529.625 43.1469 529.735C42.9347 529.846 42.7744 530.031 42.6991 530.253L42.7241 530.228Z" fill="#1B1F1D"/>
<path d="M51.1313 530.786L49.1646 538.539L48.6509 540.567C48.6138 540.683 48.6012 540.806 48.6138 540.927C48.6264 541.048 48.664 541.166 48.7243 541.273C48.7847 541.379 48.8665 541.473 48.9651 541.549C49.0636 541.625 49.1768 541.681 49.298 541.713C49.4191 541.746 49.5458 541.754 49.6705 541.738C49.7951 541.723 49.9152 541.683 50.0237 541.621C50.1322 541.56 50.2268 541.477 50.3019 541.38C50.3771 541.282 50.4312 541.171 50.4611 541.052L52.4279 533.3L52.9415 531.272C52.9997 531.042 52.9631 530.799 52.8396 530.595C52.716 530.39 52.5152 530.241 52.2797 530.178C52.0442 530.114 51.7925 530.143 51.5781 530.256C51.3637 530.37 51.2035 530.56 51.1313 530.786V530.786Z" fill="#1B1F1D"/>
<path d="M59.5494 533.824C59.1235 536.252 58.4971 538.681 57.9835 541.109C57.8332 541.789 57.7016 542.469 57.5764 543.155C57.5191 543.393 57.5524 543.643 57.6703 543.859C57.7976 544.061 57.999 544.208 58.234 544.272C58.4699 544.335 58.7216 544.307 58.9365 544.193C59.1514 544.08 59.3127 543.891 59.3865 543.665C59.8187 541.236 60.4451 538.808 60.9587 536.38C61.1027 535.7 61.2405 535.02 61.3596 534.334C61.4204 534.096 61.3869 533.845 61.2656 533.63C61.1722 533.475 61.0339 533.351 60.8679 533.272C60.702 533.194 60.5159 533.164 60.3327 533.187C60.1496 533.211 59.9776 533.286 59.8383 533.403C59.699 533.521 59.5985 533.676 59.5494 533.848V533.824Z" fill="#1B1F1D"/>
<path d="M67.315 538.364L65.486 546.008L65.0037 548.011C64.9455 548.241 64.9821 548.484 65.1057 548.689C65.2292 548.893 65.4301 549.043 65.6656 549.106C65.9011 549.169 66.1527 549.141 66.3671 549.027C66.5815 548.913 66.7417 548.723 66.8139 548.497L68.6491 540.847L69.1252 538.844C69.165 538.727 69.1799 538.603 69.1688 538.48C69.1577 538.357 69.1208 538.237 69.0605 538.128C69.0002 538.019 68.9177 537.924 68.818 537.847C68.7183 537.77 68.6035 537.713 68.4805 537.681C68.3576 537.648 68.2291 537.64 68.1029 537.657C67.9767 537.674 67.8553 537.716 67.7463 537.78C67.6373 537.844 67.5428 537.929 67.4686 538.029C67.3945 538.13 67.3422 538.244 67.315 538.364Z" fill="#1B1F1D"/>
<path d="M16.6689 518.202C17.7124 518.133 18.76 518.15 19.8007 518.251L20.1703 518.287H20.3394C20.4647 518.287 20.139 518.287 20.258 518.287H20.3707C20.6275 518.323 20.8843 518.36 21.1349 518.408C21.6548 518.506 22.1746 518.627 22.682 518.767C23.1893 518.906 23.703 519.076 24.204 519.264L24.5611 519.404L24.4734 519.368L24.5799 519.41L24.7678 519.489L25.5257 519.841C26.5248 520.329 27.4747 520.906 28.3631 521.565H28.3255L28.4257 521.644L28.6261 521.796L29.002 522.099C29.2567 522.31 29.5072 522.529 29.7536 522.755C30.2633 523.221 30.7483 523.711 31.2067 524.224C31.3837 524.393 31.6222 524.488 31.8707 524.488C32.1192 524.488 32.3577 524.393 32.5346 524.224C32.7047 524.051 32.7995 523.82 32.7995 523.581C32.7995 523.341 32.7047 523.111 32.5346 522.937C30.925 521.124 28.9869 519.612 26.816 518.475C23.6972 516.878 20.182 516.153 16.6627 516.381C16.4135 516.381 16.1745 516.477 15.9983 516.647C15.8221 516.818 15.7231 517.05 15.7231 517.291C15.7231 517.533 15.8221 517.764 15.9983 517.935C16.1745 518.106 16.4135 518.202 16.6627 518.202H16.6689Z" fill="#1B1F1D"/>
<path d="M20.8027 517.152L17.1448 523.126C17.0293 523.331 16.9999 523.572 17.0629 523.798C17.1259 524.025 17.2764 524.218 17.483 524.34C17.6952 524.449 17.9422 524.477 18.1746 524.417C18.407 524.358 18.6074 524.215 18.7358 524.018L22.3874 518.044C22.502 517.839 22.5314 517.599 22.4697 517.373C22.408 517.148 22.2599 516.953 22.0555 516.83C21.8392 516.713 21.5847 516.682 21.3454 516.744C21.106 516.805 20.9004 516.953 20.7714 517.158L20.8027 517.152Z" fill="#1B1F1D"/>
<path d="M25.8119 519.065L22.4734 526.35C22.3521 526.566 22.3186 526.817 22.3795 527.055C22.4279 527.227 22.5281 527.382 22.6672 527.499C22.8064 527.617 22.9783 527.692 23.1613 527.714C23.3442 527.737 23.5301 527.707 23.6953 527.627C23.8605 527.548 23.9976 527.422 24.0894 527.267L27.4279 519.982C27.5492 519.767 27.5828 519.516 27.5219 519.278C27.49 519.165 27.4355 519.058 27.3613 518.966C27.2871 518.873 27.1949 518.795 27.0897 518.737C26.8782 518.625 26.6302 518.595 26.397 518.655C26.1637 518.715 25.9632 518.86 25.837 519.059L25.8119 519.065Z" fill="#1B1F1D"/>
<path d="M50.3471 550.498C50.881 549.052 48.9559 547.062 46.0474 546.054C43.1389 545.045 40.3483 545.399 39.8145 546.845C39.2806 548.291 41.2058 550.281 44.1143 551.29C47.0228 552.298 49.8133 551.944 50.3471 550.498Z" fill="#1B1B1A"/>
<path d="M46.0275 550.358C46.1417 550.049 45.6138 549.583 44.8484 549.317C44.083 549.052 43.3699 549.088 43.2557 549.397C43.1415 549.706 43.6694 550.172 44.4348 550.438C45.2002 550.703 45.9133 550.668 46.0275 550.358Z" fill="white"/>
<path d="M23.8257 532.861C24.2623 532.184 23.5153 530.969 22.1573 530.146C20.7993 529.323 19.3446 529.204 18.908 529.88C18.4715 530.557 19.2185 531.773 20.5765 532.596C21.9345 533.419 23.3892 533.538 23.8257 532.861Z" fill="#1B1B1A"/>
<path d="M21.8979 532.333C22.0282 532.132 21.7652 531.745 21.3106 531.469C20.856 531.194 20.3818 531.134 20.2516 531.336C20.1214 531.538 20.3844 531.925 20.839 532.2C21.2936 532.476 21.7677 532.535 21.8979 532.333Z" fill="white"/>
<path d="M61.7354 460.916C64.3974 461.304 67.0407 461.784 69.6651 462.373C72.2896 462.961 74.889 463.641 77.457 464.425C78.9102 464.866 80.3508 465.339 81.7789 465.845C82.0147 465.908 82.2665 465.88 82.4814 465.767C82.6963 465.653 82.8576 465.464 82.9314 465.238C82.9901 465.006 82.9546 464.76 82.8322 464.552C82.7099 464.345 82.51 464.19 82.2737 464.121C79.7433 463.227 77.1814 462.431 74.5883 461.735C71.9952 461.039 69.3749 460.432 66.7275 459.914C65.2368 459.635 63.7335 459.386 62.2303 459.167C61.9867 459.112 61.7306 459.144 61.5099 459.258C61.2998 459.381 61.1454 459.576 61.0777 459.805C61.0142 460.037 61.0475 460.285 61.1706 460.494C61.2936 460.703 61.4965 460.856 61.7354 460.922V460.916Z" fill="#1B1F1D"/>
<path d="M58.0836 459.872C62.5591 457.677 67.7083 457.145 72.5608 458.375C77.4134 459.605 81.6343 462.512 84.4283 466.55" fill="white"/>
<path d="M58.559 460.656C58.7782 460.553 59.0037 460.444 59.2292 460.346L59.5424 460.207L59.7303 460.134C59.4798 460.219 59.7679 460.134 59.818 460.098C60.2815 459.915 60.745 459.751 61.2211 459.6C62.1694 459.302 63.1386 459.071 64.1211 458.908L64.522 458.847C64.5971 458.847 64.9479 458.774 64.6786 458.847C64.9291 458.804 65.1984 458.786 65.4553 458.768C65.9626 458.719 66.47 458.689 66.9836 458.683C67.9797 458.665 68.9759 458.713 69.965 458.829C70.0151 458.829 70.2469 458.829 69.965 458.829C70.0212 458.823 70.078 458.823 70.1342 458.829L70.5037 458.883C70.748 458.92 70.9923 458.968 71.2365 459.017C71.7314 459.114 72.2199 459.229 72.7085 459.363C73.1971 459.496 73.5666 459.618 73.9925 459.764L74.6189 459.982L74.9258 460.104C75.12 460.183 74.7755 460.043 74.9258 460.104L75.1263 460.189C75.9575 460.54 76.7632 460.946 77.5377 461.403C77.9323 461.634 78.3144 461.876 78.6902 462.131C78.8594 462.241 79.0222 462.362 79.1913 462.477L79.3354 462.587C79.3792 462.617 79.5421 462.745 79.3354 462.587L79.6235 462.805C80.4179 463.429 81.1652 464.106 81.8596 464.833C82.2041 465.197 82.5361 465.568 82.8493 465.956L82.9307 466.053L82.8931 466.005L82.9683 466.102L83.1875 466.387C83.3441 466.594 83.4944 466.806 83.6447 466.994C83.7068 467.097 83.7892 467.187 83.8872 467.259C83.9852 467.331 84.0969 467.384 84.2158 467.414C84.3347 467.444 84.4586 467.451 84.5804 467.435C84.7022 467.419 84.8195 467.379 84.9257 467.319C85.0318 467.259 85.1246 467.179 85.1989 467.084C85.2731 466.989 85.3274 466.881 85.3585 466.766C85.3896 466.65 85.397 466.53 85.3802 466.412C85.3635 466.294 85.3229 466.18 85.2608 466.078C83.1018 462.958 80.1189 460.457 76.6232 458.835C72.8915 457.121 68.7285 456.489 64.6347 457.013C62.199 457.321 59.8339 458.023 57.6383 459.09C57.4245 459.213 57.2692 459.412 57.2059 459.645C57.1427 459.878 57.1764 460.125 57.3 460.334C57.4303 460.529 57.6308 460.67 57.8623 460.729C58.0939 460.789 58.34 460.763 58.5528 460.656H58.559Z" fill="#1B1F1D"/>
<path d="M67.6542 455.472C68.0363 455.381 68.4247 455.308 68.8193 455.247H68.9445C68.9445 455.29 68.7253 455.278 68.9132 455.247H69.1888L69.8152 455.199C70.5843 455.162 71.3552 455.187 72.1202 455.272H72.2768C72.4208 455.272 72.0325 455.241 72.2455 455.272L72.496 455.308L73.1224 455.417C73.5107 455.496 73.8928 455.593 74.2749 455.703C74.6569 455.812 75.0265 455.94 75.396 456.085L75.5088 456.128H75.4587C75.5584 456.159 75.6549 456.2 75.7468 456.249L76.2792 456.498C76.6696 456.681 77.0501 456.884 77.4192 457.105C77.6071 457.22 77.7887 457.342 77.9641 457.463L78.2147 457.639C78.2147 457.639 78.39 457.779 78.271 457.682L78.3713 457.761C78.5512 457.926 78.7875 458.021 79.0352 458.028C79.2843 458.028 79.5231 457.932 79.6991 457.761C79.8721 457.589 79.9689 457.358 79.9689 457.117C79.9689 456.877 79.8721 456.646 79.6991 456.474C77.9696 455.113 75.9392 454.158 73.7663 453.683C71.5933 453.208 69.3365 453.226 67.1719 453.736C66.9385 453.806 66.7423 453.961 66.625 454.169C66.5078 454.377 66.4786 454.62 66.5438 454.849C66.609 455.077 66.7634 455.272 66.9742 455.391C67.185 455.511 67.4357 455.547 67.673 455.49L67.6542 455.472Z" fill="#1B1F1D"/>
<path d="M122.316 422.31C123.459 427.37 124.242 432.5 124.659 437.664C125.09 443.02 125.199 448.396 124.984 453.764C124.779 459.194 124.269 464.609 123.456 469.985C122.65 475.331 121.557 480.632 120.18 485.867C118.846 490.964 117.219 495.984 115.307 500.905C115.075 501.512 114.837 502.119 114.599 502.672C114.534 502.905 114.566 503.154 114.69 503.364C114.813 503.575 115.017 503.729 115.257 503.795C115.493 503.853 115.742 503.823 115.956 503.71C116.17 503.598 116.332 503.411 116.41 503.188C118.395 498.301 120.091 493.309 121.489 488.235C122.944 482.984 124.111 477.663 124.984 472.292C125.88 466.833 126.476 461.331 126.77 455.81C127.065 450.385 127.032 444.948 126.669 439.527C126.323 434.225 125.61 428.952 124.533 423.743C124.402 423.136 124.264 422.529 124.126 421.891C124.051 421.67 123.891 421.484 123.678 421.374C123.466 421.264 123.219 421.236 122.986 421.298C122.754 421.359 122.555 421.505 122.43 421.705C122.305 421.904 122.265 422.143 122.316 422.371V422.31Z" fill="#1B1F1D"/>
<path d="M127.985 422.724C128.881 427.449 129.508 432.217 129.864 437.009C130.253 442.042 130.391 447.093 130.315 452.144C130.24 457.195 129.946 462.41 129.445 467.528C128.944 472.645 128.261 477.587 127.353 482.571C126.488 487.361 125.43 492.121 124.14 496.826C123.989 497.397 123.826 497.961 123.663 498.532C123.612 498.76 123.653 498.998 123.778 499.198C123.902 499.398 124.101 499.543 124.334 499.605C124.566 499.667 124.814 499.639 125.026 499.529C125.238 499.418 125.398 499.233 125.474 499.012C126.814 494.321 127.937 489.575 128.843 484.775C129.808 479.716 130.566 474.629 131.117 469.513C131.668 464.397 132.015 459.227 132.157 454.001C132.282 448.896 132.201 443.784 131.863 438.684C131.547 433.757 130.964 428.849 130.115 423.98C130.015 423.373 129.908 422.821 129.796 422.244C129.728 422.013 129.57 421.816 129.354 421.697C129.138 421.577 128.883 421.545 128.643 421.607C128.406 421.675 128.205 421.829 128.082 422.037C127.96 422.245 127.925 422.491 127.985 422.724V422.724Z" fill="#1B1F1D"/>
<path d="M127.159 488.649L121.253 487.763C121.009 487.704 120.752 487.737 120.532 487.854C120.373 487.944 120.245 488.079 120.163 488.239C120.082 488.4 120.052 488.581 120.076 488.758C120.1 488.936 120.178 489.102 120.299 489.237C120.42 489.372 120.58 489.47 120.758 489.517L126.664 490.404C126.908 490.459 127.164 490.427 127.385 490.313C127.544 490.222 127.672 490.088 127.753 489.927C127.835 489.766 127.865 489.586 127.841 489.408C127.817 489.231 127.739 489.064 127.618 488.929C127.497 488.794 127.337 488.697 127.159 488.649Z" fill="#1B1F1D"/>
<path d="M46.4138 495.704C47.4222 495.704 48.4369 495.752 49.4391 495.831C49.9464 495.874 50.4475 495.922 50.9486 495.977L51.6564 496.062C51.3808 496.062 51.6126 496.062 51.6564 496.062L51.8506 496.092L52.3016 496.153C54.3317 496.46 56.3399 496.89 58.3147 497.44C59.3127 497.719 60.3002 498.027 61.2773 498.363L62.7054 498.873L63.4445 499.158L63.7515 499.279L63.9331 499.352H64.0145C64.9729 499.729 65.8936 500.166 66.8394 500.609C67.7852 501.052 68.6684 501.52 69.5641 502.017C70.5579 502.568 71.5351 503.153 72.4955 503.772C72.959 504.069 73.4162 504.379 73.8672 504.695C74.0927 504.846 74.3182 505.004 74.5374 505.168L74.8944 505.429L75.0448 505.538C75.1262 505.599 75.1137 505.587 75.0072 505.538L75.1074 505.617C75.2895 505.778 75.525 505.871 75.7714 505.878C76.0189 505.877 76.2564 505.783 76.4353 505.617C76.6082 505.445 76.705 505.214 76.705 504.974C76.705 504.734 76.6082 504.503 76.4353 504.33C69.7047 499.298 61.814 495.925 53.4415 494.502C51.1169 494.121 48.765 493.918 46.4075 493.895C46.1583 493.895 45.9193 493.99 45.7431 494.161C45.5669 494.332 45.468 494.564 45.468 494.805C45.468 495.047 45.5669 495.278 45.7431 495.449C45.9193 495.62 46.1583 495.716 46.4075 495.716L46.4138 495.704Z" fill="#1B1F1D"/>
<path d="M49.1698 488.673C51.0534 488.631 52.9376 488.725 54.807 488.952L55.1327 488.989C55.3582 489.019 54.9135 488.989 55.1327 488.989H55.258L56.0347 489.104C56.5044 489.177 56.9742 489.256 57.444 489.347C58.371 489.517 59.2855 489.717 60.2 489.954C62.0746 490.427 63.9174 491.011 65.7182 491.703L66.3445 491.952L66.6828 492.085H66.6389L66.8832 492.188C67.3217 492.37 67.7664 492.565 68.2048 492.795C69.065 493.2 69.9127 493.605 70.7479 494.01C72.6025 494.981 74.3838 496.078 76.0782 497.294C76.1871 497.355 76.3074 497.394 76.4321 497.41C76.5568 497.426 76.6835 497.417 76.8048 497.385C77.0397 497.321 77.2396 497.171 77.3622 496.966C77.4723 496.76 77.4993 496.521 77.4379 496.297C77.3766 496.072 77.2313 495.878 77.0302 495.752C73.891 493.532 70.4807 491.697 66.877 490.288C63.288 488.843 59.5251 487.844 55.6776 487.313C53.5228 487.012 51.3465 486.88 49.1698 486.919C48.9206 486.919 48.6816 487.015 48.5054 487.185C48.3292 487.356 48.2302 487.588 48.2302 487.829C48.2302 488.071 48.3292 488.302 48.5054 488.473C48.6816 488.644 48.9206 488.74 49.1698 488.74V488.673Z" fill="#1B1F1D"/>
<path d="M292.261 598.988C292.165 599.906 291.863 600.793 291.378 601.586C291.124 601.977 290.754 602.283 290.317 602.465C289.88 602.648 289.396 602.697 288.929 602.606C287.526 602.199 287.25 600.402 287.369 598.964C287.563 596.724 288.084 594.523 288.916 592.425C288.186 594.671 287.017 596.759 285.471 598.575C284.895 599.261 284.006 599.965 283.166 599.613C282.152 599.188 282.314 597.762 282.646 596.742L285.058 589.42L281.989 593.815C281.5 594.514 280.805 595.309 279.947 595.163C279.601 595.066 279.3 594.857 279.094 594.571C278.888 594.285 278.789 593.939 278.813 593.591C278.883 592.895 279.121 592.225 279.508 591.636C281.112 588.716 282.596 585.948 284.519 582.184" fill="white"/>
<path d="M291.202 598.703C291.133 599.097 291.064 599.492 290.958 599.875C290.907 600.08 290.845 600.283 290.77 600.482C290.77 600.518 290.682 600.694 290.77 600.53C290.857 600.366 290.77 600.53 290.77 600.53C290.726 600.626 290.676 600.72 290.619 600.809C290.569 600.894 290.513 600.973 290.463 601.052C290.413 601.131 290.526 600.992 290.526 600.973C290.526 600.955 290.457 601.058 290.432 601.083C290.406 601.107 290.313 601.21 290.25 601.271L290.137 601.362C290.043 601.447 290.35 601.216 290.194 601.319C290.049 601.414 289.898 601.499 289.743 601.574C289.999 601.441 289.899 601.514 289.818 601.574L289.68 601.611C289.587 601.635 289.493 601.653 289.398 601.665L289.692 601.629C289.543 601.644 289.391 601.644 289.241 601.629L289.53 601.665C289.39 601.64 289.251 601.606 289.116 601.562C289.436 601.647 289.267 601.635 289.166 601.562L289.01 601.465C288.859 601.374 289.248 601.665 289.054 601.501L288.96 601.41C288.916 601.368 288.878 601.319 288.841 601.277C289.085 601.532 288.935 601.398 288.878 601.313C288.81 601.212 288.75 601.107 288.697 600.998C288.609 600.834 288.797 601.259 288.734 601.083C288.734 601.022 288.684 600.967 288.665 600.907C288.585 600.659 288.527 600.405 288.49 600.148L288.527 600.427C288.444 599.548 288.48 598.662 288.634 597.792L288.596 598.071C288.855 596.25 289.328 594.464 290.006 592.747L287.889 592.183C287.801 592.45 287.707 592.723 287.607 592.99L287.45 593.391C287.45 593.464 287.387 593.53 287.362 593.603L287.319 593.694C287.268 593.822 287.413 593.494 287.319 593.621C287.081 594.156 286.824 594.678 286.536 595.188C286.247 595.698 285.909 596.196 285.602 596.681C285.439 596.918 285.27 597.149 285.095 597.379C285.038 597.433 284.99 597.494 284.951 597.561L285.02 597.476C284.997 597.501 284.976 597.528 284.957 597.555L284.657 597.908C284.555 598.029 284.446 598.144 284.331 598.254L284.162 598.405L284.087 598.466C283.986 598.557 284.268 598.339 284.155 598.417C284.043 598.496 283.892 598.581 283.755 598.654C283.755 598.654 283.617 598.715 283.755 598.654C283.892 598.594 283.755 598.654 283.717 598.654L283.485 598.703L283.78 598.66C283.665 598.672 283.55 598.672 283.435 598.66L283.723 598.697C283.723 598.697 283.492 598.66 283.498 598.642C283.504 598.624 283.742 598.764 283.617 598.685L283.535 598.642C283.535 598.642 283.473 598.594 283.46 598.594C283.448 598.594 283.673 598.776 283.585 598.679L283.523 598.618C283.404 598.509 283.661 598.818 283.598 598.721C283.535 598.624 283.542 598.624 283.51 598.575C283.41 598.405 283.592 598.824 283.51 598.636C283.471 598.516 283.443 598.391 283.429 598.266L283.466 598.545C283.429 598.273 283.429 597.997 283.466 597.725L283.423 598.011C283.532 597.415 283.696 596.83 283.911 596.262L284.619 594.107L286.06 589.73C286.13 589.483 286.106 589.22 285.99 588.99C285.875 588.76 285.677 588.578 285.433 588.479C285.189 588.382 284.917 588.372 284.666 588.451C284.415 588.53 284.2 588.693 284.061 588.91L281.738 592.243L281.168 593.057L280.892 593.445L280.792 593.585C280.66 593.761 280.961 593.391 280.792 593.585C280.623 593.779 280.429 593.931 280.26 594.113C280.404 594.01 280.435 593.986 280.341 594.046L280.247 594.107C280.201 594.137 280.153 594.163 280.103 594.186C279.934 594.277 280.353 594.113 280.166 594.186L279.959 594.235L280.253 594.198C280.145 594.21 280.036 594.21 279.928 594.198L280.222 594.235C280.152 594.227 280.083 594.213 280.015 594.192C279.859 594.192 280.141 594.241 280.134 594.247C280.128 594.253 280.053 594.204 280.04 594.198C280.028 594.192 279.959 594.162 279.959 594.144C279.959 594.125 280.166 594.332 280.059 594.216C279.953 594.101 279.852 593.986 279.971 594.144C280.09 594.301 279.971 594.107 279.928 594.059C279.884 594.01 279.896 593.998 279.877 593.967C279.859 593.937 279.965 594.198 279.921 594.083C279.874 593.944 279.837 593.802 279.809 593.658L279.852 593.937C279.827 593.764 279.827 593.588 279.852 593.415L279.809 593.7C279.839 593.494 279.887 593.291 279.953 593.093C279.953 593.039 279.996 592.984 280.015 592.935C280.09 592.741 280.015 592.935 280.015 592.935C280.015 592.935 280.141 592.674 280.166 592.632C280.347 592.286 280.535 591.946 280.723 591.606L281.794 589.633C282.546 588.241 283.285 586.844 284.011 585.444C284.475 584.552 284.932 583.623 285.383 582.761C285.524 582.515 285.562 582.227 285.489 581.955C285.415 581.683 285.236 581.45 284.989 581.304C284.737 581.165 284.439 581.128 284.16 581.2C283.88 581.271 283.64 581.446 283.492 581.686C282.088 584.454 280.644 587.202 279.157 589.93C278.806 590.58 278.418 591.223 278.111 591.897C277.649 592.732 277.548 593.71 277.829 594.617C277.989 595.085 278.292 595.495 278.698 595.792C279.105 596.09 279.594 596.26 280.103 596.281C280.55 596.251 280.984 596.128 281.376 595.918C281.768 595.708 282.107 595.417 282.37 595.066C282.997 594.271 283.579 593.397 284.168 592.559L285.941 590.015L283.942 589.196L282.402 593.864L281.625 596.232C281.403 596.842 281.272 597.48 281.237 598.126C281.188 598.848 281.425 599.56 281.901 600.117C282.201 600.438 282.592 600.666 283.025 600.774C283.458 600.882 283.914 600.864 284.337 600.724C285.123 600.419 285.808 599.911 286.316 599.255C286.822 598.647 287.295 598.012 287.732 597.355C288.655 595.929 289.388 594.395 289.912 592.79C289.985 592.518 289.947 592.229 289.804 591.984C289.661 591.739 289.426 591.558 289.148 591.478C288.866 591.413 288.57 591.454 288.319 591.593C288.068 591.732 287.88 591.958 287.795 592.225C287.303 593.473 286.919 594.758 286.648 596.068C286.498 596.79 286.385 597.525 286.291 598.26C286.217 598.803 286.184 599.351 286.191 599.899C286.166 601.024 286.572 602.118 287.331 602.971C287.833 603.437 288.487 603.72 289.18 603.771C289.874 603.822 290.564 603.638 291.133 603.25C291.798 602.823 292.32 602.217 292.636 601.508C292.935 600.806 293.146 600.072 293.263 599.322C293.325 599.044 293.285 598.754 293.15 598.502C293.041 598.322 292.88 598.176 292.686 598.084C292.492 597.992 292.274 597.957 292.06 597.984C291.846 598.011 291.645 598.099 291.482 598.237C291.32 598.374 291.203 598.556 291.146 598.757L291.202 598.703Z" fill="#1B1F1D"/>
<path d="M284.501 582.208L286.593 540.209Z" fill="white"/>
<path d="M285.595 582.208L286.415 565.78L287.229 549.431L287.687 540.209C287.685 539.928 287.569 539.658 287.364 539.459C287.159 539.261 286.881 539.148 286.591 539.146C286.302 539.153 286.027 539.267 285.822 539.464C285.618 539.662 285.501 539.929 285.494 540.209L284.674 556.637L283.86 572.986L283.402 582.208C283.404 582.489 283.52 582.758 283.725 582.957C283.93 583.156 284.208 583.268 284.498 583.27C284.787 583.264 285.062 583.15 285.266 582.952C285.471 582.754 285.588 582.487 285.595 582.208Z" fill="#1B1B1A"/>
<path d="M28.3189 532.481C27.0484 530.265 25.3789 528.287 23.3894 526.641C21.3754 524.919 19.0354 523.593 16.4994 522.737C15.136 522.289 13.7106 522.044 12.2715 522.009L13.0858 523.381C15.7102 519.61 18.4036 515.883 21.1282 512.18C23.7777 508.579 26.4586 504.998 29.1206 501.41C31.7826 497.822 34.4008 494.258 36.9752 490.634C39.5495 487.009 42.0675 483.348 44.4915 479.621C46.9969 475.788 49.3625 471.891 51.5882 467.928C51.87 467.43 52.1456 466.926 52.4275 466.423C52.5423 466.215 52.5695 465.972 52.5033 465.745C52.4371 465.518 52.2826 465.325 52.0724 465.206C51.8622 465.087 51.6127 465.052 51.3764 465.108C51.14 465.164 50.9353 465.307 50.8052 465.506C48.5942 469.513 46.239 473.441 43.7774 477.302C41.3785 481.048 38.8731 484.733 36.3112 488.375C33.7494 492.018 31.125 495.594 28.4817 499.169C25.8385 502.745 23.1577 506.327 20.5082 509.915C17.7897 513.6 15.0901 517.303 12.4594 521.049C12.1274 521.517 11.7955 521.99 11.4698 522.464C11.3895 522.602 11.3477 522.758 11.3483 522.917C11.349 523.076 11.3922 523.231 11.4736 523.369C11.5551 523.507 11.672 523.622 11.8129 523.702C11.9539 523.783 12.1141 523.827 12.2778 523.83C13.4094 523.85 14.5319 524.03 15.61 524.364C16.7441 524.7 17.8347 525.16 18.8608 525.736C20.9982 526.91 22.9063 528.439 24.4981 530.253C25.3555 531.222 26.105 532.276 26.7342 533.398C26.7938 533.506 26.8752 533.601 26.9736 533.677C27.0719 533.754 27.1852 533.811 27.3067 533.844C27.4282 533.877 27.5554 533.887 27.6806 533.871C27.8058 533.856 27.9266 533.816 28.0357 533.755C28.1447 533.693 28.2399 533.611 28.3154 533.512C28.3909 533.414 28.4452 533.303 28.4752 533.184C28.5051 533.065 28.51 532.941 28.4896 532.821C28.4692 532.7 28.4239 532.584 28.3565 532.481H28.3189Z" fill="#1B1B1A"/>
<path d="M247.351 517.066C263.567 527.138 279.922 536.967 296.169 547.045C296.336 547.137 296.525 547.185 296.717 547.185C296.908 547.184 297.097 547.135 297.263 547.043C297.43 546.95 297.568 546.817 297.665 546.657C297.762 546.496 297.815 546.314 297.817 546.128C297.466 541.217 296.689 536.293 295.938 531.436C295.067 525.924 293.182 520.509 291.215 515.263L289.098 515.828C293.564 527.126 295.493 539.134 296.038 551.185C296.364 558.391 296.232 565.622 295.844 572.828C295.631 576.932 295.324 581.036 294.967 585.134C294.791 587.089 294.86 589.335 294.384 591.241C293.908 593.148 292.718 594.884 292.004 596.626C291.118 598.6 290.43 600.651 289.95 602.752C289.718 604.021 290.094 605.284 291.365 605.873C293.038 606.644 294.497 605.399 295.631 604.367C297.343 602.866 298.783 601.097 299.89 599.134C300.008 598.931 300.054 598.696 300.021 598.466C299.989 598.235 299.879 598.021 299.71 597.856C299.541 597.692 299.32 597.585 299.083 597.552C298.845 597.52 298.603 597.564 298.393 597.677V597.677C297.197 598.399 298.299 600.239 299.502 599.498H299.558C300.754 598.776 299.652 596.936 298.449 597.677C298.242 597.8 298.081 597.985 297.99 598.203C297.899 598.421 297.882 598.663 297.942 598.891C297.84 599.473 297.689 600.045 297.491 600.603C297.359 601.307 297.259 602.017 297.184 602.728C296.978 604.373 296.94 606.035 297.071 607.688C297.234 609.388 298.199 610.899 300.134 610.76C300.781 610.694 301.402 610.481 301.947 610.137C302.491 609.792 302.944 609.328 303.266 608.78C304.675 606.741 305.571 604.373 306.692 602.193L304.688 601.374C304.112 604.227 304.062 612.132 308.972 611.282C309.772 611.179 310.511 610.816 311.07 610.252C311.629 609.689 311.974 608.958 312.048 608.179C312.247 606.16 312.247 604.127 312.048 602.108C311.897 599.68 311.421 597.252 311.246 594.775C311.089 592.031 311.096 589.311 311.208 586.543C311.446 580.824 312.167 575.135 312.937 569.465C315.749 548.684 317.754 527.885 317.152 506.904C316.808 494.974 315.737 483.075 314.29 471.231L312.636 472.147C312.806 472.248 312.965 472.364 313.112 472.493C313.739 472.973 314.315 473.477 314.891 473.993C316.959 475.875 318.865 477.918 320.591 480.1C327.249 488.424 331.772 498.252 334.816 508.306C337.566 517.412 339.307 526.774 340.81 536.123C342.414 546.073 343.66 556.078 344.863 566.077C345.815 574.012 346.66 581.965 347.907 589.857C348.233 592.272 348.714 594.664 349.347 597.021C349.679 598.15 350.155 599.971 351.496 600.366C353.337 600.906 355.254 599.443 355.88 597.895C357.033 595.09 356.676 591.557 356.576 588.619C356.319 581.218 355.686 573.824 355.154 566.435C354.22 553.492 353.588 540.506 352.291 527.581C350.962 513.621 348.703 499.758 345.527 486.08C344.51 481.669 343.164 477.335 341.499 473.113C337.253 462.634 331.386 452.842 324.099 444.075C314.275 432.2 301.982 422.461 288.02 415.493C269.543 406.29 248.81 402.246 228.134 401.858C200.881 401.354 172.908 404.529 147.215 413.635C140.964 415.846 134.86 418.429 128.938 421.37C128.727 421.49 128.564 421.674 128.473 421.894C128.382 422.114 128.369 422.356 128.436 422.584L128.549 422.979L129.601 421.637C123.964 422.244 118.991 419.476 114.249 416.914C109.684 414.417 104.921 412.276 100.006 410.509C84.2253 404.935 67.1731 403.649 50.6926 406.787C49.6779 406.982 49.7343 408.25 50.4296 408.73L66.9404 420.198L66.527 418.717C64.245 422.407 62.2618 426.264 60.5954 430.252C53.0683 447.427 49.232 465.908 49.3209 484.569C49.3209 485.934 51.5257 485.934 51.5132 484.569C51.4067 463.587 56.3048 442.072 66.3454 423.434C67.0093 422.22 67.6921 420.957 68.4499 419.791C68.5914 419.548 68.6299 419.261 68.5575 418.99C68.4851 418.719 68.3074 418.487 68.0616 418.34L51.4944 406.866L51.2376 408.809C72.5714 404.772 94.4251 408.645 113.335 418.844C118.314 421.534 123.67 424.308 129.564 423.701C129.732 423.698 129.897 423.658 130.047 423.584C130.197 423.51 130.327 423.405 130.429 423.275C130.531 423.146 130.601 422.995 130.635 422.836C130.668 422.676 130.664 422.511 130.622 422.353L130.51 421.959L130.009 423.173C154.437 411.031 181.752 405.688 208.999 404.31C231.548 403.169 254.166 404.499 275.393 412.348C290.718 417.985 304.561 426.847 315.925 438.296C324.471 446.957 331.497 456.916 336.726 467.776C342.689 480.155 345.188 493.608 347.374 507.031C349.604 520.897 350.713 534.836 351.659 548.83C352.341 558.907 353.112 568.979 353.788 579.057C354.12 584.011 354.609 589.062 354.308 594.028C354.314 595.098 354.125 596.16 353.751 597.167C353.813 596.997 353.701 597.282 353.588 597.464C353.369 597.828 353.544 597.567 353.406 597.719C353.268 597.871 353.106 597.998 353.25 597.877C353.121 597.977 352.977 598.057 352.824 598.114C353.262 597.932 351.847 598.351 352.291 598.235C352.247 598.235 352.066 598.235 352.053 598.235C352.041 598.235 351.959 598.375 352.053 598.235C352.147 598.096 352.272 598.436 352.191 598.29C351.515 596.922 351.048 595.466 350.807 593.967C349.391 587.289 348.727 580.49 347.913 573.745C345.627 554.725 343.629 535.553 339.282 516.842C335.524 500.681 328.972 483.397 315.931 472.008C315.218 471.368 314.465 470.772 313.676 470.223C313.51 470.129 313.321 470.079 313.128 470.079C312.936 470.078 312.746 470.127 312.579 470.22C312.412 470.313 312.273 470.447 312.177 470.608C312.08 470.77 312.029 470.953 312.029 471.14C314.334 489.96 315.543 508.877 314.753 527.824C314.353 537.337 313.501 546.826 312.386 556.285C311.133 566.605 309.254 576.926 308.916 587.301C308.806 590.236 308.863 593.175 309.085 596.104C309.254 598.29 309.743 600.469 309.805 602.655C309.805 603.693 309.862 604.737 309.868 605.775C309.874 606.813 310.187 608.544 308.872 609.011C306.097 610.001 306.467 603.177 306.736 601.86C306.962 600.749 305.32 599.893 304.732 601.04C303.836 602.782 303.053 604.579 302.107 606.297C301.65 607.117 301.187 608.277 300.184 608.501C298.6 608.865 299.095 605.97 299.12 605.041C299.14 603.716 299.268 602.394 299.502 601.089C299.677 600.172 300.191 599.176 299.959 598.247L299.452 599.462H299.483L298.374 597.64L298.318 597.677L299.426 599.498L297.929 598.047C296.998 599.707 295.804 601.214 294.391 602.515C293.971 602.904 292.706 604.337 292.142 603.881C291.578 603.426 292.361 601.963 292.511 601.453C293.025 599.844 293.595 598.253 294.24 596.693C294.885 595.133 296.044 593.439 296.451 591.782C296.921 589.857 296.865 587.617 297.04 585.644C297.215 583.671 297.378 581.71 297.522 579.743C297.79 576.19 297.998 572.632 298.149 569.07C298.643 556.837 298.355 544.489 296.075 532.42C294.983 526.556 293.335 520.803 291.152 515.233C290.651 513.976 288.547 514.504 289.035 515.798C290.964 520.921 292.793 526.246 293.708 531.637C294.503 536.409 295.236 541.265 295.587 546.098L297.234 545.175C281.018 535.103 264.663 525.274 248.416 515.203C247.226 514.462 246.123 516.301 247.313 517.024L247.351 517.066Z" fill="#1B1F1D"/>
<path d="M27.0669 489.797C25.4509 490.076 24.6366 492.025 25.0249 493.567C25.4133 495.109 26.6284 496.323 27.7872 497.453C28.1962 497.893 28.6764 498.266 29.209 498.558C29.468 498.718 29.7669 498.806 30.0738 498.814C30.3807 498.822 30.684 498.748 30.9512 498.602C31.2184 498.455 31.4393 498.241 31.5903 497.982C31.7413 497.722 31.8167 497.428 31.8084 497.131C31.8258 496.551 31.7454 495.973 31.5704 495.419" fill="white"/>
<path d="M26.8081 488.898C26.2148 489.038 25.6688 489.324 25.2224 489.728C24.776 490.132 24.4442 490.641 24.2588 491.205C23.8451 492.372 23.9216 493.65 24.4717 494.762C25.0763 495.906 25.889 496.934 26.8707 497.798C27.3528 498.313 27.8975 498.77 28.493 499.158C28.84 499.374 29.2285 499.521 29.6353 499.589C30.0421 499.657 30.4589 499.644 30.8606 499.552C31.2916 499.423 31.6804 499.186 31.989 498.867C32.2975 498.548 32.5152 498.156 32.6207 497.731C32.8058 496.853 32.7541 495.943 32.4704 495.09C32.4404 494.972 32.3863 494.86 32.3112 494.763C32.236 494.665 32.1414 494.583 32.0329 494.521C31.9245 494.46 31.8044 494.42 31.6797 494.404C31.555 494.388 31.4284 494.397 31.3072 494.429C31.186 494.462 31.0728 494.518 30.9743 494.593C30.8758 494.669 30.7939 494.763 30.7336 494.87C30.6732 494.977 30.6356 495.094 30.623 495.216C30.6104 495.337 30.6231 495.459 30.6602 495.576L30.7729 496.031C30.8231 496.183 30.8526 496.34 30.8606 496.499C30.8606 496.499 30.8606 496.329 30.8606 496.438C30.864 496.484 30.864 496.531 30.8606 496.578C30.8606 496.65 30.8606 496.723 30.8606 496.796C30.8606 496.869 30.8606 496.942 30.8606 497.009C30.8606 497.075 30.8606 497.075 30.8606 497.106C30.8606 497.136 30.8982 496.905 30.8606 497.027C30.8339 497.148 30.8004 497.267 30.7604 497.385C30.7472 497.41 30.7368 497.437 30.7291 497.464C30.7291 497.464 30.8168 497.294 30.7667 497.373C30.7166 497.452 30.6915 497.506 30.6477 497.567C30.6307 497.59 30.6161 497.614 30.6038 497.64C30.6038 497.64 30.7291 497.5 30.6602 497.561C30.5913 497.622 30.585 497.646 30.5412 497.682C30.5189 497.699 30.498 497.717 30.4785 497.737C30.5913 497.604 30.5975 497.652 30.5286 497.695L30.4535 497.737C30.4535 497.737 30.2906 497.81 30.4222 497.737C30.5537 497.664 30.3658 497.737 30.3282 497.737C30.297 497.734 30.2655 497.734 30.2343 497.737C30.2343 497.737 30.4723 497.737 30.3032 497.737H30.015C29.896 497.737 30.1967 497.774 30.0777 497.737C29.9587 497.701 29.8083 497.676 29.6768 497.634C29.5453 497.591 29.8209 497.707 29.6768 497.634C29.6059 497.601 29.5369 497.565 29.4701 497.525L29.2697 497.403L29.1882 497.349L29.2446 497.391C29.2446 497.361 29.1068 497.282 29.088 497.264L28.8813 497.088C28.6684 496.899 28.4679 496.699 28.255 496.48C27.8603 496.092 27.472 495.703 27.1087 495.266L26.9647 495.102C26.9647 495.102 26.8143 494.914 26.8958 495.023C26.9772 495.133 26.8582 494.963 26.8394 494.938L26.7078 494.762C26.5428 494.536 26.3942 494.299 26.2631 494.052C26.2026 493.946 26.1482 493.836 26.1003 493.724C26.0502 493.633 26.1003 493.803 26.1003 493.803C26.0812 493.766 26.0665 493.728 26.0564 493.688C26.025 493.621 25.9999 493.552 25.9813 493.481C25.9437 493.366 25.9061 493.251 25.881 493.135C25.8649 493.079 25.8523 493.023 25.8435 492.965C25.8435 492.965 25.8435 492.917 25.8435 492.899C25.8435 492.88 25.8435 493.105 25.8435 492.996C25.8293 492.794 25.8293 492.591 25.8435 492.389C25.8435 492.328 25.8435 492.267 25.8435 492.213C25.8435 492.158 25.8121 492.431 25.8435 492.334C25.8404 492.31 25.8404 492.285 25.8435 492.261C25.8625 492.147 25.8876 492.033 25.9186 491.921C25.9446 491.811 25.9803 491.703 26.0251 491.599C26.0251 491.599 26.0251 491.551 26.0251 491.533C26.0251 491.514 25.9186 491.745 26.0251 491.593L26.1003 491.442C26.1555 491.334 26.2182 491.231 26.2882 491.132C26.2882 491.132 26.4322 490.944 26.332 491.071C26.2318 491.199 26.332 491.071 26.3821 491.023C26.4615 490.936 26.5473 490.854 26.639 490.78C26.783 490.658 26.4949 490.871 26.639 490.78L26.8018 490.683C26.8476 490.653 26.8958 490.626 26.9459 490.604C27.1212 490.519 26.783 490.658 26.9459 490.604C27.0683 490.56 27.1939 490.526 27.3217 490.501C27.5567 490.432 27.7542 490.276 27.8715 490.067C27.9887 489.858 28.0162 489.612 27.948 489.383C27.8716 489.159 27.7098 488.972 27.4957 488.859C27.2817 488.746 27.0313 488.717 26.7955 488.776L26.8081 488.898Z" fill="#1B1B1A"/>
<path d="M28.9813 486.469C27.5908 486.979 26.8704 488.575 27.0208 490.002C27.2624 491.432 27.9434 492.759 28.975 493.808C29.4975 494.464 30.1654 494.997 30.9293 495.369C31.3127 495.548 31.7378 495.628 32.1628 495.601C32.5878 495.573 32.9981 495.439 33.3533 495.211C34.0298 494.707 34.2928 492.928 33.7041 492.333" fill="white"/>
<path d="M28.7321 485.582C28.0306 485.842 27.4201 486.291 26.9721 486.875C26.5891 487.372 26.3219 487.944 26.1891 488.551C25.9223 489.986 26.2147 491.466 27.0097 492.703C27.4016 493.337 27.8524 493.934 28.3563 494.488C28.8385 495.054 29.4091 495.544 30.0475 495.939C31.3816 496.71 33.3734 496.777 34.3694 495.454C34.74 494.895 34.9457 494.248 34.9644 493.584C35.0012 493.243 34.9675 492.9 34.8653 492.572C34.7631 492.245 34.5945 491.941 34.3694 491.677C34.1924 491.508 33.9539 491.414 33.7054 491.414C33.4569 491.414 33.2184 491.508 33.0415 491.677C32.8714 491.851 32.7766 492.081 32.7766 492.321C32.7766 492.56 32.8714 492.791 33.0415 492.964C33.1354 493.062 32.9099 492.752 32.9914 492.898C33.0146 492.933 33.0355 492.969 33.054 493.007C33.1292 493.122 32.9851 492.794 33.0227 492.928C33.0603 493.062 33.054 493.031 33.0665 493.08C33.0739 493.129 33.0843 493.178 33.0979 493.225C33.0979 493.317 33.0603 493.068 33.0979 493.092C33.101 493.12 33.101 493.149 33.0979 493.177C33.1041 493.282 33.1041 493.387 33.0979 493.493C33.101 493.547 33.101 493.602 33.0979 493.657C33.1013 493.679 33.1013 493.701 33.0979 493.723C33.0979 493.869 33.0979 493.632 33.0979 493.626C33.0665 493.729 33.0603 493.839 33.0289 493.942C33.0043 494.045 32.9729 494.146 32.935 494.245C32.935 494.245 32.935 494.288 32.935 494.312C32.935 494.336 32.9976 494.179 32.9851 494.191C32.9726 494.203 32.935 494.294 32.9099 494.343L32.8348 494.458C32.7408 494.61 32.9788 494.318 32.8786 494.409L32.7909 494.5C32.6845 494.61 32.9663 494.391 32.7909 494.5C32.7348 494.538 32.6762 494.573 32.6155 494.604C32.5842 494.604 32.4652 494.67 32.6155 494.604L32.221 494.701C32.4652 494.628 32.2961 494.701 32.221 494.701H32.008C31.9704 494.701 31.7386 494.701 31.8952 494.701H31.7574C31.6303 494.671 31.5048 494.634 31.3816 494.591C31.3127 494.591 31.2689 494.519 31.438 494.622L31.3503 494.579L31.1186 494.464L30.7615 494.245C30.7291 494.215 30.6934 494.189 30.6551 494.166L30.7177 494.215L30.5173 494.051C30.2985 493.859 30.0894 493.656 29.8909 493.444L29.6153 493.134L29.465 492.958L29.4023 492.885C29.4023 492.885 29.2645 492.715 29.3585 492.825C29.4524 492.934 29.3585 492.825 29.3585 492.825L29.2833 492.722L29.1643 492.564C29.0704 492.436 28.9764 492.303 28.8887 492.169C28.7247 491.919 28.5762 491.659 28.444 491.392C28.4064 491.325 28.3751 491.258 28.3438 491.192C28.3125 491.125 28.4002 491.337 28.3438 491.192C28.2874 491.046 28.2311 490.9 28.1872 490.748C28.1434 490.597 28.1058 490.463 28.0744 490.324C28.0431 490.184 28.0745 490.196 28.0431 490.135C28.0118 490.075 28.0118 489.965 28.0431 490.099C28.0745 490.232 28.0431 490.099 28.0431 490.099C28.018 489.857 28.018 489.613 28.0431 489.37C28.0431 489.152 28.0118 489.559 28.0431 489.37C28.0431 489.304 28.0745 489.237 28.087 489.164C28.1171 489.028 28.1569 488.894 28.206 488.763C28.206 488.703 28.2498 488.648 28.2686 488.587C28.2874 488.526 28.2686 488.648 28.2373 488.66C28.2545 488.631 28.2692 488.6 28.2812 488.569C28.3425 488.444 28.4116 488.322 28.4878 488.205C28.5254 488.144 28.5693 488.089 28.6069 488.035C28.6444 487.98 28.682 487.938 28.6069 488.035V488.004C28.697 487.902 28.7954 487.806 28.9012 487.719L28.9639 487.67C29.0453 487.592 28.801 487.78 28.895 487.719L29.0704 487.604L29.252 487.5L29.3209 487.47C29.4963 487.379 29.108 487.549 29.3209 487.47C29.5522 487.403 29.7504 487.256 29.8784 487.057C29.9717 486.901 30.0151 486.722 30.0031 486.542C29.991 486.362 29.924 486.189 29.8106 486.046C29.6972 485.903 29.5424 485.796 29.366 485.738C29.1896 485.68 28.9995 485.675 28.8198 485.722L28.7321 485.582Z" fill="#1B1B1A"/>
<path d="M40.1561 483.574C38.8157 483.088 35.2579 482.026 33.8236 481.989C33.1092 481.94 32.3932 482.06 31.738 482.341C31.0829 482.621 30.5086 483.053 30.0654 483.598C28.9317 485.213 29.5706 487.423 30.4913 489.153C31.4121 490.883 32.9278 492.705 34.9635 492.747C35.8564 492.713 36.7075 492.371 37.364 491.784C38.0206 491.196 38.4398 490.402 38.5463 489.542C38.6093 488.677 38.4178 487.813 37.9943 487.05C37.5707 486.287 36.9325 485.657 36.1536 485.231" fill="white"/>
<path d="M40.4022 482.698C39.5378 482.383 38.6546 482.091 37.7652 481.867C36.781 481.575 35.779 481.344 34.7649 481.175C34.254 481.092 33.7352 481.063 33.2178 481.09C32.4953 481.146 31.7879 481.32 31.1258 481.606C30.4973 481.876 29.9431 482.285 29.5079 482.801C29.0726 483.316 28.7686 483.924 28.6203 484.574C28.39 485.929 28.5819 487.32 29.1715 488.569C29.6683 489.79 30.3828 490.916 31.2824 491.896C32.1785 492.898 33.4401 493.524 34.8025 493.644C35.4604 493.664 36.1146 493.541 36.7164 493.282C37.3182 493.023 37.8522 492.637 38.2788 492.151C38.7392 491.645 39.0849 491.052 39.2935 490.409C39.4976 489.737 39.5405 489.029 39.4188 488.338C39.1995 487.059 38.5179 485.897 37.4958 485.06C37.2183 484.836 36.923 484.633 36.6127 484.453C36.3982 484.342 36.1475 484.315 35.9134 484.38C35.6793 484.444 35.48 484.593 35.3575 484.797C35.235 485.001 35.1987 485.243 35.2564 485.472C35.3141 485.701 35.4613 485.899 35.6669 486.025L36.0114 486.238L36.1053 486.305L36.2181 486.396C36.4257 486.571 36.6184 486.761 36.7943 486.966L36.8695 487.057C36.9321 487.13 36.8068 486.985 36.8131 486.985C36.8485 487.042 36.8883 487.097 36.9321 487.148C37.0135 487.264 37.0887 487.385 37.1639 487.513C37.239 487.64 37.2891 487.75 37.3455 487.865C37.4019 487.98 37.2704 487.677 37.3455 487.865C37.3768 487.938 37.4019 488.005 37.4269 488.077C37.452 488.15 37.5021 488.314 37.5272 488.429C37.5522 488.545 37.5272 488.557 37.571 488.624V488.733C37.571 488.854 37.571 488.539 37.571 488.66C37.5898 488.933 37.5898 489.207 37.571 489.48C37.571 489.65 37.6086 489.255 37.571 489.48L37.5334 489.662C37.5025 489.792 37.4627 489.92 37.4144 490.044C37.4144 490.105 37.3706 490.16 37.3455 490.22C37.3205 490.281 37.4332 490.038 37.3894 490.123L37.3518 490.196C37.2911 490.317 37.2242 490.434 37.1513 490.548C37.1513 490.603 37.0824 490.651 37.0449 490.706C37.0073 490.761 36.8945 490.9 36.9885 490.785L36.9258 490.858L36.7755 491.016C36.6862 491.107 36.5921 491.194 36.4937 491.277L36.431 491.325C36.3559 491.392 36.5187 491.259 36.5124 491.265C36.5062 491.271 36.3997 491.35 36.3371 491.386C36.2322 491.456 36.1235 491.521 36.0114 491.58L35.8423 491.659C35.6543 491.744 36.0114 491.599 35.8423 491.659C35.7239 491.702 35.6024 491.736 35.479 491.762L35.2911 491.805H35.2096C35.0969 491.805 35.4414 491.805 35.2723 491.805H34.8902H34.7148H34.6021C34.6396 491.805 34.815 491.835 34.6898 491.805C34.561 491.783 34.4334 491.755 34.3077 491.72C34.245 491.72 34.1887 491.684 34.126 491.665L34.007 491.623C34.1511 491.677 33.9569 491.623 33.9193 491.58L33.7439 491.489C33.6221 491.426 33.5049 491.355 33.3932 491.277L33.2554 491.186C33.1239 491.095 33.4057 491.301 33.2554 491.186L32.9297 490.906C32.7246 490.716 32.5321 490.513 32.3534 490.299C32.3534 490.299 32.2532 490.148 32.2219 490.148L32.2783 490.214L32.2094 490.123L31.9525 489.771C31.641 489.313 31.3627 488.834 31.1195 488.338C31.0569 488.211 30.9942 488.077 30.9378 487.95L30.9692 488.023C30.9498 487.985 30.9331 487.947 30.9191 487.907C30.8877 487.835 30.8564 487.756 30.8314 487.677C30.7256 487.409 30.6357 487.135 30.562 486.857C30.5244 486.715 30.4931 486.576 30.4681 486.438L30.4305 486.232C30.4305 486.232 30.4305 486.171 30.4305 486.141C30.4305 486.226 30.4305 486.317 30.4305 486.177C30.4055 485.904 30.4055 485.63 30.4305 485.358V485.151C30.4305 484.987 30.4305 485.345 30.4305 485.151C30.4571 485.01 30.4927 484.87 30.537 484.732C30.537 484.672 30.5746 484.605 30.5996 484.544C30.6128 484.519 30.6233 484.492 30.6309 484.465C30.5808 484.659 30.5808 484.58 30.6309 484.526C30.6932 484.392 30.7644 484.262 30.8439 484.137C30.8815 484.083 30.9316 484.028 30.9629 483.973C30.9942 483.919 30.8376 484.125 30.9065 484.046L30.9566 483.986C31.0506 483.882 31.1508 483.785 31.251 483.688L31.4014 483.567C31.5266 483.463 31.2448 483.676 31.4014 483.567C31.558 483.457 31.6394 483.415 31.7584 483.348L32.1217 483.178L32.0277 483.215H32.1091L32.3221 483.142C32.5911 483.063 32.8652 483.002 33.1426 482.96C33.2679 482.96 32.9422 482.96 33.0675 482.96H33.1489H33.3556C33.4997 482.96 33.6437 482.96 33.7878 482.96C33.9319 482.96 34.1198 482.96 34.2826 482.996C34.4455 483.032 34.0195 482.96 34.2074 482.996H34.3515L34.671 483.051C34.8965 483.087 35.1219 483.136 35.3474 483.184C35.8297 483.293 36.312 483.415 36.7943 483.542C37.6963 483.785 38.592 484.052 39.4689 484.35L39.9261 484.508C40.1619 484.571 40.4137 484.542 40.6286 484.429C40.8435 484.316 41.0048 484.127 41.0786 483.901C41.1388 483.672 41.1076 483.43 40.9915 483.223C40.8753 483.016 40.6827 482.859 40.4523 482.783L40.4022 482.698Z" fill="#1B1B1A"/>
<path d="M77.9509 514.39L70.1527 513.832L44.1462 497.707H39.2292L37.0558 499.504L38.5528 504.573L36.6173 504.482L33.4667 507.002L33.8864 510.207L35.8532 513.473L33.4667 513.431L32.4645 516.685L33.5732 520.661L38.5966 524.717L54.2682 529.294L77.9509 529.926V514.39Z" fill="white"/>
<path d="M157.861 482.748C153.909 482.748 150.101 485.14 146.769 486.937C139.96 490.616 133.145 494.222 126.061 497.391C113.829 502.74 101.222 507.246 88.3355 510.875C81.8151 512.763 74.8688 514.262 68.1792 512.259C61.9156 510.383 56.7356 506.188 51.944 502.011C49.7893 500.123 47.5031 498.041 44.8473 496.857C42.3419 495.722 39.0096 495.643 36.9614 497.755C33.6417 501.161 38.9533 505.715 41.4462 507.888C41.9848 508.355 42.5298 508.805 43.0998 509.23C44.0957 509.964 45.3171 508.374 44.4277 507.56L41.5715 504.931C41.1518 504.543 40.7446 504.112 40.2874 503.754C39.6418 503.338 38.8645 503.16 38.0951 503.25C36.0344 503.304 33.6668 504.142 32.6897 506.024C31.5873 508.161 32.2763 510.917 33.8171 512.666C34.8945 513.88 36.5042 514.627 37.8822 515.483C39.1648 516.314 40.4925 517.078 41.8596 517.771C42.1064 517.883 42.387 517.901 42.6469 517.823C42.9068 517.744 43.1274 517.575 43.2657 517.348C43.404 517.121 43.4501 516.852 43.3951 516.593C43.3402 516.335 43.188 516.106 42.9682 515.95L35.3079 511.446C35.1414 511.349 34.9508 511.298 34.7567 511.298C34.5625 511.298 34.3719 511.349 34.2055 511.446C30.8294 513.625 30.4034 517.717 32.4579 520.959C34.788 524.601 39.1412 526.35 43.1687 527.637C52.7708 530.733 63.0431 531.613 73.1087 531.024C93.8349 529.81 113.321 522.428 132.575 515.483C145.773 510.717 159.077 506.218 172.38 501.738C178.11 499.799 183.847 497.877 189.593 495.971C192.437 495.024 195.362 494.198 198.155 493.123L198.343 493.063C198.093 493.099 197.923 493.026 198.249 493.227C198.675 493.428 199.119 493.588 199.577 493.706C201.287 494.313 202.984 494.999 204.676 495.673C208.603 497.252 212.486 498.933 216.332 500.688C224.932 504.61 233.375 508.878 241.543 513.595C243.497 514.724 245.433 515.881 247.35 517.067C248.54 517.808 249.642 515.968 248.452 515.246C240.559 510.399 232.404 505.962 224.024 501.957C216.595 498.369 209.029 495.005 201.287 492.091C200.322 491.727 198.782 490.829 197.754 491.029C197.541 491.088 197.332 491.161 197.128 491.247L193.533 492.462C188.785 494.04 184.043 495.623 179.308 497.209C166.073 501.647 152.844 506.115 139.678 510.747C122.29 516.855 105.091 523.903 86.8385 527.254C77.0798 529.076 67.0267 529.683 57.149 528.523C52.2188 527.942 47.3677 526.847 42.6801 525.257C38.9846 523.988 34.337 521.912 33.4851 517.759C33.2967 516.92 33.3755 516.044 33.7109 515.249C34.0464 514.453 34.6229 513.775 35.3642 513.303H34.2055L41.8596 517.808L42.9682 515.987C41.7558 515.38 40.5786 514.709 39.4418 513.977C38.1891 513.194 36.5856 512.502 35.5709 511.433C35.1241 510.967 34.7873 510.413 34.584 509.808C34.3806 509.203 34.3156 508.562 34.3934 507.93C34.4664 507.403 34.7022 506.909 35.07 506.513C35.4377 506.118 35.9202 505.839 36.4541 505.714C36.9442 505.547 37.4571 505.451 37.9762 505.429C38.1954 505.429 38.4397 505.429 38.6589 505.429C38.8781 505.429 39.2539 505.617 38.6965 505.253C39.1195 505.587 39.5153 505.953 39.8803 506.346L42.8805 509.102L44.2084 507.433L43.7261 507.05C43.3816 506.759 43.0371 506.443 42.6989 506.164C41.9347 505.484 41.1894 504.774 40.4941 504.021C39.6736 503.147 37.5941 501.149 38.1265 499.838C38.6088 498.624 40.2811 498.205 41.4524 498.211C43.0998 498.211 44.5842 499.091 45.9184 499.977C48.0627 501.535 50.1102 503.213 52.0505 505.004C56.673 509.041 62.0722 512.836 68.1166 514.499C74.5243 516.254 81.195 515.106 87.4648 513.382C100.206 509.875 112.675 505.497 124.777 500.281C132.087 497.13 139.183 493.53 146.13 489.73C148.241 488.588 150.339 487.417 152.519 486.403C153.943 485.674 155.478 485.17 157.066 484.909C156.747 484.952 157.273 484.909 157.373 484.909H157.886C158.177 484.909 158.456 484.797 158.662 484.598C158.867 484.399 158.983 484.129 158.983 483.847C158.983 483.565 158.867 483.295 158.662 483.096C158.456 482.896 158.177 482.784 157.886 482.784L157.861 482.748Z" fill="#1B1F1D"/>
<path d="M347.138 89.6714C347.313 89.805 346.975 89.55 347.138 89.6714L347.288 89.7868L347.589 90.0236C347.783 90.1753 347.971 90.3332 348.159 90.4971C348.503 90.8007 348.835 91.1042 349.161 91.4381C349.486 91.772 349.787 92.0452 350.05 92.4034C350.182 92.5552 350.307 92.7191 350.439 92.8709C350.244 92.6523 350.489 92.9316 350.532 92.9862L350.727 93.2473C351.201 93.8918 351.632 94.565 352.017 95.2628C352.199 95.6028 352.38 95.9428 352.543 96.2949C352.625 96.4649 352.693 96.6349 352.775 96.7988C352.775 96.7988 352.681 96.5802 352.737 96.7138L352.794 96.8474L352.919 97.1509C353.791 99.4692 354.373 101.88 354.654 104.333C354.728 105.172 354.887 106.001 355.13 106.81C355.177 106.961 355.262 107.098 355.379 107.207C355.495 107.317 355.639 107.396 355.796 107.437C355.953 107.478 356.118 107.479 356.275 107.44C356.433 107.402 356.578 107.325 356.696 107.217C356.94 106.998 357.184 106.78 357.435 106.573L357.817 106.27L357.986 106.136L358.086 106.063C358.187 105.984 358.143 106.021 358.086 106.063C358.631 105.699 359.151 105.31 359.709 104.97C360.266 104.63 360.842 104.309 361.431 104.017C361.726 103.872 362.02 103.732 362.321 103.598L362.772 103.398C362.809 103.398 363.035 103.307 362.891 103.349L363.035 103.295C364.253 102.818 365.51 102.44 366.793 102.166C367.119 102.097 367.444 102.036 367.77 101.983L368.227 101.917L368.472 101.88H368.434H368.584C369.242 101.801 369.9 101.753 370.564 101.735C371.305 101.71 372.047 101.722 372.787 101.771C373.15 101.771 373.507 101.826 373.871 101.868C373.963 101.874 374.055 101.874 374.146 101.868C373.946 101.868 374.002 101.868 374.077 101.868H374.234L374.817 101.965C375.061 102.021 375.318 101.987 375.537 101.868C375.697 101.779 375.826 101.645 375.907 101.485C375.989 101.324 376.02 101.144 375.996 100.966C375.972 100.789 375.894 100.622 375.772 100.488C375.65 100.353 375.49 100.257 375.311 100.211C372.516 99.7349 369.655 99.7576 366.868 100.277C364.144 100.782 361.532 101.746 359.151 103.125C357.79 103.919 356.518 104.849 355.355 105.899L356.921 106.3C356.711 105.588 356.568 104.858 356.495 104.12C356.339 103.034 356.189 101.941 355.969 100.86C355.434 97.9439 354.296 95.1624 352.625 92.6826C351.379 90.9163 349.845 89.3579 348.083 88.0687C347.976 88.0079 347.856 87.9686 347.733 87.953C347.609 87.9373 347.483 87.9457 347.363 87.9776C347.128 88.0438 346.926 88.1933 346.799 88.3965C346.737 88.5021 346.696 88.6187 346.68 88.7395C346.664 88.8604 346.672 88.9832 346.705 89.1008C346.785 89.3215 346.937 89.5111 347.138 89.6411V89.6714Z" fill="#1B1B1A"/>
<path d="M394.162 127.997C394.344 128.13 393.999 127.876 394.162 127.997L394.319 128.112L394.613 128.349L395.183 128.823C395.528 129.126 395.86 129.43 396.185 129.764C396.511 130.097 396.812 130.371 397.075 130.729C397.212 130.881 397.331 131.045 397.469 131.196C397.269 130.978 397.513 131.257 397.557 131.318L397.751 131.573C398.225 132.217 398.656 132.891 399.041 133.588C399.229 133.928 399.405 134.274 399.568 134.62C399.649 134.79 399.718 134.96 399.799 135.13C399.799 135.13 399.705 134.906 399.762 135.045L399.818 135.173L399.943 135.482C400.806 137.796 401.382 140.201 401.66 142.646C401.728 143.487 401.885 144.319 402.129 145.129C402.177 145.28 402.263 145.416 402.38 145.525C402.497 145.634 402.64 145.713 402.797 145.753C402.954 145.793 403.119 145.793 403.276 145.754C403.433 145.715 403.578 145.638 403.695 145.53C403.94 145.311 404.184 145.099 404.434 144.893L404.816 144.583L404.986 144.455L405.086 144.376C405.186 144.298 405.148 144.34 405.086 144.376C405.631 144.006 406.151 143.618 406.708 143.278C407.266 142.938 407.842 142.616 408.431 142.324C408.725 142.179 409.019 142.039 409.32 141.906L409.777 141.711C409.777 141.711 410.034 141.614 409.89 141.663C409.746 141.711 409.89 141.663 409.921 141.663L410.065 141.602C411.282 141.124 412.54 140.748 413.823 140.479C414.143 140.406 414.45 140.345 414.794 140.297C414.945 140.266 415.101 140.248 415.252 140.224L415.496 140.187C415.627 140.187 415.302 140.187 415.433 140.187H415.584C416.21 140.109 416.899 140.054 417.563 140.036C418.304 140.011 419.046 140.024 419.786 140.072C420.15 140.072 420.507 140.127 420.87 140.169C420.962 140.178 421.054 140.178 421.146 140.169C420.945 140.169 421.002 140.169 421.077 140.169H421.233L421.816 140.26C422.059 140.315 422.315 140.283 422.536 140.169C422.696 140.079 422.824 139.945 422.905 139.784C422.986 139.623 423.017 139.443 422.992 139.265C422.968 139.088 422.891 138.921 422.77 138.786C422.648 138.651 422.489 138.553 422.311 138.506C419.515 138.03 416.654 138.053 413.867 138.573C411.142 139.076 408.53 140.042 406.151 141.426C404.791 142.221 403.52 143.149 402.355 144.194L403.927 144.595C403.71 143.884 403.566 143.154 403.495 142.416C403.345 141.329 403.188 140.236 402.969 139.162C402.433 136.243 401.296 133.46 399.624 130.978C398.376 129.215 396.843 127.659 395.083 126.37C394.976 126.308 394.856 126.267 394.733 126.252C394.609 126.236 394.483 126.245 394.363 126.279C394.127 126.341 393.925 126.489 393.799 126.692C393.674 126.906 393.641 127.158 393.705 127.396C393.785 127.617 393.936 127.806 394.137 127.936L394.162 127.997Z" fill="#1B1B1A"/>
<path d="M351.984 130.25C352.16 130.383 351.821 130.128 351.984 130.25L352.135 130.365L352.435 130.602L353.005 131.075C353.35 131.379 353.682 131.682 354.007 132.016C354.333 132.35 354.634 132.623 354.897 132.981C355.028 133.133 355.154 133.297 355.285 133.449C355.091 133.23 355.335 133.51 355.379 133.57L355.573 133.825C356.047 134.47 356.478 135.143 356.864 135.841C357.045 136.181 357.227 136.527 357.39 136.873C357.471 137.043 357.54 137.213 357.621 137.383C357.621 137.383 357.528 137.164 357.584 137.298L357.64 137.425L357.766 137.735C358.629 140.048 359.203 142.453 359.476 144.899C359.549 145.74 359.708 146.571 359.952 147.382C359.999 147.532 360.085 147.668 360.202 147.778C360.319 147.887 360.462 147.965 360.619 148.005C360.776 148.045 360.941 148.046 361.098 148.007C361.255 147.968 361.4 147.891 361.517 147.782C361.762 147.564 362.006 147.351 362.257 147.145L362.639 146.835L362.808 146.708L362.908 146.629C363.008 146.55 362.964 146.593 362.908 146.629C363.453 146.265 363.973 145.87 364.53 145.53C365.088 145.19 365.664 144.868 366.253 144.577C366.547 144.431 366.841 144.292 367.142 144.158L367.593 143.964C367.631 143.964 367.856 143.867 367.712 143.915C367.568 143.964 367.712 143.915 367.712 143.915L367.856 143.855C369.073 143.376 370.331 143 371.614 142.731L372.591 142.549L373.049 142.476L373.293 142.44C373.425 142.44 373.099 142.44 373.23 142.44H373.381C374.007 142.361 374.696 142.313 375.36 142.288C376.101 142.264 376.843 142.276 377.584 142.325C377.947 142.325 378.304 142.379 378.667 142.422C378.758 142.44 378.85 142.452 378.943 142.458C378.742 142.458 378.799 142.458 378.874 142.458H379.03L379.613 142.549C379.857 142.604 380.112 142.572 380.333 142.458C380.493 142.368 380.621 142.234 380.702 142.073C380.783 141.912 380.814 141.732 380.79 141.554C380.766 141.377 380.688 141.21 380.567 141.075C380.445 140.94 380.286 140.842 380.108 140.795C377.313 140.319 374.451 140.342 371.664 140.862C368.939 141.365 366.327 142.331 363.948 143.715C362.587 144.507 361.314 145.435 360.152 146.483L361.718 146.884C361.503 146.173 361.361 145.443 361.292 144.704C361.135 143.618 360.985 142.525 360.766 141.45C360.231 138.532 359.093 135.749 357.421 133.267C356.174 131.504 354.64 129.948 352.88 128.659C352.719 128.565 352.533 128.52 352.346 128.531C352.159 128.541 351.979 128.606 351.83 128.717C351.681 128.827 351.57 128.979 351.512 129.152C351.453 129.324 351.45 129.51 351.502 129.685C351.582 129.906 351.734 130.095 351.934 130.225L351.984 130.25Z" fill="#1B1B1A"/>
<path d="M200.505 399.746C196.331 408.256 193.035 417.144 190.664 426.282C188.303 435.455 186.562 444.767 185.453 454.16C184.407 462.562 183.461 471.098 184.514 479.549C185.09 484.126 186.142 488.947 188.704 492.905C189.34 493.953 190.161 494.886 191.128 495.661C192.838 496.942 195.462 496.687 197.21 495.594C198.002 495.111 198.639 494.424 199.051 493.609C199.161 493.403 199.188 493.164 199.127 492.94C199.066 492.716 198.92 492.521 198.719 492.395C198.507 492.286 198.259 492.259 198.027 492.32C197.794 492.381 197.594 492.525 197.467 492.723C197.101 493.396 196.532 493.946 195.836 494.3C195.141 494.653 194.351 494.793 193.571 494.702C193.311 494.668 193.054 494.619 192.8 494.556C192.556 494.508 192.882 494.611 192.8 494.556C192.719 494.502 192.525 494.411 192.399 494.326C192.274 494.241 192.08 494.058 192.343 494.326C192.268 494.259 192.18 494.198 192.099 494.131C191.917 493.973 191.742 493.803 191.573 493.634C191.404 493.464 191.216 493.233 191.04 493.026C190.865 492.82 191.159 493.19 191.04 492.996L190.909 492.82C190.802 492.68 190.696 492.535 190.596 492.389C190.158 491.754 189.767 491.091 189.424 490.404C189.33 490.222 189.243 490.04 189.155 489.857L189.005 489.536L188.948 489.402L188.892 489.275V489.323C188.691 488.856 188.51 488.388 188.334 487.915C187.486 485.511 186.882 483.032 186.53 480.514C185.353 472.567 186.148 464.426 187.069 456.467C188.069 447.43 189.64 438.46 191.773 429.609C193.901 420.729 196.885 412.062 200.686 403.723C201.156 402.715 201.638 401.707 202.139 400.687C202.249 400.48 202.275 400.241 202.212 400.017C202.15 399.792 202.003 399.598 201.801 399.473C201.587 399.351 201.331 399.316 201.091 399.377C200.85 399.437 200.644 399.587 200.517 399.795L200.505 399.746Z" fill="#1B1B1A"/>
<path d="M202.567 398.708C200.877 393.848 198.334 389.307 195.051 385.285C193.46 383.322 191.7 381.495 189.789 379.821C188.795 378.947 187.766 378.119 186.701 377.338C185.631 376.518 184.501 375.776 183.319 375.116C182.036 374.386 180.599 373.948 179.116 373.835C177.783 373.745 176.455 374.07 175.326 374.764C174.16 375.535 173.356 376.723 173.09 378.067C172.832 379.421 172.975 380.819 173.504 382.098C174.064 383.404 174.806 384.629 175.709 385.74C176.529 386.803 177.387 387.835 178.289 388.824C180.02 390.726 181.905 392.49 183.926 394.1C185.986 395.749 188.174 397.241 190.472 398.562C192.777 399.876 195.185 401.011 197.675 401.956C198.258 402.181 198.853 402.393 199.448 402.593C199.684 402.657 199.937 402.629 200.153 402.515C200.369 402.402 200.531 402.213 200.606 401.986C200.667 401.757 200.636 401.514 200.52 401.306C200.404 401.098 200.211 400.94 199.98 400.863C199.354 400.663 198.79 400.45 198.201 400.226L197.293 399.874L197.205 399.837C197.055 399.776 197.237 399.837 197.255 399.837L197.055 399.752L196.591 399.558C195.426 399.06 194.28 398.514 193.159 397.931C190.923 396.764 188.783 395.433 186.758 393.948L186.382 393.669L186.444 393.718L186.344 393.645L186.144 393.493L185.38 392.886C184.891 392.497 184.415 392.097 183.939 391.672C182.987 390.852 182.06 390.002 181.177 389.11C180.293 388.217 179.442 387.288 178.634 386.347L178.039 385.637L177.763 385.297C177.763 385.261 177.657 385.164 177.794 385.34L177.738 385.267C177.682 385.194 177.619 385.121 177.563 385.042C177.155 384.52 176.755 383.992 176.385 383.439C176.013 382.885 175.685 382.305 175.402 381.703C175.333 381.551 175.402 381.703 175.402 381.703C175.402 381.703 175.402 381.618 175.351 381.582C175.301 381.545 175.295 381.442 175.27 381.369C175.245 381.296 175.151 381.035 175.101 380.865C175.015 380.574 174.948 380.278 174.901 379.979C174.901 379.882 174.901 380.082 174.901 380.076C174.901 380.07 174.901 380.003 174.901 379.961C174.894 379.894 174.894 379.827 174.901 379.76C174.901 379.602 174.901 379.445 174.901 379.293C174.901 379.141 174.901 379.001 174.901 378.856V378.649C174.901 378.546 174.901 378.753 174.901 378.746C174.901 378.74 174.901 378.655 174.901 378.607C174.949 378.313 175.027 378.024 175.132 377.745C175.132 377.708 175.232 377.502 175.17 377.642L175.22 377.538C175.285 377.4 175.361 377.266 175.445 377.138C175.479 377.08 175.516 377.026 175.558 376.974C175.573 376.948 175.589 376.924 175.608 376.901C175.702 376.767 175.608 376.949 175.571 376.949C175.684 376.844 175.789 376.731 175.884 376.609C175.978 376.518 176.078 376.433 176.178 376.348C176.279 376.263 176.141 376.385 176.128 376.385C176.116 376.385 176.21 376.33 176.222 376.324L176.41 376.197C176.523 376.128 176.641 376.065 176.761 376.008L176.968 375.911C176.968 375.911 177.087 375.863 176.968 375.911H177.011C177.284 375.813 177.565 375.736 177.851 375.681L178.076 375.638H178.164C178.289 375.638 177.963 375.638 178.089 375.638C178.214 375.638 178.383 375.638 178.527 375.602C178.832 375.58 179.137 375.58 179.442 375.602H179.529C179.686 375.602 179.467 375.602 179.454 375.602C179.521 375.608 179.588 375.608 179.655 375.602C179.822 375.63 179.991 375.666 180.162 375.711C180.493 375.79 180.819 375.887 181.139 376.002L181.365 376.087C181.521 376.148 181.365 376.087 181.327 376.087C181.37 376.102 181.412 376.12 181.452 376.142L181.916 376.355C182.235 376.506 182.542 376.676 182.849 376.852C183.438 377.186 183.995 377.563 184.553 377.939L185.311 378.473L185.661 378.728L185.856 378.874C185.856 378.874 185.962 378.959 185.856 378.874L185.906 378.91C186.401 379.287 186.883 379.663 187.359 380.058C189.279 381.635 191.06 383.365 192.683 385.23C193.09 385.698 193.478 386.165 193.86 386.645C193.961 386.766 193.86 386.645 193.86 386.602L193.936 386.699L194.067 386.87L194.368 387.252C194.556 387.495 194.737 387.744 194.919 387.987C195.646 388.982 196.335 390.008 196.973 391.059C197.612 392.109 198.226 393.159 198.752 394.252C199.028 394.804 199.291 395.363 199.548 395.927C199.548 395.988 199.604 396.055 199.629 396.122L199.679 396.231L199.729 396.346C199.767 396.431 199.805 396.516 199.836 396.601C199.955 396.881 200.074 397.16 200.18 397.445C200.406 397.998 200.613 398.556 200.807 399.121C200.837 399.239 200.891 399.35 200.966 399.448C201.041 399.546 201.136 399.628 201.244 399.69C201.353 399.751 201.473 399.791 201.597 399.807C201.722 399.823 201.849 399.814 201.97 399.782C202.091 399.749 202.204 399.693 202.303 399.618C202.401 399.542 202.483 399.448 202.544 399.341C202.604 399.234 202.642 399.117 202.654 398.995C202.667 398.874 202.654 398.752 202.617 398.635L202.567 398.708Z" fill="#1B1B1A"/>
<path d="M202.734 400.516C203.44 399.395 204.196 398.3 205.002 397.232C205.196 396.965 205.402 396.697 205.628 396.436L205.922 396.066C205.922 396.066 206.029 395.932 205.922 396.036L206.104 395.817C206.524 395.301 206.95 394.791 207.394 394.287C209.149 392.284 211.059 390.413 213.107 388.69C213.62 388.259 214.14 387.834 214.673 387.421L215.048 387.136C215.112 387.082 215.179 387.031 215.249 386.984L215.349 386.905L215.405 386.862L215.506 386.79L215.681 386.656L216.113 386.34C217.209 385.557 218.331 384.811 219.483 384.112C220.636 383.414 221.894 382.655 223.116 382.048L224.099 381.581L224.613 381.356C224.657 381.356 224.776 381.283 224.613 381.356L224.744 381.301L225.008 381.204C225.699 380.932 226.416 380.729 227.15 380.597C227.238 380.572 227.328 380.556 227.419 380.549C227.225 380.549 227.312 380.549 227.381 380.549H227.519C227.701 380.549 227.889 380.518 228.07 380.512C228.383 380.491 228.697 380.491 229.01 380.512H229.123C228.897 380.512 228.966 380.512 229.035 380.512L229.254 380.543L229.693 380.64C229.837 380.676 229.981 380.713 230.119 380.761C230.256 380.81 230.394 380.877 230.538 380.907C230.338 380.858 230.4 380.852 230.463 380.907L230.563 380.949L230.764 381.04L231.146 381.247C231.271 381.32 231.39 381.399 231.509 381.484L231.578 381.532C231.672 381.599 231.421 381.411 231.515 381.484L231.703 381.635C231.81 381.726 231.91 381.824 232.01 381.927C232.055 381.968 232.097 382.013 232.135 382.06L232.204 382.139C232.298 382.249 232.204 382.139 232.173 382.097C232.323 382.34 232.499 382.552 232.624 382.807C232.635 382.839 232.65 382.87 232.668 382.898C232.668 382.898 232.58 382.686 232.637 382.831C232.637 382.886 232.68 382.947 232.705 383.007C232.762 383.177 232.812 383.347 232.85 383.517V383.639C232.881 383.778 232.85 383.584 232.85 383.578C232.85 383.572 232.85 383.76 232.85 383.791C232.862 383.96 232.862 384.131 232.85 384.301C232.85 384.386 232.85 384.464 232.85 384.543C232.85 384.622 232.85 384.604 232.85 384.634V384.665V384.604C232.85 384.604 232.85 384.665 232.85 384.695C232.85 384.725 232.85 384.774 232.85 384.817L232.793 385.09C232.709 385.413 232.6 385.729 232.467 386.037C232.467 386.104 232.467 386.17 232.467 386C232.453 386.04 232.437 386.078 232.417 386.116L232.317 386.316C232.236 386.486 232.148 386.644 232.054 386.808C231.879 387.111 231.691 387.415 231.49 387.694L231.196 388.095L231.058 388.277C231.035 388.314 231.007 388.348 230.977 388.38C231.14 388.204 230.977 388.38 230.977 388.38C230.77 388.635 230.551 388.89 230.35 389.139C229.498 390.107 228.593 391.029 227.638 391.901C227.156 392.345 226.661 392.77 226.16 393.182L225.396 393.789L225.033 394.069C224.964 394.117 224.901 394.178 224.832 394.22C225.058 394.087 224.832 394.221 224.757 394.281C222.658 395.828 220.404 397.169 218.03 398.282C217.435 398.567 216.827 398.828 216.22 399.083H216.276L216.157 399.132L215.932 399.223L215.468 399.399C215.161 399.52 214.842 399.63 214.541 399.745C212.054 400.626 209.481 401.261 206.862 401.639L206.405 401.7H206.467H206.342L206.066 401.736L205.083 401.84C204.425 401.9 203.761 401.943 203.104 401.967C202.446 401.991 201.82 402.003 201.181 401.967C200.932 401.967 200.693 402.063 200.516 402.234C200.34 402.405 200.241 402.636 200.241 402.878C200.241 403.119 200.34 403.351 200.516 403.522C200.693 403.692 200.932 403.788 201.181 403.788C203.953 403.813 206.721 403.551 209.436 403.005C212.149 402.456 214.797 401.642 217.341 400.577C222.386 398.458 226.929 395.358 230.689 391.47C231.699 390.453 232.611 389.347 233.413 388.168C234.287 386.929 234.772 385.472 234.81 383.973C234.798 383.275 234.636 382.587 234.336 381.952C234.035 381.318 233.601 380.751 233.062 380.288C232.057 379.435 230.816 378.887 229.492 378.709C226.323 378.278 223.354 379.747 220.679 381.223C215.787 383.926 211.35 387.342 207.526 391.349C205.599 393.379 203.838 395.55 202.258 397.845C201.882 398.391 201.513 398.95 201.156 399.508C201.041 399.716 201.014 399.959 201.08 400.186C201.146 400.413 201.301 400.606 201.511 400.725C201.721 400.844 201.97 400.879 202.207 400.823C202.443 400.767 202.648 400.624 202.778 400.425L202.734 400.516Z" fill="#1B1B1A"/>
<path d="M201.195 400.699C201.481 398.356 201.535 395.992 201.358 393.639C201.181 391.224 200.776 388.83 200.149 386.487C199.522 384.155 198.684 381.882 197.643 379.694C196.628 377.548 195.414 375.496 194.017 373.562C192.595 371.597 190.984 369.768 189.206 368.098C188.987 367.892 188.768 367.685 188.542 367.491C188.456 367.402 188.352 367.33 188.237 367.28C188.122 367.23 187.998 367.203 187.871 367.201C187.745 367.199 187.62 367.222 187.503 367.267C187.386 367.313 187.28 367.381 187.191 367.468C187.101 367.554 187.031 367.657 186.984 367.771C186.936 367.884 186.913 368.006 186.915 368.128C186.918 368.25 186.945 368.371 186.997 368.482C187.048 368.594 187.122 368.695 187.214 368.778C188.1 369.588 188.935 370.421 189.72 371.279C190.121 371.716 190.509 372.16 190.891 372.615L191.154 372.937L191.292 373.101L191.348 373.173C191.43 373.277 191.392 373.222 191.348 373.173C191.548 373.398 191.732 373.636 191.9 373.884C193.323 375.761 194.566 377.761 195.614 379.858C195.883 380.386 196.134 380.914 196.372 381.454C196.372 381.515 196.428 381.582 196.459 381.642C196.541 381.843 196.403 381.527 196.459 381.642C196.516 381.758 196.572 381.916 196.635 382.055L196.96 382.857C197.386 383.949 197.762 385.067 198.094 386.19C198.426 387.313 198.721 388.454 198.915 389.608C199.027 390.178 199.128 390.755 199.209 391.338C199.209 391.405 199.209 391.471 199.24 391.544C199.272 391.617 199.209 391.344 199.24 391.447C199.237 391.488 199.237 391.528 199.24 391.569L199.297 392.006C199.334 392.305 199.366 392.603 199.391 392.898C199.619 395.216 199.619 397.55 199.391 399.868C199.366 400.155 199.334 400.44 199.297 400.724C199.297 400.965 199.396 401.197 199.572 401.367C199.749 401.537 199.988 401.633 200.236 401.634C200.485 401.634 200.724 401.538 200.9 401.367C201.066 401.19 201.163 400.963 201.176 400.724L201.195 400.699Z" fill="#1B1B1A"/>
<path d="M202.447 400.741C202.716 399.66 203.036 398.586 203.399 397.529C203.587 396.995 203.781 396.461 203.988 395.933C204.094 395.672 204.195 395.411 204.307 395.156C204.357 395.028 204.408 394.907 204.464 394.779V394.7C204.514 394.591 204.395 394.87 204.464 394.761L204.558 394.549C205.471 392.504 206.554 390.535 207.796 388.66C208.423 387.713 209.093 386.79 209.794 385.898L209.92 385.74L209.863 385.806C209.905 385.776 209.939 385.736 209.963 385.691L210.239 385.351C210.414 385.139 210.596 384.92 210.784 384.708C211.147 384.277 211.523 383.858 211.911 383.445C213.449 381.787 215.125 380.254 216.922 378.861L217.248 378.606L217.436 378.467L217.361 378.521L217.48 378.43L218.169 377.932C218.632 377.605 219.102 377.283 219.578 376.973C220.538 376.354 221.52 375.775 222.522 375.237L223.28 374.842C223.485 374.72 223.635 374.526 223.698 374.3C223.761 374.075 223.732 373.834 223.618 373.628C223.49 373.431 223.29 373.288 223.058 373.227C222.826 373.167 222.579 373.193 222.365 373.3C220.305 374.35 218.342 375.569 216.496 376.943C212.691 379.76 209.391 383.167 206.731 387.027C205.429 388.898 204.292 390.872 203.33 392.928C202.333 395.032 201.522 397.216 200.906 399.454C200.837 399.721 200.762 399.994 200.7 400.261C200.633 400.493 200.664 400.741 200.787 400.951C200.909 401.16 201.112 401.314 201.351 401.378C201.59 401.443 201.846 401.413 202.062 401.294C202.278 401.176 202.437 400.979 202.503 400.747L202.447 400.741Z" fill="#1B1B1A"/>
<path d="M209.155 234.045L206.024 298.045L202.892 361.717L201.194 397.639C201.132 398.811 203.011 398.805 203.073 397.639L206.205 333.639L209.306 269.961L211.053 234.045C211.11 232.873 209.231 232.873 209.174 234.045H209.155Z" fill="#1B1B1A"/>
<path d="M290.838 64.5364C279.163 31.1461 245.152 -14.0098 173.891 5.73299C89.3321 29.1669 74.1366 114.525 89.3321 151.685C116.128 217.251 185.309 225.751 201.57 224.421L198.488 234.214L205.134 230.334L205.678 229.952C205.994 231.017 206.506 232.019 207.188 232.909C207.533 233.352 207.995 233.699 208.524 233.912C209.054 234.125 209.633 234.198 210.201 234.123C211.886 233.777 212.625 231.889 213.088 230.28L213.483 230.134L221.694 238.026C221.673 233.529 221.007 229.057 219.715 224.737V224.737C249.11 221.094 273.851 200.745 286.974 174.992C300.096 149.238 304.65 103.998 290.838 64.5364Z" fill="#EE7779"/>
<path d="M291.746 64.2883C287.092 51.0293 280.008 38.4563 270.487 27.8928C259.57 15.7813 245.32 6.75373 229.21 2.68619C208.333 -2.58948 185.991 0.421717 165.885 7.23941C148.159 13.2497 131.817 22.8843 118.651 35.9126C107.097 47.458 98.0681 61.1465 92.1061 76.157C86.7035 89.5607 83.7039 103.761 83.2368 118.144C82.886 129.885 84.239 141.942 88.8239 152.894C96.215 170.536 107.84 186.284 123.105 198.347C135.463 207.978 149.58 215.268 164.72 219.839C175.118 223.02 186.116 225.242 197.053 225.436C198.556 225.436 200.065 225.436 201.569 225.321L200.661 224.204L197.579 233.996C197.535 234.17 197.544 234.352 197.604 234.521C197.665 234.69 197.775 234.838 197.921 234.947C198.067 235.056 198.243 235.122 198.427 235.137C198.61 235.151 198.795 235.113 198.957 235.028C201.35 233.632 203.886 232.345 206.147 230.778L204.769 230.238C205.596 232.478 206.968 235.216 209.862 235.095C212.336 234.998 213.413 232.503 213.989 230.536L213.363 231.143L213.758 230.997L212.843 230.766L221.055 238.659C221.187 238.783 221.354 238.867 221.536 238.9C221.717 238.934 221.904 238.915 222.074 238.847C222.245 238.778 222.391 238.663 222.495 238.516C222.598 238.368 222.655 238.194 222.658 238.015C222.607 233.43 221.918 228.872 220.61 224.465L219.708 225.612C221.226 225.528 222.732 225.305 224.205 224.944C225.767 224.657 227.32 224.327 228.866 223.955C231.987 223.19 235.056 222.237 238.054 221.101C243.959 218.867 249.586 215.996 254.828 212.541C265.521 205.427 274.656 196.332 281.705 185.78C288.401 175.848 292.936 164.896 295.798 153.386C298.992 140.235 300.465 126.746 300.183 113.238C300 98.4529 297.743 83.76 293.475 69.5639C292.936 67.7912 292.36 66.0367 291.752 64.2883C291.364 63.1834 289.554 63.6812 289.942 64.7679C294.684 78.5816 297.435 92.9641 298.116 107.507C298.85 121.016 297.852 134.56 295.147 147.831C292.786 159.196 289.002 170.239 282.989 180.292C276.622 191.046 268.142 200.487 258.029 208.079C248.105 215.554 236.527 220.693 224.205 223.093C222.727 223.468 221.215 223.704 219.689 223.797C219.546 223.798 219.404 223.83 219.275 223.893C219.147 223.955 219.034 224.045 218.947 224.156C218.86 224.266 218.8 224.395 218.773 224.532C218.745 224.669 218.75 224.81 218.787 224.944C220.036 229.189 220.689 233.577 220.729 237.991L222.333 237.347L214.121 229.455C214.005 229.339 213.858 229.257 213.697 229.216C213.536 229.176 213.366 229.178 213.207 229.224C212.934 229.281 212.683 229.41 212.483 229.598C212.282 229.786 212.14 230.025 212.073 230.287C211.872 231.176 211.46 232.007 210.87 232.715C208.822 234.712 207.112 231.197 206.555 229.722C206.515 229.589 206.444 229.466 206.348 229.363C206.252 229.26 206.134 229.18 206.001 229.128C205.868 229.076 205.725 229.054 205.582 229.063C205.44 229.072 205.301 229.113 205.177 229.182C202.915 230.766 200.379 232.047 197.986 233.431L199.364 234.457L202.446 224.653C202.483 224.518 202.488 224.377 202.46 224.24C202.433 224.104 202.373 223.975 202.286 223.864C202.199 223.753 202.086 223.663 201.958 223.601C201.829 223.539 201.687 223.506 201.544 223.505C197.942 223.729 194.326 223.646 190.739 223.257C185.309 222.734 179.922 221.849 174.616 220.61C160.389 217.373 146.833 211.813 134.529 204.169C119.162 194.544 106.427 181.457 97.4113 166.026C93.4715 159.275 89.9639 152.093 87.9095 144.571C86.4395 139.052 85.5456 133.404 85.2412 127.712C83.8034 98.507 93.1032 69.7552 111.486 46.5732C122.5 33.0218 136.545 22.0716 152.562 14.5489C162.185 10.0526 172.324 6.67594 182.765 4.48926C193.318 2.13674 204.177 1.34868 214.973 2.15195C232.119 3.55795 248.336 10.3002 261.204 21.3726C272.241 30.8858 280.622 43.046 286.509 56.1289C287.762 58.958 288.921 61.8478 289.948 64.7679C290.324 65.8728 292.134 65.3993 291.746 64.2883Z" fill="#1B1B1A"/>
<path d="M193.152 702.699C226.738 702.699 253.965 699.438 253.965 695.414C253.965 691.391 226.738 688.129 193.152 688.129C159.565 688.129 132.338 691.391 132.338 695.414C132.338 699.438 159.565 702.699 193.152 702.699Z" fill="#1B1F1D" fill-opacity="0.1"/>
<path d="M22.2077 464.871C24.5115 466.366 26.2534 468.545 27.1724 471.081C28.0915 473.617 28.1382 476.373 27.3057 478.936L27.0257 479.041C25.1568 474.402 23.4589 469.711 21.9319 464.967L22.2077 464.871Z" fill="#1B1F1D"/>
<path d="M6.86518 482.461C9.45116 481.491 12.2918 481.359 14.9616 482.085C17.6314 482.811 19.9867 484.356 21.6747 486.488L21.6025 486.77C16.6105 485.591 11.6723 484.246 6.78805 482.735L6.86518 482.461Z" fill="#1B1F1D"/>
<path d="M4.96379 468.167C9.0635 467.952 13.181 469.169 16.6996 471.637C20.2181 474.105 22.9484 477.691 24.4815 481.857L24.2614 482.261C17.6088 477.923 11.1017 473.355 4.74019 468.556L4.96379 468.167Z" fill="#1B1F1D"/>
<path d="M351.03 613.145C350.118 611.536 349.769 609.684 350.034 607.866C350.299 606.048 351.165 604.362 352.501 603.061L352.705 603.083C352.333 606.466 351.841 609.828 351.229 613.171L351.03 613.145Z" fill="#1B1F1D"/>
<path d="M366.039 607.152C364.156 606.952 362.391 606.167 361.007 604.913C359.623 603.659 358.696 602.005 358.364 600.197L358.499 600.048C361.144 602.284 363.703 604.605 366.175 607.009L366.039 607.152Z" fill="#1B1F1D"/>
<path d="M362.556 616.402C360 615.283 357.897 613.29 356.564 610.721C355.231 608.152 354.738 605.146 355.16 602.152L355.424 601.974C358.052 606.632 360.516 611.385 362.817 616.234L362.556 616.402Z" fill="#1B1F1D"/>
</svg>
