<svg width="145" height="71" viewBox="0 0 145 46" fill="none" xmlns="http://www.w3.org/2000/svg">
<g clip-path="url(#clip0_1384_86882)">
<path d="M11.46 0C19.93 3.35 21.94 9.3 16.64 15.72C21.02 18.99 22.51 23.25 20.23 28.29C17.93 33.37 11.24 35.02 0 33.55C0 22.38 0 11.19 0 0C3.82 0 7.64 0 11.46 0ZM5.26 29.05C8.82 28.68 12.54 29.97 15.08 26.6C16.32 24.95 16.38 22.95 15.17 21.27C12.62 17.75 8.82 19.1 5.27 18.8C5.26 22.25 5.26 25.42 5.26 29.05ZM5.25 14.21C8.47 14.05 11.78 15.01 13.81 11.83C14.85 10.21 14.91 8.22 13.64 6.73C11.4 4.1 8.28 4.92 5.25 4.95C5.25 8.05 5.25 10.97 5.25 14.21Z" fill="#666666"/>
<path d="M91.6792 0C91.6792 4.07 91.6792 8.15 91.6792 12.23C99.9392 9.62 104.539 10.58 107.849 15.97C110.939 21.01 110.609 26.13 106.729 30.59C102.559 35.38 97.3892 35.67 91.8692 32.83C90.4092 34.74 88.3892 33.31 86.1992 34.05C86.1992 22.44 86.1992 11.22 86.1992 0C88.0292 0 89.8592 0 91.6792 0ZM104.649 22.55C104.219 18.51 102.679 15.31 97.9292 15.38C93.2192 15.44 91.4492 18.53 91.5092 22.73C91.5592 26.82 93.3792 29.84 97.9392 29.85C102.609 29.85 104.299 26.76 104.649 22.55Z" fill="#666666"/>
<path d="M144.02 33.66C142.3 33.73 140.51 34.24 138.54 33C132.88 35.82 127.32 35.36 123.18 29.67C119.85 25.09 119.77 20.03 123.21 15.43C127.36 9.87 132.85 9.38 139.03 12.43C139.03 8.15 139.03 4.08 139.03 0C140.69 0 142.35 0 144.01 0C144.01 11.22 144.01 22.44 144.02 33.66ZM139.19 22.71C138.95 18.61 137.48 15.38 132.68 15.38C128.17 15.39 126.14 18.24 126.1 22.43C126.06 26.66 127.91 29.76 132.58 29.84C137.17 29.91 138.87 26.9 139.19 22.71Z" fill="#666666"/>
<path d="M27.8992 0C29.4492 0.87 30.8092 1.91 30.3492 3.97C30.0192 5.47 29.0692 6.4 27.4592 6.54C25.8692 6.68 24.6892 6.04 24.0992 4.59C23.2592 2.55 24.4492 1.2 25.9092 0C26.5792 0 27.2392 0 27.8992 0Z" fill="#666666"/>
<path d="M116.101 0C117.761 0.92 119.111 2.07 118.501 4.19C118.041 5.75 116.911 6.61 115.191 6.55C113.581 6.49 112.571 5.63 112.171 4.14C111.591 2 112.901 0.86 114.601 0C115.101 0 115.601 0 116.101 0Z" fill="#666666"/>
<path d="M144.02 33.66C144.02 22.44 144.01 11.22 144.01 0C145.16 0.42 144.47 1.35 144.47 1.98C144.53 12.53 144.51 23.08 144.51 33.64C144.34 33.64 144.18 33.65 144.02 33.66Z" fill="#666666"/>
<path d="M50.8306 32.8193C44.2106 35.8193 38.7306 34.7693 34.9606 29.8693C31.6006 25.4993 31.7706 19.0493 35.3506 14.7793C39.0806 10.3393 44.7206 9.38932 50.4206 12.2793C51.9706 10.4593 53.9706 11.6293 55.7306 11.3793C55.7306 19.8793 56.1506 28.2793 55.5706 36.6093C55.2406 41.2893 51.6606 44.3093 46.8606 45.2193C41.3406 46.2693 36.7506 44.6993 33.1706 39.8993C34.2606 38.8893 35.3106 37.8993 36.5306 36.7593C39.3706 40.3993 42.9106 42.1593 47.3506 40.0993C50.3806 38.7193 51.0206 35.9493 50.8306 32.8193ZM50.9806 22.6993C50.6706 18.5893 49.2506 15.3293 44.4406 15.3493C39.7906 15.3693 37.8106 18.2893 37.8306 22.5693C37.8606 26.7993 39.7606 29.8493 44.4306 29.8393C48.9706 29.8293 50.6606 26.8093 50.9806 22.6993Z" fill="#666666"/>
<path d="M76.8505 12.3999C78.3605 10.4099 80.3405 11.7199 82.2705 11.2699C82.2705 18.7899 82.2705 26.1399 82.2705 33.6599C80.4805 33.6399 78.5605 34.4199 76.6905 32.8899C70.8305 35.8499 65.5705 34.9799 61.6205 30.1599C58.0205 25.7799 58.0605 19.4199 61.7005 14.8899C65.3905 10.3199 70.8005 9.38994 76.8505 12.3999ZM77.4005 22.5199C77.1205 18.4499 75.5605 15.3099 70.7905 15.3499C66.2605 15.3799 64.2805 18.2499 64.2405 22.4099C64.2005 26.7499 66.1205 29.8899 70.9305 29.8399C75.4705 29.7799 77.1805 26.7699 77.4005 22.5199Z" fill="#666666"/>
<path d="M29.6105 33.6692C28.0005 33.6692 26.4605 33.6692 24.7305 33.6692C24.7305 26.2792 24.7305 18.9292 24.7305 11.4492C26.3505 11.4492 27.8905 11.4492 29.6105 11.4492C29.6105 18.8292 29.6105 26.1892 29.6105 33.6692Z" fill="#666666"/>
<path d="M112.9 11.4004C114.6 11.4004 116.08 11.4004 117.74 11.4004C117.74 18.8204 117.74 26.1704 117.74 33.6504C116.16 33.6504 114.62 33.6504 112.9 33.6504C112.9 26.3004 112.9 18.9604 112.9 11.4004Z" fill="#666666"/>
</g>
<defs>
<clipPath id="clip0_1384_86882">
<rect width="144.67" height="45.54" fill="white"/>
</clipPath>
</defs>
</svg>
