<svg className="icon" width="209" height="62" viewBox="0 0 185 62" fill="#999" xmlns="http://www.w3.org/2000/svg">
<path d="M0.0779717 29.5205C1.33201 29.0764 2.21159 29.9124 2.95182 30.4088C6.22626 32.5859 9.6923 34.406 13.0887 36.3655C15.8928 37.994 18.7754 39.5093 21.4577 41.3642C22.5462 42.1219 23.8525 42.566 25.124 43.1843C25.5159 42.8795 25.2633 42.357 25.2633 41.9129C25.2894 39.0913 25.2285 36.2697 25.2982 33.4568C25.3243 32.316 24.9324 31.6541 23.9309 31.1142C21.4838 29.7992 19.2108 28.1707 16.7724 26.8731C14.2208 25.5058 11.6866 24.1037 9.21332 22.6233C6.60944 21.0644 3.90977 19.671 1.27976 18.1557C0.583072 17.7551 0.548238 17.0323 0.104098 16.5185C-0.0439491 16.3531 -0.070075 15.8218 0.269561 15.5432C0.861748 15.0642 1.35814 14.5155 2.05483 14.1149C4.3452 12.8086 6.69653 11.5981 8.87369 10.0741C9.94485 9.3252 11.2424 8.8201 12.392 8.13211C15.0046 6.57327 17.861 5.40631 20.2123 3.42075C22.1718 2.83727 23.7393 1.48743 25.5681 0.625279C26.2997 0.285642 26.796 0.285642 27.5101 0.599153C29.1212 1.30455 30.5843 2.27121 32.0996 3.13336C34.7906 4.67479 37.3596 6.41652 40.1812 7.74023C42.071 8.62851 43.8562 9.75192 45.5893 10.9189C47.1655 11.9813 48.8289 12.8957 50.5096 13.7318C51.3718 14.1585 51.9988 14.9074 52.9306 15.2122C53.2964 15.3342 53.6012 15.7435 53.488 16.266C53.4444 16.475 53.4793 16.7014 53.4793 16.9191C53.4793 26.4638 53.4619 35.9997 53.5054 45.5444C53.5054 46.3978 53.0961 46.7113 52.5126 47.0597C49.3253 48.9756 45.9811 50.6041 42.8983 52.6942C41.6268 53.5563 40.0244 53.8872 38.8575 54.9758C36.1665 55.7944 34.1461 57.8148 31.6032 58.947C30.0966 59.6175 28.7381 60.7148 27.2489 61.5247C26.6306 61.8556 26.4042 61.8208 25.8294 61.5073C23.4606 60.2184 21.0832 58.9382 18.8276 57.4491C18.0352 56.9178 17.1904 56.3692 16.3805 56.0034C14.8304 55.3067 13.4805 54.314 11.9652 53.5737C9.2917 52.2761 6.82716 50.5867 4.27553 49.054C3.18695 48.4008 2.01129 47.8696 0.922709 47.199C0.382774 46.8681 0.0431372 46.6068 0.0431372 45.945C0.0866803 40.476 0.0779717 34.9982 0.0779717 29.5205ZM2.25513 33.5613C2.25513 37.1318 2.28125 40.4324 2.23771 43.7417C2.229 44.3426 2.54251 44.6387 2.88215 45.0044C3.36112 45.5182 4.01427 45.8492 4.57162 46.1801C8.62114 48.5924 12.8187 50.7521 16.8247 53.2515C18.0177 53.9917 19.3327 54.5491 20.5345 55.2719C22.1543 56.2473 23.8003 57.1443 25.4462 58.0674C26.3171 58.5551 26.9005 58.5202 27.7279 58.05C30.175 56.6479 32.7614 55.4722 35.1476 53.9743C37.8386 52.2849 40.5905 50.7347 43.386 49.2281C45.2235 48.244 46.913 46.9813 48.7679 45.9798C49.2121 45.736 49.7694 45.5444 50.1613 45.1264C50.6054 44.6474 50.9364 44.2294 50.9364 43.4804C50.8928 35.1027 50.9015 26.7163 50.9277 18.3386C50.9277 17.6245 50.7709 17.1543 50.1003 16.8059C48.5502 15.9873 47.0784 15.0293 45.5718 14.1498C42.6022 12.4168 39.589 10.7447 36.6194 9.01169C35.6875 8.47175 34.7731 7.89698 33.8326 7.36576C31.5422 6.07688 29.2432 4.81413 26.9615 3.52525C26.6741 3.35979 26.4999 3.35979 26.2039 3.51654C25.0804 4.10873 23.8525 4.54416 22.7988 5.23214C19.803 7.209 16.6418 8.88977 13.5589 10.7186C10.4064 12.5822 7.10583 14.202 4.00556 16.205C4.53679 16.6317 5.02447 17.0062 5.52957 17.3633C7.03617 18.4257 8.80402 19.0092 10.2409 20.1936C10.9463 20.777 11.8782 21.0906 12.7577 21.4302C13.4805 21.7089 14.2121 21.7437 14.961 21.2908C16.2238 20.5158 17.5562 19.8713 18.8364 19.1224C21.0483 17.8161 23.2342 16.4576 25.4375 15.1513C26.3084 14.6375 27.066 14.7158 27.9891 15.3429C29.9399 16.6666 32.0996 17.6855 34.0416 19.0179C35.8966 20.2806 38.1085 20.9077 39.798 22.4317C40.8692 22.5188 40.9301 23.2503 40.9214 24.1037C40.904 28.6583 40.8692 33.2043 40.9476 37.7589C40.965 38.7255 40.5383 39.37 39.8851 39.6835C38.9707 40.1276 38.2131 40.772 37.2551 41.1814C35.4698 41.939 33.8065 43.0102 32.1431 44.0378C30.593 44.9957 29.008 45.884 27.4318 46.8071C26.4564 47.3819 25.6726 47.1293 24.9934 46.6678C21.745 44.4645 18.2703 42.6444 14.8913 40.6675C13.7244 39.9883 12.4965 39.4309 11.3644 38.7081C8.51663 36.8967 5.6602 35.1114 2.25513 33.5613ZM16.4328 23.5377C17.7565 24.3998 18.8799 25.0268 19.9685 25.6887C21.9889 26.9166 24.1138 27.9442 26.1168 29.1809C26.4738 29.4073 26.6654 29.3725 27.0312 29.1896C28.8948 28.2578 30.6975 27.204 32.4915 26.1851C33.8674 25.4013 35.3044 24.5914 36.5758 23.5638C36.3755 23.3635 36.2449 23.1371 36.062 23.0674C34.3464 22.4143 32.8747 21.3344 31.3071 20.4287C29.8441 19.584 28.2504 18.9569 26.9441 17.8509C26.6828 17.6245 26.4825 17.6681 26.1951 17.8422C25.6204 18.1906 24.9759 18.4083 24.4186 18.7828C22.851 19.8365 21.1703 20.7074 19.5156 21.6131C18.5141 22.1617 17.5649 22.8236 16.4328 23.5377ZM37.647 26.368C37.4554 26.3941 37.2725 26.3941 37.0635 26.4986C34.268 27.8397 31.7338 29.6511 28.9732 31.0445C28.0849 31.4887 27.8672 31.9154 27.8759 32.7601C27.902 36.0084 27.8846 39.248 27.8846 42.4964C27.8846 42.775 27.8062 43.0711 28.111 43.2714C28.3026 43.2453 28.4855 43.2627 28.7032 43.1321C31.4813 41.4774 34.268 39.8402 37.0809 38.2465C37.586 37.9592 37.9344 37.8372 37.917 37.0883C37.8386 33.7006 37.8821 30.313 37.8821 26.9166C37.8734 26.6989 37.856 26.5073 37.647 26.368Z"/>
<path d="M119.465 29.8335C119.038 29.8335 118.681 29.8247 118.332 29.8335C117.766 29.8509 117.061 29.6854 116.66 29.9641C115.99 30.4344 116.957 30.8524 116.991 31.4184C117.131 33.5608 116.155 35.9556 113.673 37.1748C112.515 37.7496 111.322 38.3331 109.92 38.0805C108.866 37.8889 107.943 38.8208 106.846 38.5072C106.454 38.394 106.045 38.5682 105.618 38.307C105.13 38.0109 105.078 38.1067 104.373 38.7946C106.393 39.2823 108.405 39.6481 110.469 39.8919C112.428 40.1183 114.518 40.458 116.042 42.13C117.418 43.6366 117.557 45.2913 117.183 47.1549C116.774 49.2102 115.128 49.9852 113.473 50.6122C111.801 51.248 110.068 51.7182 108.196 51.5441C106.759 51.4134 105.304 51.5615 103.859 51.5092C102.134 51.4483 100.471 50.9954 98.7816 50.6732C98.2852 50.5774 98.233 50.3771 98.2417 49.9765C98.2591 48.6789 98.2504 47.3813 98.2504 45.9096C99.9921 46.0489 101.655 45.7615 103.458 46.2144C105.226 46.6585 107.194 46.3015 109.075 46.3189C109.432 46.3189 109.563 46.0489 109.763 45.8747C110.085 45.5874 110.112 45.091 109.72 45.0648C109.241 45.03 109.066 44.5336 108.596 44.5772C106.55 44.7513 104.677 43.8021 102.666 43.6802C100.898 43.5757 99.0603 41.6685 98.6771 39.9703C98.5029 39.2126 98.9471 38.5334 99.1996 38.0196C99.6699 37.0616 99.5218 36.5652 98.86 35.8337C96.5783 33.3082 96.8483 29.4154 99.3041 27.2818C100.506 26.2368 102.021 25.5836 103.554 25.5488C108.823 25.4269 114.1 25.5053 119.456 25.5053C119.465 26.9074 119.465 28.2659 119.465 29.8335ZM107.891 29.8335C107.534 29.8335 107.168 29.8247 106.811 29.8335C105.008 29.877 104.747 30.1208 104.782 31.8364C104.791 32.3677 104.651 32.8902 105.078 33.4388C105.914 34.5187 107.02 34.1007 108.03 34.1442C108.683 34.1704 108.753 33.7088 109.598 32.716C110.503 31.6448 109.441 30.9133 109.458 30.025C109.467 29.6157 108.579 29.9118 108.109 29.8247C108.039 29.8247 107.969 29.8335 107.891 29.8335Z"/>
<path d="M96.1603 34.4582C96.0297 38.8212 94.1921 41.5122 90.8567 43.2887C88.9757 44.2902 86.9727 44.8563 84.8826 44.5428C81.8259 44.0812 79.1785 42.9143 77.3584 40.1275C75.9911 38.0287 75.4599 35.7993 75.7211 33.4567C75.9301 31.6105 76.6355 29.7816 77.8722 28.3012C79.1349 26.7946 80.7547 25.6015 82.6793 25.2967C84.1511 25.0616 85.6141 23.9643 87.2601 25.018C87.8261 25.3751 88.6883 25.1661 89.4634 25.436C92.1543 26.3679 94.166 27.9267 95.3068 30.5567C95.4113 30.8006 95.6116 30.966 95.6639 31.2795C95.8642 32.5162 96.2996 33.7179 96.1603 34.4582ZM85.8319 38.5077C88.2703 38.4903 90.012 36.705 90.0207 34.4495C90.0294 33.2912 89.4372 32.5162 88.6883 31.7585C87.8523 30.9051 86.8508 30.6699 85.6751 30.6699C84.4298 30.6699 83.585 31.236 82.7751 32.0546C82.0436 32.7861 81.7562 33.7267 81.7998 34.6498C81.852 35.6425 82.1481 36.6266 82.9841 37.3843C83.855 38.168 84.7781 38.6732 85.8319 38.5077Z"/>
<path d="M184.273 34.8758C184.108 35.8251 184.404 36.9398 184.09 38.0893C183.489 40.2491 182.018 41.625 180.293 42.8529C178.552 44.0983 176.618 44.5076 174.502 44.6295C172.682 44.734 171.088 44.1854 169.529 43.4887C167.187 42.4436 165.584 40.5887 164.748 38.2025C163.555 34.78 164.322 31.5143 166.255 28.5969C167.291 27.0381 169.146 26.3414 170.783 25.4792C171.367 25.1744 171.924 25.0351 172.569 25.0525C173.509 25.0786 174.45 25.0786 175.39 25.0525C177.559 25.009 179.405 25.7927 180.999 27.2122C181.582 27.7348 182.592 27.8306 182.662 28.8669C184.038 30.2516 184.465 31.941 184.282 33.8308C184.247 34.1269 184.273 34.4143 184.273 34.8758ZM170.365 34.7713C170.365 36.1734 170.653 36.9224 171.463 37.6452C172.351 38.4377 173.527 38.8818 174.589 38.8557C175.565 38.8296 176.836 38.5335 177.472 37.6365C178.029 36.8527 178.621 35.9905 178.639 34.8933C178.665 33.7089 178.064 32.7771 177.419 31.9584C176.731 31.0876 175.434 30.7218 174.519 30.8263C173.57 30.9308 172.334 30.8524 171.524 31.8888C170.801 32.7945 170.2 33.6566 170.365 34.7713Z"/>
<path d="M121.032 44.1503C120.927 43.9935 120.849 43.9326 120.849 43.8803C120.857 42.2953 120.866 40.7104 120.884 39.1254C121.902 38.1065 122.974 37.1224 123.94 36.0512C125.569 34.2486 127.737 33.0381 129.287 31.157C129.409 31.009 129.522 30.7912 129.514 30.6084C129.488 30.2078 129.157 30.2687 128.869 30.2687C128.582 30.2774 128.295 30.2687 127.998 30.2687C126.335 30.2687 124.672 30.2861 123.008 30.26C122.068 30.2513 121.737 29.9291 121.711 29.0147C121.685 28.1525 121.685 27.2817 121.711 26.4108C121.737 25.3658 122.033 25.061 123.113 25.061C126.875 25.0435 130.637 25.0523 134.399 25.0523C135.192 25.0523 135.993 25.0958 136.785 25.0348C137.325 24.9913 137.691 25.3571 138.135 25.4528C138.64 25.5574 138.658 25.7925 138.649 26.1757C138.64 26.8288 138.519 27.5081 138.667 28.1177C139.137 29.9639 137.926 31.0177 136.733 31.8363C136.028 32.324 135.418 32.8726 134.817 33.4474C133.023 35.1804 131.282 36.9569 129.366 38.8641C130.803 38.8641 132.013 38.8641 133.293 38.8641C133.572 38.6377 133.415 38.2545 133.424 37.9149C133.45 37.1311 133.807 36.7479 134.617 36.7566C135.906 36.7741 137.203 36.7654 138.649 36.7654C138.649 38.899 138.649 40.9803 138.649 43.053C138.649 43.7497 138.231 44.0283 137.622 44.1416C137.552 44.1503 137.473 44.1416 137.404 44.1416C131.926 44.1503 126.44 44.1503 121.032 44.1503Z"/>
<path d="M75.2951 38.9426C74.9729 40.3273 75.4606 41.5029 75.6783 42.7221C75.8089 43.4537 75.4083 43.6278 74.8684 43.8891C72.7261 44.908 69.4342 44.8906 67.4138 43.9239C65.7331 43.1227 64.749 41.8948 64.7838 39.857C64.8622 34.954 64.81 30.0511 64.81 25.1394C64.81 24.5734 64.81 24.016 64.81 23.3367C64.4355 23.3367 64.1568 23.3629 63.8868 23.328C62.9028 23.2148 62.6589 22.9623 62.6415 22.0391C62.6241 20.6719 62.6328 19.2959 62.6328 17.9025C63.1292 17.4932 63.7214 17.7197 64.2613 17.711C66.064 17.6761 67.8754 17.6935 69.6781 17.7022C71.742 17.711 71.7507 17.711 71.7507 19.6878C71.7594 24.2337 71.7507 28.7796 71.7507 33.3168C71.7507 34.5447 71.7507 35.7726 71.7507 36.9919C71.7507 38.5333 72.0816 38.8729 73.6492 38.9426C74.1456 38.96 74.6333 38.9426 75.2951 38.9426Z"/>
<path d="M161.648 25.5664C161.648 31.7582 161.648 37.863 161.648 44.0635C159.366 44.0635 157.094 44.0635 154.733 44.0635C154.733 40.7194 154.733 37.4188 154.733 34.1096C154.733 33.6741 154.751 33.2474 154.733 32.812C154.69 31.9237 154.42 31.6712 153.436 31.5666C153.218 31.5405 153 31.5666 152.574 31.5666C152.574 30.5913 152.574 29.6159 152.574 28.6318C152.574 27.6304 152.574 26.6289 152.574 25.5664C155.569 25.5664 158.513 25.5664 161.648 25.5664Z"/>
<path d="M157.547 16.3952C158.645 16.3081 159.55 16.578 160.247 17.3531C160.961 18.1456 161.222 19.1035 161.257 20.1747C161.309 21.7161 159.071 24.0762 157.173 23.8062C156.232 23.6756 155.431 23.4404 154.795 22.7437C154.099 21.9861 153.507 21.0194 153.507 20.0789C153.507 19.1384 154.107 18.1717 154.804 17.4141C155.562 16.5693 156.511 16.2558 157.547 16.3952Z"/>
<path d="M146.913 44.1516C144.327 44.1516 143.029 42.8018 142.977 40.4243C142.96 39.4664 143.108 38.5172 143.822 37.9772C144.658 37.3415 145.59 36.7145 146.774 36.7667C148.577 36.8451 150.249 38.7349 150.414 40.6334C150.519 41.8787 149.709 42.5841 149.134 43.3504C148.629 44.0297 147.68 44.3868 146.913 44.1516Z"/>
</svg>
