<svg className="icon" width="196" height="62" viewBox="0 0 196 33" fill="#999" xmlns="http://www.w3.org/2000/svg">
<path d="M79.8302 17.8803C79.8302 22.5866 79.8302 27.2275 79.8302 32.0648C78.277 32.0648 76.7425 32.1396 75.2174 32.0461C73.8233 31.9525 72.2982 32.5607 71.0164 31.5502C71.0164 24.1492 71.0164 16.8698 71.0164 9.42207C71.3251 9.1788 71.7555 8.85132 72.3731 8.36478C74.4595 8.36478 76.8455 8.36478 78.96 8.36478C80.2886 8.85132 79.5963 9.94603 80.0079 10.6665C81.3646 10.5261 82.1225 9.55306 82.7494 8.92617C84.9482 8.33671 86.8756 7.55077 88.906 7.8876C92.4989 8.47706 95.7362 10.2735 95.7268 14.7927C95.7081 20.1446 95.7268 25.4965 95.7268 30.8484C95.7268 31.2227 95.7268 31.5969 95.7268 32.018C92.9105 32.018 90.2159 32.018 87.5025 32.018C87.3528 31.8683 87.1844 31.6999 86.9411 31.4566C86.9411 26.8251 86.9411 22.1188 86.9411 17.5716C86.2955 16.6827 85.5189 16.2336 84.6301 15.7845C83.9657 15.7845 83.1892 15.7845 82.8617 15.7845C81.374 16.1681 80.719 17.0195 79.8302 17.8803Z"/>
<path d="M44.3782 8.36523C46.6332 8.36523 49.1781 8.36523 51.6108 8.36523C52.3874 8.77692 52.3219 9.4038 52.3219 10.0213C52.3125 14.2785 52.3219 18.5451 52.3219 22.7181C52.9207 23.2795 53.4727 23.8034 54.2493 24.5239C57.0469 24.7017 57.6832 24.5332 59.3018 23.0175C59.3018 18.386 59.3018 13.6797 59.3018 9.04826C59.5358 8.81435 59.7042 8.64593 59.9474 8.40266C62.4082 8.40266 64.9438 8.40266 67.5823 8.40266C67.7133 8.53365 67.9285 8.75821 68.1531 8.99212C68.1531 16.627 68.1531 24.2713 68.1531 31.9997C65.2619 31.9997 62.4082 31.9997 59.4796 31.9997C59.0679 31.3916 59.5358 30.5775 59.227 29.8664C58.8153 29.567 58.544 29.8103 58.2633 30.1097C56.6446 31.8407 54.4926 32.2804 52.2845 32.533C50.4693 32.7482 48.7758 32.2804 47.0729 31.6442C45.3513 30.9986 44.8086 29.4641 43.9478 28.1355C44.2379 27.0501 43.4145 26.1613 43.4332 25.0853C43.5081 20.0515 43.4707 15.0177 43.4613 9.98391C43.4426 9.33831 43.3584 8.69271 44.3782 8.36523Z"/>
<path d="M142.378 22.8399C140.619 22.8399 139.01 22.8305 137.401 22.8586C137.232 22.8586 137.064 23.1206 136.914 23.2422C135.539 22.6434 131.806 22.5218 127.034 22.896C127.015 23.1861 127.006 23.4855 126.987 23.7942C127.492 24.5615 128.138 25.1509 129.083 25.3942C131.731 25.6655 134.425 25.7498 136.858 24.4492C138.86 26.9006 139.73 28.3789 140.095 29.9602C138.046 30.9613 136.044 32.1122 133.611 32.0654C132.348 32.8607 130.917 32.6548 129.616 32.4864C126.248 32.056 122.908 31.3356 120.531 28.6035C119.492 27.4059 118.688 26.0024 118.117 24.496C118.042 24.2901 117.855 24.1311 117.687 23.8972C117.453 23.2048 117.78 22.4095 117.303 21.558C116.947 20.9218 116.91 19.7897 117.499 18.9476C118.033 18.1897 117.181 17.0763 118.126 16.4213C117.846 15.6728 118.37 15.0459 118.697 14.5781C119.455 13.4928 120.194 12.3793 121.027 11.3688C121.364 10.9571 122.019 10.508 122.589 10.1899C124.245 9.29169 125.845 8.42153 127.866 8.24376C131.328 7.935 131.31 7.76658 134.519 8.77708C136.877 9.51624 139.515 11.6682 140.526 13.7454C141.695 16.1781 142.575 19.1628 142.378 22.8399ZM126.641 17.5535C129.036 17.5535 131.469 17.5535 133.948 17.5535C133.948 17.1324 133.948 16.7675 133.948 16.7675C133.303 15.9629 132.816 15.3734 132.339 14.7746C130.421 13.8577 128.737 14.4284 127.043 15.5418C127.062 16.1406 126.21 16.6552 126.641 17.5535Z"/>
<path d="M162.617 29.1815C162.027 27.5909 163.197 26.8705 163.749 25.9816C164.319 25.0553 164.918 24.129 165.555 23.1092C167.838 24.3442 170.195 25.4202 172.75 25.9629C173.124 26.0658 173.199 25.6541 173.423 25.5606C173.938 25.4015 174.134 25.8132 174.49 26.0658C174.986 25.8225 175.5 25.5699 175.996 25.3173C175.996 24.9805 175.996 24.6717 175.996 24.3723C175.716 23.9793 175.051 24.2413 174.836 23.6238C173.47 24.0916 172.226 23.0998 170.878 23.2214C169.484 23.3524 168.352 22.5384 167.08 22.2203C165.012 21.7057 163.066 18.8613 162.925 16.6813C162.682 12.9293 164.993 10.0569 168.567 8.81245C170.28 8.21364 172.076 7.6616 173.994 7.82066C177.175 8.092 180.151 8.89666 182.93 10.6837C182.275 12.5644 181.638 14.417 180.955 16.3819C178.139 15.3714 175.519 14.0614 172.665 14.3608C172.291 14.6228 171.982 14.8474 171.833 14.9597C171.739 15.6614 172.113 15.9795 172.403 16.0731C173.227 16.3538 174.088 16.6158 174.948 16.6532C176.445 16.7093 177.812 17.1865 179.234 17.5701C181.432 18.1689 182.939 19.4414 183.94 21.4156C184.043 21.6121 184.174 21.7899 184.408 22.1361C184.408 22.9501 184.389 23.9419 184.408 24.943C184.445 26.8331 183.603 28.4424 182.303 29.6306C180.862 30.9499 179.093 31.7639 177.044 32.1101C175.463 32.3814 173.882 32.6902 172.338 32.4657C169.475 32.054 166.537 31.7452 163.973 30.1827C163.796 30.0704 163.543 30.0517 163.384 29.9207C163.094 29.6961 162.832 29.4061 162.617 29.1815Z"/>
<path d="M39.6347 31.5502C36.5377 31.5502 33.5342 31.5502 30.4372 31.5502C30.4372 28.1912 30.4372 24.879 30.4372 21.6417C30.1378 21.3423 29.9133 21.1177 29.6887 20.8931C26.5824 20.8931 23.476 20.8931 20.1544 20.8931C20.0702 17.6839 20.1451 14.4746 20.1077 11.1811C23.3637 11.1811 26.5262 11.1811 29.6139 11.1811C29.9133 10.8817 30.1378 10.6571 30.4372 10.3577C30.4372 7.12975 30.4372 3.8082 30.4372 0.449219C33.5342 0.449219 36.5377 0.449219 39.6347 0.449219C39.6347 10.7694 39.6347 21.0709 39.6347 31.5502Z"/>
<path d="M115.713 16.2421C114.178 16.2421 112.719 16.2421 111.193 16.2421C111.193 18.7029 111.193 21.0888 111.193 23.5121C111.474 23.7928 111.802 24.1203 112.213 24.532C112.962 24.532 113.795 24.532 114.693 24.532C115.469 26.6372 115.993 28.7424 116.321 30.8476C115.46 31.671 114.581 32.2511 113.448 32.0359C112.765 31.9143 112.419 32.616 111.774 32.5411C111.156 32.4663 110.52 32.4476 109.912 32.5411C108.742 32.7189 107.675 32.195 106.656 31.9236C104.681 31.3809 103.446 29.7716 102.754 27.8723C102.398 26.9085 102.202 25.898 102.239 24.8127C102.324 22.0245 102.267 19.2362 102.267 16.2796C101.06 16.2796 99.8534 16.2796 98.5903 16.2796C98.5903 13.7346 98.5903 11.3487 98.5903 8.95344C98.74 8.80374 98.899 8.64468 99.1517 8.40141C100.05 8.40141 101.042 8.40141 102.267 8.40141C102.267 7.19442 102.267 6.06228 102.267 4.93015C102.267 3.7793 102.267 2.62845 102.267 1.41211C105.215 1.41211 108.068 1.41211 111.081 1.41211C111.081 3.63895 111.081 5.92194 111.081 8.28913C112.541 8.28913 113.841 8.28913 115.058 8.28913C115.301 8.5324 115.469 8.70081 115.713 8.94408C115.713 11.2364 115.713 13.613 115.713 16.2421Z"/>
<path d="M154.15 32.0186C151.062 32.0186 148.208 32.0186 145.28 32.0186C145.28 24.3275 145.28 16.6739 145.28 8.9361C145.42 8.79575 145.645 8.58055 145.897 8.33728C148.349 8.33728 150.828 8.33728 153.214 8.33728C154.58 8.68347 153.785 9.95595 154.337 10.8168C156.302 9.25422 158.266 7.85074 160.961 7.83203C160.961 10.5922 160.961 13.343 160.961 16.2248C158.706 16.3184 156.311 15.8599 154.159 17.4692C154.15 22.1007 154.15 26.9661 154.15 32.0186Z"/>
<path d="M0.122559 11.1523C3.36926 11.1523 6.53175 11.1523 9.7691 11.1523C9.7691 14.3429 9.7691 17.5054 9.7691 20.8176C6.63468 20.9767 3.41604 20.8363 0.122559 20.9018C0.122559 17.6551 0.122559 14.502 0.122559 11.1523Z"/>
<path d="M10.3578 10.5722C10.3578 7.17581 10.3578 3.86361 10.3578 0.476562C13.3987 0.476562 16.4115 0.476562 19.574 0.476562C19.7424 3.76069 19.5927 7.12903 19.6582 10.5722C16.5612 10.5722 13.5578 10.5722 10.3578 10.5722Z"/>
<path d="M10.3967 21.3906C13.475 21.3906 16.4877 21.3906 19.5754 21.3906C19.5754 24.7309 19.5754 28.0431 19.5754 31.5798C16.6 31.6079 13.5404 31.5798 10.3967 31.5986C10.3967 28.2209 10.3967 24.9087 10.3967 21.3906Z"/>
<path d="M196 32.0271C193.062 32.0271 190.208 32.0271 187.28 32.0271C187.28 29.1453 187.28 26.3009 187.28 23.232C190.105 23.2133 193.015 23.232 196 23.2227C196 26.1419 196 28.9863 196 32.0271Z"/>
</svg>
