<svg className="icon" width="209" height="62" viewBox="0 0 209 33" fill="#999" xmlns="http://www.w3.org/2000/svg">
<path d="M208.322 13.5602C205.87 15.4408 203.166 16.5917 199.798 16.2923C199.19 19.3893 198.591 22.374 197.983 25.4616C200.369 26.0511 203.063 25.8172 204.738 28.0347C205.58 29.1481 205.646 30.4674 205.374 32.1141C201.201 31.927 196.944 32.6849 192.762 31.6837C189.599 30.9352 188.579 29.1855 189.113 26.0511C189.646 22.8699 190.282 19.698 190.9 16.3765C188.046 16.3765 185.258 16.3765 182.46 16.3765C183.256 12.0257 185.66 10.407 192.238 9.76145C192.519 8.25506 192.809 6.69252 193.117 5.13935C193.417 3.64231 193.735 2.15463 194.072 0.554666C196.682 0.433032 199.134 0.51724 200.921 2.65052C202.792 4.87736 201.136 7.37555 201.276 9.85502C203.681 9.85502 206.011 9.85502 208.331 9.85502C208.322 11.0901 208.322 12.3251 208.322 13.5602Z"/>
<path d="M6.1285 0.497782C15.775 0.497782 25.1783 0.357435 34.5722 0.553921C39.9241 0.666199 41.4399 2.89304 40.392 8.03911C40.1113 9.3958 39.9335 10.7712 39.6434 12.1279C38.5581 17.0868 36.1628 19.295 31.0168 19.5008C25.8988 19.6973 20.762 19.5476 15.3072 19.5476C17.8803 11.5291 24.6076 13.5033 30.3805 13.0168C31.2132 11.2016 31.4191 9.26481 31.6062 7.11282C25.7116 7.11282 19.9106 7.11282 13.7821 7.11282C12.7716 9.98526 12.5377 13.2787 11.8172 16.4506C11.1997 19.1546 10.8255 21.9054 10.2734 24.6188C9.15065 30.1204 6.25013 32.2818 0 32.0292C2.04907 21.4657 4.08879 10.9677 6.1285 0.497782Z"/>
<path d="M96.5494 23.7581C95.9881 24.3195 95.9694 24.8247 96.0723 25.5639C103.455 25.5639 110.799 25.5639 118.154 25.5639C118.079 29.2129 115.234 31.917 110.958 32.0386C104.671 32.2164 98.3646 32.2164 92.077 32.0386C88.1941 31.9357 86.4444 29.7556 86.9871 25.9382C87.483 22.4388 88.0912 18.9395 88.9894 15.515C89.9625 11.8099 92.994 10.1912 96.5214 10.0509C102.65 9.80758 108.797 9.84501 114.926 10.0228C117.358 10.0883 119.744 10.9304 120.427 13.7841C121.073 16.46 119.492 20.4646 117.227 21.9991C115.375 23.2622 113.269 23.73 111.071 23.7394C106.261 23.7675 101.443 23.7581 96.5494 23.7581ZM98.0933 16.4226C96.7646 17.8729 97.3073 19.7722 96.1845 21.8962C100.797 17.7512 105.878 19.0331 110.556 18.6401C111.174 18.0039 111.389 17.2928 111.295 16.4226C106.888 16.4226 102.5 16.4226 98.0933 16.4226Z"/>
<path d="M161.259 32.0956C158.462 32.0956 155.664 32.1704 152.876 32.0768C147.982 31.9271 146.158 29.6254 147.084 24.9378C147.543 22.5987 147.982 20.2502 148.46 17.9205C149.601 12.4095 151.126 10.6037 156.628 10.1452C162.953 9.61192 169.343 9.47157 175.668 10.2762C179.57 10.7815 180.852 12.8493 180.131 16.6012C179.607 19.324 179.055 22.0373 178.513 24.7507C177.521 29.7003 174.957 31.9178 169.886 32.0768C167.004 32.1704 164.132 32.0956 161.259 32.0956ZM171.43 16.4983C166.649 16.4983 162.27 16.4983 157.601 16.4983C156.759 19.3988 156.141 22.3367 155.861 25.6115C160.576 25.7706 165.021 25.8174 169.643 25.5741C170.232 22.5613 170.793 19.7263 171.43 16.4983Z"/>
<path d="M55.8579 10.1817C62.6039 8.73145 67.6284 10.8834 71.0435 16.4412C81.9438 8.3759 80.924 9.99458 89.3729 9.99458C84.5075 13.8494 79.9509 17.4517 75.3756 21.0727C78.5755 24.7217 81.6725 28.2491 84.9566 32.001C81.5695 32.001 78.5006 32.001 75.0668 32.001C73.392 30.1297 71.502 28.0058 69.4716 25.7322C66.7395 27.8561 64.0355 29.9707 61.425 32.001C58.1596 32.001 55.0158 32.001 51.4697 32.001C56.2322 28.2397 60.6859 24.7217 65.3454 21.0446C62.1548 17.3956 59.0391 13.8214 55.8579 10.1817Z"/>
<path d="M141.919 32.0576C138.944 32.0576 136.155 32.0576 133.133 32.0576C133.985 27.5385 134.799 23.1222 135.66 18.7153C136.333 15.244 137.353 11.8102 137.718 8.31088C138.27 3.02447 142.003 0.180093 148.066 0.573066C146.027 11.043 143.987 21.4755 141.919 32.0576Z" />
<path d="M129.082 32.0385C126.088 32.0385 123.244 32.0385 120.259 32.0385C121.934 23.468 123.524 14.9629 125.274 6.48595C126.135 2.33167 129.653 0.310666 135.201 0.6475C133.162 11.1174 131.131 21.5499 129.082 32.0385Z"/>
<path d="M53.0603 10.0504C51.8907 15.7765 50.9364 21.4559 49.5329 27.023C48.616 30.6534 45.0605 32.2907 39.9144 32.0007C41.3366 24.7213 42.7494 17.4701 44.1997 10.041C46.9879 10.0504 49.8136 10.0504 53.0603 10.0504Z"/>
<path d="M53.5947 6.81409C50.741 6.81409 47.9715 6.81409 45.0523 6.81409C44.9306 4.63402 45.8195 2.6598 46.0721 0.507812C48.9539 0.507812 51.7328 0.507812 54.6614 0.507812C54.7362 2.6598 53.9971 4.66209 53.5947 6.81409Z"/>
</svg>
