<svg width="100%" height="270" viewBox="0 0 467 351" fill="none" xmlns="http://www.w3.org/2000/svg">
<g clip-path="url(#clip0_1905_78874)">
<path d="M120.19 339.49L30.1898 340.02C27.4498 340.02 24.5598 340.09 22.1898 341.45C19.8198 342.81 18.1898 345.94 19.4398 348.38C20.8098 351.04 24.4398 351.38 27.4398 351.28L121.18 349.47L120.19 339.49Z" fill="white"/>
<path d="M120.191 338.49L98.5607 338.62L76.9207 338.75L55.3907 338.87L33.7507 339C30.5307 339 27.0807 338.751 23.9407 339.641C22.5879 339.968 21.3441 340.644 20.3322 341.599C19.3203 342.555 18.5752 343.759 18.1707 345.091C17.848 346.327 17.9805 347.639 18.544 348.786C19.1076 349.933 20.0646 350.84 21.2407 351.341C23.7807 352.481 26.6407 352.34 29.3507 352.24L51.0507 351.81L72.6007 351.401L94.2607 350.98L115.921 350.56L121.201 350.461C121.466 350.461 121.72 350.355 121.908 350.168C122.095 349.98 122.201 349.726 122.201 349.461L121.361 340.75L121.231 339.48C121.231 339.215 121.125 338.961 120.938 338.773C120.75 338.586 120.496 338.48 120.231 338.48C119.966 338.48 119.711 338.586 119.524 338.773C119.336 338.961 119.231 339.215 119.231 339.48L120.081 348.19L120.201 349.461L121.201 348.461L100.061 348.87L78.9107 349.28L57.7607 349.68L36.6107 350.091C33.2507 350.161 29.8707 350.321 26.5007 350.271C24.5007 350.271 21.7807 350.081 20.5607 348.271C19.3407 346.461 20.5607 343.871 22.1807 342.651C24.5407 340.941 27.7707 341.041 30.5407 341.021L51.6707 340.901L72.8007 340.771L93.9207 340.651L115.051 340.521H120.231C120.5 340.515 120.756 340.403 120.943 340.209C121.129 340.015 121.231 339.755 121.226 339.485C121.22 339.216 121.108 338.96 120.914 338.774C120.72 338.587 120.46 338.485 120.191 338.49Z" fill="#1B1B1A"/>
<path d="M122.789 210.879C106.229 255.069 99.3495 303.589 103.789 350.579H104.249L215.009 349.049L215.739 349.479C223.639 302.779 218.129 253.179 203.039 208.289" fill="white"/>
<path d="M121.82 210.61C118.574 219.276 115.707 228.086 113.22 237.04C110.734 245.993 108.64 254.993 106.94 264.04C105.22 273.193 103.904 282.403 102.99 291.67C102.077 300.936 101.57 310.17 101.47 319.37C101.384 328.636 101.717 337.896 102.47 347.15C102.564 348.283 102.664 349.413 102.77 350.54C102.77 350.805 102.876 351.059 103.063 351.247C103.251 351.434 103.505 351.54 103.77 351.54C107.18 351.6 110.61 351.46 114.02 351.41L125.24 351.26L147.54 350.95L192.12 350.33L204.62 350.16L210.87 350.07H213.99C214.14 350.07 214.59 350.14 214.7 350.07C214.81 350 214.34 349.85 214.7 350.07C215.06 350.29 215.07 350.28 215.25 350.39C215.383 350.467 215.532 350.513 215.685 350.524C215.838 350.535 215.991 350.511 216.134 350.453C216.276 350.395 216.403 350.305 216.504 350.19C216.606 350.075 216.68 349.938 216.72 349.79C218.261 340.626 219.309 331.386 219.86 322.11C220.415 312.74 220.496 303.348 220.1 293.97C219.714 284.636 218.88 275.303 217.6 265.97C216.32 256.636 214.637 247.423 212.55 238.33C210.47 229.25 207.99 220.273 205.11 211.4C204.75 210.28 204.39 209.17 204.01 208.06C203.63 206.95 201.67 207.37 202.08 208.6C205.027 217.38 207.594 226.276 209.78 235.29C211.967 244.303 213.724 253.396 215.05 262.57C216.43 271.79 217.37 281.063 217.87 290.39C218.37 299.68 218.43 308.99 218 318.29C217.591 327.532 216.679 336.746 215.27 345.89C215.1 347 214.91 348.11 214.73 349.22L216.2 348.62C215.89 348.403 215.554 348.225 215.2 348.09C214.783 348.03 214.358 348.03 213.94 348.09H212.38L206.7 348.17L195.48 348.32L173.05 348.64L128.05 349.26L115.56 349.43C111.62 349.49 107.67 349.64 103.74 349.58L104.74 350.58C103.88 341.4 103.447 332.193 103.44 322.96C103.434 313.726 103.834 304.49 104.64 295.25C105.44 286.07 106.647 276.936 108.26 267.85C109.874 258.763 111.874 249.73 114.26 240.75C116.64 231.83 119.404 223.026 122.55 214.34C122.94 213.27 123.33 212.21 123.73 211.14C124.13 210.07 122.25 209.42 121.8 210.61H121.82Z" fill="#1B1B1A"/>
<path d="M203.109 201.641C202.999 204.261 203.039 205.591 202.929 208.211C177.299 212.951 145.089 213.391 123.249 210.471L122.709 210.791C122.349 207.927 122.318 205.031 122.619 202.161" fill="white"/>
<path d="M156.5 204L156.5 212H173.5L172.5 204H156.5Z" fill="#F87979"/>
<path d="M202.11 201.64C202.02 203.83 202.02 206.02 201.93 208.21L202.66 207.21C197.41 208.21 192.12 208.93 186.81 209.52C181.25 210.134 175.67 210.577 170.07 210.85C164.47 211.124 158.907 211.26 153.38 211.26C148.09 211.26 142.81 211.09 137.54 210.77C135.09 210.62 132.64 210.44 130.19 210.21L126.68 209.85C125.58 209.72 124.47 209.52 123.36 209.44C122.935 209.463 122.529 209.621 122.2 209.89L123.71 210.75C123.61 209.41 123.47 208.07 123.42 206.75C123.367 205.211 123.434 203.669 123.62 202.14C123.62 201.875 123.515 201.621 123.327 201.433C123.14 201.246 122.885 201.14 122.62 201.14C122.355 201.14 122.101 201.246 121.913 201.433C121.726 201.621 121.62 201.875 121.62 202.14C121.434 203.669 121.367 205.211 121.42 206.75C121.42 208.09 121.61 209.43 121.71 210.75C121.709 210.926 121.755 211.099 121.843 211.252C121.93 211.404 122.056 211.531 122.208 211.619C122.361 211.708 122.533 211.754 122.709 211.754C122.885 211.754 123.058 211.708 123.21 211.62L123.76 211.29L123.25 211.43C127.87 212.04 132.51 212.43 137.16 212.75C142.31 213.07 147.47 213.23 152.63 213.26C158.077 213.26 163.52 213.144 168.96 212.91C174.4 212.677 179.873 212.264 185.38 211.67C190.7 211.11 196.01 210.4 201.28 209.48L203.19 209.14C203.408 209.082 203.6 208.951 203.735 208.769C203.869 208.588 203.938 208.366 203.93 208.14C204.02 205.95 204.02 203.76 204.11 201.57C204.11 201.305 204.005 201.051 203.817 200.863C203.63 200.676 203.375 200.57 203.11 200.57C202.845 200.57 202.591 200.676 202.403 200.863C202.216 201.051 202.11 201.305 202.11 201.57V201.64Z" fill="#1B1B1A"/>
<path d="M131.399 109.81C142.707 103.051 155.602 99.4047 168.774 99.2413C181.947 99.078 194.928 102.403 206.399 108.88L206.199 108.74L212.519 88.1698C212.702 87.1625 213.255 86.26 214.069 85.6398C215.289 84.9598 216.899 85.7598 217.589 86.9798C218.166 88.2541 218.394 89.6586 218.249 91.0498C217.665 128.434 212.514 165.606 202.909 201.74L203.089 201.18C176.594 204.387 149.827 204.672 123.269 202.03L122.649 201.66C120.963 182.786 119.276 163.923 117.589 145.07C115.919 126.42 114.249 107.68 115.589 88.9998C115.577 87.4433 115.959 85.9089 116.699 84.5398C117.549 83.2498 119.319 82.4198 120.699 83.1298C121.629 83.7775 122.304 84.7286 122.609 85.8198L132.049 109.26" fill="white"/>
<path d="M131.9 110.66C140.574 105.465 150.228 102.116 160.256 100.824C170.284 99.5314 180.471 100.323 190.18 103.15C195.643 104.725 200.905 106.93 205.86 109.72C206.088 109.839 206.354 109.866 206.602 109.794C206.849 109.722 207.06 109.558 207.189 109.334C207.318 109.111 207.356 108.846 207.294 108.596C207.233 108.345 207.077 108.128 206.86 107.99L206.66 107.85L207.12 108.98L211.4 95.0799C212.11 92.7799 212.79 90.4598 213.52 88.1698C213.73 87.5398 214.01 86.6099 214.73 86.4099C215.057 86.3628 215.391 86.4059 215.696 86.5345C216.001 86.6632 216.265 86.8724 216.46 87.1399C216.981 87.8967 217.244 88.8016 217.21 89.7199C217.21 90.8499 217.21 91.9799 217.21 93.0999C217.156 95.4732 217.09 97.8499 217.01 100.23C216.836 104.937 216.593 109.643 216.28 114.35C215.66 123.77 214.743 133.157 213.53 142.51C212.316 151.863 210.823 161.16 209.05 170.4C207.25 179.7 205.17 188.94 202.81 198.12L201.94 201.46C201.869 201.716 201.904 201.989 202.035 202.22C202.166 202.451 202.384 202.62 202.64 202.69C202.895 202.76 203.169 202.726 203.4 202.595C203.63 202.463 203.799 202.246 203.87 201.99L204.04 201.43C204.082 201.278 204.088 201.119 204.058 200.964C204.027 200.809 203.96 200.664 203.863 200.541C203.765 200.417 203.64 200.318 203.497 200.252C203.354 200.185 203.197 200.154 203.04 200.16C192.68 201.44 182.276 202.253 171.83 202.6C161.51 202.94 151.176 202.843 140.83 202.31C134.93 202.01 129.046 201.577 123.18 201.01L123.68 201.15L123.07 200.77L123.56 201.64L120.95 171.81C120.07 161.91 119.186 152.013 118.3 142.12C117.42 132.28 116.59 122.43 116.24 112.55C116.06 107.61 116.01 102.65 116.14 97.7099C116.2 95.2299 116.3 92.7599 116.46 90.2899C116.58 88.4599 116.46 85.9799 117.9 84.5999C118.152 84.331 118.466 84.1263 118.814 84.0028C119.161 83.8793 119.534 83.8406 119.9 83.8899C120.73 84.0599 121.15 84.9599 121.47 85.6499C122.47 87.8399 123.27 90.1099 124.16 92.3299L129.72 106.14L131.09 109.54C131.124 109.667 131.184 109.785 131.264 109.889C131.345 109.993 131.445 110.08 131.559 110.145C131.674 110.21 131.8 110.252 131.93 110.268C132.06 110.284 132.193 110.275 132.32 110.24C132.446 110.205 132.565 110.146 132.669 110.065C132.773 109.985 132.86 109.884 132.925 109.77C132.99 109.656 133.031 109.53 133.048 109.399C133.064 109.269 133.054 109.137 133.02 109.01L124.19 87.0799C123.6 85.6099 123.11 83.7599 121.84 82.7099C121.24 82.2252 120.505 81.9374 119.735 81.8855C118.966 81.8336 118.199 82.0201 117.54 82.4198C114.4 84.1698 114.6 88.4899 114.42 91.5799C113.54 107.22 114.65 122.89 116.01 138.47C117.39 154.24 118.83 170.01 120.24 185.78L121.3 197.62L121.56 200.46C121.561 200.947 121.607 201.432 121.7 201.91C121.757 202.07 121.845 202.218 121.96 202.343C122.076 202.468 122.215 202.569 122.37 202.64C122.859 202.924 123.413 203.079 123.98 203.09L127.05 203.37C134.87 204.037 142.703 204.477 150.55 204.69C166.197 205.092 181.854 204.464 197.42 202.81C199.3 202.61 201.18 202.393 203.06 202.16L202.06 200.9L201.88 201.46L203.81 201.99C206.33 192.497 208.543 182.937 210.45 173.31C212.356 163.683 213.956 153.987 215.25 144.22C216.53 134.527 217.506 124.8 218.18 115.04C218.506 110.147 218.76 105.247 218.94 100.34C219.026 97.8932 219.096 95.4399 219.15 92.9799C219.15 90.8399 219.51 88.3099 218.34 86.3799C217.34 84.7999 215.23 83.7799 213.5 84.7599C212.666 85.3009 212.049 86.119 211.76 87.0699C211.35 88.1399 211.06 89.2699 210.76 90.3699L206.32 104.81L205.21 108.43C205.151 108.643 205.164 108.869 205.247 109.073C205.33 109.278 205.479 109.449 205.67 109.56L205.86 109.7L206.86 107.97C197.757 102.869 187.708 99.6801 177.33 98.5999C161.145 96.9685 144.864 100.583 130.89 108.91C130.672 109.048 130.516 109.265 130.455 109.516C130.393 109.766 130.431 110.031 130.56 110.254C130.689 110.478 130.9 110.642 131.147 110.714C131.395 110.786 131.661 110.759 131.89 110.64L131.9 110.66Z" fill="#1B1B1A"/>
<path d="M141.799 136.95C144.172 135.259 146.794 133.947 149.569 133.06C150.289 132.83 151.009 132.63 151.739 132.46C152.473 132.278 153.218 132.144 153.969 132.06C154.339 132.06 154.709 132.01 155.089 132.01H155.609H155.959H156.159C156.521 132.062 156.878 132.139 157.229 132.24L157.619 132.37L157.839 132.46C157.649 132.38 157.929 132.46 157.939 132.51C158.26 132.661 158.568 132.839 158.859 133.04L159.039 133.17C158.889 133.05 159.119 133.24 159.129 133.25C159.139 133.26 159.399 133.49 159.519 133.62L159.649 133.76C159.649 133.76 159.859 134.01 159.799 133.93C159.739 133.85 159.889 134.06 159.879 134.05L160.029 134.28C160.12 134.436 160.204 134.596 160.279 134.76C160.209 134.6 160.279 134.76 160.279 134.76C160.279 134.76 160.359 134.99 160.399 135.1C160.434 135.227 160.493 135.346 160.574 135.449C160.655 135.553 160.755 135.64 160.869 135.705C160.983 135.77 161.109 135.812 161.24 135.828C161.37 135.844 161.502 135.835 161.629 135.8C161.756 135.765 161.875 135.706 161.978 135.625C162.082 135.545 162.169 135.444 162.234 135.33C162.299 135.216 162.341 135.09 162.357 134.96C162.373 134.829 162.364 134.697 162.329 134.57C161.873 133.144 160.918 131.929 159.639 131.15C158.248 130.344 156.656 129.948 155.049 130.01C153.353 130.064 151.672 130.343 150.049 130.84C148.491 131.29 146.97 131.859 145.499 132.54C143.872 133.292 142.315 134.189 140.849 135.22C140.621 135.355 140.456 135.576 140.39 135.833C140.325 136.09 140.364 136.362 140.499 136.59C140.633 136.817 140.851 136.982 141.105 137.05C141.36 137.117 141.631 137.081 141.859 136.95H141.799Z" fill="#1B1B1A"/>
<path d="M179.819 134.13C179.819 134.13 180.079 133.93 179.949 134.04L180.109 133.91L180.569 133.59C180.864 133.381 181.171 133.191 181.489 133.02C181.799 132.84 182.119 132.67 182.439 132.52L182.909 132.3C183.089 132.23 182.699 132.39 182.999 132.3L183.289 132.19C183.963 131.936 184.655 131.732 185.359 131.58C185.709 131.5 186.059 131.43 186.419 131.38H186.509H186.759L187.329 131.33C188.045 131.275 188.764 131.275 189.479 131.33H189.779H189.859L190.349 131.41C190.689 131.47 191.029 131.54 191.349 131.63C191.669 131.72 192.019 131.81 192.349 131.92C192.679 132.03 193.099 132.19 193.299 132.28C193.179 132.22 193.479 132.35 193.449 132.34L193.679 132.45L194.119 132.67C194.449 132.83 194.759 133.01 195.119 133.2C195.479 133.39 195.759 133.61 196.059 133.83L196.299 134.01C196.469 134.13 196.239 133.95 196.419 134.09L196.869 134.47C197.47 134.992 198.025 135.564 198.529 136.18C198.717 136.366 198.97 136.471 199.234 136.471C199.498 136.471 199.752 136.366 199.939 136.18C200.033 136.087 200.107 135.977 200.158 135.855C200.209 135.733 200.235 135.602 200.235 135.47C200.235 135.338 200.209 135.207 200.158 135.086C200.107 134.964 200.033 134.853 199.939 134.76C197.973 132.407 195.352 130.691 192.409 129.83C189.378 128.953 186.15 129.037 183.169 130.07C181.454 130.675 179.854 131.568 178.439 132.71C178.253 132.897 178.148 133.151 178.148 133.415C178.148 133.679 178.253 133.933 178.439 134.12C178.627 134.306 178.88 134.411 179.144 134.411C179.408 134.411 179.662 134.306 179.849 134.12L179.819 134.13Z" fill="#1B1B1A"/>
<path d="M167.88 156.661C167.02 155.611 165.76 154.201 164.7 152.971C164.605 152.858 164.541 152.722 164.515 152.576C164.489 152.43 164.502 152.28 164.553 152.141C164.604 152.002 164.69 151.879 164.804 151.784C164.918 151.689 165.054 151.626 165.2 151.601L170.39 150.671C170.87 150.581 171.53 150.601 171.66 151.071C171.679 151.227 171.661 151.386 171.607 151.533C171.553 151.681 171.465 151.814 171.35 151.921L168.22 155.921L167.88 156.661Z" fill="#1B1B1A"/>
<path d="M168.591 155.95C168.011 155.25 167.411 154.56 166.821 153.88L165.821 152.79L165.611 152.54C165.561 152.48 165.361 152.33 165.361 152.26L165.451 152.39C165.511 152.46 165.451 152.39 165.451 152.39C165.451 152.39 165.451 152.59 165.451 152.47C165.451 152.35 165.451 152.67 165.451 152.53C165.451 152.39 165.451 152.64 165.451 152.48C165.451 152.48 165.341 152.63 165.451 152.54V152.59C165.451 152.59 165.561 152.59 165.451 152.59H165.691L166.851 152.38L169.851 151.84L170.601 151.71C170.601 151.71 170.761 151.71 170.601 151.71H170.901C171.041 151.71 170.721 151.71 170.901 151.71C171.081 151.71 170.991 151.71 171.011 151.71C171.031 151.71 170.871 151.65 170.841 151.63C170.784 151.59 170.74 151.535 170.712 151.472C170.684 151.409 170.673 151.339 170.681 151.27C170.681 151.15 170.681 151.1 170.681 151.15L170.591 151.29C170.542 151.367 170.489 151.441 170.431 151.51L168.181 154.39C167.844 154.761 167.542 155.163 167.281 155.59L167.001 156.21C166.869 156.439 166.834 156.71 166.901 156.964C166.968 157.219 167.134 157.437 167.361 157.57C167.588 157.702 167.858 157.74 168.112 157.674C168.367 157.609 168.585 157.446 168.721 157.22C168.821 157.01 168.921 156.81 169.011 156.6C169.031 156.569 169.048 156.536 169.061 156.5C169.061 156.5 169.001 156.58 168.981 156.59C168.961 156.6 169.091 156.46 169.141 156.4L169.751 155.61L172.001 152.72C172.254 152.475 172.441 152.169 172.543 151.831C172.644 151.493 172.657 151.135 172.581 150.79C172.465 150.478 172.258 150.207 171.987 150.013C171.717 149.818 171.394 149.71 171.061 149.7C170.627 149.676 170.192 149.716 169.771 149.82L166.581 150.39L165.211 150.63C164.934 150.663 164.668 150.752 164.427 150.891C164.187 151.031 163.977 151.217 163.811 151.44C163.623 151.716 163.513 152.036 163.492 152.369C163.471 152.701 163.539 153.033 163.691 153.33C164.031 153.846 164.426 154.322 164.871 154.75C165.641 155.64 166.411 156.51 167.151 157.42C167.244 157.514 167.354 157.588 167.476 157.639C167.598 157.69 167.729 157.716 167.861 157.716C167.993 157.716 168.123 157.69 168.245 157.639C168.367 157.588 168.478 157.514 168.571 157.42C168.673 157.328 168.756 157.216 168.813 157.09C168.87 156.964 168.901 156.828 168.903 156.69C168.904 156.552 168.878 156.415 168.824 156.287C168.77 156.16 168.691 156.045 168.591 155.95Z" fill="#1B1B1A"/>
<path d="M166.881 156.66C166.908 157.383 166.995 158.102 167.141 158.81C167.141 158.98 167.141 159.15 167.221 159.32V159.52C167.221 159.57 167.291 159.75 167.221 159.79C167.221 159.63 167.221 159.61 167.221 159.72C167.221 159.83 167.221 159.81 167.221 159.85C167.221 159.89 167.221 159.99 167.221 160.05C167.221 160.11 167.221 160.39 167.221 160.56C167.221 160.825 167.326 161.08 167.514 161.267C167.701 161.455 167.956 161.56 168.221 161.56C168.486 161.56 168.74 161.455 168.928 161.267C169.115 161.08 169.221 160.825 169.221 160.56C169.197 159.838 169.114 159.119 168.971 158.41L168.881 157.9V157.7C168.867 157.611 168.867 157.52 168.881 157.43C168.881 157.59 168.881 157.61 168.881 157.5C168.881 157.39 168.881 157.41 168.881 157.37C168.886 157.304 168.886 157.237 168.881 157.17C168.881 157 168.881 156.83 168.881 156.66C168.881 156.395 168.776 156.141 168.588 155.953C168.4 155.765 168.146 155.66 167.881 155.66C167.616 155.66 167.361 155.765 167.174 155.953C166.986 156.141 166.881 156.395 166.881 156.66Z" fill="#1B1B1A"/>
<path d="M167.48 160.05C167.48 160.05 167.25 160.361 167.36 160.221L167.15 160.471C166.982 160.672 166.798 160.859 166.6 161.031L166.36 161.24L166.28 161.311C166.36 161.241 166.28 161.311 166.28 161.311C166.07 161.461 165.85 161.61 165.63 161.74C165.41 161.87 165.22 161.961 165.01 162.061C165.01 162.061 164.84 162.141 165.01 162.061L164.83 162.131L164.49 162.251C164.27 162.321 164.04 162.391 163.82 162.441L163.46 162.511H163.32C163.54 162.511 163.24 162.511 163.22 162.511C162.744 162.556 162.265 162.556 161.79 162.511C161.63 162.511 161.94 162.511 161.79 162.511H161.65L161.3 162.441C161.07 162.381 160.83 162.311 160.61 162.231L160.27 162.101L160.14 162.041C159.908 161.933 159.684 161.809 159.47 161.67L158.94 161.321C159.09 161.421 158.84 161.231 158.79 161.191L158.49 160.92C158.303 160.747 158.126 160.564 157.96 160.371L157.85 160.231C157.66 160.011 157.91 160.311 157.85 160.231L157.61 159.901C157.47 159.671 157.33 159.441 157.21 159.201C157.151 159.094 157.101 158.984 157.06 158.871C157.13 159.041 157.06 158.871 157.06 158.871L156.97 158.621C156.935 158.494 156.875 158.375 156.795 158.271C156.714 158.168 156.614 158.081 156.5 158.016C156.385 157.951 156.259 157.909 156.129 157.893C155.999 157.876 155.866 157.886 155.74 157.92C155.613 157.955 155.494 158.015 155.391 158.095C155.287 158.176 155.2 158.276 155.135 158.391C155.07 158.505 155.028 158.631 155.012 158.761C154.995 158.891 155.005 159.024 155.04 159.151C155.43 160.251 156.048 161.257 156.852 162.102C157.657 162.948 158.63 163.616 159.71 164.061C160.781 164.482 161.931 164.667 163.08 164.603C164.229 164.539 165.352 164.228 166.37 163.691C167.555 163.084 168.567 162.185 169.31 161.08C169.442 160.853 169.479 160.583 169.414 160.329C169.348 160.074 169.185 159.856 168.96 159.721C168.732 159.585 168.459 159.546 168.202 159.612C167.945 159.677 167.725 159.842 167.59 160.071L167.48 160.05Z" fill="#1B1B1A"/>
<path d="M167.95 161.519C169.601 162.518 171.529 162.96 173.451 162.78C175.372 162.6 177.184 161.808 178.62 160.519C179.373 159.848 180.006 159.053 180.49 158.169C180.622 157.941 180.657 157.67 180.59 157.415C180.523 157.16 180.357 156.943 180.13 156.809C180.017 156.743 179.891 156.699 179.761 156.681C179.631 156.663 179.498 156.671 179.371 156.705C179.243 156.738 179.124 156.796 179.019 156.876C178.915 156.956 178.827 157.055 178.76 157.169C178.324 157.991 177.721 158.713 176.99 159.289L176.84 159.409C176.92 159.349 176.91 159.349 176.84 159.409L176.53 159.629C176.32 159.769 176.1 159.899 175.88 160.019C175.516 160.228 175.126 160.39 174.72 160.499C174.283 160.633 173.835 160.727 173.38 160.779C172.825 160.829 172.266 160.829 171.71 160.779C171.88 160.779 171.5 160.779 171.46 160.779L171.16 160.719C170.89 160.659 170.62 160.579 170.36 160.499L169.96 160.349L169.78 160.269C169.52 160.149 169.28 160.009 169.04 159.869C168.927 159.803 168.801 159.759 168.671 159.741C168.541 159.723 168.408 159.731 168.281 159.765C168.153 159.798 168.034 159.856 167.929 159.936C167.825 160.016 167.737 160.115 167.67 160.229C167.604 160.343 167.56 160.468 167.543 160.599C167.525 160.729 167.533 160.862 167.566 160.989C167.599 161.116 167.658 161.236 167.737 161.34C167.817 161.445 167.917 161.533 168.03 161.599L167.95 161.519Z" fill="#1B1B1A"/>
<path d="M252 180.5L252 30.1567L447.999 93.5L447.999 257L252 180.5Z" fill="#EDF7FE"/>
<path d="M362.511 182.98C369.931 239.98 374.581 296.88 372.511 354.3H372.421C330.991 352.91 268.651 350.42 249.671 350.76L249.141 351C250.048 294.156 264.494 238.346 291.281 188.2" fill="white"/>
<path d="M361.509 182.981C364.399 205.181 366.879 227.431 368.699 249.741C370.519 272.051 371.699 294.321 371.939 316.651C372.092 329.198 371.942 341.748 371.489 354.301L372.489 353.301C368.319 353.301 364.129 353.021 359.949 352.871L346.299 352.391C336.739 352.051 327.182 351.718 317.629 351.391C308.462 351.071 299.296 350.771 290.129 350.491C282.279 350.251 274.429 350.031 266.579 349.881C261.139 349.771 255.679 349.671 250.229 349.751C249.669 349.754 249.118 349.888 248.619 350.141L250.119 351.001C250.292 340.001 250.959 329.028 252.119 318.081C253.279 307.134 254.979 296.261 257.219 285.461C259.419 274.681 262.112 264.014 265.299 253.461C268.486 242.908 272.152 232.541 276.299 222.361C280.439 212.161 285.056 202.161 290.149 192.361C290.789 191.121 291.439 189.891 292.099 188.661C292.759 187.431 290.979 186.511 290.369 187.661C285.142 197.441 280.379 207.441 276.079 217.661C271.779 227.881 267.982 238.264 264.689 248.811C261.349 259.391 258.499 270.141 256.159 280.991C253.819 291.841 251.989 302.811 250.649 313.811C249.309 324.811 248.509 335.811 248.209 346.811C248.209 348.201 248.149 349.601 248.119 350.991C248.119 351.167 248.166 351.341 248.255 351.493C248.343 351.646 248.471 351.772 248.624 351.86C248.778 351.947 248.951 351.992 249.128 351.991C249.304 351.989 249.477 351.941 249.629 351.851C249.739 351.807 249.845 351.757 249.949 351.701C250.299 351.521 249.769 351.701 249.799 351.701C249.829 351.701 250.389 351.701 250.559 351.701H255.749C258.679 351.701 261.619 351.761 264.549 351.811C272.129 351.951 279.709 352.151 287.279 352.371C296.352 352.638 305.419 352.931 314.479 353.251L342.929 354.251C351.869 354.571 360.812 354.884 369.759 355.191C370.669 355.191 371.589 355.281 372.489 355.281C372.754 355.281 373.009 355.176 373.196 354.988C373.384 354.801 373.489 354.546 373.489 354.281C374.299 331.931 374.099 309.551 373.089 287.201C372.079 264.851 370.289 242.601 367.939 220.381C366.606 207.894 365.129 195.421 363.509 182.961C363.509 182.696 363.404 182.441 363.216 182.254C363.029 182.066 362.774 181.961 362.509 181.961C362.244 181.961 361.99 182.066 361.802 182.254C361.614 182.441 361.509 182.696 361.509 182.961V182.981Z" fill="#1B1B1A"/>
<path d="M200.2 154.5C201.461 153.371 202.798 152.329 204.2 151.38C205.627 150.4 207.113 149.509 208.65 148.71C211.649 147.151 214.83 145.969 218.12 145.19C219.06 144.97 220.01 144.77 220.97 144.62L221.69 144.5H222C222.12 144.5 222.13 144.5 222 144.5H222.2C222.69 144.44 223.2 144.38 223.65 144.34C223.915 144.34 224.169 144.235 224.357 144.047C224.544 143.859 224.65 143.605 224.65 143.34C224.65 143.075 224.544 142.82 224.357 142.633C224.169 142.445 223.915 142.34 223.65 142.34C220.075 142.665 216.554 143.434 213.17 144.63C209.803 145.824 206.596 147.426 203.62 149.4C201.926 150.539 200.313 151.791 198.79 153.15C198.696 153.242 198.622 153.352 198.572 153.474C198.521 153.595 198.495 153.725 198.494 153.856C198.494 153.988 198.519 154.118 198.569 154.239C198.619 154.361 198.692 154.472 198.785 154.565C198.877 154.658 198.987 154.732 199.109 154.783C199.23 154.834 199.36 154.86 199.491 154.86C199.623 154.861 199.753 154.835 199.874 154.786C199.996 154.736 200.106 154.662 200.2 154.57V154.5Z" fill="#1B1B1A"/>
<path d="M200.391 158.741C201.912 158.646 203.439 158.646 204.961 158.741C205.821 158.791 206.681 158.851 207.531 158.941L208.891 159.081L209.531 159.161H209.851H209.991C209.801 159.161 209.991 159.161 210.051 159.161C213.678 159.649 217.267 160.391 220.791 161.381C221.681 161.641 222.561 161.911 223.431 162.211L224.621 162.651L225.161 162.861L225.291 162.911H225.361L225.561 163.001C225.674 163.073 225.802 163.122 225.935 163.144C226.068 163.165 226.204 163.16 226.335 163.128C226.466 163.096 226.589 163.038 226.697 162.957C226.805 162.876 226.895 162.774 226.963 162.657C227.03 162.54 227.074 162.411 227.09 162.277C227.106 162.143 227.095 162.008 227.057 161.878C227.02 161.749 226.957 161.628 226.871 161.524C226.786 161.419 226.68 161.333 226.561 161.271C223.426 159.957 220.171 158.952 216.841 158.271C213.161 157.515 209.431 157.027 205.681 156.811C203.919 156.691 202.152 156.691 200.391 156.811C200.125 156.811 199.871 156.916 199.684 157.104C199.496 157.291 199.391 157.545 199.391 157.811C199.391 158.076 199.496 158.33 199.684 158.518C199.871 158.705 200.125 158.811 200.391 158.811V158.741Z" fill="#1B1B1A"/>
<path d="M201.121 164.04C202.562 164.601 203.974 165.236 205.351 165.94C206.771 166.67 208.161 167.46 209.511 168.33C212.144 169.995 214.6 171.925 216.841 174.09C218.138 175.322 219.363 176.628 220.511 178C220.698 178.186 220.951 178.291 221.216 178.291C221.48 178.291 221.733 178.186 221.921 178C222.014 177.907 222.089 177.797 222.14 177.675C222.19 177.553 222.216 177.422 222.216 177.29C222.216 177.158 222.19 177.027 222.14 176.906C222.089 176.784 222.014 176.673 221.921 176.58C216.486 170.132 209.515 165.155 201.651 162.11C201.524 162.075 201.392 162.066 201.261 162.082C201.131 162.098 201.005 162.14 200.891 162.205C200.776 162.27 200.676 162.357 200.595 162.461C200.515 162.565 200.455 162.683 200.421 162.81C200.386 162.937 200.376 163.069 200.392 163.2C200.409 163.33 200.451 163.456 200.516 163.57C200.581 163.684 200.668 163.785 200.771 163.865C200.875 163.946 200.994 164.005 201.121 164.04Z" fill="#1B1B1A"/>
<path d="M136.579 152.01C131.848 150.922 127.056 150.117 122.229 149.6C117.473 149.1 112.691 148.889 107.909 148.97C105.202 149.016 102.496 149.16 99.7891 149.4C99.5238 149.4 99.2695 149.505 99.082 149.693C98.8944 149.88 98.7891 150.135 98.7891 150.4C98.7891 150.665 98.8944 150.919 99.082 151.107C99.2695 151.294 99.5238 151.4 99.7891 151.4C104.534 150.986 109.299 150.863 114.059 151.03C118.769 151.194 123.465 151.648 128.119 152.39C130.786 152.81 133.426 153.326 136.039 153.94C136.295 154.011 136.569 153.978 136.8 153.848C137.032 153.718 137.202 153.501 137.274 153.245C137.346 152.989 137.313 152.715 137.182 152.483C137.052 152.252 136.835 152.081 136.579 152.01Z" fill="#1B1B1A"/>
<path d="M135.049 158.129C130.677 158.637 126.337 159.392 122.049 160.389C117.799 161.378 113.609 162.61 109.499 164.079C107.139 164.909 104.819 165.829 102.499 166.819C102.385 166.885 102.286 166.973 102.206 167.078C102.126 167.182 102.068 167.302 102.035 167.429C102.001 167.556 101.993 167.689 102.011 167.819C102.029 167.95 102.073 168.075 102.139 168.189C102.205 168.303 102.293 168.402 102.398 168.482C102.503 168.562 102.622 168.62 102.749 168.653C102.877 168.687 103.009 168.695 103.14 168.677C103.27 168.659 103.396 168.615 103.509 168.549C107.425 166.876 111.431 165.423 115.509 164.199C119.614 162.971 123.784 161.969 127.999 161.199C129.186 160.979 130.376 160.779 131.569 160.599C132.799 160.419 133.829 160.279 135.069 160.139C135.334 160.139 135.589 160.034 135.776 159.846C135.964 159.658 136.069 159.404 136.069 159.139C136.069 158.649 135.619 158.069 135.069 158.139L135.049 158.129Z" fill="#1B1B1A"/>
<path d="M131.6 163.591C124.31 166.401 117.548 170.425 111.6 175.491C109.95 176.891 108.37 178.371 106.86 179.911C106.672 180.098 106.565 180.352 106.564 180.617C106.564 180.882 106.668 181.137 106.855 181.326C107.042 181.514 107.296 181.62 107.561 181.621C107.827 181.622 108.082 181.518 108.27 181.331C109.603 179.997 110.983 178.694 112.41 177.421C113.117 176.807 113.837 176.207 114.57 175.621C115.31 175.031 115.93 174.561 116.73 173.971C119.78 171.743 123.007 169.77 126.38 168.071C127.38 167.591 128.29 167.141 129.26 166.701C130.23 166.261 131.05 165.931 132.11 165.521C132.237 165.486 132.355 165.426 132.459 165.346C132.563 165.265 132.65 165.165 132.715 165.051C132.78 164.936 132.822 164.811 132.838 164.68C132.854 164.55 132.845 164.417 132.81 164.291C132.775 164.164 132.716 164.045 132.635 163.941C132.555 163.838 132.454 163.751 132.34 163.686C132.226 163.621 132.1 163.579 131.97 163.562C131.839 163.546 131.707 163.556 131.58 163.591H131.6Z" fill="#1B1B1A"/>
<path d="M174.921 211.14L174.161 203.76C174.161 203.495 174.055 203.24 173.868 203.053C173.68 202.865 173.426 202.76 173.161 202.76H156.161C155.895 202.76 155.641 202.865 155.454 203.053C155.266 203.24 155.161 203.495 155.161 203.76L154.891 211.64C154.891 211.905 154.996 212.159 155.184 212.347C155.371 212.534 155.625 212.64 155.891 212.64C156.156 212.64 156.41 212.534 156.598 212.347C156.785 212.159 156.891 211.905 156.891 211.64L157.161 203.76L156.161 204.76H173.161L172.161 203.76L172.921 211.14C172.921 211.405 173.026 211.659 173.214 211.847C173.401 212.034 173.655 212.14 173.921 212.14C174.186 212.14 174.44 212.034 174.628 211.847C174.815 211.659 174.921 211.405 174.921 211.14Z" fill="#1B1B1A"/>
<path d="M165.051 191.221C165.15 191.094 165.261 190.977 165.381 190.871L165.471 190.791C165.471 190.791 165.301 190.921 165.411 190.791L165.611 190.671L165.821 190.561H165.751H165.861L166.091 190.501H166.211C166.381 190.501 166.021 190.501 166.151 190.501H166.631C166.761 190.501 166.421 190.501 166.551 190.501H166.671L166.911 190.571H167.021C167.141 190.571 166.841 190.481 166.951 190.571L167.171 190.681L167.371 190.811C167.481 190.881 167.231 190.681 167.371 190.811L167.481 190.911C167.574 191.004 167.684 191.079 167.806 191.129C167.928 191.18 168.059 191.206 168.191 191.206C168.323 191.206 168.453 191.18 168.575 191.129C168.697 191.079 168.808 191.004 168.901 190.911C169.087 190.723 169.191 190.47 169.191 190.206C169.191 189.941 169.087 189.688 168.901 189.501C168.548 189.161 168.129 188.897 167.67 188.727C167.211 188.556 166.721 188.482 166.232 188.509C165.743 188.537 165.265 188.664 164.828 188.885C164.391 189.105 164.003 189.414 163.691 189.791C163.509 189.984 163.403 190.236 163.391 190.501C163.391 190.633 163.418 190.764 163.469 190.886C163.521 191.008 163.596 191.118 163.691 191.211C163.878 191.397 164.131 191.501 164.396 191.501C164.66 191.501 164.913 191.397 165.101 191.211L165.051 191.221Z" fill="#1B1B1A"/>
<path d="M276.569 266.189C274.969 271.522 273.582 276.939 272.409 282.439C271.236 287.939 270.272 293.449 269.519 298.969C268.772 304.529 268.236 310.106 267.909 315.699C267.582 321.292 267.479 326.886 267.599 332.479C267.712 338.072 268.046 343.656 268.599 349.229C268.669 349.919 268.739 350.609 268.819 351.299C268.819 351.564 268.925 351.818 269.112 352.006C269.3 352.193 269.554 352.299 269.819 352.299C270.084 352.299 270.339 352.193 270.526 352.006C270.714 351.818 270.819 351.564 270.819 351.299C270.209 345.769 269.819 340.209 269.649 334.649C269.479 329.089 269.529 323.509 269.789 317.949C270.049 312.389 270.529 306.829 271.219 301.309C271.909 295.789 272.809 290.309 273.919 284.939C275.029 279.569 276.369 274.069 277.919 268.719L278.509 266.719C278.579 266.463 278.545 266.19 278.414 265.959C278.283 265.728 278.065 265.559 277.809 265.489C277.553 265.419 277.28 265.453 277.049 265.584C276.819 265.715 276.649 265.933 276.579 266.189H276.569Z" fill="#1B1B1A"/>
<path d="M276.689 341.551L276.809 349.951C276.809 350.216 276.915 350.47 277.102 350.658C277.29 350.845 277.544 350.951 277.809 350.951C278.075 350.951 278.329 350.845 278.517 350.658C278.704 350.47 278.809 350.216 278.809 349.951L278.689 341.551C278.689 341.286 278.584 341.031 278.397 340.844C278.209 340.656 277.955 340.551 277.689 340.551C277.424 340.551 277.17 340.656 276.982 340.844C276.795 341.031 276.689 341.286 276.689 341.551Z" fill="#1B1B1A"/>
<path d="M285.76 340.25L286.4 351.35C286.4 351.615 286.505 351.87 286.693 352.057C286.88 352.245 287.135 352.35 287.4 352.35C287.665 352.35 287.919 352.245 288.107 352.057C288.294 351.87 288.4 351.615 288.4 351.35L287.76 340.25C287.76 339.985 287.654 339.73 287.467 339.543C287.279 339.355 287.025 339.25 286.76 339.25C286.495 339.25 286.24 339.355 286.053 339.543C285.865 339.73 285.76 339.985 285.76 340.25Z" fill="#1B1B1A"/>
<path d="M257.83 341.109L257.52 350.379C257.52 350.645 257.625 350.899 257.812 351.086C258 351.274 258.254 351.379 258.52 351.379C258.785 351.379 259.039 351.274 259.227 351.086C259.414 350.899 259.52 350.645 259.52 350.379L259.83 341.109C259.83 340.844 259.724 340.59 259.537 340.402C259.349 340.215 259.095 340.109 258.83 340.109C258.564 340.109 258.31 340.215 258.122 340.402C257.935 340.59 257.83 340.844 257.83 341.109Z" fill="#1B1B1A"/>
<path d="M300.821 275.19C300.154 285.077 299.618 294.97 299.211 304.87C298.804 314.77 298.508 324.67 298.321 334.57C298.221 340.13 298.158 345.687 298.131 351.24C298.131 351.505 298.236 351.76 298.424 351.947C298.611 352.135 298.866 352.24 299.131 352.24C299.396 352.24 299.65 352.135 299.838 351.947C300.026 351.76 300.131 351.505 300.131 351.24C300.178 341.34 300.341 331.437 300.621 321.53C300.901 311.623 301.304 301.717 301.831 291.81C302.124 286.263 302.458 280.713 302.831 275.16C302.831 274.895 302.726 274.641 302.538 274.453C302.35 274.265 302.096 274.16 301.831 274.16C301.566 274.16 301.311 274.265 301.124 274.453C300.936 274.641 300.831 274.895 300.831 275.16L300.821 275.19Z" fill="#1B1B1A"/>
<path d="M347.35 320.809C343.98 319.597 340.378 319.173 336.819 319.57C333.26 319.967 329.84 321.174 326.82 323.099C321.046 326.826 316.805 332.504 314.87 339.099C313.66 343.107 313.189 347.302 313.48 351.479C313.48 351.744 313.585 351.998 313.773 352.186C313.96 352.373 314.215 352.479 314.48 352.479C314.745 352.479 314.999 352.373 315.187 352.186C315.374 351.998 315.48 351.744 315.48 351.479C314.89 344.581 316.653 337.687 320.48 331.919C320.68 331.619 320.89 331.329 321.1 331.049L321.28 330.809C321.17 330.959 321.36 330.709 321.37 330.699L321.8 330.169C322.3 329.569 322.8 328.989 323.37 328.429C323.94 327.869 324.49 327.339 325.09 326.839L325.92 326.159C325.77 326.279 326.03 326.079 326.03 326.079L326.26 325.909L326.82 325.509C328.077 324.628 329.416 323.871 330.82 323.249L331.28 323.059L331.88 322.829L333.11 322.409C333.937 322.156 334.779 321.952 335.63 321.799C336.534 321.624 337.45 321.517 338.37 321.479C339.339 321.414 340.311 321.414 341.28 321.479C342.192 321.55 343.098 321.687 343.99 321.889C344.936 322.105 345.865 322.389 346.77 322.739C346.897 322.774 347.029 322.783 347.159 322.767C347.29 322.751 347.416 322.709 347.53 322.644C347.644 322.579 347.744 322.492 347.825 322.388C347.906 322.284 347.965 322.166 348 322.039C348.035 321.912 348.044 321.78 348.028 321.649C348.012 321.519 347.97 321.393 347.905 321.279C347.84 321.164 347.753 321.064 347.649 320.983C347.545 320.903 347.427 320.844 347.3 320.809H347.35Z" fill="#1B1B1A"/>
<path d="M448.011 84.0305L250.641 19.4805V29.7405L448.011 93.5205" fill="white"/>
<path d="M448.011 84.0305L250.641 19.4805V29.7405L448.011 93.5205" stroke="#1B1B1A" stroke-width="2.37" stroke-miterlimit="10"/>
<path d="M457.501 270.669L241.141 187.289V6.37891L457.501 77.1489V270.669ZM250.631 180.809L448.051 256.809V84.0389L250.631 19.4789V180.809Z" fill="white" stroke="#1B1B1A" stroke-width="2.37" stroke-miterlimit="10"/>
<path d="M250.639 0L240.289 4.9L457.499 77.15L458.679 272.05L466.549 265.05V67.66L250.639 0Z" fill="#1B1F1D"/>
<path d="M256.049 27.2597L260.569 28.8997C260.648 28.9316 260.733 28.9465 260.817 28.9433C260.902 28.9401 260.986 28.9189 261.062 28.8811C261.138 28.8433 261.205 28.7898 261.259 28.7241C261.313 28.6583 261.352 28.582 261.374 28.4999C261.396 28.4179 261.401 28.3321 261.387 28.2482C261.374 28.1643 261.342 28.0842 261.296 28.0133C261.249 27.9424 261.188 27.8822 261.116 27.8368C261.044 27.7913 260.963 27.7616 260.879 27.7497L256.369 26.1197C256.294 26.0987 256.216 26.0926 256.139 26.1018C256.062 26.1111 255.987 26.1354 255.919 26.1735C255.852 26.2116 255.792 26.2626 255.744 26.3237C255.696 26.3849 255.66 26.4548 255.639 26.5297C255.618 26.6046 255.612 26.6828 255.621 26.76C255.631 26.8372 255.655 26.9118 255.693 26.9796C255.731 27.0474 255.782 27.107 255.843 27.1551C255.904 27.2031 255.974 27.2387 256.049 27.2597Z" fill="#1B1B1A"/>
<path d="M262.72 28.6796C262.625 29.3192 262.739 29.9723 263.045 30.5418C263.352 31.1112 263.834 31.5664 264.42 31.8396C265.014 32.1268 265.691 32.1941 266.33 32.0296C266.934 31.8593 267.455 31.471 267.79 30.9396C268.084 30.4276 268.193 29.83 268.098 29.2472C268.003 28.6645 267.711 28.1321 267.27 27.7396C266.603 27.1653 265.749 26.8557 264.87 26.8696C264.357 26.875 263.862 27.0586 263.47 27.3888C263.078 27.719 262.812 28.1753 262.72 28.6796C262.682 28.8319 262.705 28.9928 262.783 29.1287C262.862 29.2646 262.989 29.3652 263.14 29.4096C263.292 29.4495 263.454 29.4278 263.591 29.3492C263.727 29.2706 263.828 29.1414 263.87 28.9896C263.888 28.8984 263.912 28.8083 263.94 28.7196C263.936 28.683 263.936 28.6461 263.94 28.6096C263.89 28.7396 263.94 28.6096 263.94 28.6096L264.06 28.4296C264 28.5296 264.01 28.4796 264.06 28.4296L264.17 28.3096C264.17 28.3096 264.28 28.2196 264.17 28.3096C264.06 28.3996 264.17 28.3096 264.17 28.3096C264.223 28.2707 264.28 28.2372 264.34 28.2096C264.45 28.1396 264.21 28.2096 264.34 28.2096H264.41L264.65 28.1496C264.78 28.1496 264.51 28.1496 264.65 28.1496H265.05C265.1 28.1496 265.32 28.1496 265.15 28.1496L265.41 28.1996C265.549 28.2324 265.687 28.2758 265.82 28.3296C265.97 28.3796 265.71 28.2696 265.82 28.3296C265.846 28.3242 265.873 28.3242 265.9 28.3296C265.979 28.3636 266.056 28.4037 266.13 28.4496L266.33 28.5796L266.43 28.6596L266.6 28.8196C266.649 28.8802 266.689 28.9475 266.72 29.0196C266.792 29.1683 266.842 29.3266 266.87 29.4896C266.87 29.3696 266.87 29.5696 266.87 29.5696V29.6896C266.875 29.7495 266.875 29.8097 266.87 29.8696C266.87 29.7596 266.87 29.8696 266.87 29.9496C266.841 30.1355 266.765 30.311 266.65 30.4596C266.65 30.4596 266.71 30.3896 266.65 30.4596C266.609 30.5054 266.565 30.5488 266.52 30.5896L266.43 30.6696C266.5 30.6096 266.33 30.7296 266.31 30.7496C266.008 30.9249 265.651 30.9819 265.31 30.9096C265.078 30.8699 264.859 30.7775 264.67 30.6396C264.576 30.5919 264.491 30.5276 264.42 30.4496C264.371 30.4079 264.328 30.3609 264.29 30.3096L264.21 30.2296C264.06 30.0442 263.951 29.8296 263.89 29.5996C263.86 29.5052 263.84 29.408 263.83 29.3096V29.1496C263.83 29.1496 263.83 28.9196 263.83 28.9896C263.85 28.8446 263.817 28.697 263.736 28.5748C263.656 28.4525 263.533 28.364 263.392 28.3259C263.25 28.2878 263.1 28.3027 262.969 28.3678C262.838 28.433 262.735 28.5439 262.68 28.6796H262.72Z" fill="#1B1B1A"/>
<path d="M270.49 29.9202L273.8 33.9702C273.912 34.0816 274.063 34.1442 274.22 34.1442C274.378 34.1442 274.529 34.0816 274.64 33.9702C274.752 33.8588 274.814 33.7077 274.814 33.5502C274.814 33.3927 274.752 33.2416 274.64 33.1302L271.33 29.0802C271.219 28.9688 271.068 28.9062 270.91 28.9063C270.753 28.9062 270.602 28.9688 270.49 29.0802C270.379 29.1916 270.316 29.3427 270.316 29.5002C270.316 29.6577 270.379 29.8088 270.49 29.9202Z" fill="#1B1B1A"/>
<path d="M274.29 29.7112L270.74 32.4512C270.606 32.5323 270.51 32.6623 270.47 32.8136C270.431 32.9649 270.453 33.1255 270.53 33.2612C270.569 33.3284 270.621 33.3871 270.683 33.434C270.745 33.481 270.816 33.5152 270.891 33.5347C270.966 33.5542 271.045 33.5586 271.122 33.5477C271.199 33.5369 271.273 33.5109 271.34 33.4712L274.89 30.7312C275.023 30.6502 275.12 30.5202 275.159 30.3689C275.199 30.2176 275.177 30.057 275.1 29.9212C275.061 29.8541 275.009 29.7954 274.947 29.7484C274.884 29.7015 274.814 29.6673 274.739 29.6478C274.663 29.6283 274.585 29.6238 274.508 29.6347C274.431 29.6456 274.357 29.6716 274.29 29.7112Z" fill="#1B1B1A"/>
<path d="M314.539 99.8095C316.779 89.9495 322.379 75.0595 326.939 66.0395C327.679 64.5795 328.759 62.9295 330.399 62.9395C332.039 62.9495 333.109 64.6095 333.749 66.1195C335.806 71.4879 336.633 77.2493 336.169 82.9795L337.399 106.179L325.969 109.76L314.539 99.8095Z" fill="white"/>
<path d="M315.509 100.029C316.299 96.5295 317.329 93.0895 318.449 89.6795C319.689 85.8795 321.046 82.1261 322.519 78.4195C322.889 77.4995 323.259 76.5695 323.639 75.6495L323.909 75.0195L324.039 74.7095C324.039 74.7095 324.109 74.5295 324.039 74.7095L324.119 74.5295C324.299 74.0895 324.489 73.6495 324.679 73.2095C325.393 71.5695 326.136 69.9428 326.909 68.3295C327.259 67.5895 327.609 66.8495 327.999 66.1295C328.218 65.7277 328.462 65.3402 328.729 64.9695C328.619 65.1195 328.789 64.8995 328.819 64.8495L329.029 64.6195L329.249 64.4095L329.379 64.2995C329.479 64.1895 329.199 64.4195 329.379 64.2995C329.459 64.2436 329.543 64.1935 329.629 64.1495C329.689 64.1495 329.909 64.0095 329.719 64.0795L329.999 63.9895C330.053 63.9942 330.106 63.9942 330.159 63.9895C330.269 63.9895 329.949 63.9895 330.159 63.9895H330.589C330.589 63.9895 330.389 63.9895 330.589 63.9895C330.789 63.9895 330.779 64.0495 330.859 64.0595C330.939 64.0695 330.859 64.0595 330.809 64.0595L330.989 64.1495C331.076 64.1935 331.16 64.2436 331.239 64.2995C331.389 64.3895 331.239 64.2995 331.239 64.2995L331.329 64.3795C331.504 64.5241 331.665 64.6848 331.809 64.8595L331.899 64.9695C331.779 64.8295 331.899 64.9695 331.899 64.9695L332.079 65.2295C332.199 65.4195 332.319 65.6095 332.429 65.8095C332.539 66.0095 332.629 66.2095 332.719 66.4095C332.809 66.6095 332.849 66.7095 332.779 66.5295L332.909 66.8595C333.079 67.2895 333.239 67.7195 333.389 68.1595C333.689 69.0695 333.949 69.9895 334.179 70.9195C334.409 71.8495 334.609 72.9195 334.779 73.9195C334.779 74.1595 334.849 74.3995 334.879 74.6295C334.879 74.6795 334.929 74.9895 334.879 74.8295C334.879 74.9695 334.879 75.0995 334.929 75.2395C334.999 75.7495 335.049 76.2395 335.089 76.7695C335.269 78.6911 335.289 80.6245 335.149 82.5495C335.12 82.9155 335.12 83.2834 335.149 83.6495L335.399 88.3195L335.779 95.4195L336.139 102.209L336.339 106.059V106.239L337.069 105.239L333.209 106.449L327.069 108.369L325.649 108.809L326.649 109.069L322.789 105.709L316.629 100.349L315.219 99.1195C315.032 98.9332 314.779 98.8287 314.514 98.8287C314.25 98.8287 313.997 98.9332 313.809 99.1195C313.716 99.2124 313.641 99.323 313.591 99.4449C313.54 99.5668 313.514 99.6974 313.514 99.8295C313.514 99.9615 313.54 100.092 313.591 100.214C313.641 100.336 313.716 100.447 313.809 100.539L317.049 103.359L322.809 108.359L324.809 110.059L325.239 110.429C325.385 110.566 325.565 110.663 325.76 110.708C325.954 110.754 326.158 110.747 326.349 110.689C328.229 110.149 330.089 109.519 331.959 108.929C333.829 108.339 335.709 107.789 337.569 107.179H337.679C337.896 107.119 338.085 106.987 338.218 106.806C338.35 106.625 338.418 106.404 338.409 106.179L338.259 103.379L337.919 96.8795L337.529 89.4995L337.239 84.0995C337.239 83.7395 337.179 83.3795 337.179 83.0195C337.179 82.5095 337.269 82.0195 337.289 81.4895C337.289 80.4895 337.289 79.4895 337.289 78.4895C337.177 74.3914 336.4 70.3387 334.989 66.4895C334.309 64.7195 333.349 62.7095 331.409 62.0595C329.259 61.3495 327.489 63.0595 326.489 64.7495C325.629 66.2295 324.929 67.8395 324.219 69.3995C323.399 71.1795 322.629 72.9795 321.879 74.7795C320.313 78.5395 318.863 82.3428 317.529 86.1895C316.279 89.7995 315.119 93.4495 314.169 97.1895C313.959 97.9695 313.769 98.7595 313.589 99.5595C313.555 99.6862 313.545 99.8186 313.561 99.949C313.578 100.079 313.619 100.205 313.684 100.32C313.749 100.434 313.836 100.534 313.94 100.615C314.044 100.695 314.163 100.755 314.289 100.789C314.42 100.822 314.555 100.828 314.687 100.807C314.82 100.786 314.947 100.739 315.061 100.668C315.174 100.597 315.273 100.504 315.35 100.394C315.427 100.285 315.481 100.161 315.509 100.029Z" fill="#1B1B1A"/>
<path d="M294.23 180.569C273.69 167.189 254.83 148.569 240.57 128.639C236.87 123.459 233.29 117.639 233.45 111.309C233.58 105.869 235.19 104.239 239.27 100.639C243.35 97.0392 256.7 94.6392 260.92 94.4492C289.41 93.1992 311.02 97.4492 332.92 105.699L331.441 104.769L338.52 72.3692C339.27 68.9292 341 64.6692 344.52 64.7592C348.04 64.8492 349.521 69.1192 350.15 72.5592C356.152 107.268 359.877 152.793 361 187.999" fill="white"/>
<path d="M294.739 179.71C282.534 171.661 271.27 162.269 261.159 151.71C256.069 146.447 251.253 140.926 246.729 135.17C244.509 132.33 242.329 129.44 240.289 126.47C238.158 123.566 236.473 120.361 235.289 116.96C234.277 113.97 234.142 110.754 234.899 107.69C235.539 105.39 237.239 103.75 238.959 102.2C239.734 101.444 240.601 100.789 241.539 100.25C242.487 99.7347 243.474 99.2934 244.489 98.9296C247.037 98.0094 249.647 97.2709 252.299 96.7196C254.541 96.2174 256.808 95.8302 259.089 95.5596C262.089 95.2296 265.089 95.2396 268.089 95.2096C275.325 95.1061 282.56 95.4233 289.759 96.1596C302.845 97.581 315.717 100.541 328.109 104.98C329.619 105.51 331.109 106.06 332.609 106.62C333.699 107.04 334.299 105.38 333.379 104.8L331.899 103.87L332.359 105C334.719 94.1696 337.019 83.3296 339.449 72.5196C340.009 69.9896 341.539 64.8896 345.099 65.7996C346.639 66.1996 347.549 67.7296 348.099 69.0996C348.805 71.093 349.284 73.1592 349.529 75.2596C351.363 86.0596 352.956 96.8929 354.309 107.76C355.663 118.626 356.789 129.563 357.689 140.57C358.569 151.536 359.216 162.516 359.629 173.51C359.679 174.84 359.729 176.18 359.769 177.51C359.809 178.84 361.769 178.8 361.769 177.51C361.396 166.136 360.776 154.78 359.909 143.44C359.043 132.1 357.919 120.826 356.539 109.62C355.166 98.3596 353.543 87.1396 351.669 75.9596C351.019 72.1296 350.669 67.0196 347.159 64.5696C346.395 64.0501 345.501 63.7527 344.578 63.7103C343.655 63.668 342.738 63.8823 341.929 64.3296C340.37 65.3314 339.188 66.8229 338.569 68.5696C337.778 70.7029 337.188 72.9059 336.809 75.1496L335.049 83.6096L331.409 100.3L330.489 104.5C330.43 104.712 330.444 104.938 330.527 105.143C330.61 105.347 330.759 105.518 330.949 105.63L332.429 106.56L333.199 104.74C327 102.366 320.677 100.326 314.259 98.6296C307.716 96.9233 301.073 95.6241 294.369 94.7396C287.173 93.8001 279.926 93.2992 272.669 93.2396C266.684 93.0117 260.691 93.3465 254.769 94.2396C252.07 94.7128 249.399 95.3371 246.769 96.1096C244.397 96.7359 242.118 97.6705 239.989 98.8896C238.94 99.5972 237.96 100.401 237.059 101.29C236.097 102.155 235.223 103.113 234.449 104.15C233.008 106.41 232.309 109.063 232.449 111.74C232.449 119.28 237.229 125.79 241.509 131.6C250.402 143.631 260.538 154.693 271.749 164.6C277.328 169.538 283.188 174.149 289.299 178.41C290.759 179.43 292.239 180.43 293.739 181.41C294.819 182.12 295.819 180.41 294.739 179.69V179.71Z" fill="#1B1B1A"/>
<path d="M361.841 176.66C363.671 177.88 364.231 180.27 364.261 182.4L364.351 183.18C342.661 195.74 314.781 196.26 291.151 187.91C290.473 185.204 290.748 182.347 291.931 179.82C291.931 179.82 333.531 185.75 353.751 180.39C356.502 179.821 359.105 178.683 361.391 177.05L361.841 176.66Z" fill="white"/>
<path d="M361.33 177.519C361.439 177.584 361.54 177.661 361.63 177.749C361.745 177.852 361.851 177.962 361.95 178.079L362.12 178.269C362.114 178.166 362.067 178.069 361.99 177.999C361.914 177.929 361.813 177.891 361.709 177.895C361.605 177.898 361.506 177.941 361.434 178.016C361.362 178.091 361.321 178.19 361.321 178.294C361.321 178.398 361.362 178.498 361.434 178.573C361.506 178.647 361.605 178.691 361.709 178.694C361.813 178.697 361.914 178.66 361.99 178.59C362.067 178.52 362.114 178.423 362.12 178.319C362.212 178.444 362.295 178.574 362.37 178.709C362.678 179.236 362.895 179.811 363.01 180.409C363.146 180.993 363.219 181.59 363.23 182.189C363.23 182.519 363.28 182.849 363.32 183.189L363.81 182.329C359.633 184.739 355.224 186.722 350.65 188.249C346.034 189.792 341.288 190.916 336.47 191.609C334.17 191.949 331.69 192.199 329.29 192.349C326.89 192.499 324.36 192.549 321.9 192.499C317.029 192.413 312.171 191.951 307.37 191.119C302.527 190.288 297.753 189.091 293.09 187.539L291.38 186.949L292.08 187.649C291.471 185.203 291.711 182.622 292.76 180.329L291.63 180.789C293.41 181.039 295.19 181.259 296.97 181.469C301.25 181.969 305.537 182.393 309.83 182.739C315.45 183.189 321.09 183.499 326.73 183.609C332.473 183.758 338.22 183.571 343.94 183.049C346.529 182.809 349.103 182.428 351.65 181.909C353 181.629 354.33 181.289 355.65 180.909C357.524 180.402 359.313 179.624 360.96 178.599C361.501 178.227 362.018 177.823 362.51 177.389C362.697 177.201 362.802 176.946 362.801 176.681C362.8 176.415 362.694 176.161 362.505 175.974C362.317 175.787 362.062 175.683 361.797 175.684C361.532 175.685 361.277 175.791 361.09 175.979C358.71 178.059 355.57 178.979 352.51 179.689C351.35 179.969 350.18 180.199 349.01 180.399C348.39 180.509 347.77 180.599 347.15 180.689L346.73 180.749H346.66H346.41L345.41 180.869C339.812 181.471 334.18 181.718 328.55 181.609C322.89 181.549 317.25 181.269 311.61 180.849C307.144 180.523 302.68 180.103 298.22 179.589C296.8 179.429 295.39 179.259 293.97 179.079L292.66 178.909C293.16 178.979 292.66 178.909 292.49 178.909H292.25H292.16C291.948 178.851 291.722 178.864 291.517 178.947C291.313 179.03 291.142 179.179 291.03 179.369C290.371 180.786 289.959 182.304 289.81 183.859C289.745 184.578 289.745 185.301 289.81 186.019C289.81 186.429 289.9 186.829 289.97 187.239C289.996 187.665 290.102 188.082 290.28 188.469C290.51 188.879 291.02 188.989 291.44 189.129L292.44 189.479L294.39 190.109C295.69 190.509 297.01 190.889 298.33 191.239C303.733 192.671 309.245 193.647 314.81 194.159C320.327 194.676 325.879 194.703 331.4 194.239C336.933 193.784 342.408 192.796 347.75 191.289C353.063 189.771 358.194 187.675 363.05 185.039C363.65 184.719 364.24 184.389 364.83 184.039C364.983 183.951 365.11 183.824 365.197 183.672C365.285 183.519 365.331 183.346 365.33 183.169C365.267 181.994 365.124 180.825 364.9 179.669C364.546 178.1 363.628 176.716 362.32 175.779C362.092 175.648 361.821 175.612 361.566 175.68C361.312 175.747 361.094 175.912 360.96 176.139C360.893 176.254 360.849 176.381 360.831 176.513C360.812 176.644 360.821 176.779 360.855 176.907C360.89 177.036 360.95 177.156 361.031 177.261C361.113 177.366 361.214 177.454 361.33 177.519Z" fill="#1B1B1A"/>
<path d="M292.73 182.24L285.17 184.5C287.649 185.61 290.289 186.322 292.99 186.61" fill="white"/>
<path d="M292.46 181.279L284.9 183.529C284.712 183.582 284.543 183.689 284.416 183.836C284.288 183.984 284.206 184.166 284.18 184.359C284.152 184.555 284.183 184.754 284.268 184.932C284.354 185.11 284.49 185.259 284.66 185.359C287.302 186.539 290.113 187.298 292.99 187.609C293.255 187.609 293.509 187.504 293.697 187.316C293.884 187.129 293.99 186.874 293.99 186.609C293.99 186.344 293.884 186.09 293.697 185.902C293.509 185.715 293.255 185.609 292.99 185.609C291.731 185.462 290.485 185.225 289.26 184.899C288.033 184.567 286.833 184.142 285.67 183.629L285.43 185.459L293.05 183.209C293.306 183.138 293.523 182.967 293.653 182.736C293.783 182.504 293.816 182.23 293.745 181.974C293.673 181.718 293.503 181.501 293.271 181.371C293.04 181.241 292.766 181.208 292.51 181.279H292.46Z" fill="#1B1B1A"/>
<path d="M297.949 188.17L300.619 194.9C302.046 193.415 302.996 191.538 303.349 189.51" fill="white"/>
<path d="M296.991 188.43L299.651 195.17C299.698 195.338 299.788 195.491 299.912 195.614C300.036 195.737 300.191 195.825 300.359 195.869C300.528 195.914 300.706 195.913 300.875 195.868C301.043 195.822 301.197 195.733 301.321 195.61C302.874 194.005 303.918 191.977 304.321 189.78C304.356 189.653 304.365 189.521 304.349 189.39C304.333 189.26 304.291 189.134 304.226 189.02C304.161 188.906 304.074 188.805 303.97 188.725C303.866 188.644 303.748 188.585 303.621 188.55C303.366 188.479 303.094 188.512 302.863 188.641C302.633 188.77 302.463 188.986 302.391 189.24C302.308 189.746 302.184 190.244 302.021 190.73C301.896 191.135 301.732 191.527 301.531 191.9C301.121 192.745 300.577 193.518 299.921 194.19L301.591 194.63L298.931 187.9C298.896 187.773 298.837 187.654 298.756 187.551C298.675 187.447 298.575 187.36 298.461 187.295C298.347 187.23 298.221 187.188 298.09 187.172C297.96 187.155 297.827 187.165 297.701 187.2C297.574 187.235 297.455 187.294 297.351 187.375C297.248 187.455 297.161 187.556 297.096 187.67C297.031 187.784 296.989 187.91 296.973 188.04C296.956 188.171 296.966 188.303 297.001 188.43H296.991Z" fill="#1B1B1A"/>
<path d="M311.3 190.63L311.01 190.26L313.22 196.26L318.08 190.49" fill="white"/>
<path d="M312.049 189.92L311.759 189.56C311.139 188.78 309.759 189.62 310.089 190.56L312.289 196.56C312.335 196.727 312.424 196.879 312.547 197.002C312.669 197.125 312.822 197.214 312.989 197.26C313.164 197.311 313.349 197.315 313.526 197.269C313.702 197.223 313.862 197.13 313.989 197L318.849 191.24C318.943 191.147 319.017 191.036 319.068 190.914C319.119 190.792 319.145 190.662 319.145 190.53C319.145 190.398 319.119 190.267 319.068 190.145C319.017 190.023 318.943 189.913 318.849 189.82C318.662 189.633 318.408 189.529 318.144 189.529C317.88 189.529 317.627 189.633 317.439 189.82L312.579 195.59L314.249 196.03L312.039 190.03L310.369 191.03L310.659 191.4C310.752 191.493 310.863 191.568 310.985 191.618C311.107 191.669 311.237 191.695 311.369 191.695C311.501 191.695 311.632 191.669 311.754 191.618C311.876 191.568 311.986 191.493 312.079 191.4C312.173 191.307 312.247 191.196 312.298 191.074C312.349 190.952 312.375 190.822 312.375 190.69C312.375 190.558 312.349 190.427 312.298 190.305C312.247 190.183 312.173 190.073 312.079 189.98L312.049 189.92Z" fill="#1B1B1A"/>
<path d="M323.619 191.09L327.349 197.58C329.169 195.501 330.401 192.974 330.919 190.26" fill="white"/>
<path d="M322.76 191.6L326.49 198.09C326.567 198.221 326.674 198.334 326.801 198.418C326.929 198.502 327.074 198.556 327.226 198.575C327.377 198.594 327.531 198.579 327.676 198.529C327.82 198.48 327.952 198.398 328.06 198.29C329.994 196.083 331.315 193.407 331.89 190.53C331.924 190.403 331.934 190.27 331.918 190.14C331.901 190.01 331.86 189.884 331.795 189.769C331.73 189.655 331.643 189.555 331.539 189.474C331.435 189.394 331.316 189.334 331.19 189.3C331.063 189.265 330.931 189.255 330.8 189.271C330.67 189.288 330.544 189.33 330.429 189.395C330.315 189.46 330.215 189.546 330.134 189.65C330.054 189.754 329.994 189.873 329.96 190C329.828 190.656 329.658 191.304 329.45 191.94C329.35 192.26 329.23 192.57 329.11 192.88V192.98L329.02 193.18C328.95 193.34 328.88 193.5 328.8 193.66C328.498 194.241 328.164 194.805 327.8 195.35C327.452 195.885 327.068 196.397 326.65 196.88L328.22 197.08L324.49 190.59C324.427 190.47 324.341 190.364 324.237 190.279C324.132 190.194 324.012 190.13 323.882 190.093C323.753 190.055 323.617 190.044 323.483 190.06C323.349 190.077 323.22 190.12 323.103 190.187C322.986 190.255 322.884 190.345 322.803 190.453C322.723 190.561 322.664 190.684 322.632 190.815C322.6 190.946 322.595 191.082 322.617 191.215C322.639 191.348 322.687 191.476 322.76 191.59V191.6Z" fill="#1B1B1A"/>
<path d="M346.949 188.089L350.119 191.579C350.449 191.939 350.899 192.339 351.369 192.199C351.839 192.059 351.999 191.489 352.079 190.999L353.079 184.939" fill="white"/>
<path d="M346.24 188.809L348.33 191.099L349.33 192.249C349.666 192.659 350.104 192.973 350.6 193.159C350.86 193.225 351.131 193.235 351.395 193.189C351.658 193.143 351.91 193.041 352.132 192.891C352.354 192.741 352.541 192.545 352.682 192.318C352.823 192.09 352.915 191.835 352.95 191.569C353.18 190.619 353.28 189.629 353.44 188.669L354.02 185.219C354.055 185.092 354.065 184.96 354.048 184.829C354.032 184.699 353.99 184.573 353.925 184.459C353.86 184.345 353.773 184.244 353.669 184.164C353.566 184.083 353.447 184.024 353.32 183.989C353.193 183.954 353.061 183.945 352.931 183.961C352.8 183.977 352.674 184.019 352.56 184.084C352.446 184.149 352.345 184.236 352.265 184.34C352.184 184.444 352.125 184.562 352.09 184.689L351.52 188.079C351.34 189.149 351.2 190.229 350.95 191.279C350.95 191.349 350.95 191.339 350.95 191.279C350.927 191.328 350.901 191.375 350.87 191.419C350.95 191.319 350.95 191.319 350.87 191.419C350.904 191.38 350.95 191.352 351 191.339H351.12C351.24 191.339 351.23 191.339 351.12 191.339C351.213 191.379 351.213 191.379 351.12 191.339C351.18 191.389 351.12 191.389 351.12 191.339C350.719 190.969 350.345 190.572 350 190.149L347.63 187.529C347.442 187.341 347.186 187.235 346.92 187.235C346.654 187.235 346.398 187.341 346.21 187.529C346.022 187.717 345.916 187.973 345.916 188.239C345.916 188.505 346.022 188.761 346.21 188.949L346.24 188.809Z" fill="#1B1B1A"/>
<path d="M334.33 190.81C335.38 191.98 336.53 193.06 337.5 194.3C338.98 196.22 338.28 195.07 338.75 194.93C339.22 194.79 339.31 197.55 339.46 193.72C339.665 191.681 339.999 189.657 340.46 187.66" fill="white"/>
<path d="M333.62 191.551C334.27 192.261 334.94 192.941 335.62 193.641C336.3 194.341 336.78 195.021 337.36 195.711C337.77 196.211 338.36 196.711 339.03 196.291C339.156 196.214 339.264 196.112 339.35 195.992C339.436 195.871 339.497 195.735 339.53 195.591C339.534 195.555 339.534 195.518 339.53 195.481C339.53 195.251 339.41 195.691 339.53 195.561C339.46 195.662 339.37 195.747 339.265 195.811C339.16 195.875 339.043 195.916 338.921 195.931C338.799 195.946 338.675 195.935 338.558 195.899C338.44 195.863 338.332 195.802 338.24 195.721C338.29 195.721 338.04 195.451 338.17 195.641V195.701C338.26 195.861 338.08 195.451 338.12 195.581C338.183 195.822 338.278 196.054 338.4 196.271C338.49 196.474 338.646 196.641 338.842 196.746C339.039 196.85 339.264 196.887 339.483 196.849C339.702 196.811 339.902 196.701 340.052 196.537C340.202 196.372 340.292 196.163 340.31 195.941C340.417 195.408 340.464 194.865 340.45 194.321C340.493 193.277 340.614 192.238 340.81 191.211C341.02 190.131 341.27 189.051 341.46 187.961C341.495 187.834 341.504 187.702 341.488 187.572C341.472 187.441 341.43 187.315 341.365 187.201C341.3 187.087 341.213 186.987 341.109 186.906C341.005 186.825 340.887 186.766 340.76 186.731C340.633 186.696 340.501 186.687 340.37 186.703C340.24 186.719 340.114 186.761 340 186.826C339.885 186.891 339.785 186.978 339.705 187.082C339.624 187.186 339.565 187.304 339.53 187.431C339.21 189.291 338.71 191.111 338.53 192.991C338.46 193.741 338.46 194.501 338.4 195.251C338.395 195.331 338.395 195.411 338.4 195.491C338.4 195.661 338.45 195.211 338.4 195.361C338.405 195.384 338.405 195.408 338.4 195.431L338.49 195.221C338.24 195.681 338.75 195.621 340.01 195.031C340.19 195.221 340.19 195.291 340.14 195.201C340.09 195.111 340.24 195.481 340.21 195.361C340 194.691 339.65 193.901 338.81 193.911C338.531 193.923 338.265 194.029 338.053 194.21C337.841 194.391 337.695 194.638 337.64 194.911C337.64 194.911 337.64 194.971 337.64 195.001C337.64 195.031 337.64 195.001 337.64 195.001C337.64 194.681 338.48 194.331 338.55 194.331C338.89 194.331 339.16 194.541 338.99 194.431C339.42 194.701 339.16 194.581 339.13 194.541C339.062 194.457 338.988 194.376 338.91 194.301C338.31 193.611 337.78 192.881 337.16 192.211C336.54 191.541 335.79 190.771 335.16 190.041C335.067 189.948 334.957 189.874 334.836 189.823C334.715 189.772 334.585 189.746 334.453 189.746C334.322 189.745 334.192 189.771 334.07 189.82C333.949 189.87 333.838 189.944 333.745 190.036C333.652 190.129 333.577 190.239 333.527 190.36C333.476 190.481 333.45 190.611 333.449 190.743C333.449 190.874 333.474 191.004 333.524 191.126C333.574 191.247 333.647 191.358 333.74 191.451L333.62 191.551Z" fill="#1B1B1A"/>
<path d="M362.359 178.81C363.239 178.81 365.599 178.35 366.499 178.33C365.66 179.616 364.651 180.784 363.499 181.8" fill="white"/>
<path d="M362.36 179.809C363.12 179.809 363.88 179.639 364.63 179.539L365.22 179.459C365.42 179.459 364.96 179.459 365.17 179.459H365.3H365.58C365.89 179.459 366.19 179.389 366.5 179.379L365.64 177.879L365.28 178.389L365.08 178.659L364.99 178.789C364.99 178.789 364.87 178.939 364.99 178.789L364.9 178.899L364.71 179.129L364.32 179.589C363.858 180.11 363.36 180.598 362.83 181.049C362.725 181.139 362.64 181.249 362.58 181.373C362.52 181.497 362.486 181.632 362.481 181.77C362.476 181.908 362.499 182.045 362.549 182.173C362.599 182.302 362.676 182.418 362.773 182.516C362.87 182.613 362.987 182.689 363.115 182.74C363.244 182.79 363.381 182.813 363.519 182.808C363.656 182.803 363.792 182.769 363.916 182.709C364.04 182.649 364.15 182.564 364.24 182.459C365.469 181.394 366.543 180.162 367.43 178.799C367.52 178.647 367.568 178.474 367.569 178.298C367.571 178.121 367.526 177.948 367.438 177.794C367.351 177.641 367.225 177.513 367.072 177.425C366.92 177.336 366.746 177.289 366.57 177.289C365.802 177.336 365.038 177.422 364.28 177.549L363.7 177.639H363.54H363.62H363.33C363.03 177.639 362.73 177.719 362.43 177.729C362.164 177.729 361.91 177.834 361.723 178.022C361.535 178.209 361.43 178.464 361.43 178.729C361.43 178.994 361.535 179.249 361.723 179.436C361.91 179.624 362.164 179.729 362.43 179.729L362.36 179.809Z" fill="#1B1B1A"/>
<ellipse cx="312.127" cy="119.62" rx="17" ry="11.5" transform="rotate(25.0715 312.127 119.62)" fill="#FBEBEB"/>
<path d="M315.707 120.968C316.406 119.758 315.336 117.833 313.317 116.667C311.299 115.502 309.096 115.538 308.398 116.748C307.699 117.958 308.769 119.884 310.787 121.049C312.806 122.215 315.008 122.178 315.707 120.968Z" fill="#1B1B1A"/>
<path d="M255.897 112.382C256.775 110.004 254.269 106.888 250.3 105.423C246.332 103.958 242.403 104.699 241.525 107.077C240.647 109.455 243.153 112.57 247.122 114.035C251.09 115.5 255.019 114.76 255.897 112.382Z" fill="#1B1B1A"/>
<path d="M356.93 184.881L361.69 188.261L360.76 182.871" fill="white"/>
<path d="M356.43 185.741L361.18 189.121C361.353 189.219 361.55 189.264 361.748 189.25C361.945 189.235 362.134 189.163 362.29 189.041C362.447 188.921 362.565 188.757 362.629 188.57C362.694 188.384 362.701 188.182 362.65 187.991L361.73 182.611C361.696 182.484 361.636 182.365 361.556 182.262C361.475 182.158 361.375 182.071 361.261 182.006C361.146 181.941 361.02 181.899 360.89 181.883C360.759 181.866 360.627 181.876 360.5 181.911C360.374 181.946 360.255 182.005 360.151 182.086C360.047 182.166 359.96 182.267 359.895 182.381C359.83 182.495 359.789 182.621 359.772 182.751C359.756 182.882 359.765 183.014 359.8 183.141L360.72 188.521L362.19 187.391L357.44 184.021C357.327 183.954 357.201 183.911 357.071 183.893C356.941 183.875 356.808 183.883 356.681 183.917C356.553 183.95 356.434 184.008 356.329 184.088C356.225 184.168 356.137 184.267 356.07 184.381C355.939 184.609 355.903 184.88 355.971 185.135C356.038 185.39 356.203 185.607 356.43 185.741Z" fill="#1B1B1A"/>
<path d="M186.43 67.8104C186.43 65.6704 187.2 63.1304 189.26 62.5804C190.09 62.4502 190.94 62.5911 191.684 62.9819C192.428 63.3728 193.026 63.9929 193.39 64.7504C194.08 66.2795 194.422 67.943 194.39 69.6204C194.76 68.3047 195.508 67.1263 196.54 66.2304C197.065 65.7953 197.704 65.5198 198.381 65.4365C199.058 65.3532 199.745 65.4656 200.36 65.7604C200.966 66.179 201.436 66.7653 201.713 67.4475C201.99 68.1297 202.062 68.8779 201.92 69.6004C201.608 71.0547 200.976 72.4212 200.07 73.6004C197.781 76.949 195.172 80.067 192.28 82.9104C192.28 82.9104 186.4 72.7504 186.43 67.8104Z" fill="#F1A4A4"/>
<path d="M227.13 51.2196C224.569 49.229 222.797 46.3941 222.13 43.2196C221.986 42.7717 221.945 42.2969 222.011 41.8309C222.077 41.365 222.248 40.92 222.51 40.5296C222.982 40.1161 223.596 39.9034 224.222 39.9371C224.848 39.9707 225.436 40.248 225.86 40.7096C226.678 41.6642 227.224 42.8213 227.44 44.0596C227.949 43.1414 228.66 42.3514 229.52 41.7496C229.96 41.4602 230.484 41.3274 231.009 41.3728C231.533 41.4181 232.027 41.639 232.41 41.9996C232.634 42.2972 232.782 42.6448 232.842 43.0125C232.901 43.3802 232.869 43.7568 232.75 44.1096C232.506 44.8143 232.141 45.4709 231.67 46.0496C230.257 47.9696 228.764 49.8263 227.19 51.6196L227.13 51.2196Z" fill="#F1A4A4"/>
<path d="M224.33 75.8104C223.216 74.5699 221.922 73.5045 220.49 72.6504C219.058 71.7938 217.835 70.6289 216.91 69.2404C216.455 68.541 216.213 67.7246 216.213 66.8903C216.213 66.0561 216.455 65.2397 216.91 64.5404C217.332 64.0032 217.914 63.6146 218.571 63.4308C219.229 63.2471 219.928 63.278 220.567 63.5188C221.206 63.7597 221.752 64.1981 222.124 64.7702C222.497 65.3424 222.678 66.0185 222.64 66.7004C223.058 65.8078 223.634 64.9981 224.34 64.3104C224.7 63.9714 225.141 63.7315 225.622 63.6141C226.102 63.4966 226.604 63.5057 227.08 63.6403C227.615 63.8954 228.059 64.3081 228.352 64.823C228.645 65.3379 228.774 65.9303 228.72 66.5204C228.584 67.6935 228.203 68.8249 227.6 69.8404L224.77 75.5004L224.33 75.8104Z" fill="#F1A4A4"/>
<path d="M141.3 287.5C141.3 287.5 139.36 327.63 147.56 348.94L141.3 287.5Z" fill="white"/>
<path d="M141.3 287.5C141.3 287.5 139.36 327.63 147.56 348.94" stroke="#1B1B1A" stroke-width="2" stroke-miterlimit="10" stroke-linecap="round"/>
<path d="M177.049 287.5C177.049 287.5 178.989 327.63 170.789 348.94L177.049 287.5Z" fill="white"/>
<path d="M177.049 287.5C177.049 287.5 178.989 327.63 170.789 348.94" stroke="#1B1B1A" stroke-width="2" stroke-miterlimit="10" stroke-linecap="round"/>
<path d="M160.24 348.83V302.25" stroke="#1B1B1A" stroke-width="2" stroke-miterlimit="10" stroke-linecap="round"/>
<path d="M152.439 340.811L152.559 349.221C152.559 349.486 152.665 349.74 152.852 349.928C153.04 350.115 153.294 350.221 153.559 350.221C153.825 350.221 154.079 350.115 154.267 349.928C154.454 349.74 154.559 349.486 154.559 349.221L154.439 340.811C154.439 340.545 154.334 340.291 154.147 340.103C153.959 339.916 153.705 339.811 153.439 339.811C153.174 339.811 152.92 339.916 152.732 340.103C152.545 340.291 152.439 340.545 152.439 340.811Z" fill="#1B1B1A"/>
<path d="M165.05 340.49L164.51 349.19C164.51 349.455 164.615 349.71 164.803 349.897C164.99 350.085 165.245 350.19 165.51 350.19C165.775 350.19 166.029 350.085 166.217 349.897C166.404 349.71 166.51 349.455 166.51 349.19L167.05 340.49C167.05 340.225 166.944 339.971 166.757 339.783C166.569 339.596 166.315 339.49 166.05 339.49C165.785 339.49 165.53 339.596 165.343 339.783C165.155 339.971 165.05 340.225 165.05 340.49Z" fill="#1B1B1A"/>
</g>
<path d="M2 349.008L431 349.008" stroke="#1B1F1D" stroke-width="2" stroke-linecap="round"/>
<path d="M441.278 348.838L465.351 348.838" stroke="#1B1F1D" stroke-width="2" stroke-linecap="round"/>
<g clip-path="url(#clip1_1905_78874)">
<path d="M15.82 315C18.1228 317.475 19.7292 320.515 20.4757 323.812C21.2222 327.109 21.0822 330.545 20.07 333.77L19.78 333.84C18.18 327.62 16.76 321.363 15.52 315.07L15.82 315Z" fill="#1B1F1D"/>
<path d="M4.31998 325.119C7.0981 325.539 9.66553 326.847 11.6378 328.848C13.61 330.849 14.8808 333.435 15.26 336.219L15.05 336.439C11.27 332.859 7.62332 329.156 4.10999 325.329L4.31998 325.119Z" fill="#1B1F1D"/>
<path d="M0.0700073 340.269C2.47874 339.108 5.21151 338.803 7.81693 339.405C10.4223 340.007 12.7445 341.479 14.4 343.579L14.34 343.869C9.52 342.949 4.74 341.849 0 340.569L0.0700073 340.269Z" fill="#1B1F1D"/>
</g>
<path d="M384.289 158.07C380.942 158.543 377.529 158.121 374.398 156.847C371.267 155.573 368.53 153.492 366.463 150.816L366.572 150.539C372.589 152.785 378.533 155.2 384.404 157.784L384.289 158.07Z" fill="#1B1F1D"/>
<path d="M381.907 146.684C379.585 148.266 376.813 149.053 374.006 148.927C371.199 148.801 368.508 147.77 366.337 145.987L366.342 145.683C371.547 145.736 376.74 145.971 381.918 146.387L381.907 146.684Z" fill="#1B1F1D"/>
<path d="M378.718 134.687C377.742 137.177 375.946 139.259 373.627 140.589C371.307 141.92 368.604 142.42 365.962 142.006L365.809 141.753C369.968 139.149 374.22 136.705 378.566 134.42L378.718 134.687Z" fill="#1B1F1D"/>
<defs>
<clipPath id="clip0_1905_78874">
<rect width="449" height="350" fill="white" transform="translate(18)"/>
</clipPath>
<clipPath id="clip1_1905_78874">
<rect width="20.9" height="28.87" fill="white" transform="translate(0 315)"/>
</clipPath>
</defs>
</svg>
