<svg width="48" height="48" viewBox="0 0 48 48" fill="none" xmlns="http://www.w3.org/2000/svg">
<g clip-path="url(#clip0_1905_78562)">
<path d="M45.047 23.9758C45.047 25.777 42.9313 27.2732 42.493 28.9314C42.0546 30.5896 43.1029 33.0007 42.2261 34.4969C41.3494 35.9931 38.7667 36.2695 37.5374 37.5084C36.308 38.7473 36.0507 41.3204 34.5259 42.2067C33.0011 43.093 30.7139 42.0066 28.9604 42.464C27.2068 42.9214 25.7964 45.018 24.0048 45.018C22.2131 45.018 20.7074 42.9119 19.0492 42.464C17.3909 42.0161 14.9799 43.0739 13.4741 42.2067C11.9684 41.3395 11.7015 38.7473 10.4626 37.5084C9.22375 36.2695 6.65063 36.0217 5.77387 34.4969C4.89711 32.9721 5.96448 30.6849 5.50704 28.9314C5.0496 27.1779 2.953 25.777 2.953 23.9758C2.953 22.1746 5.06866 20.6784 5.50704 19.0202C5.94542 17.362 4.90664 14.9509 5.77387 13.4452C6.6411 11.9394 9.23327 11.6821 10.4722 10.4432C11.7111 9.20431 11.9493 6.63122 13.4741 5.74493C14.9989 4.85864 17.2861 5.94506 19.0492 5.47809C20.8122 5.01112 22.2036 2.93359 24.0048 2.93359C25.8059 2.93359 27.3021 5.03971 28.9604 5.47809C30.6186 5.91647 33.0202 4.8777 34.5259 5.74493C36.0316 6.61216 36.2985 9.20431 37.5374 10.4432C38.7763 11.6821 41.3494 11.9204 42.2261 13.4452C43.1029 14.97 42.0355 17.2572 42.493 19.0202C42.9504 20.7833 45.047 22.1937 45.047 23.9758Z" stroke="#1B1F1D" stroke-width="2" stroke-linecap="round" stroke-linejoin="round"/>
<path d="M45.047 23.9758C45.047 25.777 42.9313 27.2732 42.493 28.9314C42.0546 30.5896 43.1029 33.0007 42.2261 34.4969C41.3494 35.9931 38.7667 36.2695 37.5374 37.5084C36.308 38.7473 36.0507 41.3204 34.5259 42.2067C33.0011 43.093 30.7139 42.0066 28.9604 42.464C27.2068 42.9214 25.7964 45.018 24.0048 45.018C22.2131 45.018 20.7074 42.9119 19.0492 42.464C17.391 42.0161 14.9799 43.0739 13.4741 42.2067C11.9684 41.3395 11.7015 38.7473 10.4626 37.5084C9.22375 36.2695 6.65063 36.0217 5.77387 34.4969C4.89711 32.9721 5.96448 30.6849 5.50704 28.9314C5.0496 27.1779 2.953 25.777 2.953 23.9758C2.953 22.1746 5.06866 20.6784 5.50704 19.0202C5.94542 17.362 4.90664 14.9509 5.77387 13.4452C6.6411 11.9394 9.23327 11.6821 10.4722 10.4432C11.7111 9.20431 11.9493 6.63122 13.4741 5.74493C14.9989 4.85864 17.2861 5.94506 19.0492 5.47809C20.8122 5.01112 22.2036 2.93359 24.0048 2.93359C25.8059 2.93359 27.3021 5.03971 28.9604 5.47809C30.6186 5.91647 33.0202 4.8777 34.5259 5.74493C36.0316 6.61216 36.2985 9.20431 37.5374 10.4432C38.7763 11.6821 41.3494 11.9204 42.2261 13.4452C43.1029 14.97 42.0355 17.2572 42.493 19.0202C42.9504 20.7833 45.047 22.1937 45.047 23.9758Z" fill="white"/>
<path d="M20.3554 23.1479C21.9975 23.1479 23.3287 21.8167 23.3287 20.1745C23.3287 18.5324 21.9975 17.2012 20.3554 17.2012C18.7132 17.2012 17.382 18.5324 17.382 20.1745C17.382 21.8167 18.7132 23.1479 20.3554 23.1479Z" fill="#F8CECE"/>
<path d="M30.6187 33.7162C32.2609 33.7162 33.5921 32.385 33.5921 30.7429C33.5921 29.1007 32.2609 27.7695 30.6187 27.7695C28.9766 27.7695 27.6454 29.1007 27.6454 30.7429C27.6454 32.385 28.9766 33.7162 30.6187 33.7162Z" fill="#F8CECE"/>
<path d="M18.4488 22.1948C20.0909 22.1948 21.4221 20.8635 21.4221 19.2214C21.4221 17.5793 20.0909 16.248 18.4488 16.248C16.8066 16.248 15.4754 17.5793 15.4754 19.2214C15.4754 20.8635 16.8066 22.1948 18.4488 22.1948Z" stroke="#1B1F1D" stroke-width="2" stroke-linecap="round" stroke-linejoin="round"/>
<path d="M28.7126 32.7631C30.3547 32.7631 31.6859 31.4319 31.6859 29.7898C31.6859 28.1476 30.3547 26.8164 28.7126 26.8164C27.0704 26.8164 25.7392 28.1476 25.7392 29.7898C25.7392 31.4319 27.0704 32.7631 28.7126 32.7631Z" stroke="#1B1F1D" stroke-width="2" stroke-linecap="round" stroke-linejoin="round"/>
<path d="M30.3994 17.7344L17.0002 31.1336" stroke="#1B1F1D" stroke-width="2" stroke-linecap="round" stroke-linejoin="round"/>
</g>
<defs>
<clipPath id="clip0_1905_78562">
<rect width="44" height="44" fill="white" transform="translate(2 2)"/>
</clipPath>
</defs>
</svg>
