<svg width="48" height="48" viewBox="0 0 48 48" fill="none" xmlns="http://www.w3.org/2000/svg">
<g clip-path="url(#clip0_1905_78574)">
<path d="M24.4263 44.1725C34.8569 44.1725 43.3125 35.8686 43.3125 25.6253C43.3125 15.382 34.8569 7.07812 24.4263 7.07812C13.9957 7.07812 5.5401 15.382 5.5401 25.6253C5.5401 35.8686 13.9957 44.1725 24.4263 44.1725Z" fill="white"/>
<path d="M6.54523 19.6887C7.52369 16.8487 9.18865 14.284 11.3974 12.2143C13.6062 10.1445 16.293 8.63152 19.2276 7.80483C18.4996 6.76471 17.5502 5.89224 16.4451 5.24772C15.3401 4.6032 14.1057 4.20202 12.8273 4.07187C11.5489 3.94172 10.257 4.0857 9.04078 4.49389C7.8246 4.90209 6.71316 5.56474 5.78329 6.43607C4.85342 7.30739 4.12729 8.3666 3.65507 9.5405C3.18286 10.7144 2.97585 11.975 3.0483 13.2352C3.12075 14.4953 3.47095 15.725 4.07472 16.8393C4.67849 17.9535 5.5214 18.9257 6.54523 19.6887Z" fill="white"/>
<path d="M42.2992 19.6887C43.3231 18.9257 44.166 17.9535 44.7697 16.8393C45.3735 15.725 45.7237 14.4953 45.7962 13.2352C45.8686 11.975 45.6616 10.7144 45.1894 9.5405C44.7171 8.3666 43.991 7.30739 43.0611 6.43607C42.1313 5.56474 41.0199 4.90209 39.8037 4.49389C38.5875 4.0857 37.2955 3.94172 36.0171 4.07187C34.7387 4.20202 33.5044 4.6032 32.3993 5.24772C31.2943 5.89224 30.3449 6.76471 29.6168 7.80483C32.5514 8.63152 35.2382 10.1445 37.447 12.2143C39.6558 14.284 41.3208 16.8487 42.2992 19.6887Z" fill="white"/>
<path d="M7.60212 21.7649C8.58058 18.9249 10.2455 16.3602 12.4543 14.2904C14.6631 12.2207 17.3499 10.7077 20.2845 9.881C19.5564 8.84088 18.6071 7.96841 17.502 7.32389C16.397 6.67938 15.1626 6.27819 13.8842 6.14804C12.6058 6.01789 11.3138 6.16187 10.0977 6.57007C8.88148 6.97826 7.77004 7.64092 6.84017 8.51224C5.91031 9.38356 5.18417 10.4428 4.71196 11.6167C4.23974 12.7906 4.03273 14.0512 4.10518 15.3113C4.17763 16.5715 4.52784 17.8012 5.1316 18.9155C5.73537 20.0297 6.57829 21.0019 7.60212 21.7649Z" fill="#F8CECE"/>
<path d="M43.3561 21.7649C44.3799 21.0019 45.2229 20.0297 45.8266 18.9155C46.4304 17.8012 46.7806 16.5715 46.853 15.3113C46.9255 14.0512 46.7184 12.7906 46.2462 11.6167C45.774 10.4428 45.0479 9.38356 44.118 8.51224C43.1881 7.64092 42.0767 6.97826 40.8606 6.57007C39.6444 6.16187 38.3524 6.01789 37.074 6.14804C35.7956 6.27819 34.5613 6.67938 33.4562 7.32389C32.3512 7.96841 31.4018 8.84088 30.6737 9.881C33.6083 10.7077 36.2951 12.2207 38.5039 14.2904C40.7127 16.3602 42.3776 18.9249 43.3561 21.7649Z" fill="#F8CECE"/>
<path d="M24.4267 44.1725C34.8573 44.1725 43.3129 35.8686 43.3129 25.6253C43.3129 15.382 34.8573 7.07812 24.4267 7.07812C13.9962 7.07812 5.54053 15.382 5.54053 25.6253C5.54053 35.8686 13.9962 44.1725 24.4267 44.1725Z" stroke="#1B1F1D" stroke-width="2" stroke-linecap="round" stroke-linejoin="round"/>
<path d="M24.4267 27.4942C25.4774 27.4942 26.3291 26.6578 26.3291 25.626C26.3291 24.5942 25.4774 23.7578 24.4267 23.7578C23.3761 23.7578 22.5244 24.5942 22.5244 25.626C22.5244 26.6578 23.3761 27.4942 24.4267 27.4942Z" stroke="#1B1F1D" stroke-width="2" stroke-linecap="round" stroke-linejoin="round"/>
<path d="M6.5445 19.6887C7.52296 16.8487 9.18791 14.284 11.3967 12.2143C13.6055 10.1445 16.2923 8.63152 19.2269 7.80483C18.4988 6.76471 17.5495 5.89224 16.4444 5.24772C15.3393 4.6032 14.1049 4.20202 12.8265 4.07187C11.5482 3.94172 10.2562 4.0857 9.04005 4.49389C7.82386 4.90209 6.71242 5.56474 5.78256 6.43607C4.85269 7.30739 4.12656 8.3666 3.65434 9.5405C3.18213 10.7144 2.97511 11.975 3.04757 13.2352C3.12002 14.4953 3.47022 15.725 4.07399 16.8393C4.67775 17.9535 5.52067 18.9257 6.5445 19.6887V19.6887Z" stroke="#1B1F1D" stroke-width="2" stroke-linecap="round" stroke-linejoin="round"/>
<path d="M42.2984 19.6887C43.3222 18.9257 44.1651 17.9535 44.7689 16.8393C45.3727 15.725 45.7229 14.4953 45.7953 13.2352C45.8678 11.975 45.6607 10.7144 45.1885 9.5405C44.7163 8.3666 43.9901 7.30739 43.0603 6.43607C42.1304 5.56474 41.019 4.90209 39.8028 4.49389C38.5866 4.0857 37.2947 3.94172 36.0163 4.07187C34.7379 4.20202 33.5035 4.6032 32.3985 5.24772C31.2934 5.89224 30.3441 6.76471 29.616 7.80483C32.5506 8.63152 35.2374 10.1445 37.4462 12.2143C39.655 14.284 41.3199 16.8487 42.2984 19.6887Z" stroke="#1B1F1D" stroke-width="2" stroke-linecap="round" stroke-linejoin="round"/>
<path d="M13.0865 40.4688L8.73224 44.9628" stroke="#1B1F1D" stroke-width="2" stroke-linecap="round" stroke-linejoin="round"/>
<path d="M35.7563 40.4688L40.1106 44.9628" stroke="#1B1F1D" stroke-width="2" stroke-linecap="round" stroke-linejoin="round"/>
<path d="M24.5853 11.3027V13.3785" stroke="#1B1F1D" stroke-width="2" stroke-linecap="round" stroke-linejoin="round"/>
<path d="M24.5853 37.25V39.3258" stroke="#1B1F1D" stroke-width="2" stroke-linecap="round" stroke-linejoin="round"/>
<path d="M38.3245 25.834H36.2108" stroke="#1B1F1D" stroke-width="2" stroke-linecap="round" stroke-linejoin="round"/>
<path d="M11.9029 25.834H9.78912" stroke="#1B1F1D" stroke-width="2" stroke-linecap="round" stroke-linejoin="round"/>
<path d="M17.4514 20.2598L22.9048 24.5151" stroke="#1B1F1D" stroke-width="2" stroke-linecap="round" stroke-linejoin="round"/>
<path d="M25.9486 24.5155L32.6491 18.7344" stroke="#1B1F1D" stroke-width="2" stroke-linecap="round" stroke-linejoin="round"/>
</g>
<defs>
<clipPath id="clip0_1905_78574">
<rect width="44.8429" height="43" fill="white" transform="translate(2 3)"/>
</clipPath>
</defs>
</svg>
