<svg width="44" height="44" viewBox="0 0 44 44" fill="none" xmlns="http://www.w3.org/2000/svg">
<g clip-path="url(#clip0_1905_78521)">
<path d="M12.4651 32.8708L15.4191 31.9518C17.3883 31.3453 21.3362 32.3378 23.7792 33.073C24.3237 33.2374 24.9118 33.183 25.416 32.9216C25.9202 32.6601 26.3 32.2126 26.4731 31.6761V31.6761C26.5598 31.4029 26.5902 31.1152 26.5625 30.8301C26.5348 30.545 26.4495 30.2684 26.3118 30.0164C26.1741 29.7645 25.9867 29.5425 25.7607 29.3635C25.5347 29.1845 25.2747 29.0522 24.9961 28.9744L17.3419 26.8608C15.6989 26.4093 13.9726 26.3403 12.2982 26.6591C10.6237 26.978 9.04666 27.6761 7.69052 28.6987L0.96521 33.753V43.0897L9.26037 40.3787L19.3762 41.4999C21.2404 41.694 23.1149 41.2426 24.6803 40.2225L41.4007 28.3862C41.7936 28.1283 42.0726 27.7323 42.1813 27.2784C42.29 26.8245 42.2201 26.3466 41.9859 25.9418V25.9418C41.7442 25.5304 41.3508 25.2278 40.8882 25.0976C40.4257 24.9673 39.9301 25.0196 39.5057 25.2434L26.0922 32.3745" fill="white"/>
<path d="M25.0616 29.0804L32.2514 25.138C33.0479 24.7015 33.9274 24.4336 34.8341 24.3514C35.7408 24.2691 36.6549 24.3743 37.5183 24.6602L39.3631 24.994L26.4732 31.7031" fill="white"/>
<path d="M20.4088 27.7243L26.1866 24.563C27.9674 23.5901 30.0516 23.3115 32.0295 23.7819L34.3697 23.8922L24.6161 29.406" fill="white"/>
<path d="M20.3892 0.982545L10.0318 6.625C9.95352 6.66755 9.88812 6.73001 9.84239 6.80594C9.79667 6.88187 9.77227 6.96853 9.77173 7.05691V17.0552C9.77253 17.1448 9.79695 17.2326 9.84257 17.3099C9.88819 17.3873 9.95342 17.4516 10.0318 17.4963L20.3892 23.1388C20.4629 23.1798 20.5461 23.2014 20.6307 23.2014C20.7153 23.2014 20.7985 23.1798 20.8722 23.1388L31.2203 17.4963C31.301 17.4535 31.3687 17.3899 31.416 17.3123C31.4634 17.2347 31.4889 17.1459 31.4896 17.0552V7.05691C31.4892 6.96738 31.4638 6.8797 31.4163 6.8035C31.3688 6.72731 31.3009 6.66554 31.2203 6.625L20.8722 0.982545C20.7985 0.941484 20.7153 0.919922 20.6307 0.919922C20.5461 0.919922 20.4629 0.941484 20.3892 0.982545V0.982545Z" fill="white"/>
<path d="M21.7775 5.05902L12.2394 10.377C12.1673 10.4171 12.1071 10.4759 12.065 10.5475C12.0228 10.6191 12.0004 10.7007 11.9999 10.784V20.2073C12.0006 20.2917 12.0231 20.3745 12.0651 20.4474C12.1071 20.5203 12.1672 20.5808 12.2394 20.623L21.7775 25.941C21.8454 25.9797 21.922 26 21.9999 26C22.0778 26 22.1544 25.9797 22.2223 25.941L31.7518 20.623C31.8262 20.5826 31.8885 20.5227 31.9321 20.4496C31.9758 20.3765 31.9992 20.2928 31.9999 20.2073V10.784C31.9995 10.6996 31.9761 10.617 31.9324 10.5452C31.8886 10.4734 31.8261 10.4152 31.7518 10.377L22.2223 5.05902C22.1544 5.02032 22.0778 5 21.9999 5C21.922 5 21.8454 5.02032 21.7775 5.05902Z" fill="#F8CECE"/>
<path d="M12.466 32.8708L15.4199 31.9518C17.3892 31.3453 21.3371 32.3378 23.7801 33.073C24.3246 33.2374 24.9126 33.183 25.4168 32.9216C25.921 32.6601 26.3008 32.2126 26.4739 31.6761V31.6761C26.5606 31.4029 26.591 31.1152 26.5633 30.8301C26.5356 30.545 26.4504 30.2684 26.3127 30.0164C26.1749 29.7645 25.9875 29.5425 25.7615 29.3635C25.5356 29.1845 25.2756 29.0522 24.997 28.9744L17.3427 26.8608C15.6998 26.4093 13.9734 26.3403 12.299 26.6591C10.6246 26.978 9.04752 27.6761 7.69137 28.6987L0.966064 33.753V43.0897L9.26123 40.3787L19.3771 41.4999C21.2412 41.694 23.1158 41.2426 24.6811 40.2225L41.4015 28.3862C41.7944 28.1283 42.0735 27.7323 42.1821 27.2784C42.2908 26.8245 42.2209 26.3466 41.9867 25.9418V25.9418C41.7451 25.5304 41.3516 25.2278 40.8891 25.0976C40.4265 24.9673 39.9309 25.0196 39.5065 25.2434L26.0931 32.3745" stroke="#1B1F1D" stroke-width="2" stroke-linecap="round" stroke-linejoin="round"/>
<path d="M24.9598 28.9847L32.1496 25.0423C32.9461 24.6058 33.8256 24.3379 34.7323 24.2557C35.639 24.1734 36.5531 24.2786 37.4165 24.5645L39.4601 25.2353" stroke="#1B1F1D" stroke-width="2" stroke-linecap="round" stroke-linejoin="round"/>
<path d="M20.4082 27.7243L26.186 24.563C27.9667 23.5901 30.051 23.3115 32.0289 23.7819L33.8867 24.2322" stroke="#1B1F1D" stroke-width="2" stroke-linecap="round" stroke-linejoin="round"/>
<path d="M20.3895 0.982545L10.0322 6.625C9.95388 6.66755 9.88849 6.73001 9.84276 6.80594C9.79703 6.88187 9.77264 6.96853 9.77209 7.05691V17.0552C9.7729 17.1448 9.79732 17.2326 9.84294 17.3099C9.88855 17.3873 9.95378 17.4516 10.0322 17.4963L20.3895 23.1388C20.4633 23.1798 20.5464 23.2014 20.6311 23.2014C20.7157 23.2014 20.7988 23.1798 20.8726 23.1388L31.2206 17.4963C31.3014 17.4535 31.369 17.3899 31.4164 17.3123C31.4638 17.2347 31.4892 17.1459 31.49 17.0552V7.05691C31.4896 6.96738 31.4642 6.8797 31.4167 6.8035C31.3692 6.7273 31.3013 6.66554 31.2206 6.625L20.8726 0.982545C20.7988 0.941484 20.7157 0.919922 20.6311 0.919922C20.5464 0.919922 20.4633 0.941484 20.3895 0.982545V0.982545Z" stroke="#1B1F1D" stroke-width="2" stroke-linecap="round" stroke-linejoin="round"/>
<path d="M31.295 6.69922L20.594 12.6082L9.89294 6.69922" stroke="#1B1F1D" stroke-width="2" stroke-linecap="round" stroke-linejoin="round"/>
<path d="M31.295 6.69922L20.594 12.6082V23.2038" stroke="#1B1F1D" stroke-width="2" stroke-linecap="round" stroke-linejoin="round"/>
</g>
<defs>
<clipPath id="clip0_1905_78521">
<rect width="43.12" height="44" fill="white"/>
</clipPath>
</defs>
</svg>
