<svg width="46" height="40" viewBox="0 0 46 40" fill="none" xmlns="http://www.w3.org/2000/svg">
<g clip-path="url(#clip0_1905_78538)">
<path d="M32.7905 13.9668H31.3C30.6402 13.9668 29.9868 13.8368 29.3772 13.5843C28.7676 13.3318 28.2137 12.9617 27.7471 12.4951C27.2805 12.0285 26.9104 11.4746 26.6579 10.865C26.4054 10.2554 26.2754 9.60203 26.2754 8.94219C26.2754 7.20184 26.9668 5.53278 28.1974 4.30217C29.428 3.07156 31.0971 2.38021 32.8374 2.38021V13.9668L32.7905 13.9668Z" fill="white"/>
<path d="M32.8099 11.3331V6.11164C33.2513 4.99124 34.0292 4.03528 35.0366 3.37547C36.0439 2.71567 37.2311 2.38448 38.4345 2.42755V13.8454C36.8768 11.8998 34.9692 10.2625 32.8099 9.01766V11.3331Z" fill="white"/>
<path d="M36.8967 18.6077C36.786 18.2713 36.5849 17.9718 36.3154 17.742C36.0459 17.5121 35.7184 17.3609 35.3687 17.3047C35.0167 17.3546 34.6861 17.5037 34.4155 17.7344C34.145 17.9651 33.9456 18.268 33.8407 18.6077" fill="white"/>
<path d="M4.56522 20.3605C4.56522 20.3605 2.04354 23.1728 0.937378 19.6855L4.56522 20.3605Z" fill="white"/>
<path d="M11.1375 14.8489C14.979 14.8489 18.0932 11.7347 18.0932 7.89321C18.0932 4.05168 14.979 0.9375 11.1375 0.9375C7.29594 0.9375 4.18176 4.05168 4.18176 7.89321C4.18176 11.7347 7.29594 14.8489 11.1375 14.8489Z" fill="white"/>
<path d="M11.1365 14.8483C12.9397 14.8469 14.6719 14.1452 15.9678 12.8913C17.2637 11.6374 18.022 9.92918 18.0828 8.12695H26.3321C26.2815 8.35766 26.2626 8.5942 26.2759 8.83002C26.277 9.48473 26.4085 10.1327 26.6627 10.736C26.9169 11.3393 27.2887 11.886 27.7564 12.3441C28.2242 12.8023 28.7784 13.1627 29.3869 13.4043C29.9954 13.6459 30.6459 13.764 31.3005 13.7515H33.1097V9.06438C35.922 10.5643 39.4842 13.7515 40.6092 17.5012H43.4777C43.7263 17.5012 43.9647 17.6 44.1405 17.7758C44.3163 17.9516 44.4151 18.19 44.4151 18.4386V24.1382C44.4151 24.3868 44.3163 24.6253 44.1405 24.8011C43.9647 24.9769 43.7263 25.0756 43.4777 25.0756C43.324 25.0859 43.1752 25.134 43.0445 25.2154C42.9138 25.2969 42.8051 25.4094 42.7282 25.5428C42.6513 25.6763 42.6085 25.8266 42.6035 25.9806C42.5985 26.1346 42.6315 26.2874 42.6996 26.4255L42.7652 26.538C42.8334 26.6762 42.8664 26.829 42.8614 26.9829C42.8564 27.1369 42.8136 27.2873 42.7366 27.4207C42.6597 27.5542 42.5511 27.6666 42.4204 27.7481C42.2897 27.8296 42.1409 27.8776 41.9872 27.8879H39.1749C38.0476 29.8314 36.4421 31.4545 34.511 32.603C32.5799 33.7515 30.3873 34.3872 28.1414 34.4499H18.1109C14.8132 34.4852 11.6176 33.307 9.13209 31.1395C6.64654 28.972 5.04448 25.9664 4.63071 22.6946C4.29534 19.4684 5.17436 16.2331 7.09615 13.6203C8.2823 14.4401 9.6947 14.8694 11.1365 14.8483Z" fill="white"/>
<path d="M35.0124 32.5V37.1871C35.0124 37.6844 34.8149 38.1613 34.4633 38.5129C34.1117 38.8645 33.6348 39.062 33.1376 39.062H32.2002C31.7029 39.062 31.2261 38.8645 30.8744 38.5129C30.5228 38.1613 30.3253 37.6844 30.3253 37.1871V34.3749" fill="white"/>
<path d="M11.2582 32.5V37.1871C11.2582 37.6844 11.4557 38.1613 11.8073 38.5129C12.1589 38.8645 12.6358 39.062 13.133 39.062H14.0705C14.5677 39.062 15.0446 38.8645 15.3962 38.5129C15.7478 38.1613 15.9453 37.6844 15.9453 37.1871V34.3749" fill="white"/>
<path d="M32.7911 13.9668H31.3006C30.6408 13.9668 29.9874 13.8368 29.3778 13.5843C28.7682 13.3318 28.2143 12.9617 27.7477 12.4951C27.2811 12.0285 26.911 11.4746 26.6585 10.865C26.406 10.2554 26.276 9.60203 26.276 8.94219C26.276 7.20184 26.9674 5.53278 28.198 4.30216C29.4286 3.07155 31.0977 2.3802 32.838 2.3802V13.9668L32.7911 13.9668Z" stroke="#1B1F1D" stroke-width="2" stroke-linecap="round" stroke-linejoin="round"/>
<path d="M32.8099 11.3331V6.11164C33.2513 4.99124 34.0292 4.03528 35.0366 3.37547C36.0439 2.71567 37.2311 2.38448 38.4345 2.42755V13.8454C36.8768 11.8998 34.9692 10.2625 32.8099 9.01766V11.3331Z" stroke="#1B1F1D" stroke-width="2" stroke-linecap="round" stroke-linejoin="round"/>
<path d="M36.8971 18.6077C36.7864 18.2713 36.5853 17.9718 36.3158 17.742C36.0463 17.5121 35.7188 17.3609 35.3691 17.3047C35.017 17.3546 34.6865 17.5037 34.4159 17.7344C34.1454 17.9651 33.946 18.268 33.8411 18.6077" stroke="#1B1F1D" stroke-width="2" stroke-linecap="round" stroke-linejoin="round"/>
<path d="M4.56522 20.3605C4.56522 20.3605 2.04354 23.1728 0.937378 19.6855" stroke="#1B1F1D" stroke-width="2" stroke-linecap="round" stroke-linejoin="round"/>
<path d="M11.1366 14.8489C14.9781 14.8489 18.0923 11.7347 18.0923 7.89321C18.0923 4.05168 14.9781 0.9375 11.1366 0.9375C7.29508 0.9375 4.18091 4.05168 4.18091 7.89321C4.18091 11.7347 7.29508 14.8489 11.1366 14.8489Z" stroke="#1B1F1D" stroke-width="2" stroke-linecap="round" stroke-linejoin="round"/>
<g style="mix-blend-mode:multiply">
<path d="M13.9498 17.6614C17.7914 17.6614 20.9056 14.5472 20.9056 10.7057C20.9056 6.86418 17.7914 3.75 13.9498 3.75C10.1083 3.75 6.99414 6.86418 6.99414 10.7057C6.99414 14.5472 10.1083 17.6614 13.9498 17.6614Z" fill="#F8CECE"/>
</g>
<path d="M11.1366 14.8483C12.9398 14.8469 14.6721 14.1452 15.968 12.8913C17.2639 11.6374 18.0222 9.92918 18.0829 8.12695H26.3323C26.2816 8.35766 26.2627 8.5942 26.276 8.83002C26.2772 9.48473 26.4087 10.1327 26.6629 10.736C26.917 11.3393 27.2888 11.886 27.7566 12.3441C28.2243 12.8023 28.7786 13.1627 29.387 13.4043C29.9955 13.6459 30.6461 13.764 31.3006 13.7515H33.1099V9.06438C35.9221 10.5643 39.4844 13.7515 40.6093 17.5012H43.4778C43.7264 17.5012 43.9649 17.6 44.1407 17.7758C44.3165 17.9516 44.4152 18.19 44.4152 18.4386V24.1382C44.4152 24.3868 44.3165 24.6253 44.1407 24.8011C43.9649 24.9769 43.7264 25.0756 43.4778 25.0756C43.3241 25.0859 43.1753 25.1339 43.0446 25.2154C42.9139 25.2969 42.8053 25.4094 42.7283 25.5428C42.6514 25.6763 42.6086 25.8266 42.6036 25.9806C42.5986 26.1346 42.6316 26.2874 42.6998 26.4255L42.7654 26.538C42.8335 26.6762 42.8665 26.829 42.8615 26.9829C42.8565 27.1369 42.8137 27.2873 42.7368 27.4207C42.6599 27.5542 42.5512 27.6666 42.4205 27.7481C42.2898 27.8296 42.141 27.8776 41.9873 27.8879H39.175C38.0477 29.8314 36.4423 31.4545 34.5112 32.603C32.5801 33.7515 30.3874 34.3872 28.1415 34.4499H18.111C14.8133 34.4852 11.6178 33.307 9.13221 31.1395C6.64667 28.9719 5.04461 25.9664 4.63084 22.6946C4.29546 19.4684 5.17448 16.2331 7.09627 13.6203C8.28242 14.4401 9.69482 14.8694 11.1366 14.8483Z" stroke="#1B1F1D" stroke-width="2" stroke-linecap="round" stroke-linejoin="round"/>
<path d="M22.8263 11.9055L16.8174 11.8867" stroke="#1B1F1D" stroke-width="2" stroke-linecap="round" stroke-linejoin="round"/>
<path d="M35.0129 32.5V37.1871C35.0129 37.6844 34.8154 38.1613 34.4638 38.5129C34.1122 38.8645 33.6353 39.062 33.1381 39.062H32.2007C31.7034 39.062 31.2265 38.8645 30.8749 38.5129C30.5233 38.1613 30.3258 37.6844 30.3258 37.1871V34.3749" stroke="#1B1F1D" stroke-width="2" stroke-linecap="round" stroke-linejoin="round"/>
<path d="M11.2585 32.5V37.1871C11.2585 37.6844 11.4561 38.1613 11.8077 38.5129C12.1593 38.8645 12.6362 39.062 13.1334 39.062H14.0708C14.5681 39.062 15.0449 38.8645 15.3966 38.5129C15.7482 38.1613 15.9457 37.6844 15.9457 37.1871V34.3749" stroke="#1B1F1D" stroke-width="2" stroke-linecap="round" stroke-linejoin="round"/>
</g>
<defs>
<clipPath id="clip0_1905_78538">
<rect width="45.3246" height="40" fill="white"/>
</clipPath>
</defs>
</svg>
