<svg width="210" height="71" viewBox="0 0 210 44" fill="none" xmlns="http://www.w3.org/2000/svg">
<g clip-path="url(#clip0_1384_86870)">
<path d="M85.1895 18.6298C85.1895 23.6598 85.1895 28.6198 85.1895 33.7898C83.5295 33.7898 81.8895 33.8698 80.2595 33.7698C78.7695 33.6698 77.1395 34.3198 75.7695 33.2398C75.7695 25.3298 75.7695 17.5498 75.7695 9.58981C76.0995 9.32981 76.5595 8.97981 77.2195 8.45981C79.4495 8.45981 81.9995 8.45981 84.2595 8.45981C85.6795 8.97981 84.9395 10.1498 85.3795 10.9198C86.8295 10.7698 87.6395 9.72981 88.3095 9.05981C90.6595 8.42981 92.7195 7.58981 94.8895 7.94981C98.7295 8.57981 102.19 10.4998 102.18 15.3298C102.16 21.0498 102.18 26.7698 102.18 32.4898C102.18 32.8898 102.18 33.2898 102.18 33.7398C99.1695 33.7398 96.2895 33.7398 93.3895 33.7398C93.2295 33.5798 93.0495 33.3998 92.7895 33.1398C92.7895 28.1898 92.7895 23.1598 92.7895 18.2998C92.0995 17.3498 91.2695 16.8698 90.3195 16.3898C89.6095 16.3898 88.7795 16.3898 88.4295 16.3898C86.8395 16.7998 86.1395 17.7098 85.1895 18.6298Z" fill="#666666"/>
<path d="M47.2994 8.46094C49.7094 8.46094 52.4294 8.46094 55.0294 8.46094C55.8594 8.90094 55.7894 9.57094 55.7894 10.2309C55.7794 14.7809 55.7894 19.3409 55.7894 23.8009C56.4294 24.4009 57.0194 24.9609 57.8494 25.7309C60.8394 25.9209 61.5194 25.7409 63.2494 24.1209C63.2494 19.1709 63.2494 14.1409 63.2494 9.19094C63.4994 8.94094 63.6794 8.76094 63.9394 8.50094C66.5694 8.50094 69.2794 8.50094 72.0994 8.50094C72.2394 8.64094 72.4694 8.88094 72.7094 9.13094C72.7094 17.2909 72.7094 25.4609 72.7094 33.7209C69.6194 33.7209 66.5694 33.7209 63.4394 33.7209C62.9994 33.0709 63.4994 32.2009 63.1694 31.4409C62.7294 31.1209 62.4394 31.3809 62.1394 31.7009C60.4094 33.5509 58.1094 34.0209 55.7494 34.2909C53.8094 34.5209 51.9994 34.0209 50.1794 33.3409C48.3394 32.6509 47.7594 31.0109 46.8394 29.5909C47.1494 28.4309 46.2694 27.4809 46.2894 26.3309C46.3694 20.9509 46.3294 15.5709 46.3194 10.1909C46.2994 9.50094 46.2094 8.81094 47.2994 8.46094Z" fill="#666666"/>
<path d="M152.039 23.9304C150.159 23.9304 148.439 23.9204 146.719 23.9504C146.539 23.9504 146.359 24.2304 146.199 24.3604C144.729 23.7204 140.739 23.5904 135.639 23.9904C135.619 24.3004 135.609 24.6204 135.589 24.9504C136.129 25.7704 136.819 26.4004 137.829 26.6604C140.659 26.9504 143.539 27.0404 146.139 25.6504C148.279 28.2704 149.209 29.8504 149.599 31.5404C147.409 32.6104 145.269 33.8404 142.669 33.7904C141.319 34.6404 139.789 34.4204 138.399 34.2404C134.799 33.7804 131.229 33.0104 128.689 30.0904C127.579 28.8104 126.719 27.3104 126.109 25.7004C126.029 25.4804 125.829 25.3104 125.649 25.0604C125.399 24.3204 125.749 23.4704 125.239 22.5604C124.859 21.8804 124.819 20.6704 125.449 19.7704C126.019 18.9604 125.109 17.7704 126.119 17.0704C125.819 16.2704 126.379 15.6004 126.729 15.1004C127.539 13.9404 128.329 12.7504 129.219 11.6704C129.579 11.2304 130.279 10.7504 130.889 10.4104C132.659 9.45044 134.369 8.52044 136.529 8.33044C140.229 8.00044 140.209 7.82044 143.639 8.90044C146.159 9.69044 148.979 11.9904 150.059 14.2104C151.309 16.8104 152.249 20.0004 152.039 23.9304ZM135.219 18.2804C137.779 18.2804 140.379 18.2804 143.029 18.2804C143.029 17.8304 143.029 17.4404 143.029 17.4404C142.339 16.5804 141.819 15.9504 141.309 15.3104C139.259 14.3304 137.459 14.9404 135.649 16.1304C135.669 16.7704 134.759 17.3204 135.219 18.2804Z" fill="#666666"/>
<path d="M173.669 30.7092C173.039 29.0092 174.289 28.2392 174.879 27.2892C175.489 26.2992 176.129 25.3092 176.809 24.2192C179.249 25.5392 181.769 26.6892 184.499 27.2692C184.899 27.3792 184.979 26.9392 185.219 26.8392C185.769 26.6692 185.979 27.1092 186.359 27.3792C186.889 27.1192 187.439 26.8492 187.969 26.5792C187.969 26.2192 187.969 25.8892 187.969 25.5692C187.669 25.1492 186.959 25.4292 186.729 24.7692C185.269 25.2692 183.939 24.2092 182.499 24.3392C181.009 24.4792 179.799 23.6092 178.439 23.2692C176.229 22.7192 174.149 19.6792 173.999 17.3492C173.739 13.3392 176.209 10.2692 180.029 8.93921C181.859 8.29921 183.779 7.70921 185.829 7.87921C189.229 8.16921 192.409 9.02921 195.379 10.9392C194.679 12.9492 193.999 14.9292 193.269 17.0292C190.259 15.9492 187.459 14.5492 184.409 14.8692C184.009 15.1492 183.679 15.3892 183.519 15.5092C183.419 16.2592 183.819 16.5992 184.129 16.6992C185.009 16.9992 185.929 17.2792 186.849 17.3192C188.449 17.3792 189.909 17.8892 191.429 18.2992C193.779 18.9392 195.389 20.2992 196.459 22.4092C196.569 22.6192 196.709 22.8092 196.959 23.1792C196.959 24.0492 196.939 25.1092 196.959 26.1792C196.999 28.1992 196.099 29.9192 194.709 31.1892C193.169 32.5992 191.279 33.4692 189.089 33.8392C187.399 34.1292 185.709 34.4592 184.059 34.2192C180.999 33.7792 177.859 33.4492 175.119 31.7792C174.929 31.6592 174.659 31.6392 174.489 31.4992C174.179 31.2592 173.899 30.9492 173.669 30.7092Z" fill="#666666"/>
<path d="M42.2294 33.24C38.9194 33.24 35.7094 33.24 32.3994 33.24C32.3994 29.65 32.3994 26.11 32.3994 22.65C32.0794 22.33 31.8394 22.09 31.5994 21.85C28.2794 21.85 24.9594 21.85 21.4094 21.85C21.3194 18.42 21.3994 14.99 21.3594 11.47C24.8394 11.47 28.2194 11.47 31.5194 11.47C31.8394 11.15 32.0794 10.91 32.3994 10.59C32.3994 7.14 32.3994 3.59 32.3994 0C35.7094 0 38.9194 0 42.2294 0C42.2294 11.03 42.2294 22.04 42.2294 33.24Z" fill="#666666"/>
<path d="M123.54 16.8793C121.9 16.8793 120.34 16.8793 118.71 16.8793C118.71 19.5093 118.71 22.0593 118.71 24.6493C119.01 24.9493 119.36 25.2993 119.8 25.7393C120.6 25.7393 121.49 25.7393 122.45 25.7393C123.28 27.9893 123.84 30.2393 124.19 32.4893C123.27 33.3693 122.33 33.9893 121.12 33.7593C120.39 33.6293 120.02 34.3793 119.33 34.2993C118.67 34.2193 117.99 34.1993 117.34 34.2993C116.09 34.4893 114.95 33.9293 113.86 33.6393C111.75 33.0593 110.43 31.3393 109.69 29.3093C109.31 28.2793 109.1 27.1993 109.14 26.0393C109.23 23.0593 109.17 20.0793 109.17 16.9193C107.88 16.9193 106.59 16.9193 105.24 16.9193C105.24 14.1993 105.24 11.6493 105.24 9.0893C105.4 8.9293 105.57 8.7593 105.84 8.4993C106.8 8.4993 107.86 8.4993 109.17 8.4993C109.17 7.2093 109.17 5.9993 109.17 4.7893C109.17 3.5593 109.17 2.3293 109.17 1.0293C112.32 1.0293 115.37 1.0293 118.59 1.0293C118.59 3.4093 118.59 5.8493 118.59 8.3793C120.15 8.3793 121.54 8.3793 122.84 8.3793C123.1 8.6393 123.28 8.8193 123.54 9.0793C123.54 11.5293 123.54 14.0693 123.54 16.8793Z" fill="#666666"/>
<path d="M164.621 33.7406C161.321 33.7406 158.271 33.7406 155.141 33.7406C155.141 25.5206 155.141 17.3406 155.141 9.07062C155.291 8.92062 155.531 8.69063 155.801 8.43063C158.421 8.43063 161.071 8.43063 163.621 8.43063C165.081 8.80063 164.231 10.1606 164.821 11.0806C166.921 9.41063 169.021 7.91062 171.901 7.89062C171.901 10.8406 171.901 13.7806 171.901 16.8606C169.491 16.9606 166.931 16.4706 164.631 18.1906C164.621 23.1406 164.621 28.3406 164.621 33.7406Z" fill="#666666"/>
<path d="M0 11.4395C3.47 11.4395 6.85 11.4395 10.31 11.4395C10.31 14.8495 10.31 18.2295 10.31 21.7695C6.96 21.9395 3.52 21.7895 0 21.8595C0 18.3895 0 15.0195 0 11.4395Z" fill="#999999"/>
<path d="M10.9395 10.8193C10.9395 7.1893 10.9395 3.6493 10.9395 0.0292969C14.1895 0.0292969 17.4095 0.0292969 20.7895 0.0292969C20.9695 3.5393 20.8095 7.1393 20.8795 10.8193C17.5695 10.8193 14.3595 10.8193 10.9395 10.8193Z" fill="#666666"/>
<path d="M10.9805 22.3809C14.2705 22.3809 17.4905 22.3809 20.7905 22.3809C20.7905 25.9509 20.7905 29.4909 20.7905 33.2709C17.6105 33.3009 14.3405 33.2709 10.9805 33.2909C10.9805 29.6809 10.9805 26.1409 10.9805 22.3809Z" fill="#666666"/>
<path d="M209.349 33.7498C206.209 33.7498 203.159 33.7498 200.029 33.7498C200.029 30.6698 200.029 27.6298 200.029 24.3498C203.049 24.3298 206.159 24.3498 209.349 24.3398C209.349 27.4598 209.349 30.4998 209.349 33.7498Z" fill="#666666"/>
</g>
<defs>
<clipPath id="clip0_1384_86870">
<rect width="209.35" height="34.4" fill="white"/>
</clipPath>
</defs>
</svg>
