<svg width="108" height="104" viewBox="0 0 122 118" fill="none" xmlns="http://www.w3.org/2000/svg">
<mask id="path-1-outside-1_1905_79111" maskUnits="userSpaceOnUse" x="0.237793" y="0.46875" width="122" height="118" fill="black">
<rect fill="white" x="0.237793" y="0.46875" width="122" height="118"/>
<path d="M114.45 32.3595C114.418 32.2556 114.381 32.1535 114.337 32.0539C114.266 31.8733 114.182 31.6927 114.097 31.526C114.029 31.4194 113.953 31.3173 113.871 31.2204C113.765 31.0726 113.647 30.9332 113.519 30.8037L113.208 30.5536L112.912 30.3313L112.757 30.2619C112.721 30.2249 112.678 30.1964 112.63 30.1785L71.4269 9.89651C68.1474 8.29954 64.538 7.46875 60.8793 7.46875C57.2206 7.46875 53.6111 8.29954 50.3316 9.89651L9.17121 30.1646L9.04422 30.248L8.889 30.3174L8.6209 30.5536C8.52213 30.637 8.39513 30.7203 8.31047 30.8037C8.18194 30.9332 8.06399 31.0726 7.95771 31.2204C7.87138 31.3139 7.79568 31.4164 7.73194 31.526C7.63195 31.6925 7.55148 31.8696 7.49206 32.0539C7.49206 32.165 7.39329 32.2484 7.36507 32.3595C7.28122 32.6724 7.23854 32.9945 7.23807 33.3181V67.3946C7.2146 72.6227 8.68029 77.7526 11.4688 82.202C14.2573 86.6514 18.2569 90.2421 23.0137 92.5666L59.306 110.431C59.4429 110.493 59.5844 110.544 59.7293 110.584L59.9974 110.681C60.2889 110.751 60.5866 110.793 60.8863 110.806C61.186 110.792 61.4836 110.75 61.7753 110.681L62.0434 110.584C62.1888 110.546 62.3304 110.494 62.4667 110.431L98.759 92.5666C103.517 90.2428 107.519 86.6526 110.31 82.2034C113.101 77.7541 114.569 72.6239 114.549 67.3946V33.2764C114.557 32.9678 114.524 32.6595 114.45 32.3595ZM53.4924 16.12C55.7901 14.9965 58.3208 14.4119 60.8863 14.4119C63.4518 14.4119 65.9825 14.9965 68.2803 16.12L103.161 33.2764L73.1484 48.0295L68.252 50.4328C65.9568 51.5561 63.4284 52.1407 60.8652 52.1407C58.3019 52.1407 55.7736 51.5561 53.4783 50.4328L48.5819 48.0295L25.2713 36.541L27.6842 36.7632C30.5024 36.9716 33.3324 36.9716 36.1506 36.7632C38.9727 36.5271 41.7948 36.2631 44.6169 36.0964C50.2611 35.8186 55.9053 35.4759 61.5495 35.0684C67.1937 34.5961 72.838 34.221 78.4822 33.6793C78.5626 33.6674 78.6367 33.6296 78.6929 33.5717C78.749 33.5139 78.7841 33.4393 78.7926 33.3597C78.8006 33.2698 78.7726 33.1803 78.7146 33.1102C78.6567 33.0402 78.5733 32.9952 78.4822 32.9847C72.838 32.429 67.1937 32.0122 61.5495 31.5955C55.9053 31.1787 50.2611 30.7898 44.6169 30.5119C41.7948 30.3591 38.9727 30.0813 36.1506 29.8451C33.3324 29.6368 30.5024 29.6368 27.6842 29.8451C26.8799 29.8451 26.0615 29.9979 25.2713 30.0674L53.4924 16.12ZM14.2651 67.3946V38.9165L45.4494 54.3086C49.0182 56.0575 52.02 58.7527 54.1166 62.0907C56.2133 65.4287 57.3215 69.2768 57.3164 73.2014V96.748C56.6532 95.3588 55.9053 94.0391 55.2139 92.7055C53.9689 90.4845 52.5438 88.366 50.9525 86.3708C49.3157 84.3982 47.6648 82.4394 46.0703 80.4112C42.9942 76.3548 39.8522 72.3308 36.6444 68.3393C33.3708 64.3662 30.21 60.3515 26.8658 56.434C26.8141 56.3725 26.7431 56.3295 26.664 56.3119C26.5848 56.2943 26.502 56.3031 26.4284 56.3368C26.3449 56.3835 26.2834 56.4606 26.257 56.5515C26.2306 56.6424 26.2415 56.7399 26.2873 56.823C28.672 61.3517 31.2119 65.7832 33.6812 70.298C36.1506 74.8129 38.761 79.161 41.3856 83.5508C42.6978 85.7457 43.8831 88.01 45.1108 90.2883C46.3371 92.5228 47.7532 94.6512 49.3439 96.6507C49.8801 97.3314 50.4586 98.0399 51.0372 98.6512L26.1744 86.3708C22.5806 84.6267 19.5579 81.9222 17.4518 78.5664C15.3458 75.2107 14.2415 71.3392 14.2651 67.3946ZM95.5983 86.3708L64.4281 101.777V73.2014C64.4153 69.2628 65.5262 65.3998 67.6342 62.0523C69.7422 58.7048 72.7626 56.0073 76.3515 54.2669L91.5062 46.7792L101.285 41.9588C100.622 42.7228 99.9725 43.4869 99.3375 44.2787C97.6996 46.3213 96.2321 48.4908 94.9492 50.7662C93.6933 53.0583 92.4657 55.3643 91.1252 57.6148C88.4536 62.0972 85.8244 66.6074 83.2374 71.1454C80.7258 75.7297 78.1153 80.2584 75.6319 84.8705C75.5822 84.9487 75.5647 85.0425 75.5831 85.1329C75.6015 85.2233 75.6542 85.3034 75.7306 85.3567C75.7694 85.3827 75.813 85.4008 75.859 85.41C75.905 85.4192 75.9523 85.4192 75.9983 85.4102C76.0443 85.4011 76.088 85.3831 76.1268 85.3572C76.1656 85.3314 76.1989 85.2981 76.2245 85.2595C79.611 81.2586 82.8564 77.1467 86.1019 73.0903C89.3473 69.0339 92.5927 64.8802 95.7676 60.7266C97.348 58.6428 99.0412 56.6424 100.65 54.6142C102.304 52.5875 103.782 50.4265 105.066 48.1545C105.885 46.7653 106.633 45.2789 107.366 43.7508V67.3668C107.405 71.3008 106.323 75.1666 104.243 78.5257C102.163 81.8848 99.1679 84.6026 95.5983 86.3708Z"/>
</mask>
<path d="M114.45 32.3595C114.418 32.2556 114.381 32.1535 114.337 32.0539C114.266 31.8733 114.182 31.6927 114.097 31.526C114.029 31.4194 113.953 31.3173 113.871 31.2204C113.765 31.0726 113.647 30.9332 113.519 30.8037L113.208 30.5536L112.912 30.3313L112.757 30.2619C112.721 30.2249 112.678 30.1964 112.63 30.1785L71.4269 9.89651C68.1474 8.29954 64.538 7.46875 60.8793 7.46875C57.2206 7.46875 53.6111 8.29954 50.3316 9.89651L9.17121 30.1646L9.04422 30.248L8.889 30.3174L8.6209 30.5536C8.52213 30.637 8.39513 30.7203 8.31047 30.8037C8.18194 30.9332 8.06399 31.0726 7.95771 31.2204C7.87138 31.3139 7.79568 31.4164 7.73194 31.526C7.63195 31.6925 7.55148 31.8696 7.49206 32.0539C7.49206 32.165 7.39329 32.2484 7.36507 32.3595C7.28122 32.6724 7.23854 32.9945 7.23807 33.3181V67.3946C7.2146 72.6227 8.68029 77.7526 11.4688 82.202C14.2573 86.6514 18.2569 90.2421 23.0137 92.5666L59.306 110.431C59.4429 110.493 59.5844 110.544 59.7293 110.584L59.9974 110.681C60.2889 110.751 60.5866 110.793 60.8863 110.806C61.186 110.792 61.4836 110.75 61.7753 110.681L62.0434 110.584C62.1888 110.546 62.3304 110.494 62.4667 110.431L98.759 92.5666C103.517 90.2428 107.519 86.6526 110.31 82.2034C113.101 77.7541 114.569 72.6239 114.549 67.3946V33.2764C114.557 32.9678 114.524 32.6595 114.45 32.3595ZM53.4924 16.12C55.7901 14.9965 58.3208 14.4119 60.8863 14.4119C63.4518 14.4119 65.9825 14.9965 68.2803 16.12L103.161 33.2764L73.1484 48.0295L68.252 50.4328C65.9568 51.5561 63.4284 52.1407 60.8652 52.1407C58.3019 52.1407 55.7736 51.5561 53.4783 50.4328L48.5819 48.0295L25.2713 36.541L27.6842 36.7632C30.5024 36.9716 33.3324 36.9716 36.1506 36.7632C38.9727 36.5271 41.7948 36.2631 44.6169 36.0964C50.2611 35.8186 55.9053 35.4759 61.5495 35.0684C67.1937 34.5961 72.838 34.221 78.4822 33.6793C78.5626 33.6674 78.6367 33.6296 78.6929 33.5717C78.749 33.5139 78.7841 33.4393 78.7926 33.3597C78.8006 33.2698 78.7726 33.1803 78.7146 33.1102C78.6567 33.0402 78.5733 32.9952 78.4822 32.9847C72.838 32.429 67.1937 32.0122 61.5495 31.5955C55.9053 31.1787 50.2611 30.7898 44.6169 30.5119C41.7948 30.3591 38.9727 30.0813 36.1506 29.8451C33.3324 29.6368 30.5024 29.6368 27.6842 29.8451C26.8799 29.8451 26.0615 29.9979 25.2713 30.0674L53.4924 16.12ZM14.2651 67.3946V38.9165L45.4494 54.3086C49.0182 56.0575 52.02 58.7527 54.1166 62.0907C56.2133 65.4287 57.3215 69.2768 57.3164 73.2014V96.748C56.6532 95.3588 55.9053 94.0391 55.2139 92.7055C53.9689 90.4845 52.5438 88.366 50.9525 86.3708C49.3157 84.3982 47.6648 82.4394 46.0703 80.4112C42.9942 76.3548 39.8522 72.3308 36.6444 68.3393C33.3708 64.3662 30.21 60.3515 26.8658 56.434C26.8141 56.3725 26.7431 56.3295 26.664 56.3119C26.5848 56.2943 26.502 56.3031 26.4284 56.3368C26.3449 56.3835 26.2834 56.4606 26.257 56.5515C26.2306 56.6424 26.2415 56.7399 26.2873 56.823C28.672 61.3517 31.2119 65.7832 33.6812 70.298C36.1506 74.8129 38.761 79.161 41.3856 83.5508C42.6978 85.7457 43.8831 88.01 45.1108 90.2883C46.3371 92.5228 47.7532 94.6512 49.3439 96.6507C49.8801 97.3314 50.4586 98.0399 51.0372 98.6512L26.1744 86.3708C22.5806 84.6267 19.5579 81.9222 17.4518 78.5664C15.3458 75.2107 14.2415 71.3392 14.2651 67.3946ZM95.5983 86.3708L64.4281 101.777V73.2014C64.4153 69.2628 65.5262 65.3998 67.6342 62.0523C69.7422 58.7048 72.7626 56.0073 76.3515 54.2669L91.5062 46.7792L101.285 41.9588C100.622 42.7228 99.9725 43.4869 99.3375 44.2787C97.6996 46.3213 96.2321 48.4908 94.9492 50.7662C93.6933 53.0583 92.4657 55.3643 91.1252 57.6148C88.4536 62.0972 85.8244 66.6074 83.2374 71.1454C80.7258 75.7297 78.1153 80.2584 75.6319 84.8705C75.5822 84.9487 75.5647 85.0425 75.5831 85.1329C75.6015 85.2233 75.6542 85.3034 75.7306 85.3567C75.7694 85.3827 75.813 85.4008 75.859 85.41C75.905 85.4192 75.9523 85.4192 75.9983 85.4102C76.0443 85.4011 76.088 85.3831 76.1268 85.3572C76.1656 85.3314 76.1989 85.2981 76.2245 85.2595C79.611 81.2586 82.8564 77.1467 86.1019 73.0903C89.3473 69.0339 92.5927 64.8802 95.7676 60.7266C97.348 58.6428 99.0412 56.6424 100.65 54.6142C102.304 52.5875 103.782 50.4265 105.066 48.1545C105.885 46.7653 106.633 45.2789 107.366 43.7508V67.3668C107.405 71.3008 106.323 75.1666 104.243 78.5257C102.163 81.8848 99.1679 84.6026 95.5983 86.3708Z" fill="#49A57F"/>
<path d="M114.45 32.3595C114.418 32.2556 114.381 32.1535 114.337 32.0539C114.266 31.8733 114.182 31.6927 114.097 31.526C114.029 31.4194 113.953 31.3173 113.871 31.2204C113.765 31.0726 113.647 30.9332 113.519 30.8037L113.208 30.5536L112.912 30.3313L112.757 30.2619C112.721 30.2249 112.678 30.1964 112.63 30.1785L71.4269 9.89651C68.1474 8.29954 64.538 7.46875 60.8793 7.46875C57.2206 7.46875 53.6111 8.29954 50.3316 9.89651L9.17121 30.1646L9.04422 30.248L8.889 30.3174L8.6209 30.5536C8.52213 30.637 8.39513 30.7203 8.31047 30.8037C8.18194 30.9332 8.06399 31.0726 7.95771 31.2204C7.87138 31.3139 7.79568 31.4164 7.73194 31.526C7.63195 31.6925 7.55148 31.8696 7.49206 32.0539C7.49206 32.165 7.39329 32.2484 7.36507 32.3595C7.28122 32.6724 7.23854 32.9945 7.23807 33.3181V67.3946C7.2146 72.6227 8.68029 77.7526 11.4688 82.202C14.2573 86.6514 18.2569 90.2421 23.0137 92.5666L59.306 110.431C59.4429 110.493 59.5844 110.544 59.7293 110.584L59.9974 110.681C60.2889 110.751 60.5866 110.793 60.8863 110.806C61.186 110.792 61.4836 110.75 61.7753 110.681L62.0434 110.584C62.1888 110.546 62.3304 110.494 62.4667 110.431L98.759 92.5666C103.517 90.2428 107.519 86.6526 110.31 82.2034C113.101 77.7541 114.569 72.6239 114.549 67.3946V33.2764C114.557 32.9678 114.524 32.6595 114.45 32.3595ZM53.4924 16.12C55.7901 14.9965 58.3208 14.4119 60.8863 14.4119C63.4518 14.4119 65.9825 14.9965 68.2803 16.12L103.161 33.2764L73.1484 48.0295L68.252 50.4328C65.9568 51.5561 63.4284 52.1407 60.8652 52.1407C58.3019 52.1407 55.7736 51.5561 53.4783 50.4328L48.5819 48.0295L25.2713 36.541L27.6842 36.7632C30.5024 36.9716 33.3324 36.9716 36.1506 36.7632C38.9727 36.5271 41.7948 36.2631 44.6169 36.0964C50.2611 35.8186 55.9053 35.4759 61.5495 35.0684C67.1937 34.5961 72.838 34.221 78.4822 33.6793C78.5626 33.6674 78.6367 33.6296 78.6929 33.5717C78.749 33.5139 78.7841 33.4393 78.7926 33.3597C78.8006 33.2698 78.7726 33.1803 78.7146 33.1102C78.6567 33.0402 78.5733 32.9952 78.4822 32.9847C72.838 32.429 67.1937 32.0122 61.5495 31.5955C55.9053 31.1787 50.2611 30.7898 44.6169 30.5119C41.7948 30.3591 38.9727 30.0813 36.1506 29.8451C33.3324 29.6368 30.5024 29.6368 27.6842 29.8451C26.8799 29.8451 26.0615 29.9979 25.2713 30.0674L53.4924 16.12ZM14.2651 67.3946V38.9165L45.4494 54.3086C49.0182 56.0575 52.02 58.7527 54.1166 62.0907C56.2133 65.4287 57.3215 69.2768 57.3164 73.2014V96.748C56.6532 95.3588 55.9053 94.0391 55.2139 92.7055C53.9689 90.4845 52.5438 88.366 50.9525 86.3708C49.3157 84.3982 47.6648 82.4394 46.0703 80.4112C42.9942 76.3548 39.8522 72.3308 36.6444 68.3393C33.3708 64.3662 30.21 60.3515 26.8658 56.434C26.8141 56.3725 26.7431 56.3295 26.664 56.3119C26.5848 56.2943 26.502 56.3031 26.4284 56.3368C26.3449 56.3835 26.2834 56.4606 26.257 56.5515C26.2306 56.6424 26.2415 56.7399 26.2873 56.823C28.672 61.3517 31.2119 65.7832 33.6812 70.298C36.1506 74.8129 38.761 79.161 41.3856 83.5508C42.6978 85.7457 43.8831 88.01 45.1108 90.2883C46.3371 92.5228 47.7532 94.6512 49.3439 96.6507C49.8801 97.3314 50.4586 98.0399 51.0372 98.6512L26.1744 86.3708C22.5806 84.6267 19.5579 81.9222 17.4518 78.5664C15.3458 75.2107 14.2415 71.3392 14.2651 67.3946ZM95.5983 86.3708L64.4281 101.777V73.2014C64.4153 69.2628 65.5262 65.3998 67.6342 62.0523C69.7422 58.7048 72.7626 56.0073 76.3515 54.2669L91.5062 46.7792L101.285 41.9588C100.622 42.7228 99.9725 43.4869 99.3375 44.2787C97.6996 46.3213 96.2321 48.4908 94.9492 50.7662C93.6933 53.0583 92.4657 55.3643 91.1252 57.6148C88.4536 62.0972 85.8244 66.6074 83.2374 71.1454C80.7258 75.7297 78.1153 80.2584 75.6319 84.8705C75.5822 84.9487 75.5647 85.0425 75.5831 85.1329C75.6015 85.2233 75.6542 85.3034 75.7306 85.3567C75.7694 85.3827 75.813 85.4008 75.859 85.41C75.905 85.4192 75.9523 85.4192 75.9983 85.4102C76.0443 85.4011 76.088 85.3831 76.1268 85.3572C76.1656 85.3314 76.1989 85.2981 76.2245 85.2595C79.611 81.2586 82.8564 77.1467 86.1019 73.0903C89.3473 69.0339 92.5927 64.8802 95.7676 60.7266C97.348 58.6428 99.0412 56.6424 100.65 54.6142C102.304 52.5875 103.782 50.4265 105.066 48.1545C105.885 46.7653 106.633 45.2789 107.366 43.7508V67.3668C107.405 71.3008 106.323 75.1666 104.243 78.5257C102.163 81.8848 99.1679 84.6026 95.5983 86.3708Z" stroke="white" stroke-width="14" mask="url(#path-1-outside-1_1905_79111)"/>
</svg>
