<svg width="65" height="65" viewBox="0 0 65 65" fill="none" xmlns="http://www.w3.org/2000/svg">
<mask id="path-1-outside-1_1905_79117" maskUnits="userSpaceOnUse" x="0.368774" y="0.207031" width="65" height="65" fill="black">
<rect fill="white" x="0.368774" y="0.207031" width="65" height="65"/>
<path fill-rule="evenodd" clip-rule="evenodd" d="M29.7624 22.2331C29.7624 23.2336 29.4293 24.0133 28.7674 24.6803C27.7745 25.6831 26.1175 25.9061 25.0129 25.1287L13.9685 18.6727C13.9124 18.6727 13.8844 18.6449 13.8566 18.6171C13.8291 18.5896 13.8017 18.5623 13.7472 18.5623C12.202 17.67 11.7614 15.669 12.7543 14.1096C13.6376 12.5503 15.6255 12.1064 17.1707 13.1069L23.3559 16.7799V9.43389C23.3559 7.65371 24.7915 6.20703 26.5581 6.20703C28.3246 6.20703 29.7624 7.65371 29.7624 9.43389V22.2331ZM22.3608 29.5791C23.4655 30.1357 24.0178 31.2489 24.0178 32.4725C24.0178 33.6961 23.4655 34.8093 22.4704 35.3659L11.4261 41.8196H11.2047C9.54993 42.7119 7.67158 42.1553 6.7883 40.4855C5.90501 38.8158 6.56912 36.923 8.11432 36.0329L14.4091 32.3621L8.11432 28.6891C8.05815 28.6891 8.03021 28.6612 8.0024 28.6334C7.97487 28.606 7.94747 28.5786 7.89295 28.5786C6.34775 27.6863 5.90501 25.6853 6.90008 24.1259C7.78555 22.5666 9.7713 22.1227 11.3187 23.1232L22.3608 29.5791ZM29.7624 55.5089V42.5992C29.872 42.1531 29.6507 41.5965 29.4315 41.2674C28.5482 39.5977 26.4485 39.0411 24.9033 39.9312L13.859 46.3849C13.8028 46.3849 13.7748 46.4128 13.747 46.4405C13.7195 46.468 13.6921 46.4953 13.6376 46.4953C12.0924 47.3876 11.6496 49.3909 12.6447 50.948C13.528 52.5051 15.5159 52.9491 17.0611 51.9485L23.3581 48.2755V55.5089C23.3581 57.2891 24.7937 58.7358 26.5603 58.7358C28.3268 58.7358 29.7624 57.2891 29.7624 55.5089ZM35.5049 55.5089V42.9327C35.3931 42.3762 35.6145 41.5965 35.8337 41.0421C36.7191 39.485 38.7071 38.9284 40.2523 39.8185L51.2966 46.2722C51.3528 46.2722 51.3807 46.3001 51.4085 46.3279C51.4361 46.3553 51.4635 46.3827 51.518 46.3827C53.0654 47.275 53.5081 49.276 52.513 50.8354C51.6276 52.3925 49.6396 52.8364 48.0944 51.8359L41.9092 48.2755V55.5089C41.9092 57.2891 40.4736 58.7358 38.7071 58.7358C36.9405 58.7358 35.5049 57.2891 35.5049 55.5089ZM42.9043 29.5791C41.7997 30.1357 41.2473 31.2489 41.2473 32.4725C41.1377 33.6961 41.7997 34.8093 42.7925 35.2576L53.8369 41.7114C53.893 41.7114 53.921 41.7392 53.9488 41.767C53.9763 41.7945 54.0037 41.8218 54.0582 41.8218C55.7152 42.7141 57.5936 42.0449 58.4769 40.4878C59.3601 38.818 58.696 36.9252 57.1508 36.0351L50.8561 32.3621L57.1508 28.6891C57.207 28.6891 57.2349 28.6612 57.2627 28.6334C57.2903 28.606 57.3177 28.5786 57.3722 28.5786C58.9196 27.6863 59.3601 25.6853 58.3673 24.1259C57.4818 22.5666 55.4938 22.1227 53.9487 23.1232L42.9043 29.5791ZM35.5049 9.43389V22.01C35.3931 22.6771 35.6145 23.3463 35.8337 23.9051C36.7191 25.4622 38.7071 26.0188 40.2523 25.1287L51.2966 18.6727C51.3528 18.6727 51.3807 18.6449 51.4085 18.6171C51.4361 18.5896 51.4635 18.5623 51.518 18.5623C53.0654 17.67 53.5081 15.669 52.513 14.1096C51.6276 12.5503 49.6396 12.1064 48.0944 13.1069L41.9092 16.6673V9.43389C41.9092 7.65371 40.4736 6.20703 38.7071 6.20703C36.9405 6.20703 35.5049 7.65371 35.5049 9.43389ZM33.1838 26.3501C33.5148 26.3501 33.7361 26.4605 33.9575 26.6836L38.2643 31.1363C38.4835 31.3571 38.5953 31.5802 38.5953 31.9137V33.0269C38.5953 33.2499 38.4835 33.5835 38.3739 33.8065L33.9575 38.2592C33.7361 38.4823 33.5148 38.5927 33.1838 38.5927H32.0792C31.746 38.5927 31.5268 38.4823 31.3055 38.2592L26.8868 33.8065C26.6655 33.5835 26.5559 33.3604 26.5559 33.0269V31.9137C26.5559 31.5824 26.6655 31.3593 26.8868 31.1363L31.3055 26.6836C31.5268 26.4627 31.7482 26.3501 32.0792 26.3501H33.1838ZM33.0337 30.4442C32.9241 30.3316 32.7027 30.2212 32.4814 30.2212C32.26 30.2212 32.0386 30.3316 31.929 30.4442L30.603 31.7783C30.4934 31.8887 30.3816 32.1118 30.3816 32.3349C30.3816 32.5579 30.4912 32.781 30.603 32.8914L31.929 34.2277C32.0386 34.3381 32.26 34.4508 32.4814 34.4508C32.7027 34.4508 32.9219 34.3381 33.0337 34.2277L34.3597 32.8914C34.4693 32.781 34.5811 32.5579 34.5811 32.3349C34.5811 32.1118 34.4693 31.8887 34.3597 31.7783L33.0337 30.4442Z"/>
</mask>
<path fill-rule="evenodd" clip-rule="evenodd" d="M29.7624 22.2331C29.7624 23.2336 29.4293 24.0133 28.7674 24.6803C27.7745 25.6831 26.1175 25.9061 25.0129 25.1287L13.9685 18.6727C13.9124 18.6727 13.8844 18.6449 13.8566 18.6171C13.8291 18.5896 13.8017 18.5623 13.7472 18.5623C12.202 17.67 11.7614 15.669 12.7543 14.1096C13.6376 12.5503 15.6255 12.1064 17.1707 13.1069L23.3559 16.7799V9.43389C23.3559 7.65371 24.7915 6.20703 26.5581 6.20703C28.3246 6.20703 29.7624 7.65371 29.7624 9.43389V22.2331ZM22.3608 29.5791C23.4655 30.1357 24.0178 31.2489 24.0178 32.4725C24.0178 33.6961 23.4655 34.8093 22.4704 35.3659L11.4261 41.8196H11.2047C9.54993 42.7119 7.67158 42.1553 6.7883 40.4855C5.90501 38.8158 6.56912 36.923 8.11432 36.0329L14.4091 32.3621L8.11432 28.6891C8.05815 28.6891 8.03021 28.6612 8.0024 28.6334C7.97487 28.606 7.94747 28.5786 7.89295 28.5786C6.34775 27.6863 5.90501 25.6853 6.90008 24.1259C7.78555 22.5666 9.7713 22.1227 11.3187 23.1232L22.3608 29.5791ZM29.7624 55.5089V42.5992C29.872 42.1531 29.6507 41.5965 29.4315 41.2674C28.5482 39.5977 26.4485 39.0411 24.9033 39.9312L13.859 46.3849C13.8028 46.3849 13.7748 46.4128 13.747 46.4405C13.7195 46.468 13.6921 46.4953 13.6376 46.4953C12.0924 47.3876 11.6496 49.3909 12.6447 50.948C13.528 52.5051 15.5159 52.9491 17.0611 51.9485L23.3581 48.2755V55.5089C23.3581 57.2891 24.7937 58.7358 26.5603 58.7358C28.3268 58.7358 29.7624 57.2891 29.7624 55.5089ZM35.5049 55.5089V42.9327C35.3931 42.3762 35.6145 41.5965 35.8337 41.0421C36.7191 39.485 38.7071 38.9284 40.2523 39.8185L51.2966 46.2722C51.3528 46.2722 51.3807 46.3001 51.4085 46.3279C51.4361 46.3553 51.4635 46.3827 51.518 46.3827C53.0654 47.275 53.5081 49.276 52.513 50.8354C51.6276 52.3925 49.6396 52.8364 48.0944 51.8359L41.9092 48.2755V55.5089C41.9092 57.2891 40.4736 58.7358 38.7071 58.7358C36.9405 58.7358 35.5049 57.2891 35.5049 55.5089ZM42.9043 29.5791C41.7997 30.1357 41.2473 31.2489 41.2473 32.4725C41.1377 33.6961 41.7997 34.8093 42.7925 35.2576L53.8369 41.7114C53.893 41.7114 53.921 41.7392 53.9488 41.767C53.9763 41.7945 54.0037 41.8218 54.0582 41.8218C55.7152 42.7141 57.5936 42.0449 58.4769 40.4878C59.3601 38.818 58.696 36.9252 57.1508 36.0351L50.8561 32.3621L57.1508 28.6891C57.207 28.6891 57.2349 28.6612 57.2627 28.6334C57.2903 28.606 57.3177 28.5786 57.3722 28.5786C58.9196 27.6863 59.3601 25.6853 58.3673 24.1259C57.4818 22.5666 55.4938 22.1227 53.9487 23.1232L42.9043 29.5791ZM35.5049 9.43389V22.01C35.3931 22.6771 35.6145 23.3463 35.8337 23.9051C36.7191 25.4622 38.7071 26.0188 40.2523 25.1287L51.2966 18.6727C51.3528 18.6727 51.3807 18.6449 51.4085 18.6171C51.4361 18.5896 51.4635 18.5623 51.518 18.5623C53.0654 17.67 53.5081 15.669 52.513 14.1096C51.6276 12.5503 49.6396 12.1064 48.0944 13.1069L41.9092 16.6673V9.43389C41.9092 7.65371 40.4736 6.20703 38.7071 6.20703C36.9405 6.20703 35.5049 7.65371 35.5049 9.43389ZM33.1838 26.3501C33.5148 26.3501 33.7361 26.4605 33.9575 26.6836L38.2643 31.1363C38.4835 31.3571 38.5953 31.5802 38.5953 31.9137V33.0269C38.5953 33.2499 38.4835 33.5835 38.3739 33.8065L33.9575 38.2592C33.7361 38.4823 33.5148 38.5927 33.1838 38.5927H32.0792C31.746 38.5927 31.5268 38.4823 31.3055 38.2592L26.8868 33.8065C26.6655 33.5835 26.5559 33.3604 26.5559 33.0269V31.9137C26.5559 31.5824 26.6655 31.3593 26.8868 31.1363L31.3055 26.6836C31.5268 26.4627 31.7482 26.3501 32.0792 26.3501H33.1838ZM33.0337 30.4442C32.9241 30.3316 32.7027 30.2212 32.4814 30.2212C32.26 30.2212 32.0386 30.3316 31.929 30.4442L30.603 31.7783C30.4934 31.8887 30.3816 32.1118 30.3816 32.3349C30.3816 32.5579 30.4912 32.781 30.603 32.8914L31.929 34.2277C32.0386 34.3381 32.26 34.4508 32.4814 34.4508C32.7027 34.4508 32.9219 34.3381 33.0337 34.2277L34.3597 32.8914C34.4693 32.781 34.5811 32.5579 34.5811 32.3349C34.5811 32.1118 34.4693 31.8887 34.3597 31.7783L33.0337 30.4442Z" fill="#29B5E8"/>
<path d="M28.7674 24.6803L24.5085 20.454L24.5038 20.4587L28.7674 24.6803ZM25.0129 25.1287L28.4661 20.2221L28.2592 20.0764L28.0408 19.9487L25.0129 25.1287ZM13.9685 18.6727L16.9965 13.4928L15.5936 12.6727H13.9685V18.6727ZM13.8566 18.6171L9.61866 22.8644L9.61869 22.8645L13.8566 18.6171ZM13.7472 18.5623L10.7467 23.7582L12.1392 24.5623H13.7472V18.5623ZM12.7543 14.1096L17.8154 17.3322L17.8986 17.2016L17.9749 17.0669L12.7543 14.1096ZM17.1707 13.1069L13.9096 18.1433L14.0072 18.2065L14.1071 18.2658L17.1707 13.1069ZM23.3559 16.7799L20.2923 21.9388L29.3559 27.3212V16.7799H23.3559ZM22.3608 29.5791L19.3325 34.7588L19.494 34.8532L19.661 34.9374L22.3608 29.5791ZM22.4704 35.3659L19.5414 30.1294L19.4921 30.1569L19.4433 30.1855L22.4704 35.3659ZM11.4261 41.8196V47.8196H13.0506L14.4532 47L11.4261 41.8196ZM11.2047 41.8196V35.8196H9.69012L8.35699 36.5384L11.2047 41.8196ZM6.7883 40.4855L12.0919 37.68L12.0919 37.68L6.7883 40.4855ZM8.11432 36.0329L11.1092 41.232L11.123 41.224L11.1368 41.216L8.11432 36.0329ZM14.4091 32.3621L17.4316 37.5452L26.317 32.3636L17.433 27.1798L14.4091 32.3621ZM8.11432 28.6891L11.1382 23.5068L9.73682 22.6891H8.11432V28.6891ZM8.0024 28.6334L12.2403 24.3861L12.2402 24.386L8.0024 28.6334ZM7.89295 28.5786L4.8925 33.7745L6.28497 34.5786H7.89295V28.5786ZM6.90008 24.1259L11.958 27.3536L12.0412 27.2232L12.1175 27.0887L6.90008 24.1259ZM11.3187 23.1232L8.06085 28.1617L8.174 28.2349L8.29033 28.3029L11.3187 23.1232ZM29.7624 42.5992L23.9357 41.168L23.7624 41.8731V42.5992H29.7624ZM29.4315 41.2674L24.1278 44.073L24.2696 44.341L24.4377 44.5933L29.4315 41.2674ZM24.9033 39.9312L21.9084 34.7321L21.8923 34.7414L21.8761 34.7508L24.9033 39.9312ZM13.859 46.3849V52.3849H15.4835L16.8861 51.5653L13.859 46.3849ZM13.747 46.4405L17.9849 50.688L17.985 50.6879L13.747 46.4405ZM13.6376 46.4953V40.4953H12.0296L10.6371 41.2994L13.6376 46.4953ZM12.6447 50.948L17.8635 47.9876L17.7856 47.8502L17.7005 47.7171L12.6447 50.948ZM17.0611 51.9485L14.038 46.7658L13.9173 46.8362L13.8 46.9121L17.0611 51.9485ZM23.3581 48.2755H29.3581V37.8296L20.335 43.0928L23.3581 48.2755ZM35.5049 42.9327H41.5049V42.3362L41.3874 41.7513L35.5049 42.9327ZM35.8337 41.0421L30.618 38.0762L30.4092 38.4433L30.2539 38.8361L35.8337 41.0421ZM40.2523 39.8185L43.2794 34.6381L43.2633 34.6287L43.2472 34.6194L40.2523 39.8185ZM51.2966 46.2722L48.2695 51.4526L49.6721 52.2722H51.2966V46.2722ZM51.4085 46.3279L47.1705 50.5752L47.1706 50.5752L51.4085 46.3279ZM51.518 46.3827L54.5153 41.185L53.124 40.3827H51.518V46.3827ZM52.513 50.8354L47.4552 47.6077L47.3729 47.7365L47.2974 47.8694L52.513 50.8354ZM48.0944 51.8359L51.3555 46.7995L51.2238 46.7142L51.0877 46.6359L48.0944 51.8359ZM41.9092 48.2755L44.9025 43.0755L35.9093 37.8987V48.2755H41.9092ZM41.2473 32.4725L47.2234 33.0077L47.2473 32.7407V32.4725H41.2473ZM42.9043 29.5791L45.6041 34.9374L45.7709 34.8534L45.9322 34.7591L42.9043 29.5791ZM42.7925 35.2576L45.8197 30.0772L45.5483 29.9187L45.2619 29.7893L42.7925 35.2576ZM53.8369 41.7114L50.8097 46.8917L52.2123 47.7114H53.8369V41.7114ZM53.9488 41.767L58.187 37.5199L58.1868 37.5197L53.9488 41.767ZM54.0582 41.8218L56.903 36.5391L55.5711 35.8218H54.0582V41.8218ZM58.4769 40.4878L63.6957 43.4482L63.7392 43.3714L63.7805 43.2933L58.4769 40.4878ZM57.1508 36.0351L54.1269 41.2174L54.1414 41.2258L54.156 41.2342L57.1508 36.0351ZM50.8561 32.3621L47.8322 27.1798L38.9508 32.3621L47.8322 37.5444L50.8561 32.3621ZM57.1508 28.6891V22.6891H55.5283L54.1269 23.5068L57.1508 28.6891ZM57.2627 28.6334L61.5007 32.8807L61.5008 32.8806L57.2627 28.6334ZM57.3722 28.5786V34.5786H58.9782L60.3695 33.7764L57.3722 28.5786ZM58.3673 24.1259L53.1498 27.0887L53.2247 27.2206L53.3061 27.3485L58.3673 24.1259ZM53.9487 23.1232L56.9766 28.3031L57.0948 28.234L57.2098 28.1596L53.9487 23.1232ZM35.5049 22.01L41.4224 23.0017L41.5049 22.5093V22.01H35.5049ZM35.8337 23.9051L30.248 26.096L30.4052 26.4968L30.618 26.871L35.8337 23.9051ZM40.2523 25.1287L43.2472 30.3278L43.2637 30.3183L43.2802 30.3086L40.2523 25.1287ZM51.2966 18.6727V12.6727H49.6716L48.2687 13.4928L51.2966 18.6727ZM51.4085 18.6171L47.1707 14.3696L47.1705 14.3698L51.4085 18.6171ZM51.518 18.5623V24.5623H53.124L54.5152 23.76L51.518 18.5623ZM52.513 14.1096L47.2956 17.0724L47.372 17.2069L47.4551 17.3373L52.513 14.1096ZM48.0944 13.1069L51.0877 18.3069L51.2238 18.2286L51.3555 18.1433L48.0944 13.1069ZM41.9092 16.6673H35.9093V27.0441L44.9025 21.8673L41.9092 16.6673ZM33.9575 26.6836L38.2702 22.5122L38.2435 22.4845L38.2164 22.4573L33.9575 26.6836ZM38.2643 31.1363L33.9517 35.3077L33.9784 35.3353L34.0054 35.3626L38.2643 31.1363ZM38.3739 33.8065L42.6339 38.0318L43.3259 37.3341L43.7592 36.4521L38.3739 33.8065ZM33.9575 38.2592L38.2164 42.4855L38.2174 42.4845L33.9575 38.2592ZM31.3055 38.2592L35.5644 34.0329L35.5644 34.0329L31.3055 38.2592ZM26.8868 33.8065L31.1457 29.5802L31.1457 29.5802L26.8868 33.8065ZM26.8868 31.1363L22.6279 26.9099L22.6279 26.9099L26.8868 31.1363ZM31.3055 26.6836L27.0676 22.4361L27.0571 22.4467L27.0466 22.4573L31.3055 26.6836ZM33.0337 30.4442L28.7331 34.6282L28.7556 34.6512L28.7783 34.6741L33.0337 30.4442ZM31.929 30.4442L36.1844 34.6741L36.2071 34.6512L36.2296 34.6282L31.929 30.4442ZM30.603 31.7783L26.3476 27.5484L26.3441 27.5519L30.603 31.7783ZM30.603 32.8914L34.8619 28.6651L34.841 28.644L34.8199 28.6232L30.603 32.8914ZM31.929 34.2277L36.1879 30.0014L36.1879 30.0014L31.929 34.2277ZM33.0337 34.2277L37.2505 38.496L37.2716 38.4751L37.2926 38.454L33.0337 34.2277ZM34.3597 32.8914L38.6186 37.1178L38.6186 37.1177L34.3597 32.8914ZM34.3597 31.7783L38.6186 27.5519L38.6151 27.5484L34.3597 31.7783ZM33.0263 28.9066C34.8053 27.1139 35.7624 24.8143 35.7624 22.2331H23.7624C23.7624 22.0499 23.7968 21.7061 23.9648 21.298C24.1332 20.8887 24.3571 20.6065 24.5085 20.454L33.0263 28.9066ZM21.5596 30.0353C25.3519 32.7043 30.2402 31.7204 33.0309 28.9019L24.5038 20.4587C25.0111 19.9464 25.6155 19.6894 26.1933 19.6177C26.7718 19.5459 27.6269 19.6314 28.4661 20.2221L21.5596 30.0353ZM10.9406 23.8527L21.985 30.3086L28.0408 19.9487L16.9965 13.4928L10.9406 23.8527ZM9.61869 22.8645C9.72107 22.9666 11.2859 24.6727 13.9685 24.6727V12.6727C15.0421 12.6727 16.0814 12.9685 16.9779 13.5038C17.6981 13.9338 18.1861 14.4611 18.0946 14.3698L9.61869 22.8645ZM13.7472 24.5623C12.6603 24.5623 11.6169 24.2597 10.7241 23.7238C10.0103 23.2954 9.52528 22.7713 9.61866 22.8644L18.0946 14.3698C18.0117 14.2871 16.441 12.5623 13.7472 12.5623V24.5623ZM7.69318 10.8871C5.0007 15.1156 6.03052 21.0348 10.7467 23.7582L16.7476 13.3664C18.3734 14.3053 18.5222 16.2223 17.8154 17.3322L7.69318 10.8871ZM20.4318 8.07051C16.1679 5.30961 10.223 6.40486 7.53369 11.1524L17.9749 17.0669C17.0522 18.6958 15.0831 18.9032 13.9096 18.1433L20.4318 8.07051ZM26.4195 11.621L20.2343 7.94798L14.1071 18.2658L20.2923 21.9388L26.4195 11.621ZM17.3559 9.43389V16.7799H29.3559V9.43389H17.3559ZM26.5581 0.207031C21.4345 0.207031 17.3559 4.38352 17.3559 9.43389H29.3559C29.3559 10.9239 28.1486 12.207 26.5581 12.207V0.207031ZM35.7624 9.43389C35.7624 4.37816 31.6764 0.207031 26.5581 0.207031V12.207C24.9729 12.207 23.7624 10.9293 23.7624 9.43389H35.7624ZM35.7624 22.2331V9.43389H23.7624V22.2331H35.7624ZM30.0178 32.4725C30.0178 29.4523 28.5766 25.9924 25.0606 24.2209L19.661 34.9374C19.0929 34.6511 18.635 34.1907 18.3494 33.673C18.0805 33.1852 18.0178 32.7517 18.0178 32.4725H30.0178ZM25.3994 40.6024C28.6609 38.7781 30.0178 35.4089 30.0178 32.4725H18.0178C18.0178 31.9833 18.2701 30.8405 19.5414 30.1294L25.3994 40.6024ZM14.4532 47L25.4976 40.5462L19.4433 30.1855L8.39894 36.6392L14.4532 47ZM11.2047 47.8196H11.4261V35.8196H11.2047V47.8196ZM1.48465 43.2911C3.94243 47.9373 9.49527 49.5581 14.0524 47.1007L8.35699 36.5384C8.85574 36.2695 9.61318 36.1207 10.4331 36.3669C11.2582 36.6147 11.8195 37.1649 12.0919 37.68L1.48465 43.2911ZM5.11944 30.8338C1.00096 33.2062 -1.02742 38.5423 1.48465 43.2911L12.0919 37.68C12.4108 38.2828 12.4889 39.0507 12.2657 39.7624C12.054 40.4374 11.6129 40.9418 11.1092 41.232L5.11944 30.8338ZM11.3866 27.179L5.0918 30.8498L11.1368 41.216L17.4316 37.5452L11.3866 27.179ZM5.09044 33.8713L11.3852 37.5444L17.433 27.1798L11.1382 23.5068L5.09044 33.8713ZM3.76448 32.8808C3.86675 32.9828 5.43164 34.6891 8.11432 34.6891V22.6891C9.18788 22.6891 10.2273 22.9848 11.1237 23.5201C11.8439 23.9502 12.3319 24.4774 12.2403 24.3861L3.76448 32.8808ZM7.89295 34.5786C6.80606 34.5786 5.76267 34.276 4.86991 33.7401C4.15621 33.3117 3.67114 32.7876 3.76458 32.8809L12.2402 24.386C12.1574 24.3033 10.5867 22.5786 7.89295 22.5786V34.5786ZM1.84218 20.8983C-0.861587 25.1353 0.18222 31.0545 4.8925 33.7745L10.8934 23.3827C12.5133 24.3182 12.6716 26.2353 11.958 27.3536L1.84218 20.8983ZM14.5765 18.0847C10.3105 15.3263 4.37419 16.4233 1.68262 21.1632L12.1175 27.0887C11.1969 28.7099 9.23214 28.9191 8.06085 28.1617L14.5765 18.0847ZM25.3892 24.3995L14.3471 17.9435L8.29033 28.3029L19.3325 34.7588L25.3892 24.3995ZM23.7624 42.5992V55.5089H35.7624V42.5992H23.7624ZM24.4377 44.5933C24.2369 44.2919 24.0757 43.9641 23.9615 43.5738C23.8638 43.2397 23.6471 42.3429 23.9357 41.168L35.5892 44.0305C35.9874 42.4095 35.7148 41.0113 35.479 40.2051C35.2267 39.3426 34.8453 38.5721 34.4253 37.9415L24.4377 44.5933ZM27.8982 45.1303C26.5248 45.9214 24.8478 45.434 24.1278 44.073L34.7351 38.4618C32.2486 33.7613 26.3722 32.1608 21.9084 34.7321L27.8982 45.1303ZM16.8861 51.5653L27.9304 45.1116L21.8761 34.7508L10.8318 41.2045L16.8861 51.5653ZM17.985 50.6879C18.0765 50.5966 17.5885 51.1238 16.8683 51.5539C15.9718 52.0891 14.9324 52.3849 13.859 52.3849V40.3849C11.1764 40.3849 9.61152 42.091 9.5091 42.1932L17.985 50.6879ZM13.6376 52.4953C16.3313 52.4953 17.9021 50.7706 17.9849 50.688L9.50922 42.1931C9.41576 42.2863 9.90084 41.7622 10.6145 41.3338C11.5073 40.7979 12.5507 40.4953 13.6376 40.4953V52.4953ZM17.7005 47.7171C18.4182 48.8402 18.2569 50.7564 16.638 51.6912L10.6371 41.2994C5.92791 44.0189 4.88105 49.9416 7.58889 54.1789L17.7005 47.7171ZM13.8 46.9121C14.9721 46.1532 16.9395 46.3586 17.8635 47.9876L7.4259 53.9084C10.1165 58.6516 16.0597 59.7449 20.3222 56.9849L13.8 46.9121ZM20.335 43.0928L14.038 46.7658L20.0842 57.1313L26.3812 53.4583L20.335 43.0928ZM29.3581 55.5089V48.2755H17.3581V55.5089H29.3581ZM26.5603 52.7358C28.1508 52.7358 29.3581 54.0189 29.3581 55.5089H17.3581C17.3581 60.5593 21.4366 64.7358 26.5603 64.7358V52.7358ZM23.7624 55.5089C23.7624 54.0189 24.9698 52.7358 26.5603 52.7358V64.7358C31.6839 64.7358 35.7624 60.5593 35.7624 55.5089H23.7624ZM29.5049 42.9327V55.5089H41.5049V42.9327H29.5049ZM30.2539 38.8361C30.0564 39.3357 29.8262 40.0111 29.6686 40.7759C29.5304 41.4466 29.337 42.6934 29.6224 44.1142L41.3874 41.7513C41.4837 42.2305 41.4803 42.6016 41.4699 42.7972C41.459 43.0036 41.4331 43.1421 41.4217 43.1973C41.4017 43.2946 41.3917 43.3029 41.4134 43.2481L30.2539 38.8361ZM43.2472 34.6194C38.7656 32.0379 33.1172 33.6813 30.618 38.0762L41.0493 44.0081C40.3211 45.2887 38.6485 45.819 37.2574 45.0176L43.2472 34.6194ZM54.3237 41.0919L43.2794 34.6381L37.2251 44.9989L48.2695 51.4526L54.3237 41.0919ZM55.6465 42.0806C55.544 41.9783 53.9792 40.2722 51.2966 40.2722V52.2722C50.2231 52.2722 49.1837 51.9765 48.2873 51.4413C47.5671 51.0112 47.0792 50.484 47.1705 50.5752L55.6465 42.0806ZM51.518 40.3827C52.6049 40.3827 53.6483 40.6853 54.5411 41.2212C55.2548 41.6496 55.7398 42.1737 55.6465 42.0805L47.1706 50.5752C47.2535 50.6579 48.8242 52.3827 51.518 52.3827V40.3827ZM57.5709 54.063C60.2756 49.8247 59.23 43.9037 54.5153 41.185L48.5207 51.5804C46.9007 50.6463 46.7407 48.7274 47.4552 47.6077L57.5709 54.063ZM44.8333 56.8723C49.0984 59.6339 55.0364 58.5357 57.7287 53.8013L47.2974 47.8694C48.2187 46.2492 50.1809 46.0389 51.3555 46.7995L44.8333 56.8723ZM38.916 53.4755L45.1011 57.0359L51.0877 46.6359L44.9025 43.0755L38.916 53.4755ZM47.9092 55.5089V48.2755H35.9093V55.5089H47.9092ZM38.7071 64.7358C43.8307 64.7358 47.9092 60.5593 47.9092 55.5089H35.9093C35.9093 54.0189 37.1166 52.7358 38.7071 52.7358V64.7358ZM29.5049 55.5089C29.5049 60.5593 33.5834 64.7358 38.7071 64.7358V52.7358C40.2976 52.7358 41.5049 54.0189 41.5049 55.5089H29.5049ZM47.2473 32.4725C47.2473 32.7517 47.1846 33.1852 46.9157 33.673C46.6302 34.1907 46.1723 34.6511 45.6041 34.9374L40.2045 24.2209C36.6886 25.9924 35.2473 29.4523 35.2473 32.4725H47.2473ZM45.2619 29.7893C46.7158 30.4459 47.3297 31.8208 47.2234 33.0077L35.2713 31.9373C34.9458 35.5714 36.8835 39.1726 40.3232 40.7259L45.2619 29.7893ZM56.864 36.531L45.8197 30.0772L39.7654 40.438L50.8097 46.8917L56.864 36.531ZM58.1868 37.5197C58.0843 37.4174 56.5194 35.7114 53.8369 35.7114V47.7114C52.7633 47.7114 51.724 47.4156 50.8276 46.8804C50.1073 46.4503 49.6194 45.9231 49.7108 46.0143L58.1868 37.5197ZM54.0582 35.8218C55.1451 35.8218 56.1885 36.1244 57.0814 36.6603C57.7952 37.0888 58.2803 37.613 58.187 37.5199L49.7106 46.014C49.7937 46.097 51.3644 47.8218 54.0582 47.8218V35.8218ZM53.258 37.5273C53.5367 37.0362 54.0375 36.5787 54.7387 36.3557C55.4809 36.1196 56.2817 36.2045 56.903 36.5391L51.2134 47.1045C56.0107 49.6879 61.3573 47.5704 63.6957 43.4482L53.258 37.5273ZM54.156 41.2342C53.6523 40.9441 53.2112 40.4396 52.9995 39.7646C52.7763 39.0529 52.8543 38.285 53.1732 37.6822L63.7805 43.2933C66.2926 38.5445 64.2642 33.2084 60.1457 30.836L54.156 41.2342ZM47.8322 37.5444L54.1269 41.2174L60.1747 30.8528L53.8799 27.1798L47.8322 37.5444ZM54.1269 23.5068L47.8322 27.1798L53.8799 37.5444L60.1747 33.8713L54.1269 23.5068ZM53.0248 24.3861C52.9334 24.4773 53.4213 23.9501 54.1416 23.52C55.0379 22.9848 56.0773 22.6891 57.1508 22.6891V34.6891C59.8334 34.6891 61.3982 32.983 61.5007 32.8807L53.0248 24.3861ZM57.3722 22.5786C54.6784 22.5786 53.1077 24.3033 53.0247 24.3862L61.5008 32.8806C61.5941 32.7875 61.1091 33.3116 60.3953 33.7401C59.5025 34.276 58.4591 34.5786 57.3722 34.5786V22.5786ZM53.3061 27.3485C52.5986 26.2373 52.749 24.3185 54.3749 23.3809L60.3695 33.7764C65.0901 31.0542 66.1217 25.1333 63.4284 20.9034L53.3061 27.3485ZM57.2098 28.1596C56.0337 28.9211 54.0698 28.7089 53.1498 27.0887L63.5847 21.1632C60.8938 16.4244 54.954 15.3243 50.6876 18.0868L57.2098 28.1596ZM45.9322 34.7591L56.9766 28.3031L50.9207 17.9433L39.8764 24.3992L45.9322 34.7591ZM41.5049 22.01V9.43389H29.5049V22.01H41.5049ZM41.4193 21.7142C41.345 21.5247 41.3769 21.5777 41.4117 21.7395C41.4494 21.9154 41.5271 22.3769 41.4224 23.0017L29.5874 21.0184C29.1776 23.4641 30.0204 25.5158 30.248 26.096L41.4193 21.7142ZM37.2574 19.9296C38.6485 19.1282 40.3211 19.6585 41.0493 20.9391L30.618 26.871C33.1172 31.2659 38.7656 32.9093 43.2472 30.3278L37.2574 19.9296ZM48.2687 13.4928L37.2244 19.9487L43.2802 30.3086L54.3245 23.8527L48.2687 13.4928ZM47.1705 14.3698C47.0791 14.461 47.567 13.9338 48.2873 13.5038C49.1837 12.9685 50.223 12.6727 51.2966 12.6727V24.6727C53.9792 24.6727 55.5441 22.9666 55.6465 22.8644L47.1705 14.3698ZM51.518 12.5623C48.8243 12.5623 47.2535 14.287 47.1707 14.3696L55.6463 22.8646C55.7398 22.7714 55.2547 23.2955 54.541 23.7238C53.6482 24.2597 52.6049 24.5623 51.518 24.5623V12.5623ZM47.4551 17.3373C46.7407 16.2176 46.9007 14.2987 48.5207 13.3646L54.5152 23.76C59.23 21.0413 60.2756 15.1203 57.5709 10.882L47.4551 17.3373ZM51.3555 18.1433C50.1795 18.9048 48.2156 18.6926 47.2956 17.0724L57.7305 11.1469C55.0396 6.40809 49.0998 5.30797 44.8333 8.07051L51.3555 18.1433ZM44.9025 21.8673L51.0877 18.3069L45.1011 7.90688L38.916 11.4673L44.9025 21.8673ZM35.9093 9.43389V16.6673H47.9092V9.43389H35.9093ZM38.7071 12.207C37.1166 12.207 35.9093 10.9239 35.9093 9.43389H47.9092C47.9092 4.38352 43.8307 0.207031 38.7071 0.207031V12.207ZM41.5049 9.43389C41.5049 10.9239 40.2976 12.207 38.7071 12.207V0.207031C33.5834 0.207031 29.5049 4.38352 29.5049 9.43389H41.5049ZM38.2164 22.4573C37.7493 21.9866 37.0437 21.3943 36.0563 20.9538C35.043 20.5017 34.05 20.3501 33.1838 20.3501V32.3501C32.6486 32.3501 31.9317 32.2537 31.1672 31.9126C30.4286 31.5831 29.9443 31.1575 29.6986 30.9099L38.2164 22.4573ZM42.577 26.9648L38.2702 22.5122L29.6448 30.855L33.9517 35.3077L42.577 26.9648ZM44.5953 31.9137C44.5953 29.7804 43.6953 28.0911 42.5233 26.91L34.0054 35.3626C33.7617 35.117 33.3468 34.6375 33.0252 33.9107C32.6924 33.1586 32.5953 32.4508 32.5953 31.9137H44.5953ZM44.5953 33.0269V31.9137H32.5953V33.0269H44.5953ZM43.7592 36.4521C44.0167 35.928 44.5953 34.6111 44.5953 33.0269H32.5953C32.5953 32.612 32.644 32.2947 32.6756 32.1235C32.7101 31.9363 32.749 31.7919 32.7776 31.6964C32.8299 31.5216 32.8953 31.3509 32.9887 31.1609L43.7592 36.4521ZM38.2174 42.4845L42.6339 38.0318L34.114 29.5813L29.6976 34.0339L38.2174 42.4845ZM33.1838 44.5927C34.05 44.5927 35.0431 44.4411 36.0564 43.989C37.0437 43.5485 37.7493 42.9562 38.2164 42.4855L29.6986 34.0329C29.9443 33.7853 30.4285 33.3597 31.1671 33.0302C31.9317 32.6891 32.6486 32.5927 33.1838 32.5927V44.5927ZM32.0792 44.5927H33.1838V32.5927H32.0792V44.5927ZM27.0466 42.4855C27.5057 42.9482 28.2096 43.5436 29.2013 43.987C30.2202 44.4426 31.2162 44.5927 32.0792 44.5927V32.5927C32.6089 32.5927 33.3288 32.6876 34.0995 33.0322C34.843 33.3646 35.3266 33.7933 35.5644 34.0329L27.0466 42.4855ZM22.6279 38.0329L27.0466 42.4855L35.5644 34.0329L31.1457 29.5802L22.6279 38.0329ZM20.5559 33.0269C20.5559 33.8826 20.7031 34.8655 21.1451 35.8715C21.5769 36.8543 22.1597 37.561 22.628 38.0329L31.1457 29.5802C31.3926 29.829 31.8099 30.3126 32.1316 31.0447C32.4634 31.8001 32.5559 32.5047 32.5559 33.0269H20.5559ZM20.5559 31.9137V33.0269H32.5559V31.9137H20.5559ZM22.6279 26.9099C21.4418 28.1052 20.5559 29.7976 20.5559 31.9137H32.5559C32.5559 32.4422 32.4616 33.1482 32.1296 33.9023C31.8083 34.632 31.3923 35.1142 31.1457 35.3626L22.6279 26.9099ZM27.0466 22.4573L22.6279 26.9099L31.1457 35.3626L35.5644 30.9099L27.0466 22.4573ZM32.0792 20.3501C29.9142 20.3501 28.2276 21.2788 27.0676 22.4361L35.5433 30.931C35.3081 31.1656 34.8333 31.5828 34.1059 31.9089C33.3485 32.2485 32.6306 32.3501 32.0792 32.3501V20.3501ZM33.1838 20.3501H32.0792V32.3501H33.1838V20.3501ZM32.4814 36.2212C31.6288 36.2212 30.9304 36.0185 30.4243 35.8003C29.9472 35.5947 29.3297 35.2413 28.7331 34.6282L37.3342 26.2603C36.1404 25.0332 34.3865 24.2212 32.4814 24.2212V36.2212ZM36.2296 34.6282C35.6331 35.2413 35.0155 35.5947 34.5384 35.8003C34.0323 36.0185 33.3339 36.2212 32.4814 36.2212V24.2212C30.5762 24.2212 28.8223 25.0332 27.6285 26.2603L36.2296 34.6282ZM34.8584 36.0081L36.1844 34.6741L27.6736 26.2144L26.3476 27.5484L34.8584 36.0081ZM36.3816 32.3349C36.3816 33.1898 36.1777 33.8825 35.9686 34.3719C35.7709 34.8347 35.4363 35.4258 34.8619 36.0046L26.3441 27.5519C25.1999 28.7049 24.3816 30.4175 24.3816 32.3349H36.3816ZM34.8199 28.6232C35.4275 29.2235 35.7738 29.8406 35.9734 30.3109C36.1859 30.8115 36.3816 31.4983 36.3816 32.3349H24.3816C24.3816 34.211 25.1689 35.9571 26.3862 37.1597L34.8199 28.6232ZM36.1879 30.0014L34.8619 28.6651L26.3441 37.1178L27.6701 38.454L36.1879 30.0014ZM32.4814 28.4508C33.3526 28.4508 34.0569 28.6618 34.5516 28.8765C35.0211 29.0802 35.6126 29.4216 36.1879 30.0014L27.6701 38.454C28.8144 39.6071 30.5349 40.4508 32.4814 40.4508V28.4508ZM28.8169 29.9594C29.3641 29.4187 29.9292 29.0858 30.4046 28.8789C30.8997 28.6635 31.6067 28.4508 32.4814 28.4508V40.4508C34.4565 40.4508 36.1467 39.5865 37.2505 38.496L28.8169 29.9594ZM30.1008 28.6651L28.7748 30.0014L37.2926 38.454L38.6186 37.1178L30.1008 28.6651ZM28.5811 32.3349C28.5811 31.4799 28.785 30.7871 28.9941 30.2978C29.1919 29.8349 29.5265 29.2439 30.1008 28.6651L38.6186 37.1177C39.7627 35.9648 40.5811 34.2523 40.5811 32.3349H28.5811ZM30.1008 36.0046C29.5264 35.4258 29.1919 34.8348 28.9941 34.3719C28.785 33.8825 28.5811 33.1898 28.5811 32.3349H40.5811C40.5811 30.4174 39.7627 28.7049 38.6186 27.5519L30.1008 36.0046ZM28.7783 34.6741L30.1043 36.0081L38.6151 27.5484L37.2891 26.2144L28.7783 34.6741Z" fill="white" mask="url(#path-1-outside-1_1905_79117)"/>
</svg>
