<svg width="70" height="42" viewBox="0 0 70 42" fill="none" xmlns="http://www.w3.org/2000/svg">
<path d="M19.9905 15.3348C19.9905 16.1914 20.0828 16.8859 20.2443 17.3953C20.4289 17.9046 20.6596 18.4602 20.9827 19.0622C21.098 19.2474 21.1442 19.4326 21.1442 19.5947C21.1442 19.8262 21.0057 20.0577 20.7058 20.2892L19.2521 21.2616C19.0444 21.4005 18.8368 21.4699 18.6522 21.4699C18.4214 21.4699 18.1907 21.3542 17.9599 21.1458C17.6369 20.7985 17.36 20.4281 17.1293 20.0577C16.8985 19.6641 16.6678 19.2242 16.414 18.6918C14.6142 20.8217 12.3529 21.8867 9.6301 21.8867C7.69186 21.8867 6.14588 21.331 5.01524 20.2198C3.8846 19.1085 3.30774 17.6268 3.30774 15.7747C3.30774 13.8068 3.99997 12.2093 5.4075 11.0054C6.81504 9.80155 8.68405 9.19961 11.0607 9.19961C11.8452 9.19961 12.6528 9.26906 13.5066 9.38482C14.3603 9.50058 15.2372 9.68579 16.1601 9.89416V8.20409C16.1601 6.44457 15.7909 5.21754 15.0756 4.49984C14.3373 3.78214 13.0912 3.43487 11.3145 3.43487C10.5069 3.43487 9.67625 3.52747 8.8225 3.73584C7.96875 3.9442 7.13808 4.19887 6.33047 4.52299C5.96129 4.68505 5.68439 4.77766 5.52287 4.82396C5.36135 4.87026 5.24598 4.89341 5.15368 4.89341C4.83064 4.89341 4.66912 4.6619 4.66912 4.17572V3.04129C4.66912 2.67086 4.71527 2.39304 4.83064 2.23098C4.94602 2.06892 5.15368 1.90686 5.47673 1.7448C6.28433 1.32807 7.25345 0.980799 8.38409 0.70298C9.51473 0.402009 10.7146 0.2631 11.9837 0.2631C14.7295 0.2631 16.737 0.888193 18.0292 2.13838C19.2982 3.38856 19.9443 5.28699 19.9443 7.83367V15.3348H19.9905ZM10.6223 18.8538C11.3837 18.8538 12.1683 18.7149 12.999 18.4371C13.8296 18.1593 14.568 17.6499 15.191 16.9554C15.5602 16.5155 15.8371 16.0293 15.9755 15.4737C16.114 14.918 16.2063 14.2467 16.2063 13.4595V12.4871C15.5371 12.3251 14.8218 12.1862 14.0834 12.0936C13.3451 12.0009 12.6298 11.9546 11.9145 11.9546C10.3685 11.9546 9.23784 12.2556 8.47639 12.8807C7.71493 13.5058 7.34575 14.3856 7.34575 15.5431C7.34575 16.6313 7.62264 17.4416 8.19949 17.9972C8.75328 18.576 9.56088 18.8538 10.6223 18.8538ZM29.151 21.3542C28.7356 21.3542 28.4587 21.2847 28.2742 21.1227C28.0896 20.9838 27.928 20.6596 27.7896 20.2198L22.3671 2.32359C22.2287 1.86056 22.1595 1.55959 22.1595 1.39753C22.1595 1.0271 22.344 0.818738 22.7132 0.818738H24.9745C25.4129 0.818738 25.7129 0.888193 25.8744 1.05025C26.059 1.18916 26.1975 1.51329 26.3359 1.95317L30.2124 17.2795L33.812 1.95317C33.9274 1.49013 34.0658 1.18916 34.2504 1.05025C34.435 0.911344 34.758 0.818738 35.1734 0.818738H37.0193C37.4577 0.818738 37.7577 0.888193 37.9423 1.05025C38.1269 1.18916 38.2884 1.51329 38.3807 1.95317L42.0264 17.4647L46.0183 1.95317C46.1567 1.49013 46.3183 1.18916 46.4798 1.05025C46.6644 0.911344 46.9643 0.818738 47.3797 0.818738H49.5256C49.8948 0.818738 50.1025 1.00395 50.1025 1.39753C50.1025 1.51329 50.0794 1.62904 50.0563 1.76795C50.0332 1.90686 49.9871 2.09207 49.8948 2.34674L44.3339 20.2429C44.1954 20.7059 44.0339 21.0069 43.8493 21.1458C43.6647 21.2847 43.3647 21.3773 42.9725 21.3773H40.9881C40.5497 21.3773 40.2497 21.3079 40.0651 21.1458C39.8805 20.9838 39.719 20.6828 39.6267 20.2198L36.0502 5.28699L32.4967 20.1966C32.3814 20.6596 32.2429 20.9606 32.0583 21.1227C31.8737 21.2847 31.5507 21.3542 31.1354 21.3542H29.151ZM58.8015 21.9793C57.6016 21.9793 56.4017 21.8404 55.248 21.5625C54.0943 21.2847 53.1944 20.9838 52.5945 20.6365C52.2253 20.4281 51.9715 20.1966 51.8792 19.9882C51.7869 19.7799 51.7407 19.5484 51.7407 19.34V18.1593C51.7407 17.6731 51.9253 17.4416 52.2714 17.4416C52.4099 17.4416 52.5483 17.4647 52.6868 17.511C52.8252 17.5573 53.0329 17.6499 53.2636 17.7425C54.0482 18.0898 54.9019 18.3676 55.8018 18.5528C56.7248 18.7381 57.6247 18.8307 58.5477 18.8307C60.0013 18.8307 61.132 18.576 61.9165 18.0667C62.701 17.5573 63.1164 16.8165 63.1164 15.8673C63.1164 15.219 62.9087 14.6865 62.4934 14.2467C62.078 13.8068 61.2935 13.4132 60.1629 13.0428L56.8171 12.0009C55.1327 11.4685 53.8866 10.6813 53.1252 9.63949C52.3637 8.62082 51.9715 7.48639 51.9715 6.28251C51.9715 5.31014 52.1791 4.45354 52.5945 3.71268C53.0098 2.97183 53.5636 2.32359 54.2558 1.81426C54.9481 1.28177 55.7326 0.888193 56.6556 0.610374C57.5785 0.332555 58.5477 0.216797 59.5629 0.216797C60.0706 0.216797 60.6013 0.239948 61.1089 0.309403C61.6396 0.378858 62.1242 0.471464 62.6087 0.564071C63.0702 0.679828 63.5086 0.795586 63.924 0.934496C64.3393 1.07341 64.6623 1.21231 64.8931 1.35122C65.2161 1.53644 65.4469 1.72165 65.5853 1.93001C65.7238 2.11523 65.793 2.36989 65.793 2.69402V3.78214C65.793 4.26832 65.6084 4.52299 65.2623 4.52299C65.0777 4.52299 64.7777 4.43038 64.3855 4.24517C63.0702 3.64323 61.5935 3.34226 59.9552 3.34226C58.6399 3.34226 57.6016 3.55062 56.8863 3.9905C56.171 4.43038 55.8018 5.10178 55.8018 6.05099C55.8018 6.69924 56.0326 7.25488 56.494 7.69476C56.9555 8.13464 57.8093 8.57452 59.0322 8.96809L62.3088 10.0099C63.9701 10.5424 65.17 11.2832 65.8853 12.2325C66.6006 13.1817 66.9467 14.2698 66.9467 15.4737C66.9467 16.4692 66.739 17.3721 66.3468 18.1593C65.9314 18.9464 65.3777 19.641 64.6623 20.1966C63.947 20.7754 63.0933 21.1921 62.1011 21.4931C61.0628 21.8172 59.9783 21.9793 58.8015 21.9793Z" fill="#252F3E"/>
<path d="M63.1626 33.231C55.5711 38.8568 44.5416 41.8434 35.0581 41.8434C21.7673 41.8434 9.79169 36.9121 0.746563 28.7164C0.0312591 28.0682 0.67734 27.1884 1.53109 27.6978C11.3146 33.3931 23.3825 36.8426 35.8657 36.8426C44.2878 36.8426 53.5406 35.0831 62.055 31.4715C63.3241 30.8927 64.4086 32.3049 63.1626 33.231ZM66.3238 29.6193C65.3546 28.3692 59.9091 29.0174 57.4402 29.3184C56.7018 29.411 56.5864 28.7627 57.2556 28.2766C61.5935 25.2205 68.7235 26.1003 69.5542 27.119C70.3848 28.1608 69.3234 35.3146 65.2623 38.7411C64.6393 39.2736 64.0394 38.9957 64.3163 38.3012C65.2393 36.0092 67.2929 30.8464 66.3238 29.6193Z" fill="#FF9900"/>
</svg>
