<svg width="215" height="209" viewBox="0 0 215 209" fill="none" xmlns="http://www.w3.org/2000/svg">
<g filter="url(#filter0_d_1905_79182)">
<path d="M161.242 78.4923C161.21 78.3884 161.172 78.2863 161.129 78.1867C161.058 78.0061 160.974 77.8255 160.889 77.6588C160.82 77.5522 160.745 77.4502 160.663 77.3532C160.557 77.2054 160.439 77.066 160.31 76.9365L160 76.6864L159.704 76.4641L159.548 76.3947C159.513 76.3578 159.47 76.3292 159.421 76.3113L118.219 56.0293C114.939 54.4323 111.33 53.6016 107.671 53.6016C104.012 53.6016 100.403 54.4323 97.1234 56.0293L55.963 76.2974L55.836 76.3808L55.6808 76.4503L55.4127 76.6864C55.3139 76.7698 55.1869 76.8531 55.1022 76.9365C54.9737 77.066 54.8557 77.2054 54.7495 77.3532C54.6631 77.4467 54.5874 77.5492 54.5237 77.6588C54.4237 77.8253 54.3432 78.0024 54.2838 78.1867C54.2838 78.2979 54.185 78.3812 54.1568 78.4923C54.073 78.8052 54.0303 79.1273 54.0298 79.4509V113.527C54.0063 118.756 55.472 123.885 58.2605 128.335C61.049 132.784 65.0486 136.375 69.8054 138.699L106.098 156.564C106.235 156.626 106.376 156.677 106.521 156.717L106.789 156.814C107.081 156.884 107.378 156.926 107.678 156.939C107.978 156.925 108.275 156.883 108.567 156.814L108.835 156.717C108.981 156.678 109.122 156.627 109.258 156.564L145.551 138.699C150.309 136.376 154.311 132.785 157.102 128.336C159.893 123.887 161.361 118.757 161.34 113.527V79.4092C161.349 79.1006 161.316 78.7923 161.242 78.4923Z" fill="white"/>
<path d="M164.639 77.6522L164.617 77.5636L164.591 77.4762C164.527 77.2639 164.451 77.0551 164.364 76.8507C164.246 76.5557 164.119 76.2892 164.01 76.074L163.93 75.9165L163.834 75.7679C163.708 75.5718 163.572 75.3829 163.426 75.2021C163.233 74.9442 163.022 74.7002 162.795 74.4716L162.658 74.3331L162.506 74.2108L162.196 73.9607L162.148 73.9228L162.1 73.8865L161.804 73.6643L161.491 73.4294L161.26 73.3263C161.142 73.256 161.019 73.1922 160.894 73.135L119.764 52.8892L119.758 52.8859L119.751 52.8826C115.993 51.0524 111.859 50.1016 107.671 50.1016C103.483 50.1016 99.3494 51.0524 95.5911 52.8826L95.5841 52.886L95.5772 52.8894L54.4168 73.1575L54.223 73.2529L54.1501 73.3007L53.766 73.4726L53.3673 73.8239L53.1686 73.9989L53.1305 74.0278C53.0925 74.0567 53.0255 74.1081 52.9503 74.1699C52.8759 74.2311 52.767 74.324 52.6467 74.4423L52.632 74.4569L52.6174 74.4716C52.4044 74.6863 52.2056 74.9146 52.0223 75.1553C51.8322 75.3806 51.6612 75.6219 51.5113 75.8769C51.3076 76.2189 51.1382 76.5803 51.0056 76.9561C50.9311 77.1157 50.8427 77.3338 50.7731 77.5976C50.6126 78.2005 50.5307 78.8216 50.5298 79.4458V79.4509V113.52C50.5049 119.411 52.1574 125.187 55.2948 130.193C58.4328 135.2 62.9285 139.234 68.2659 141.843C68.2668 141.843 68.2678 141.844 68.2687 141.844L104.552 159.704L104.607 159.732L104.664 159.757C104.913 159.869 105.169 159.965 105.43 160.044L105.596 160.105L105.782 160.172L105.974 160.218C106.482 160.34 107 160.413 107.522 160.436L107.684 160.443L107.846 160.435C108.359 160.411 108.87 160.339 109.37 160.221L109.569 160.174L109.76 160.105L109.914 160.049C110.192 159.966 110.464 159.863 110.728 159.741L110.766 159.723L110.804 159.704L147.087 141.844C147.088 141.844 147.09 141.843 147.092 141.842C152.43 139.234 156.927 135.202 160.067 130.196C163.206 125.19 164.862 119.414 164.84 113.522V79.4496C164.852 78.8442 164.785 78.24 164.639 77.6522Z" stroke="white" stroke-width="7"/>
</g>
<path d="M73.6137 93.517V93.5177C73.6137 95.0879 73.8209 96.6122 74.2102 98.0626C70.8533 100.898 68.7316 105.184 68.7316 109.954C68.7316 118.389 75.4024 125.371 83.8063 125.371C84.0282 125.371 84.2491 125.366 84.4689 125.356C87.1836 130.355 92.4288 133.774 98.4965 133.774C104.123 133.774 109.042 130.833 111.891 126.422C113.033 126.718 114.229 126.875 115.458 126.875C120.124 126.875 124.249 124.626 126.872 121.173C127.403 121.22 127.94 121.245 128.484 121.245C138.83 121.245 147.082 112.657 147.082 102.231C147.082 91.8064 138.828 83.2193 128.484 83.2193C126.709 83.2193 124.989 83.4743 123.361 83.9507C120.473 80.2549 116.037 77.8496 111.014 77.8496C107.695 77.8496 104.624 78.9041 102.091 80.6887C99.0743 77.9289 95.0704 76.2363 90.6662 76.2363C81.2046 76.2363 73.6156 84.0208 73.6137 93.517Z" fill="#139CD8" stroke="white" stroke-width="6"/>
<path d="M82.2114 105.962C82.1659 106.082 82.2276 106.107 82.2422 106.128C82.3785 106.229 82.5148 106.302 82.6543 106.383C83.3926 106.781 84.0902 106.896 84.8187 106.896C86.3033 106.896 87.2249 106.094 87.2249 104.801V104.776C87.2249 103.581 86.1833 103.145 85.2081 102.831L85.08 102.79C84.3433 102.547 83.7089 102.336 83.7089 101.843V101.819C83.7089 101.396 84.0805 101.086 84.6549 101.086C85.2941 101.086 86.0518 101.302 86.5402 101.578C86.5402 101.578 86.6846 101.672 86.7365 101.53C86.7658 101.452 87.0124 100.777 87.0383 100.702C87.0659 100.623 87.0172 100.564 86.9653 100.532C86.4072 100.187 85.6365 99.9512 84.8382 99.9512L84.6906 99.9528C83.3309 99.9528 82.3834 100.788 82.3834 101.985V102.01C82.3834 103.27 83.4299 103.681 84.4099 103.965L84.5673 104.015C85.2812 104.238 85.8977 104.431 85.8977 104.941V104.968C85.8977 105.435 85.497 105.783 84.8528 105.783C84.6013 105.783 83.8031 105.778 82.9415 105.223C82.8377 105.161 82.7776 105.116 82.6965 105.067C82.6543 105.04 82.5472 104.992 82.5002 105.134L82.2114 105.962Z" fill="white"/>
<path d="M103.938 105.962C103.893 106.082 103.955 106.107 103.969 106.128C104.105 106.229 104.242 106.302 104.381 106.383C105.12 106.781 105.817 106.896 106.546 106.896C108.03 106.896 108.952 106.094 108.952 104.801V104.776C108.952 103.581 107.91 103.145 106.935 102.831L106.807 102.79C106.07 102.547 105.436 102.336 105.436 101.843V101.819C105.436 101.396 105.807 101.086 106.382 101.086C107.021 101.086 107.779 101.302 108.267 101.578C108.267 101.578 108.412 101.672 108.464 101.53C108.493 101.452 108.739 100.777 108.765 100.702C108.793 100.623 108.744 100.564 108.692 100.532C108.134 100.187 107.363 99.9512 106.565 99.9512L106.418 99.9528C105.058 99.9528 104.11 100.788 104.11 101.985V102.01C104.11 103.27 105.158 103.681 106.137 103.965L106.294 104.015C107.008 104.238 107.626 104.431 107.626 104.941V104.968C107.626 105.435 107.226 105.783 106.58 105.783C106.328 105.783 105.532 105.778 104.668 105.223C104.565 105.161 104.503 105.118 104.423 105.067C104.398 105.05 104.271 104.999 104.229 105.134L103.938 105.962Z" fill="white"/>
<path d="M120.009 102.075C119.888 101.655 119.698 101.287 119.446 100.98C119.195 100.671 118.874 100.423 118.494 100.243C118.116 100.063 117.668 99.9727 117.167 99.9727C116.664 99.9727 116.216 100.065 115.838 100.243C115.46 100.423 115.139 100.671 114.887 100.98C114.634 101.287 114.444 101.657 114.324 102.075C114.202 102.491 114.141 102.946 114.141 103.429C114.141 103.911 114.202 104.368 114.324 104.784C114.446 105.202 114.634 105.57 114.887 105.879C115.139 106.188 115.46 106.434 115.84 106.609C116.218 106.784 116.665 106.873 117.168 106.873C117.67 106.873 118.116 106.784 118.496 106.609C118.874 106.434 119.195 106.186 119.448 105.879C119.699 105.572 119.891 105.202 120.011 104.784C120.133 104.368 120.194 103.912 120.194 103.429C120.193 102.946 120.131 102.491 120.009 102.075ZM118.771 103.429C118.771 104.158 118.637 104.736 118.374 105.143C118.113 105.545 117.718 105.742 117.168 105.742C116.618 105.742 116.226 105.545 115.968 105.143C115.706 104.736 115.575 104.158 115.575 103.429C115.575 102.699 115.706 102.124 115.966 101.721C116.224 101.323 116.617 101.129 117.168 101.129C117.718 101.129 118.113 101.322 118.374 101.721C118.637 102.124 118.771 102.7 118.771 103.429Z" fill="white"/>
<path fill-rule="evenodd" clip-rule="evenodd" d="M130.182 105.546C130.142 105.424 130.023 105.47 130.023 105.47C129.843 105.541 129.652 105.604 129.447 105.637C129.241 105.67 129.014 105.686 128.769 105.686C128.171 105.686 127.694 105.505 127.351 105.146C127.01 104.786 126.817 104.207 126.819 103.422C126.821 102.709 126.991 102.173 127.294 101.763C127.596 101.357 128.057 101.147 128.669 101.147C129.18 101.147 129.569 101.208 129.978 101.337C129.978 101.337 130.075 101.38 130.121 101.251C130.231 100.944 130.311 100.726 130.426 100.389C130.458 100.293 130.379 100.252 130.348 100.241C130.187 100.176 129.809 100.072 129.522 100.028C129.256 99.9863 128.941 99.9648 128.592 99.9648C128.073 99.9648 127.609 100.056 127.212 100.236C126.816 100.414 126.48 100.662 126.214 100.97C125.948 101.279 125.747 101.647 125.612 102.065C125.477 102.481 125.409 102.939 125.409 103.422C125.409 104.468 125.685 105.313 126.233 105.931C126.782 106.553 127.604 106.869 128.678 106.869C129.313 106.869 129.963 106.738 130.432 106.55C130.432 106.55 130.522 106.505 130.483 106.4L130.182 105.546Z" fill="white"/>
<path fill-rule="evenodd" clip-rule="evenodd" d="M136.52 101.837C136.415 101.432 136.155 101.024 135.985 100.838C135.715 100.541 135.449 100.334 135.188 100.22C134.847 100.072 134.437 99.9727 133.986 99.9727C133.463 99.9727 132.988 100.062 132.602 100.247C132.215 100.43 131.891 100.683 131.636 100.996C131.381 101.308 131.19 101.682 131.068 102.104C130.947 102.524 130.885 102.981 130.885 103.465C130.885 103.957 130.948 104.416 131.075 104.827C131.203 105.243 131.406 105.608 131.682 105.912C131.957 106.218 132.313 106.455 132.736 106.624C133.158 106.789 133.671 106.876 134.258 106.873C135.469 106.87 136.108 106.596 136.371 106.447C136.418 106.421 136.462 106.374 136.406 106.242L136.131 105.461C136.088 105.346 135.973 105.387 135.973 105.387C135.673 105.501 135.246 105.704 134.252 105.702C133.601 105.701 133.119 105.506 132.817 105.2C132.508 104.888 132.355 104.429 132.329 103.782L136.522 103.785C136.522 103.785 136.632 103.784 136.643 103.673C136.65 103.628 136.789 102.798 136.52 101.837ZM132.35 102.729C132.41 102.322 132.519 101.985 132.689 101.723C132.946 101.323 133.337 101.102 133.888 101.102C134.438 101.102 134.802 101.323 135.063 101.723C135.237 101.987 135.311 102.337 135.342 102.73L132.35 102.729Z" fill="white"/>
<path fill-rule="evenodd" clip-rule="evenodd" d="M102.936 101.837C102.83 101.432 102.571 101.024 102.4 100.838C102.131 100.541 101.866 100.334 101.604 100.22C101.261 100.072 100.852 99.9727 100.403 99.9727C99.8788 99.9727 99.4034 100.062 99.0173 100.247C98.6311 100.43 98.3066 100.683 98.0519 100.996C97.7971 101.308 97.6057 101.682 97.484 102.104C97.3623 102.524 97.3007 102.981 97.3007 103.465C97.3007 103.957 97.3639 104.416 97.4905 104.827C97.6187 105.243 97.8215 105.608 98.0973 105.912C98.3731 106.218 98.7285 106.455 99.1519 106.624C99.5738 106.789 100.087 106.876 100.674 106.873C101.884 106.87 102.524 106.596 102.786 106.447C102.833 106.421 102.877 106.374 102.822 106.242L102.546 105.461C102.504 105.346 102.389 105.387 102.389 105.387C102.089 105.501 101.662 105.704 100.667 105.702C100.018 105.701 99.5349 105.506 99.2331 105.2C98.9232 104.888 98.7707 104.429 98.7447 103.782L102.937 103.785C102.937 103.785 103.048 103.784 103.059 103.673C103.065 103.628 103.205 102.798 102.936 101.837ZM98.7658 102.729C98.8258 102.322 98.9345 101.985 99.1033 101.723C99.3612 101.323 99.7523 101.102 100.302 101.102C100.852 101.102 101.217 101.323 101.479 101.723C101.651 101.987 101.727 102.337 101.756 102.73L98.7658 102.729Z" fill="white"/>
<path d="M91.3688 102.526C91.1985 102.513 90.9778 102.506 90.715 102.506C90.3548 102.506 90.0076 102.552 89.6814 102.641C89.3537 102.731 89.06 102.869 88.8069 103.054C88.5522 103.241 88.3477 103.477 88.1985 103.759C88.0492 104.04 87.9745 104.372 87.9745 104.742C87.9745 105.12 88.0378 105.449 88.1676 105.716C88.2958 105.985 88.4791 106.211 88.7144 106.383C88.9481 106.556 89.2352 106.684 89.5679 106.76C89.8972 106.837 90.2704 106.875 90.6793 106.875C91.1092 106.875 91.5376 106.839 91.9529 106.766C92.3651 106.695 92.868 106.591 93.0092 106.558C93.1487 106.525 93.3029 106.482 93.3029 106.482C93.4067 106.456 93.3986 106.342 93.3986 106.342L93.397 102.44C93.397 101.583 93.1731 100.949 92.7317 100.554C92.292 100.163 91.643 99.9648 90.8042 99.9648C90.4894 99.9648 89.9848 100.008 89.6798 100.071C89.6798 100.071 88.7647 100.251 88.3883 100.553C88.3883 100.553 88.3055 100.604 88.3493 100.723L88.6463 101.535C88.6836 101.641 88.7842 101.604 88.7842 101.604C88.7842 101.604 88.8166 101.591 88.8539 101.568C89.6603 101.122 90.6809 101.136 90.6809 101.136C91.1336 101.136 91.4824 101.23 91.7177 101.411C91.9464 101.591 92.0616 101.859 92.0616 102.428V102.608C91.7014 102.556 91.3688 102.526 91.3688 102.526ZM89.7009 105.524C89.5354 105.391 89.5143 105.358 89.4591 105.272C89.3748 105.141 89.3326 104.955 89.3326 104.717C89.3326 104.342 89.4543 104.071 89.7074 103.891C89.7058 103.891 90.0692 103.571 90.9243 103.583C91.5246 103.591 92.0633 103.682 92.0633 103.682V105.622C92.0633 105.622 91.5311 105.737 90.9308 105.774C90.0773 105.825 89.6977 105.523 89.7009 105.524Z" fill="white"/>
<path fill-rule="evenodd" clip-rule="evenodd" d="M125.193 100.326C125.226 100.23 125.158 100.184 125.13 100.172C125.059 100.146 124.702 100.068 124.427 100.05C123.9 100.017 123.608 100.108 123.345 100.226C123.084 100.345 122.797 100.539 122.638 100.758L122.636 100.238C122.636 100.167 122.586 100.109 122.516 100.109H121.44C121.371 100.109 121.32 100.167 121.32 100.238V106.605C121.32 106.676 121.377 106.734 121.448 106.734H122.55C122.62 106.734 122.677 106.676 122.677 106.605V103.425C122.677 102.997 122.724 102.573 122.816 102.305C122.907 102.04 123.03 101.83 123.183 101.678C123.335 101.526 123.511 101.42 123.702 101.361C123.897 101.3 124.113 101.28 124.264 101.28C124.484 101.28 124.724 101.338 124.724 101.338C124.805 101.346 124.851 101.295 124.878 101.222C124.95 101.026 125.154 100.441 125.193 100.326Z" fill="white"/>
<path fill-rule="evenodd" clip-rule="evenodd" d="M114.851 97.3758C114.717 97.3328 114.597 97.3048 114.436 97.2767C114.274 97.247 114.082 97.2305 113.867 97.2305C113.109 97.2305 112.51 97.4484 112.092 97.8794C111.675 98.3071 111.391 98.9576 111.248 99.8146L111.197 100.104H110.245C110.245 100.104 110.128 100.099 110.104 100.227L109.948 101.114C109.937 101.198 109.973 101.251 110.084 101.251H111.011L110.07 106.593C109.997 107.022 109.912 107.376 109.818 107.645C109.728 107.911 109.637 108.107 109.526 108.252C109.419 108.391 109.319 108.495 109.142 108.554C108.997 108.602 108.83 108.625 108.649 108.625C108.548 108.625 108.413 108.609 108.313 108.588C108.212 108.568 108.16 108.545 108.086 108.513C108.086 108.513 107.977 108.47 107.933 108.581C107.899 108.672 107.652 109.364 107.623 109.449C107.594 109.534 107.634 109.6 107.688 109.62C107.811 109.664 107.902 109.694 108.071 109.733C108.305 109.79 108.501 109.793 108.686 109.793C109.072 109.793 109.424 109.738 109.715 109.631C110.008 109.522 110.263 109.334 110.49 109.081C110.733 108.807 110.888 108.518 111.035 108.125C111.181 107.737 111.305 107.253 111.404 106.692L112.348 101.251H113.729C113.729 101.251 113.845 101.256 113.87 101.127L114.026 100.241C114.037 100.156 114.001 100.104 113.889 100.104H112.549C112.556 100.074 112.616 99.5934 112.77 99.1409C112.836 98.9477 112.96 98.7925 113.065 98.6852C113.167 98.5795 113.286 98.5052 113.415 98.4623C113.549 98.4193 113.699 98.3979 113.865 98.3979C113.991 98.3979 114.115 98.4127 114.209 98.4326C114.339 98.4606 114.389 98.4755 114.423 98.4854C114.559 98.5283 114.577 98.487 114.605 98.421L114.924 97.5244C114.962 97.4286 114.881 97.3873 114.851 97.3758Z" fill="white"/>
<path fill-rule="evenodd" clip-rule="evenodd" d="M96.1162 106.606C96.1162 106.677 96.0659 106.736 95.9962 106.736H94.8831C94.8134 106.736 94.7631 106.679 94.7631 106.606V97.4979C94.7631 97.4269 94.8134 97.3691 94.8831 97.3691H95.9962C96.0659 97.3691 96.1162 97.4269 96.1162 97.4979V106.606Z" fill="white"/>
<defs>
<filter id="filter0_d_1905_79182" x="23.0295" y="22.6016" width="169.312" height="165.346" filterUnits="userSpaceOnUse" color-interpolation-filters="sRGB">
<feFlood flood-opacity="0" result="BackgroundImageFix"/>
<feColorMatrix in="SourceAlpha" type="matrix" values="0 0 0 0 0 0 0 0 0 0 0 0 0 0 0 0 0 0 127 0" result="hardAlpha"/>
<feOffset/>
<feGaussianBlur stdDeviation="12"/>
<feComposite in2="hardAlpha" operator="out"/>
<feColorMatrix type="matrix" values="0 0 0 0 0.1925 0 0 0 0 0.6 0 0 0 0 0.431685 0 0 0 0.25 0"/>
<feBlend mode="normal" in2="BackgroundImageFix" result="effect1_dropShadow_1905_79182"/>
<feBlend mode="normal" in="SourceGraphic" in2="effect1_dropShadow_1905_79182" result="shape"/>
</filter>
</defs>
</svg>
