<svg width="216" height="209" viewBox="0 0 216 209" fill="none" xmlns="http://www.w3.org/2000/svg">
<g filter="url(#filter0_d_1905_79109)">
<path d="M161.586 78.4923C161.555 78.3884 161.517 78.2863 161.473 78.1867C161.403 78.0061 161.318 77.8255 161.234 77.6588C161.165 77.5522 161.09 77.4502 161.008 77.3532C160.901 77.2054 160.784 77.066 160.655 76.9365L160.345 76.6864L160.048 76.4641L159.893 76.3947C159.858 76.3578 159.814 76.3292 159.766 76.3113L118.563 56.0293C115.284 54.4323 111.674 53.6016 108.016 53.6016C104.357 53.6016 100.747 54.4323 97.468 56.0293L56.3076 76.2974L56.1806 76.3808L56.0254 76.4503L55.7573 76.6864C55.6585 76.7698 55.5315 76.8531 55.4468 76.9365C55.3183 77.066 55.2003 77.2054 55.0941 77.3532C55.0077 77.4467 54.932 77.5492 54.8683 77.6588C54.7683 77.8253 54.6878 78.0024 54.6284 78.1867C54.6284 78.2979 54.5296 78.3812 54.5014 78.4923C54.4176 78.8052 54.3749 79.1273 54.3744 79.4509V113.527C54.351 118.756 55.8166 123.885 58.6051 128.335C61.3936 132.784 65.3933 136.375 70.15 138.699L106.442 156.564C106.579 156.626 106.721 156.677 106.866 156.717L107.134 156.814C107.425 156.884 107.723 156.926 108.023 156.939C108.322 156.925 108.62 156.883 108.912 156.814L109.18 156.717C109.325 156.678 109.467 156.627 109.603 156.564L145.895 138.699C150.654 136.376 154.655 132.785 157.446 128.336C160.237 123.887 161.706 118.757 161.685 113.527V79.4092C161.694 79.1006 161.66 78.7923 161.586 78.4923Z" fill="white"/>
<path d="M164.984 77.6522L164.962 77.5636L164.936 77.4762C164.871 77.2639 164.795 77.0551 164.709 76.8507C164.591 76.5557 164.463 76.2892 164.354 76.074L164.274 75.9165L164.179 75.7679C164.053 75.5718 163.916 75.3829 163.77 75.2021C163.577 74.9442 163.367 74.7002 163.14 74.4716L163.002 74.3331L162.851 74.2108L162.54 73.9607L162.493 73.9228L162.445 73.8865L162.148 73.6643L161.835 73.4294L161.605 73.3263C161.486 73.256 161.364 73.1922 161.238 73.135L120.109 52.8892L120.102 52.8859L120.096 52.8826C116.337 51.0524 112.204 50.1016 108.016 50.1016C103.828 50.1016 99.694 51.0524 95.9357 52.8826L95.9287 52.886L95.9218 52.8894L54.7614 73.1575L54.5676 73.2529L54.4947 73.3007L54.1106 73.4726L53.7119 73.8239L53.5132 73.9989L53.4751 74.0278C53.4372 74.0567 53.3701 74.1081 53.2949 74.1699C53.2205 74.2311 53.1116 74.324 52.9914 74.4423L52.9766 74.4569L52.962 74.4716C52.749 74.6863 52.5502 74.9146 52.3669 75.1553C52.1768 75.3806 52.0058 75.6219 51.8559 75.8769C51.6522 76.2189 51.4828 76.5803 51.3502 76.9561C51.2757 77.1157 51.1873 77.3338 51.1177 77.5976C50.9572 78.2005 50.8753 78.8216 50.8744 79.4458V79.4509V113.52C50.8495 119.411 52.502 125.187 55.6394 130.193C58.7774 135.2 63.2731 139.234 68.6105 141.843C68.6114 141.843 68.6124 141.844 68.6133 141.844L104.897 159.704L104.952 159.732L105.009 159.757C105.258 159.869 105.514 159.965 105.775 160.044L105.94 160.105L106.126 160.172L106.319 160.218C106.827 160.34 107.345 160.413 107.867 160.436L108.029 160.443L108.19 160.435C108.704 160.411 109.214 160.339 109.715 160.221L109.913 160.174L110.105 160.105L110.258 160.049C110.537 159.966 110.809 159.863 111.073 159.741L111.111 159.723L111.149 159.704L147.431 141.844C147.433 141.844 147.435 141.843 147.436 141.842C152.774 139.234 157.271 135.202 160.411 130.196C163.551 125.19 165.207 119.414 165.185 113.522V79.4496C165.197 78.8442 165.129 78.24 164.984 77.6522Z" stroke="white" stroke-width="7"/>
</g>
<mask id="path-3-outside-1_1905_79109" maskUnits="userSpaceOnUse" x="47.2378" y="46.4688" width="122" height="118" fill="black">
<rect fill="white" x="47.2378" y="46.4688" width="122" height="118"/>
<path d="M161.45 78.3595C161.418 78.2556 161.381 78.1535 161.337 78.0539C161.266 77.8733 161.182 77.6927 161.097 77.526C161.029 77.4194 160.953 77.3173 160.871 77.2204C160.765 77.0726 160.647 76.9332 160.519 76.8037L160.208 76.5536L159.912 76.3313L159.757 76.2619C159.721 76.2249 159.678 76.1964 159.63 76.1785L118.427 55.8965C115.147 54.2995 111.538 53.4687 107.879 53.4688C104.221 53.4688 100.611 54.2995 97.3316 55.8965L56.1712 76.1646L56.0442 76.248L55.889 76.3174L55.6209 76.5536C55.5221 76.637 55.3951 76.7203 55.3105 76.8037C55.1819 76.9332 55.064 77.0726 54.9577 77.2204C54.8714 77.3139 54.7957 77.4164 54.7319 77.526C54.632 77.6925 54.5515 77.8696 54.4921 78.0539C54.4921 78.165 54.3933 78.2484 54.3651 78.3595C54.2812 78.6724 54.2385 78.9945 54.2381 79.3181V113.395C54.2146 118.623 55.6803 123.753 58.4688 128.202C61.2573 132.651 65.2569 136.242 70.0137 138.567L106.306 156.431C106.443 156.493 106.584 156.544 106.729 156.584L106.997 156.681C107.289 156.751 107.587 156.793 107.886 156.806C108.186 156.792 108.484 156.75 108.775 156.681L109.043 156.584C109.189 156.546 109.33 156.494 109.467 156.431L145.759 138.567C150.517 136.243 154.519 132.653 157.31 128.203C160.101 123.754 161.569 118.624 161.549 113.395V79.2764C161.557 78.9678 161.524 78.6595 161.45 78.3595ZM100.492 62.12C102.79 60.9965 105.321 60.4119 107.886 60.4119C110.452 60.4119 112.983 60.9965 115.28 62.12L150.161 79.2764L120.148 94.0295L115.252 96.4328C112.957 97.5561 110.428 98.1407 107.865 98.1407C105.302 98.1407 102.774 97.5561 100.478 96.4328L95.5819 94.0295L72.2713 82.541L74.6842 82.7632C77.5024 82.9716 80.3324 82.9716 83.1506 82.7632C85.9727 82.5271 88.7948 82.2631 91.6169 82.0964C97.2611 81.8186 102.905 81.4759 108.55 81.0684C114.194 80.5961 119.838 80.221 125.482 79.6793C125.563 79.6674 125.637 79.6296 125.693 79.5717C125.749 79.5139 125.784 79.4393 125.793 79.3597C125.801 79.2698 125.773 79.1803 125.715 79.1102C125.657 79.0402 125.573 78.9952 125.482 78.9847C119.838 78.429 114.194 78.0122 108.55 77.5955C102.905 77.1787 97.2611 76.7898 91.6169 76.5119C88.7948 76.3591 85.9727 76.0813 83.1506 75.8451C80.3324 75.6368 77.5024 75.6368 74.6842 75.8451C73.8799 75.8451 73.0615 75.9979 72.2713 76.0674L100.492 62.12ZM61.2651 113.395V84.9165L92.4494 100.309C96.0182 102.057 99.02 104.753 101.117 108.091C103.213 111.429 104.321 115.277 104.316 119.201V142.748C103.653 141.359 102.905 140.039 102.214 138.705C100.969 136.484 99.5438 134.366 97.9525 132.371C96.3157 130.398 94.6648 128.439 93.0703 126.411C89.9942 122.355 86.8522 118.331 83.6444 114.339C80.3708 110.366 77.21 106.351 73.8658 102.434C73.8141 102.372 73.7431 102.33 73.664 102.312C73.5848 102.294 73.502 102.303 73.4284 102.337C73.3449 102.384 73.2834 102.461 73.257 102.552C73.2306 102.642 73.2415 102.74 73.2873 102.823C75.672 107.352 78.2119 111.783 80.6812 116.298C83.1506 120.813 85.761 125.161 88.3856 129.551C89.6978 131.746 90.8831 134.01 92.1108 136.288C93.3371 138.523 94.7532 140.651 96.3439 142.651C96.8801 143.331 97.4586 144.04 98.0372 144.651L73.1744 132.371C69.5806 130.627 66.5579 127.922 64.4518 124.566C62.3458 121.211 61.2415 117.339 61.2651 113.395ZM142.598 132.371L111.428 147.777V119.201C111.415 115.263 112.526 111.4 114.634 108.052C116.742 104.705 119.763 102.007 123.351 100.267L138.506 92.7792L148.285 87.9588C147.622 88.7228 146.973 89.4869 146.338 90.2787C144.7 92.3213 143.232 94.4908 141.949 96.7662C140.693 99.0583 139.466 101.364 138.125 103.615C135.454 108.097 132.824 112.607 130.237 117.145C127.726 121.73 125.115 126.258 122.632 130.871C122.582 130.949 122.565 131.043 122.583 131.133C122.601 131.223 122.654 131.303 122.731 131.357C122.769 131.383 122.813 131.401 122.859 131.41C122.905 131.419 122.952 131.419 122.998 131.41C123.044 131.401 123.088 131.383 123.127 131.357C123.166 131.331 123.199 131.298 123.224 131.259C126.611 127.259 129.856 123.147 133.102 119.09C136.347 115.034 139.593 110.88 142.768 106.727C144.348 104.643 146.041 102.642 147.65 100.614C149.304 98.5875 150.782 96.4265 152.066 94.1545C152.885 92.7653 153.633 91.2789 154.366 89.7508V113.367C154.405 117.301 153.323 121.167 151.243 124.526C149.163 127.885 146.168 130.603 142.598 132.371Z"/>
</mask>
<path d="M161.45 78.3595C161.418 78.2556 161.381 78.1535 161.337 78.0539C161.266 77.8733 161.182 77.6927 161.097 77.526C161.029 77.4194 160.953 77.3173 160.871 77.2204C160.765 77.0726 160.647 76.9332 160.519 76.8037L160.208 76.5536L159.912 76.3313L159.757 76.2619C159.721 76.2249 159.678 76.1964 159.63 76.1785L118.427 55.8965C115.147 54.2995 111.538 53.4687 107.879 53.4688C104.221 53.4688 100.611 54.2995 97.3316 55.8965L56.1712 76.1646L56.0442 76.248L55.889 76.3174L55.6209 76.5536C55.5221 76.637 55.3951 76.7203 55.3105 76.8037C55.1819 76.9332 55.064 77.0726 54.9577 77.2204C54.8714 77.3139 54.7957 77.4164 54.7319 77.526C54.632 77.6925 54.5515 77.8696 54.4921 78.0539C54.4921 78.165 54.3933 78.2484 54.3651 78.3595C54.2812 78.6724 54.2385 78.9945 54.2381 79.3181V113.395C54.2146 118.623 55.6803 123.753 58.4688 128.202C61.2573 132.651 65.2569 136.242 70.0137 138.567L106.306 156.431C106.443 156.493 106.584 156.544 106.729 156.584L106.997 156.681C107.289 156.751 107.587 156.793 107.886 156.806C108.186 156.792 108.484 156.75 108.775 156.681L109.043 156.584C109.189 156.546 109.33 156.494 109.467 156.431L145.759 138.567C150.517 136.243 154.519 132.653 157.31 128.203C160.101 123.754 161.569 118.624 161.549 113.395V79.2764C161.557 78.9678 161.524 78.6595 161.45 78.3595ZM100.492 62.12C102.79 60.9965 105.321 60.4119 107.886 60.4119C110.452 60.4119 112.983 60.9965 115.28 62.12L150.161 79.2764L120.148 94.0295L115.252 96.4328C112.957 97.5561 110.428 98.1407 107.865 98.1407C105.302 98.1407 102.774 97.5561 100.478 96.4328L95.5819 94.0295L72.2713 82.541L74.6842 82.7632C77.5024 82.9716 80.3324 82.9716 83.1506 82.7632C85.9727 82.5271 88.7948 82.2631 91.6169 82.0964C97.2611 81.8186 102.905 81.4759 108.55 81.0684C114.194 80.5961 119.838 80.221 125.482 79.6793C125.563 79.6674 125.637 79.6296 125.693 79.5717C125.749 79.5139 125.784 79.4393 125.793 79.3597C125.801 79.2698 125.773 79.1803 125.715 79.1102C125.657 79.0402 125.573 78.9952 125.482 78.9847C119.838 78.429 114.194 78.0122 108.55 77.5955C102.905 77.1787 97.2611 76.7898 91.6169 76.5119C88.7948 76.3591 85.9727 76.0813 83.1506 75.8451C80.3324 75.6368 77.5024 75.6368 74.6842 75.8451C73.8799 75.8451 73.0615 75.9979 72.2713 76.0674L100.492 62.12ZM61.2651 113.395V84.9165L92.4494 100.309C96.0182 102.057 99.02 104.753 101.117 108.091C103.213 111.429 104.321 115.277 104.316 119.201V142.748C103.653 141.359 102.905 140.039 102.214 138.705C100.969 136.484 99.5438 134.366 97.9525 132.371C96.3157 130.398 94.6648 128.439 93.0703 126.411C89.9942 122.355 86.8522 118.331 83.6444 114.339C80.3708 110.366 77.21 106.351 73.8658 102.434C73.8141 102.372 73.7431 102.33 73.664 102.312C73.5848 102.294 73.502 102.303 73.4284 102.337C73.3449 102.384 73.2834 102.461 73.257 102.552C73.2306 102.642 73.2415 102.74 73.2873 102.823C75.672 107.352 78.2119 111.783 80.6812 116.298C83.1506 120.813 85.761 125.161 88.3856 129.551C89.6978 131.746 90.8831 134.01 92.1108 136.288C93.3371 138.523 94.7532 140.651 96.3439 142.651C96.8801 143.331 97.4586 144.04 98.0372 144.651L73.1744 132.371C69.5806 130.627 66.5579 127.922 64.4518 124.566C62.3458 121.211 61.2415 117.339 61.2651 113.395ZM142.598 132.371L111.428 147.777V119.201C111.415 115.263 112.526 111.4 114.634 108.052C116.742 104.705 119.763 102.007 123.351 100.267L138.506 92.7792L148.285 87.9588C147.622 88.7228 146.973 89.4869 146.338 90.2787C144.7 92.3213 143.232 94.4908 141.949 96.7662C140.693 99.0583 139.466 101.364 138.125 103.615C135.454 108.097 132.824 112.607 130.237 117.145C127.726 121.73 125.115 126.258 122.632 130.871C122.582 130.949 122.565 131.043 122.583 131.133C122.601 131.223 122.654 131.303 122.731 131.357C122.769 131.383 122.813 131.401 122.859 131.41C122.905 131.419 122.952 131.419 122.998 131.41C123.044 131.401 123.088 131.383 123.127 131.357C123.166 131.331 123.199 131.298 123.224 131.259C126.611 127.259 129.856 123.147 133.102 119.09C136.347 115.034 139.593 110.88 142.768 106.727C144.348 104.643 146.041 102.642 147.65 100.614C149.304 98.5875 150.782 96.4265 152.066 94.1545C152.885 92.7653 153.633 91.2789 154.366 89.7508V113.367C154.405 117.301 153.323 121.167 151.243 124.526C149.163 127.885 146.168 130.603 142.598 132.371Z" fill="#49A57F"/>
<path d="M161.45 78.3595C161.418 78.2556 161.381 78.1535 161.337 78.0539C161.266 77.8733 161.182 77.6927 161.097 77.526C161.029 77.4194 160.953 77.3173 160.871 77.2204C160.765 77.0726 160.647 76.9332 160.519 76.8037L160.208 76.5536L159.912 76.3313L159.757 76.2619C159.721 76.2249 159.678 76.1964 159.63 76.1785L118.427 55.8965C115.147 54.2995 111.538 53.4687 107.879 53.4688C104.221 53.4688 100.611 54.2995 97.3316 55.8965L56.1712 76.1646L56.0442 76.248L55.889 76.3174L55.6209 76.5536C55.5221 76.637 55.3951 76.7203 55.3105 76.8037C55.1819 76.9332 55.064 77.0726 54.9577 77.2204C54.8714 77.3139 54.7957 77.4164 54.7319 77.526C54.632 77.6925 54.5515 77.8696 54.4921 78.0539C54.4921 78.165 54.3933 78.2484 54.3651 78.3595C54.2812 78.6724 54.2385 78.9945 54.2381 79.3181V113.395C54.2146 118.623 55.6803 123.753 58.4688 128.202C61.2573 132.651 65.2569 136.242 70.0137 138.567L106.306 156.431C106.443 156.493 106.584 156.544 106.729 156.584L106.997 156.681C107.289 156.751 107.587 156.793 107.886 156.806C108.186 156.792 108.484 156.75 108.775 156.681L109.043 156.584C109.189 156.546 109.33 156.494 109.467 156.431L145.759 138.567C150.517 136.243 154.519 132.653 157.31 128.203C160.101 123.754 161.569 118.624 161.549 113.395V79.2764C161.557 78.9678 161.524 78.6595 161.45 78.3595ZM100.492 62.12C102.79 60.9965 105.321 60.4119 107.886 60.4119C110.452 60.4119 112.983 60.9965 115.28 62.12L150.161 79.2764L120.148 94.0295L115.252 96.4328C112.957 97.5561 110.428 98.1407 107.865 98.1407C105.302 98.1407 102.774 97.5561 100.478 96.4328L95.5819 94.0295L72.2713 82.541L74.6842 82.7632C77.5024 82.9716 80.3324 82.9716 83.1506 82.7632C85.9727 82.5271 88.7948 82.2631 91.6169 82.0964C97.2611 81.8186 102.905 81.4759 108.55 81.0684C114.194 80.5961 119.838 80.221 125.482 79.6793C125.563 79.6674 125.637 79.6296 125.693 79.5717C125.749 79.5139 125.784 79.4393 125.793 79.3597C125.801 79.2698 125.773 79.1803 125.715 79.1102C125.657 79.0402 125.573 78.9952 125.482 78.9847C119.838 78.429 114.194 78.0122 108.55 77.5955C102.905 77.1787 97.2611 76.7898 91.6169 76.5119C88.7948 76.3591 85.9727 76.0813 83.1506 75.8451C80.3324 75.6368 77.5024 75.6368 74.6842 75.8451C73.8799 75.8451 73.0615 75.9979 72.2713 76.0674L100.492 62.12ZM61.2651 113.395V84.9165L92.4494 100.309C96.0182 102.057 99.02 104.753 101.117 108.091C103.213 111.429 104.321 115.277 104.316 119.201V142.748C103.653 141.359 102.905 140.039 102.214 138.705C100.969 136.484 99.5438 134.366 97.9525 132.371C96.3157 130.398 94.6648 128.439 93.0703 126.411C89.9942 122.355 86.8522 118.331 83.6444 114.339C80.3708 110.366 77.21 106.351 73.8658 102.434C73.8141 102.372 73.7431 102.33 73.664 102.312C73.5848 102.294 73.502 102.303 73.4284 102.337C73.3449 102.384 73.2834 102.461 73.257 102.552C73.2306 102.642 73.2415 102.74 73.2873 102.823C75.672 107.352 78.2119 111.783 80.6812 116.298C83.1506 120.813 85.761 125.161 88.3856 129.551C89.6978 131.746 90.8831 134.01 92.1108 136.288C93.3371 138.523 94.7532 140.651 96.3439 142.651C96.8801 143.331 97.4586 144.04 98.0372 144.651L73.1744 132.371C69.5806 130.627 66.5579 127.922 64.4518 124.566C62.3458 121.211 61.2415 117.339 61.2651 113.395ZM142.598 132.371L111.428 147.777V119.201C111.415 115.263 112.526 111.4 114.634 108.052C116.742 104.705 119.763 102.007 123.351 100.267L138.506 92.7792L148.285 87.9588C147.622 88.7228 146.973 89.4869 146.338 90.2787C144.7 92.3213 143.232 94.4908 141.949 96.7662C140.693 99.0583 139.466 101.364 138.125 103.615C135.454 108.097 132.824 112.607 130.237 117.145C127.726 121.73 125.115 126.258 122.632 130.871C122.582 130.949 122.565 131.043 122.583 131.133C122.601 131.223 122.654 131.303 122.731 131.357C122.769 131.383 122.813 131.401 122.859 131.41C122.905 131.419 122.952 131.419 122.998 131.41C123.044 131.401 123.088 131.383 123.127 131.357C123.166 131.331 123.199 131.298 123.224 131.259C126.611 127.259 129.856 123.147 133.102 119.09C136.347 115.034 139.593 110.88 142.768 106.727C144.348 104.643 146.041 102.642 147.65 100.614C149.304 98.5875 150.782 96.4265 152.066 94.1545C152.885 92.7653 153.633 91.2789 154.366 89.7508V113.367C154.405 117.301 153.323 121.167 151.243 124.526C149.163 127.885 146.168 130.603 142.598 132.371Z" stroke="white" stroke-width="14" mask="url(#path-3-outside-1_1905_79109)"/>
<defs>
<filter id="filter0_d_1905_79109" x="23.3741" y="22.6016" width="169.312" height="165.346" filterUnits="userSpaceOnUse" color-interpolation-filters="sRGB">
<feFlood flood-opacity="0" result="BackgroundImageFix"/>
<feColorMatrix in="SourceAlpha" type="matrix" values="0 0 0 0 0 0 0 0 0 0 0 0 0 0 0 0 0 0 127 0" result="hardAlpha"/>
<feOffset/>
<feGaussianBlur stdDeviation="12"/>
<feComposite in2="hardAlpha" operator="out"/>
<feColorMatrix type="matrix" values="0 0 0 0 0.1925 0 0 0 0 0.6 0 0 0 0 0.431685 0 0 0 0.25 0"/>
<feBlend mode="normal" in2="BackgroundImageFix" result="effect1_dropShadow_1905_79109"/>
<feBlend mode="normal" in="SourceGraphic" in2="effect1_dropShadow_1905_79109" result="shape"/>
</filter>
</defs>
</svg>
