<svg width="215" height="208" viewBox="0 0 215 208" fill="none" xmlns="http://www.w3.org/2000/svg">
<g filter="url(#filter0_d_2026_78469)">
<path d="M160.868 77.5529C160.837 77.4489 160.799 77.3469 160.756 77.2473C160.685 77.0667 160.6 76.8861 160.516 76.7194C160.447 76.6128 160.372 76.5107 160.29 76.4138C160.184 76.2659 160.066 76.1266 159.937 75.997L159.627 75.747L159.33 75.5247L159.175 75.4552C159.14 75.4183 159.096 75.3898 159.048 75.3719L117.845 55.0899C114.566 53.4929 110.956 52.6621 107.298 52.6621C103.639 52.6621 100.03 53.4929 96.7501 55.0899L55.5897 75.358L55.4627 75.4413L55.3075 75.5108L55.0394 75.747C54.9406 75.8303 54.8136 75.9137 54.7289 75.997C54.6004 76.1266 54.4824 76.2659 54.3762 76.4138C54.2898 76.5073 54.2141 76.6097 54.1504 76.7194C54.0504 76.8859 53.9699 77.0629 53.9105 77.2473C53.9105 77.3584 53.8117 77.4418 53.7835 77.5529C53.6997 77.8657 53.657 78.1879 53.6565 78.5114V112.588C53.6331 117.816 55.0987 122.946 57.8872 127.395C60.6757 131.845 64.6754 135.435 69.4321 137.76L105.724 155.625C105.861 155.686 106.003 155.737 106.148 155.778L106.416 155.875C106.707 155.945 107.005 155.986 107.305 156C107.604 155.985 107.902 155.944 108.194 155.875L108.462 155.778C108.607 155.739 108.749 155.688 108.885 155.625L145.177 137.76C149.936 135.436 153.937 131.846 156.728 127.397C159.519 122.947 160.988 117.817 160.967 112.588V78.4698C160.976 78.1612 160.943 77.8528 160.868 77.5529Z" fill="white"/>
<path d="M164.266 76.7127L164.244 76.6242L164.218 76.5369C164.153 76.3244 164.078 76.1157 163.991 75.9116C163.873 75.6164 163.746 75.3498 163.636 75.1345L163.556 74.9771L163.461 74.8285C163.335 74.6324 163.199 74.4435 163.052 74.2626C162.859 74.0048 162.649 73.7607 162.422 73.5321L162.285 73.3937L162.133 73.2713L161.822 73.0213L161.775 72.9834L161.727 72.9471L161.431 72.7248L161.117 72.4899L160.887 72.3868C160.768 72.3165 160.646 72.2527 160.52 72.1955L119.391 51.9497L119.384 51.9464L119.378 51.9431C115.619 50.113 111.486 49.1621 107.298 49.1621C103.11 49.1621 98.9761 50.113 95.2178 51.9431L95.2108 51.9465L95.2039 51.9499L54.0435 72.218L53.8498 72.3134L53.7768 72.3613L53.3927 72.5332L52.994 72.8844L52.7953 73.0595L52.7572 73.0883C52.7193 73.1173 52.6522 73.1687 52.577 73.2305C52.5026 73.2916 52.3937 73.3845 52.2735 73.5029L52.2587 73.5174L52.2441 73.5321C52.0311 73.7468 51.8323 73.9752 51.649 74.2158C51.4589 74.4412 51.2879 74.6825 51.1379 74.9375C50.9343 75.2795 50.7649 75.6409 50.6323 76.0166C50.5578 76.1763 50.4694 76.3944 50.3998 76.6581C50.2393 77.261 50.1574 77.8821 50.1565 78.5063V78.5114V112.58C50.1316 118.472 51.7841 124.248 54.9215 129.254C58.059 134.26 62.5539 138.293 67.8903 140.902C67.892 140.903 67.8937 140.904 67.8955 140.905L104.179 158.765L104.234 158.792L104.291 158.818C104.54 158.93 104.796 159.026 105.057 159.105L105.222 159.165L105.409 159.233L105.601 159.279C106.109 159.4 106.627 159.473 107.149 159.496L107.311 159.504L107.473 159.496C107.986 159.471 108.496 159.399 108.997 159.281L109.195 159.235L109.387 159.165L109.54 159.109C109.819 159.026 110.091 158.923 110.355 158.801L110.393 158.784L110.431 158.765L146.713 140.905C146.715 140.904 146.717 140.903 146.718 140.902C152.056 138.294 156.553 134.262 159.693 129.257C162.833 124.251 164.489 118.474 164.467 112.582V78.5099C164.479 77.9045 164.411 77.3004 164.266 76.7127Z" stroke="white" stroke-width="7"/>
</g>
<path d="M106.033 99.2868L106.368 93.4448H106.365C105.968 93.4883 105.573 93.5518 105.182 93.6355C103.096 94.1042 101.183 95.1463 99.6579 96.6443L104.45 100.039C104.741 100.252 105.127 100.304 105.453 100.13C105.779 99.9558 105.992 99.6481 106.008 99.2868H106.033Z" fill="#326CE5"/>
<path d="M115.831 96.6627C114.018 94.8882 111.675 93.7576 109.158 93.4448L109.489 99.2801C109.494 99.6548 109.711 99.996 110.051 100.157C110.39 100.317 110.792 100.27 111.084 100.036L115.831 96.6627Z" fill="#326CE5"/>
<path d="M102.3 102.752L97.9185 98.8419C96.5844 101.013 96.0129 103.566 96.2912 106.099L101.914 104.482V104.465C102.26 104.37 102.531 104.09 102.612 103.737C102.692 103.384 102.573 103.015 102.3 102.777V102.752Z" fill="#326CE5"/>
<path d="M119.251 106.079C119.495 103.548 118.907 101.008 117.575 98.8419L117.582 98.8553L113.234 102.747C112.961 102.988 112.844 103.354 112.922 103.707C113.001 104.06 113.269 104.339 113.62 104.435V104.457L119.251 106.079Z" fill="#326CE5"/>
<path d="M108.658 103.057H106.865L105.751 104.448L106.13 106.188L107.744 106.962L109.355 106.188L109.753 104.448L108.658 103.057Z" fill="#326CE5"/>
<path d="M112.834 107.803C112.775 107.795 112.683 107.795 112.608 107.803L112.601 107.828C112.444 107.837 112.29 107.884 112.154 107.965C112.019 108.046 111.904 108.158 111.821 108.292C111.737 108.427 111.687 108.579 111.675 108.737C111.663 108.894 111.688 109.052 111.75 109.198L113.991 114.624C116.145 113.247 117.796 111.19 118.632 108.782L112.834 107.803Z" fill="#326CE5"/>
<path d="M103.679 108.276C103.5 108.002 103.197 107.833 102.869 107.828L102.859 107.843C102.794 107.837 102.729 107.837 102.665 107.843L96.9167 108.818C97.778 111.202 99.397 113.234 101.529 114.6L103.757 109.218V109.196C103.886 108.895 103.858 108.551 103.679 108.276Z" fill="#326CE5"/>
<path d="M108.248 110.3C108.089 110.209 107.909 110.164 107.726 110.17L107.741 110.202C107.395 110.21 107.077 110.394 106.905 110.695L104.062 115.808C106.087 116.497 108.263 116.609 110.347 116.132L111.479 115.798L108.646 110.685H108.624C108.537 110.524 108.407 110.391 108.248 110.3Z" fill="#326CE5"/>
<path fill-rule="evenodd" clip-rule="evenodd" d="M106.217 78.3675C106.646 78.155 107.114 78.031 107.593 78.0029H107.576C108.174 77.9788 108.768 78.1047 109.304 78.3692L127.914 87.2384C128.884 87.7017 129.595 88.5831 129.837 89.6334L134.43 109.605C134.689 110.652 134.437 111.756 133.761 112.592L120.889 128.608C120.21 129.432 119.187 129.936 118.106 129.934H97.4511C96.374 129.939 95.3521 129.459 94.6714 128.623L81.7932 112.61C81.7229 112.52 81.656 112.426 81.5925 112.329C81.0489 111.526 80.8733 110.545 81.0907 109.608L85.6533 89.6535C85.8958 88.6032 86.6033 87.7218 87.5767 87.2585L106.217 78.3675ZM106.667 86.0423C106.634 85.4001 107.121 84.8498 107.763 84.8047L107.778 84.8131C108.422 84.8582 108.907 85.4085 108.873 86.0507V86.3852C108.842 86.7414 108.791 87.0927 108.719 87.4439C108.612 88.1111 108.569 88.7872 108.592 89.4626C108.636 89.6884 108.768 89.8874 108.957 90.0179C108.958 90.041 108.961 90.0792 108.964 90.1258C108.971 90.2371 108.982 90.3967 108.982 90.5146C112.508 90.8324 115.797 92.4212 118.239 94.9802L118.662 94.6791C118.89 94.7181 119.124 94.6926 119.338 94.6055C119.868 94.1941 120.357 93.7341 120.798 93.229C121.027 92.9561 121.271 92.6964 121.529 92.4513L121.777 92.254C121.925 92.1039 122.114 91.9989 122.32 91.9513C122.526 91.9036 122.741 91.9152 122.941 91.9847C123.14 92.0543 123.317 92.179 123.448 92.3445C123.58 92.51 123.663 92.7094 123.686 92.9197C123.709 93.13 123.672 93.3426 123.58 93.5329C123.487 93.7232 123.343 93.8835 123.163 93.995L122.919 94.1924C122.622 94.39 122.314 94.5704 121.996 94.7326C121.41 95.0654 120.853 95.4551 120.34 95.8967C120.191 96.0723 120.116 96.2997 120.133 96.5289L119.738 96.8935C121.713 99.8377 122.537 103.404 122.056 106.917L122.507 107.051C122.621 107.253 122.788 107.42 122.989 107.532C123.641 107.708 124.31 107.818 124.986 107.862C125.344 107.869 125.702 107.897 126.057 107.945L126.381 108.022C126.587 108.05 126.781 108.135 126.942 108.266C127.102 108.398 127.223 108.572 127.291 108.768C127.357 108.965 127.367 109.176 127.32 109.378C127.273 109.58 127.171 109.765 127.026 109.913C126.88 110.06 126.696 110.165 126.494 110.214C126.293 110.263 126.082 110.255 125.884 110.191H125.863C125.822 110.182 125.776 110.173 125.731 110.164C125.675 110.153 125.619 110.142 125.575 110.13C125.235 110.023 124.901 109.895 124.575 109.745C123.946 109.511 123.295 109.303 122.631 109.176C122.402 109.17 122.178 109.252 122.007 109.407L121.532 109.323C120.457 112.702 118.182 115.57 115.138 117.385C115.191 117.539 115.253 117.689 115.324 117.835C115.261 117.933 115.219 118.043 115.199 118.158C115.18 118.273 115.184 118.39 115.21 118.504C115.498 119.124 115.829 119.716 116.214 120.272C116.43 120.556 116.63 120.852 116.813 121.16L116.958 121.461C117.062 121.64 117.115 121.844 117.11 122.051C117.106 122.258 117.044 122.459 116.931 122.633C116.818 122.806 116.659 122.944 116.472 123.032C116.285 123.12 116.077 123.155 115.872 123.132C115.666 123.11 115.471 123.03 115.308 122.904C115.144 122.777 115.019 122.608 114.946 122.414L114.807 122.13C114.68 121.796 114.571 121.454 114.483 121.108C114.289 120.461 114.035 119.833 113.72 119.235C113.583 119.051 113.379 118.925 113.152 118.892L112.929 118.465C109.616 119.72 105.957 119.711 102.65 118.44L102.399 118.897C102.22 118.925 102.053 119.007 101.921 119.131C101.64 119.467 101.477 119.946 101.305 120.452C101.229 120.677 101.15 120.907 101.059 121.131C100.972 121.476 100.865 121.817 100.738 122.152L100.599 122.436C100.527 122.63 100.402 122.8 100.239 122.928C100.076 123.055 99.8805 123.135 99.6746 123.158C99.4692 123.18 99.2619 123.144 99.0755 123.055C98.8891 122.966 98.731 122.827 98.6185 122.654C98.506 122.481 98.4436 122.28 98.4381 122.074C98.4326 121.867 98.4843 121.663 98.5875 121.484L98.7296 121.183C98.912 120.875 99.1119 120.577 99.3284 120.292C99.7231 119.716 100.061 119.104 100.337 118.465C100.365 118.25 100.33 118.032 100.237 117.836L100.441 117.41C97.39 115.609 95.1054 112.75 94.0182 109.377L93.5165 109.461C93.3292 109.327 93.1084 109.248 92.8776 109.235C92.2119 109.36 91.5613 109.553 90.9342 109.803C90.608 109.944 90.2735 110.068 89.934 110.168L89.633 110.202H89.6112C89.4137 110.266 89.2021 110.275 89.0001 110.226C88.7981 110.177 88.6136 110.073 88.4672 109.926C88.3222 109.777 88.2213 109.592 88.1755 109.389C88.1298 109.187 88.1411 108.976 88.2082 108.78C88.2753 108.583 88.3955 108.41 88.5555 108.278C88.7156 108.146 88.909 108.061 89.1145 108.032H89.1479L89.444 107.965C89.7989 107.917 90.1562 107.889 90.5144 107.882C91.1891 107.837 91.858 107.727 92.5113 107.552C92.7053 107.43 92.8676 107.265 92.9896 107.071L93.4579 106.937C92.9529 103.423 93.7607 99.8454 95.7292 96.8918L95.3646 96.5573C95.3518 96.3267 95.2748 96.1042 95.1421 95.9151C94.6237 95.4602 94.0651 95.0738 93.473 94.7443C93.1551 94.5822 92.8469 94.4018 92.5498 94.2041L92.319 94.0201C91.7905 93.6405 91.6667 92.9063 92.0447 92.3761C92.1511 92.2449 92.287 92.1407 92.4414 92.0721C92.5957 92.0035 92.7641 91.9724 92.9328 91.9814C93.2154 91.9947 93.4864 92.0968 93.7071 92.2741L93.9547 92.4714C94.213 92.7164 94.457 92.9761 94.6856 93.2491C95.1405 93.7483 95.6429 94.202 96.1858 94.6038C96.3882 94.7126 96.6257 94.7376 96.8464 94.6707L97.2478 94.9551C99.2063 92.8728 101.743 91.4278 104.53 90.7989C105.192 90.6484 105.865 90.5447 106.542 90.4878L106.567 90.0162C106.741 89.8623 106.868 89.6616 106.932 89.4392C106.961 88.7626 106.924 88.0848 106.821 87.4155C106.751 87.0659 106.697 86.713 106.667 86.3568V86.0423Z" fill="#326CE5"/>
<defs>
<filter id="filter0_d_2026_78469" x="22.6562" y="21.6621" width="169.312" height="165.346" filterUnits="userSpaceOnUse" color-interpolation-filters="sRGB">
<feFlood flood-opacity="0" result="BackgroundImageFix"/>
<feColorMatrix in="SourceAlpha" type="matrix" values="0 0 0 0 0 0 0 0 0 0 0 0 0 0 0 0 0 0 127 0" result="hardAlpha"/>
<feOffset/>
<feGaussianBlur stdDeviation="12"/>
<feComposite in2="hardAlpha" operator="out"/>
<feColorMatrix type="matrix" values="0 0 0 0 0.1925 0 0 0 0 0.6 0 0 0 0 0.431685 0 0 0 0.25 0"/>
<feBlend mode="normal" in2="BackgroundImageFix" result="effect1_dropShadow_2026_78469"/>
<feBlend mode="normal" in="SourceGraphic" in2="effect1_dropShadow_2026_78469" result="shape"/>
</filter>
</defs>
</svg>
