<svg width="216" height="209" viewBox="0 0 216 209" fill="none" xmlns="http://www.w3.org/2000/svg">
<g filter="url(#filter0_d_1905_79169)">
<path d="M161.268 78.5158C161.237 78.4118 161.199 78.3098 161.155 78.2102C161.085 78.0296 161 77.849 160.915 77.6823C160.847 77.5757 160.772 77.4736 160.69 77.3767C160.583 77.2288 160.465 77.0895 160.337 76.9599L160.026 76.7099L159.73 76.4876L159.575 76.4181C159.54 76.3812 159.496 76.3527 159.448 76.3348L118.245 56.0528C114.966 54.4558 111.356 53.625 107.698 53.625C104.039 53.625 100.429 54.4558 97.1499 56.0528L55.9895 76.3209L55.8625 76.4042L55.7072 76.4737L55.4391 76.7099C55.3404 76.7932 55.2134 76.8766 55.1287 76.9599C55.0002 77.0895 54.8822 77.2288 54.7759 77.3767C54.6896 77.4701 54.6139 77.5726 54.5502 77.6823C54.4502 77.8487 54.3697 78.0258 54.3103 78.2102C54.3103 78.3213 54.2115 78.4047 54.1833 78.5158C54.0995 78.8286 54.0568 79.1508 54.0563 79.4743V113.551C54.0328 118.779 55.4985 123.909 58.287 128.358C61.0755 132.808 65.0751 136.398 69.8319 138.723L106.124 156.588C106.261 156.649 106.403 156.7 106.548 156.74L106.816 156.838C107.107 156.907 107.405 156.949 107.705 156.963C108.004 156.948 108.302 156.907 108.594 156.838L108.862 156.74C109.007 156.702 109.149 156.651 109.285 156.588L145.577 138.723C150.336 136.399 154.337 132.809 157.128 128.36C159.919 123.91 161.387 118.78 161.367 113.551V79.4326C161.376 79.1241 161.342 78.8157 161.268 78.5158Z" fill="white"/>
<path d="M164.666 77.6757L164.644 77.5871L164.617 77.4999C164.553 77.2871 164.477 77.0783 164.391 76.8742C164.273 76.5792 164.145 76.3127 164.036 76.0974L163.956 75.94L163.861 75.7913C163.735 75.5952 163.598 75.4064 163.452 75.2256C163.259 74.9677 163.048 74.7236 162.822 74.495L162.684 74.3566L162.532 74.2342L162.222 73.9842L162.175 73.9462L162.127 73.91L161.83 73.6877L161.517 73.4528L161.287 73.3497C161.168 73.2794 161.046 73.2156 160.92 73.1585L119.791 52.9126L119.784 52.9093L119.777 52.906C116.019 51.0759 111.886 50.125 107.698 50.125C103.51 50.125 99.3759 51.0759 95.6176 52.906L95.6106 52.9094L95.6037 52.9128L54.4433 73.1809L54.2495 73.2763L54.1766 73.3242L53.7925 73.4961L53.3938 73.8473L53.1951 74.0224L53.157 74.0512C53.119 74.0802 53.052 74.1316 52.9768 74.1934C52.9024 74.2545 52.7935 74.3474 52.6732 74.4658L52.6585 74.4803L52.6439 74.495C52.4309 74.7097 52.2321 74.938 52.0488 75.1787C51.8587 75.404 51.6877 75.6453 51.5377 75.9003C51.3341 76.2423 51.1647 76.6038 51.032 76.9795C50.9576 77.1392 50.8692 77.3573 50.7996 77.6211C50.6391 78.2239 50.5572 78.845 50.5563 79.4692V79.4743V113.543C50.5314 119.434 52.1839 125.211 55.3213 130.217C58.4592 135.224 62.9549 139.257 68.2924 141.866C68.2933 141.867 68.2943 141.867 68.2952 141.867L104.578 159.728L104.634 159.755L104.69 159.78C104.94 159.892 105.196 159.988 105.457 160.068L105.622 160.128L105.808 160.195L106.001 160.242C106.509 160.363 107.027 160.436 107.548 160.459L107.71 160.466L107.872 160.459C108.386 160.434 108.896 160.362 109.397 160.244L109.595 160.198L109.787 160.128L109.94 160.072C110.218 159.989 110.491 159.886 110.755 159.764L110.793 159.746L110.831 159.728L147.113 141.868C147.115 141.867 147.117 141.866 147.118 141.865C152.456 139.257 156.953 135.225 160.093 130.219C163.233 125.214 164.889 119.437 164.867 113.545V79.4728C164.879 78.8674 164.811 78.2633 164.666 77.6757Z" stroke="white" stroke-width="7"/>
</g>
<path d="M133.013 106.209L134.55 125.819L107.35 130.701L105.008 111.091L108.894 110.548C109.526 110.819 109.979 110.909 110.702 111.091C111.877 111.362 113.233 111.723 115.219 110.639C115.671 110.368 116.665 109.554 117.027 109.012L133.013 106.209ZM90.9904 129.527C90.5387 128.805 89.7251 127.99 88.4597 126.996C86.6519 125.55 87.285 123.019 88.369 121.484C89.7348 118.863 96.8637 115.429 96.5027 111.181C96.3222 109.645 96.1417 107.656 94.6949 106.21C94.6042 106.753 94.6949 107.295 94.6949 107.295C94.6949 107.295 94.0627 106.573 93.7915 105.488C93.5202 105.127 93.249 104.945 92.9778 104.403C92.7973 105.035 92.7973 105.668 92.7973 105.668C92.7973 105.668 92.3456 104.493 92.2549 103.59C91.9836 104.042 91.8939 104.855 91.8939 104.855C91.8939 104.855 91.2617 103.048 91.4422 102.055C91.1709 101.242 90.2675 99.5245 90.5387 95.7294C92.0753 96.8143 95.5095 96.543 96.8647 94.5547C97.3164 93.9225 97.5866 92.1157 96.6842 88.5898C96.052 86.3302 94.5154 82.9868 93.8841 81.7214L93.7934 81.8121C94.1544 82.8073 94.7885 84.9751 95.0588 86.06C95.7808 89.2229 96.0539 90.3078 95.691 91.7537C95.4198 93.0191 94.6959 93.8318 92.7993 94.7362C90.9914 95.6396 88.4616 93.3703 88.3699 93.2903C86.5621 91.8444 85.207 89.4854 85.0265 88.4103C84.846 87.1449 85.7484 86.4219 86.2011 85.4278C85.5689 85.6083 84.8352 85.9702 84.8352 85.9702C84.8352 85.9702 85.6489 85.0668 86.7328 84.3439C87.1449 84.1035 87.5376 83.8315 87.9075 83.5302H86.7445C86.7445 83.5302 87.8294 82.898 89.0041 82.5351H87.3787L91.7163 80.6375C93.0822 80.095 94.3368 80.2765 95.0598 81.2697C96.0549 82.6355 97.0481 83.3477 99.1262 83.8902C100.392 83.3477 100.843 82.9868 102.47 82.5243C103.915 80.898 105.09 80.7165 105.09 80.7165C105.09 80.7165 104.276 81.4385 104.187 82.2531C105 81.6209 105.904 81.0785 105.904 81.0785C105.904 81.0785 105.543 81.5302 105.272 82.1633L105.362 82.2541C106.357 81.7116 107.44 81.2589 107.44 81.2589C107.44 81.2589 107.079 81.6199 106.718 82.1624C107.44 82.1624 108.887 82.1624 109.431 82.2531C112.774 82.3438 113.497 78.7282 114.762 78.1867C116.389 77.6443 117.112 77.2833 119.823 79.9945C122.172 82.3438 123.979 86.4112 123.077 87.3146C122.355 88.0366 120.817 87.0434 119.1 84.9653C118.197 83.8804 117.563 82.5263 117.202 80.8989C117.022 79.5331 116.028 78.7301 116.028 78.7301C116.028 78.7301 116.66 80.096 116.66 81.2609C116.66 81.8931 116.751 84.2434 117.745 85.5985C117.654 85.779 117.564 86.5936 117.474 86.6834C116.299 85.2375 113.669 84.2443 113.318 83.8834C114.763 85.058 118.017 87.6883 119.283 90.2093C120.457 92.6484 119.734 94.8181 120.367 95.3606C120.548 95.5411 122.898 98.4338 123.35 99.9694C124.164 102.59 123.441 105.301 122.355 106.928L119.463 107.379C119.085 107.314 118.72 107.192 118.378 107.017C118.559 106.656 119.01 105.752 119.01 105.571L118.83 105.3C117.926 106.566 116.391 107.831 115.124 108.554C113.498 109.457 111.599 109.368 110.344 108.915C106.819 107.83 103.475 105.481 102.754 104.849C102.754 104.849 102.754 105.3 102.844 105.481C104.308 107.021 105.945 108.386 107.724 109.547L103.568 109.999L105.556 125.362C104.653 125.453 104.561 125.542 103.568 125.723C102.754 122.74 101.129 120.843 99.3203 119.668C97.7837 118.673 95.6149 118.403 93.5368 118.855L93.4461 119.035C94.892 118.855 96.6091 119.126 98.3262 120.21C100.043 121.294 101.399 124.096 101.941 125.722C102.573 127.891 103.026 130.151 101.309 132.59C100.043 134.307 96.4286 135.303 93.5368 133.223C94.3505 134.488 95.3447 135.482 96.7905 135.662C98.8686 135.933 100.857 135.571 102.303 134.216C103.477 133.041 104.111 130.51 103.929 127.799L105.827 127.528L106.459 132.308L137.262 128.632L134.55 104.051L133.013 104.323L129.941 73.3145L78.6098 79.2794L84.9357 130.429L90.9904 129.527Z" fill="#5C2D90"/>
<path d="M115.413 102.642C116.779 103.637 117.944 104.268 119.119 104.178C119.841 104.088 120.564 102.913 121.016 101.829C121.377 101.107 121.377 100.293 120.836 100.021C120.564 99.9306 119.47 99.9306 118.667 100.021C117.13 100.202 115.594 100.743 115.233 101.016C114.69 101.377 114.961 102.282 115.413 102.643V102.642ZM115.774 92.0671V92.1578L115.865 92.3383C116.226 93.0603 116.587 93.7842 117.311 94.1461C117.491 94.1461 117.672 94.0554 117.853 94.0554C118.485 94.0554 118.848 94.1461 119.119 94.2359V93.6935C119.028 92.79 119.299 91.1627 117.492 90.2593C116.77 89.8983 115.866 90.0788 115.504 90.4398H115.684C116.136 90.6202 115.865 90.8007 115.775 90.9822C115.684 91.3432 115.595 91.4339 115.775 92.0671" fill="#5C2D90"/>
<path d="M107.64 92.2492C108.092 91.8883 105.562 91.3458 103.574 92.6102C102.128 93.6054 102.128 95.6834 103.483 96.8581C103.619 96.9256 103.741 97.0176 103.844 97.1293C104.205 96.9488 104.748 96.7683 105.21 96.5869C106.113 96.3156 106.836 96.1351 107.47 96.0444C107.741 95.6834 108.102 95.141 108.012 94.1468C107.921 92.781 106.837 93.0619 107.651 92.2492H107.64ZM122.381 114.201L118.043 121.42L112.983 119.884L108.553 126.661L108.734 128.83L132.954 124.401L131.508 109.308L127.531 117.622L122.381 114.201Z" fill="#5C2D90"/>
<path d="M78.1087 76.2327L75.1139 76.5953L75.4932 79.5881L81.9687 130.68L82.3499 133.688L85.3539 133.275L89.577 132.694C90.2646 134.191 91.2126 135.512 92.3596 136.56C94.2948 138.329 96.9394 139.422 99.7878 138.926C102.149 138.515 103.956 137.215 105.203 135.453L106.867 135.266L137.736 131.797L140.722 131.462L140.382 128.476L137.576 103.847L137.273 101.187L135.904 101.187L133.019 72.6649L132.711 69.6207L129.674 69.9886L78.1087 76.2327Z" stroke="white" stroke-width="6"/>
<defs>
<filter id="filter0_d_1905_79169" x="23.056" y="22.625" width="169.312" height="165.346" filterUnits="userSpaceOnUse" color-interpolation-filters="sRGB">
<feFlood flood-opacity="0" result="BackgroundImageFix"/>
<feColorMatrix in="SourceAlpha" type="matrix" values="0 0 0 0 0 0 0 0 0 0 0 0 0 0 0 0 0 0 127 0" result="hardAlpha"/>
<feOffset/>
<feGaussianBlur stdDeviation="12"/>
<feComposite in2="hardAlpha" operator="out"/>
<feColorMatrix type="matrix" values="0 0 0 0 0.1925 0 0 0 0 0.6 0 0 0 0 0.431685 0 0 0 0.25 0"/>
<feBlend mode="normal" in2="BackgroundImageFix" result="effect1_dropShadow_1905_79169"/>
<feBlend mode="normal" in="SourceGraphic" in2="effect1_dropShadow_1905_79169" result="shape"/>
</filter>
</defs>
</svg>
