<svg width="60" height="63" viewBox="0 0 60 63" fill="none" xmlns="http://www.w3.org/2000/svg">
<path d="M55.0134 33.2095L56.55 52.8195L29.3497 57.7005L27.0082 38.0905L30.8941 37.5481C31.5263 37.8193 31.979 37.9091 32.7019 38.0905C33.8766 38.3618 35.2327 38.7227 37.219 37.6388C37.6708 37.3676 38.6649 36.5539 39.0269 36.0125L55.0134 33.2095ZM12.9904 56.5269C12.5387 55.8049 11.7251 54.9903 10.4597 53.9961C8.65186 52.5502 9.28504 50.0195 10.369 48.4838C11.7348 45.8633 18.8637 42.4291 18.5027 38.1813C18.3222 36.6447 18.1417 34.6563 16.6949 33.2105C16.6042 33.7529 16.6949 34.2954 16.6949 34.2954C16.6949 34.2954 16.0627 33.5734 15.7915 32.4875C15.5202 32.1266 15.249 31.9451 14.9778 31.4026C14.7973 32.0348 14.7973 32.668 14.7973 32.668C14.7973 32.668 14.3456 31.4934 14.2549 30.59C13.9836 31.0417 13.8939 31.8553 13.8939 31.8553C13.8939 31.8553 13.2617 30.0475 13.4422 29.0553C13.1709 28.2416 12.2675 26.5245 12.5387 22.7294C14.0753 23.8143 17.5095 23.543 18.8647 21.5547C19.3164 20.9225 19.5866 19.1157 18.6842 15.5898C18.052 13.3302 16.5154 9.98677 15.8841 8.72139L15.7934 8.81212C16.1544 9.80725 16.7885 11.9751 17.0588 13.06C17.7808 16.2229 18.0539 17.3078 17.691 18.7537C17.4198 20.0191 16.6959 20.8318 14.7993 21.7362C12.9914 22.6396 10.4616 20.3703 10.3699 20.2903C8.5621 18.8444 7.20696 16.4854 7.02647 15.4103C6.84598 14.1449 7.74843 13.4219 8.20112 12.4278C7.56892 12.6083 6.83525 12.9702 6.83525 12.9702C6.83525 12.9702 7.64892 12.0668 8.73283 11.3439C9.14489 11.1035 9.53762 10.8315 9.90748 10.5302H8.74454C8.74454 10.5302 9.82943 9.89799 11.0041 9.53506H9.37869L13.7163 7.63747C15.0822 7.09503 16.3368 7.27649 17.0598 8.26967C18.0549 9.63555 19.0481 10.3477 21.1262 10.8902C22.3915 10.3477 22.8433 9.98677 24.4696 9.52432C25.9155 7.89796 27.0901 7.7165 27.0901 7.7165C27.0901 7.7165 26.2765 8.43846 26.1867 9.2531C27.0004 8.6209 27.9038 8.07845 27.9038 8.07845C27.9038 8.07845 27.5428 8.53017 27.2716 9.16334L27.3623 9.25408C28.3575 8.71163 29.4404 8.25894 29.4404 8.25894C29.4404 8.25894 29.0794 8.61992 28.7185 9.16237C29.4404 9.16237 30.8873 9.16237 31.4307 9.2531C34.7741 9.34383 35.4971 5.72818 36.7625 5.18671C38.3888 4.64426 39.1118 4.28328 41.823 6.99454C44.1723 9.34383 45.9792 13.4112 45.0767 14.3146C44.3548 15.0366 42.8172 14.0434 41.1001 11.9653C40.1966 10.8804 39.5635 9.52627 39.2025 7.89894C39.022 6.53307 38.0278 5.73013 38.0278 5.73013C38.0278 5.73013 38.66 7.096 38.66 8.26089C38.66 8.8931 38.7508 11.2434 39.7449 12.5985C39.6542 12.779 39.5644 13.5936 39.4737 13.6834C38.2991 12.2375 35.6688 11.2443 35.3176 10.8834C36.7634 12.058 40.0171 14.6883 41.2825 17.2093C42.4572 19.6484 41.7342 21.8181 42.3674 22.3606C42.5479 22.5411 44.8982 25.4338 45.3499 26.9694C46.1636 29.5899 45.4406 32.3012 44.3547 33.9276L41.463 34.3793C41.0853 34.3137 40.7196 34.1917 40.3781 34.0173C40.5586 33.6563 41.0103 32.7519 41.0103 32.5714L40.8298 32.3002C39.9264 33.5656 38.3908 34.831 37.1244 35.5539C35.4981 36.4573 33.5995 36.3676 32.3439 35.9149C28.8189 34.83 25.4755 32.4807 24.7535 31.8485C24.7535 31.8485 24.7535 32.3002 24.8443 32.4807C26.3077 34.0209 27.9454 35.3855 29.7243 36.5471L25.5682 36.9988L27.5565 52.3619C26.6531 52.4527 26.5614 52.5424 25.5682 52.7229C24.7545 49.7404 23.1291 47.8429 21.3203 46.6682C19.7837 45.6731 17.6149 45.4028 15.5368 45.8545L15.4461 46.035C16.892 45.8545 18.6091 46.1258 20.3262 47.2097C22.0432 48.2936 23.3994 51.0956 23.9408 52.7219C24.573 54.8907 25.0257 57.1513 23.3086 59.5903C22.0432 61.3074 18.4286 62.3025 15.5368 60.2225C16.3505 61.4879 17.3447 62.4821 18.7905 62.6616C20.8686 62.9328 22.8569 62.5708 24.3028 61.2157C25.4774 60.0411 26.1106 57.5103 25.9292 54.799L27.8267 54.5278L28.4589 59.3084L59.2623 55.6322L56.55 31.0514L55.0134 31.3226L51.9412 0.314453L0.609802 6.27941L6.93574 57.4293L12.9904 56.5269Z" fill="#5C2D90"/>
<path d="M37.4132 29.6419C38.779 30.637 39.9439 31.2682 41.1186 31.1785C41.8405 31.0877 42.5644 29.9131 43.0162 28.8292C43.3771 28.1072 43.3771 27.2926 42.8357 27.0213C42.5644 26.9306 41.4698 26.9306 40.6669 27.0213C39.1303 27.2018 37.5936 27.7433 37.2327 28.0165C36.6902 28.3775 36.9614 29.2819 37.4132 29.6428V29.6419ZM37.7741 19.0671V19.1578L37.8649 19.3383C38.2259 20.0603 38.5868 20.7842 39.3107 21.1461C39.4912 21.1461 39.6717 21.0554 39.8532 21.0554C40.4854 21.0554 40.8483 21.1461 41.1186 21.2359V20.6935C41.0278 19.79 41.2991 18.1627 39.4922 17.2593C38.7703 16.8983 37.8658 17.0788 37.5039 17.4398H37.6844C38.1361 17.6202 37.8649 17.8007 37.7751 17.9822C37.6844 18.3432 37.5946 18.4339 37.7751 19.0671" fill="#5C2D90"/>
<path d="M29.6403 19.2492C30.092 18.8883 27.5622 18.3458 25.5739 19.6102C24.128 20.6054 24.128 22.6834 25.4831 23.8581C25.6191 23.9256 25.7414 24.0176 25.8441 24.1293C26.2051 23.9488 26.7475 23.7683 27.21 23.5869C28.1134 23.3156 28.8363 23.1351 29.4695 23.0444C29.7408 22.6834 30.1017 22.141 30.012 21.1468C29.9212 19.781 28.8373 20.0619 29.651 19.2492H29.6403ZM44.3809 41.2007L40.0433 48.4203L34.9828 46.8837L30.5534 53.6614L30.7339 55.8302L54.9538 51.4009L53.5079 36.308L49.5313 44.6222L44.3809 41.2007Z" fill="#5C2D90"/>
</svg>
