<svg fill="none" height="64" viewBox="0 0 64 64" width="64" xmlns="http://www.w3.org/2000/svg">
<g fill="#326CE5">
<path d="m30.481 20.7279c-.4332.052-.8634.1261-1.289.2221-2.2595.5082-4.3321 1.6376-5.984 3.261l5.19 3.679.0101-.005c.1556.1133.3389.1821.5306.1994.1916.0172.3844-.0178.5577-.1015.1733-.0836.3207-.2127.4265-.3735.1058-.1607.1659-.3472.1741-.5394l.026-.013z"/>
<path d="m40.735 24.213c-1.9628-1.923-4.503-3.1479-7.23-3.486l.3561 6.322h.0049c.0084.1927.0691.3795.1754.5404s.2543.2899.4282.3733c.174.0833.3673.118.5593.1001s.3756-.0877.5311-.2018l.018.008z"/>
<path d="m26.065 30.813-4.739-4.238c-1.4459 2.3534-2.0662 5.1205-1.763 7.8659l6.0741-1.7529.0049-.021c.1856-.0509.3538-.1511.4869-.29s.2261-.3114.269-.4989c.0429-.1876.0341-.3833-.0254-.5663s-.1675-.3463-.3125-.4728z"/>
<path d="m42.6285 26.579-4.7074 4.213v.013c-.145.1264-.2531.2899-.3125.4729-.0595.1829-.0683.3786-.0254.5661.0428.1876.1358.36.2689.4989.1331.139.3014.2392.4869.2901l.005.026 6.1 1.759c.2636-2.741-.3739-5.4931-1.8155-7.839z"/>
<path d="m32.967 31.1389h-1.941l-1.2119 1.5051.4329 1.882 1.75.841 1.743-.838.433-1.882z"/>
<path d="m37.495 36.319c-.0807-.0154-.1629-.0215-.245-.0181l-.0009.0021c-.1713.0096-.3377.0602-.4853.1477-.1475.0875-.2718.2092-.3623.3549-.0906.1456-.1447.3109-.1578.4819s.0151.3427.0823.5005l-.008.01 2.439 5.891c2.3334-1.4889 4.1037-3.7132 5.0311-6.321l-6.2831-1.0621z"/>
<path d="m27.1956 36.461c-.1524-.0847-.3233-.1308-.4976-.1341l-.003.0011c-.0697-.0007-.1394.0053-.208.018l-.01-.013-6.229 1.057c.9352 2.5868 2.6981 4.7925 5.015 6.2749l2.4131-5.8319-.018-.024c.0682-.1604.0961-.3351.0811-.5088s-.0724-.3411-.1672-.4874-.224-.2671-.3764-.3518z"/>
<path d="m32.5261 39.0244c-.1719-.0988-.3678-.1481-.566-.1424v.0019c-.1859.0067-.3668.062-.5247.1602s-.2873.2361-.3754.3999h-.005l-3.063 5.538c2.1931.747 4.5508.8686 6.8091.351.4145-.0936.824-.2081 1.2269-.343l-3.071-5.548h-.0229c-.0949-.1741-.2361-.3187-.408-.4176z"/>
<path clip-rule="evenodd" d="m30.315 4.37792c.4628-.22096.9648-.34797 1.477-.3739.6436-.03091 1.2849.0986 1.866.37695l20.161 9.62693c.5207.2469.979.6082 1.3407 1.0568s.6175.9731.7483 1.5343l4.9791 21.636c.1286.5604.1284 1.1427-.0007 1.7031-.129.5604-.3835 1.0841-.7443 1.5319l-13.9461 17.3509c-.3633.4492-.8226.8115-1.3441 1.0599-.5216.2485-1.0921.377-1.6699.3761l-22.3759.0051c-.5781.0007-1.1489-.1281-1.6705-.3771-.5216-.2491-.9808-.6119-1.3436-1.0619l-13.95299-17.348c-.07933-.0954-.15232-.1954-.21899-.3001-.28012-.4283-.47086-.9088-.56073-1.4126s-.07704-1.0206.03772-1.5194l4.97302-21.636c.12917-.5626.38388-1.0887.74512-1.5389.36124-.4503.81964-.813 1.34085-1.0611zm.7975 7.41118c.226-.2511.5422-.4025.8795-.4211l-.009.005c.3372.0188.6533.1703.8793.4213.2259.2511.3434.5814.3268.9187v.3429c-.0332.3852-.0884.7682-.1651 1.1471-.117.7235-.1628 1.4566-.1369 2.189.0499.2445.1934.4599.3999.6.003.086.017.3779.028.5379 3.8144.3472 7.3733 2.0667 10.016 4.8391l.459-.328c.2473.0425.5016.0147.734-.08.5889-.4366 1.1339-.9295 1.627-1.472.2503-.2961.5174-.5776.8-.843.0474-.041.1104-.0901.1711-.1375.0341-.0267.0674-.0527.0969-.0765.1209-.1207.266-.2145.4256-.2752.1597-.0608.3303-.0871.5009-.0773.1705.0098.3371.0554.4888.134.1516.0786.285.1885.3912.3222.1063.1337.1832.2883.2256.4538s.0493.338.0204.5064c-.029.1683-.0931.3287-.1883.4706-.0952.1418-.2193.2619-.3642.3525-.0315.025-.0665.0541-.1021.0836-.0571.0474-.1155.0959-.1629.1304-.3218.214-.6557.4093-1 .585-.6377.3607-1.2386.783-1.794 1.2609-.1619.1893-.243.4347-.2259.6831-.0325.0296-.1048.0943-.1849.1659-.085.076-.1788.1599-.2432.2181 2.1397 3.1895 3.0339 7.0537 2.513 10.859l.487.1421c.1217.2193.3021.4004.521.5229.7077.1887 1.4322.3079 2.163.356.3872.0088.7735.0399 1.157.093.0737.0132.175.0384.2632.0604.0316.0078.0615.0153.0878.0216.0734.01.1457.0266.216.0499.2934.109.5331.3274.669.6093.136.2819.1575.6054.0602.9028-.0974.2974-.3061.5455-.5824.6924s-.5988.1812-.8998.0956h-.018c-.008-.002-.015-.008-.023-.008-.0367-.008-.0769-.0161-.1172-.0243-.0695-.014-.1398-.0281-.1948-.0427-.3687-.1183-.7303-.258-1.083-.4181-.6783-.2743-1.3816-.4822-2.1-.6209-.2497-.0087-.4928.0811-.677.25-.089-.017-.36-.065-.516-.09-1.1666 3.6713-3.6423 6.7855-6.956 8.75.056.1665.1229.3291.2001.4869-.1233.216-.1567.4717-.0931.7121.2942.6719.6536 1.3133 1.073 1.915.2339.3074.4498.6279.647.96.047.091.1111.2251.1571.3251.0401.0682.0736.1402.0999.2149.0574.1507.0841.3113.0786.4724-.0055.1612-.0431.3196-.1106.466s-.1636.2778-.2825.3867c-.1189.1088-.2583.1929-.4101.2472s-.313.0777-.474.069c-.161-.0088-.3186-.0496-.4636-.12-.145-.0705-.2745-.1691-.3809-.2902s-.1876-.2623-.2389-.4152c-.05-.095-.111-.2199-.15-.3089-.1383-.3616-.2555-.7308-.351-1.106-.2095-.7016-.4868-1.3812-.828-2.029-.1486-.2004-.3697-.3346-.616-.3741-.0218-.0368-.0786-.1397-.1374-.2465-.0434-.0786-.0879-.1593-.1206-.2174-3.5889 1.3594-7.5529 1.3495-11.135-.028l-.273.5c-.1949.0297-.3763.118-.52.2531-.4112.675-.7256 1.4044-.934 2.1669-.0947.3751-.2109.7443-.348 1.106-.0252.0606-.0642.1374-.1011.2099-.0173.034-.0342.0671-.0488.0971-.058.1581-.1484.3023-.2652.4235-.1169.1212-.2577.2167-.4135.2804-.1559.0637-.3233.0942-.4916.0896-.1683-.0047-.3337-.0444-.4858-.1166s-.2875-.1752-.3975-.3026c-.11-.1275-.1923-.2764-.2415-.4374s-.0643-.3305-.0443-.4977c.02-.1671.0746-.3284.1603-.4733.0191-.0389.0404-.0848.0622-.1318.032-.0688.0649-.1396.0928-.1931.1969-.3336.4129-.6554.647-.964.4256-.6182.7912-1.2755 1.092-1.963.0319-.2329-.0053-.4701-.107-.682l.219-.526c-3.3029-1.9489-5.7782-5.0393-6.959-8.688l-.526.09c-.2038-.1449-.4444-.2294-.694-.2441-.7185.1384-1.4218.3465-2.1.6211-.3526.1592-.7143.2977-1.083.415-.0611.017-.1424.0341-.2202.0505-.0317.0066-.0628.0132-.0918.0195-.0036.0005-.0071.002-.0105.0035-.0041.0017-.0082.0035-.0125.0035h-.0179c-.1602.0527-.3296.0714-.4974.0549s-.3303-.0679-.4771-.1509c-.1468-.0829-.2747-.1956-.3754-.3308s-.1721-.2899-.2096-.4543-.0402-.3348-.008-.5003c.0321-.1655.0985-.3224.1948-.4608.0964-.1383.2205-.2551.3646-.3428.1441-.0876.3049-.1441.472-.166l.0181-.005h.0109c.0291-.0069.0604-.0146.0925-.0226.0793-.0196.1633-.0403.2295-.0524.3836-.0531.7699-.0842 1.157-.0931.7309-.0479 1.4553-.1671 2.163-.3559.2095-.1336.3864-.3122.518-.523l.508-.1471c-.5482-3.8077.3286-7.6837 2.462-10.8849l-.387-.346c-.0137-.2514-.0975-.4938-.242-.7-.5558-.4777-1.157-.9001-1.795-1.261-.3443-.1754-.6782-.3708-1-.585-.049-.0357-.1089-.0848-.1672-.1327-.0285-.0233-.0565-.0463-.0828-.0673-.0057-.0046-.0117-.009-.018-.0131-.2749-.1966-.4608-.4941-.5171-.8275-.0562-.3333.0219-.6754.2171-.9514.1155-.1412.2625-.2533.4293-.3271.1668-.0739.3486-.1074.5307-.0979.307.0129.6018.124.841.317.0231.0183.0486.0382.075.0589.0674.0527.1406.1098.193.1551.2803.2659.5454.5473.794.843.4933.541 1.0383 1.0327 1.627 1.468.2204.1161.4774.1412.716.07.0126.009.0305.0218.0522.0373.0985.0707.2748.1971.3838.2717 2.1209-2.2521 4.8664-3.8191 7.884-4.5.7183-.1625 1.4471-.2746 2.181-.335l.028-.508c.1872-.1666.3232-.3831.3921-.624.0265-.7323-.0184-1.4654-.1341-2.189-.0772-.3788-.1322-.7619-.165-1.1471-.004-.0589-.0026-.1327-.0013-.205.0007-.0356.0013-.0709.0013-.1039v-.034c-.0169-.3374.1005-.6678.3265-.9189z" fill-rule="evenodd"/>
</g>
</svg>