<svg width="86" height="64" viewBox="0 0 86 64" fill="none" xmlns="http://www.w3.org/2000/svg">
<path d="M8.61369 20.517V20.5177C8.61369 22.0879 8.82095 23.6122 9.21018 25.0626C5.85326 27.8982 3.73157 32.1836 3.73157 36.9538C3.73157 45.3885 10.4024 52.3709 18.8063 52.3709C19.0282 52.3709 19.2491 52.366 19.4689 52.3562C22.1836 57.3548 27.4288 60.774 33.4965 60.774C39.1227 60.774 44.0424 57.833 46.8912 53.4224C48.0335 53.7182 49.229 53.8752 50.4582 53.8752C55.1245 53.8752 59.2491 51.6263 61.8722 48.1732C62.4029 48.2203 62.9404 48.2446 63.4836 48.2446C73.8298 48.2446 82.0824 39.6571 82.0824 29.2311C82.0824 18.8064 73.8278 10.2193 63.4836 10.2193C61.7085 10.2193 59.9894 10.4743 58.3607 10.9507C55.4728 7.25491 51.0368 4.84956 46.0141 4.84956C42.6954 4.84956 39.6241 5.90411 37.0907 7.68875C34.0743 4.92889 30.0704 3.23633 25.6662 3.23633C16.2046 3.23633 8.61565 11.0208 8.61369 20.517Z" fill="#139CD8" stroke="white" stroke-width="6"/>
<path d="M17.2114 32.9616C17.1659 33.0821 17.2276 33.1069 17.2422 33.1284C17.3785 33.2291 17.5148 33.3017 17.6543 33.3826C18.3926 33.7806 19.0902 33.8962 19.8187 33.8962C21.3033 33.8962 22.2249 33.0937 22.2249 31.8008V31.776C22.2249 30.5805 21.1833 30.1446 20.2081 29.8309L20.08 29.7896C19.3433 29.5469 18.7089 29.3355 18.7089 28.8435V28.8187C18.7089 28.396 19.0805 28.0856 19.6549 28.0856C20.2941 28.0856 21.0518 28.3019 21.5402 28.5776C21.5402 28.5776 21.6846 28.6717 21.7365 28.5297C21.7658 28.4521 22.0124 27.7768 22.0383 27.7025C22.0659 27.6232 22.0172 27.5638 21.9653 27.5324C21.4072 27.1873 20.6365 26.9512 19.8382 26.9512L19.6906 26.9528C18.3309 26.9528 17.3834 27.7883 17.3834 28.9855V29.0102C17.3834 30.2701 18.4299 30.6813 19.4099 30.9653L19.5673 31.0148C20.2812 31.2377 20.8977 31.4309 20.8977 31.9411V31.9676C20.8977 32.4348 20.497 32.7833 19.8528 32.7833C19.6013 32.7833 18.8031 32.7783 17.9415 32.2235C17.8377 32.1607 17.7776 32.1162 17.6965 32.0666C17.6543 32.0402 17.5472 31.9923 17.5002 32.1343L17.2114 32.9616Z" fill="white"/>
<path d="M38.9384 32.9616C38.8929 33.0821 38.9546 33.1069 38.9692 33.1284C39.1055 33.2291 39.2418 33.3017 39.3813 33.3826C40.1195 33.7806 40.8172 33.8962 41.5457 33.8962C43.0303 33.8962 43.9519 33.0937 43.9519 31.8008V31.776C43.9519 30.5805 42.9103 30.1446 41.9351 29.8309L41.807 29.7896C41.0703 29.5469 40.4359 29.3355 40.4359 28.8435V28.8187C40.4359 28.396 40.8075 28.0856 41.3819 28.0856C42.0211 28.0856 42.7788 28.3019 43.2672 28.5776C43.2672 28.5776 43.4116 28.6717 43.4635 28.5297C43.4927 28.4521 43.7394 27.7768 43.7653 27.7025C43.7929 27.6232 43.7442 27.5638 43.6923 27.5324C43.1342 27.1873 42.3635 26.9512 41.5652 26.9512L41.4176 26.9528C40.0579 26.9528 39.1103 27.7883 39.1103 28.9855V29.0102C39.1103 30.2701 40.1585 30.6813 41.1369 30.9653L41.2942 31.0148C42.0081 31.2377 42.6263 31.4309 42.6263 31.9411V31.9676C42.6263 32.4348 42.2256 32.7833 41.5798 32.7833C41.3283 32.7833 40.5317 32.7783 39.6685 32.2235C39.5647 32.1607 39.503 32.1178 39.4235 32.0666C39.3975 32.0501 39.271 31.9989 39.2288 32.1343L38.9384 32.9616Z" fill="white"/>
<path d="M55.0093 29.0746C54.8876 28.6552 54.6978 28.287 54.4463 27.9799C54.1948 27.6711 53.8736 27.4234 53.4939 27.2435C53.1159 27.0635 52.6681 26.9727 52.1667 26.9727C51.6637 26.9727 51.2159 27.0651 50.8379 27.2435C50.4598 27.4234 50.1386 27.6711 49.8871 27.9799C49.634 28.287 49.4442 28.6569 49.3241 29.0746C49.2024 29.4908 49.1407 29.9465 49.1407 30.4286C49.1407 30.9108 49.2024 31.3682 49.3241 31.7843C49.4458 32.202 49.634 32.5703 49.8871 32.879C50.1386 33.1878 50.4598 33.4338 50.8395 33.6089C51.2175 33.7839 51.6654 33.8731 52.1683 33.8731C52.6697 33.8731 53.1159 33.7839 53.4955 33.6089C53.8736 33.4338 54.1948 33.1862 54.4479 32.879C54.6994 32.5719 54.8909 32.202 55.011 31.7843C55.1326 31.3682 55.1943 30.9124 55.1943 30.4286C55.1927 29.9465 55.131 29.4908 55.0093 29.0746ZM53.7714 30.4286C53.7714 31.1585 53.6367 31.7364 53.3738 32.1426C53.1126 32.5455 52.7184 32.742 52.1683 32.742C51.6183 32.742 51.2257 32.5455 50.9677 32.1426C50.7065 31.7364 50.575 31.1585 50.575 30.4286C50.575 29.6988 50.7065 29.1242 50.9661 28.7213C51.224 28.3233 51.6167 28.1285 52.1683 28.1285C52.7184 28.1285 53.1126 28.3217 53.3738 28.7213C53.6367 29.1242 53.7714 29.7005 53.7714 30.4286Z" fill="white"/>
<path fill-rule="evenodd" clip-rule="evenodd" d="M65.1825 32.5459C65.1419 32.4238 65.0235 32.47 65.0235 32.47C64.8434 32.541 64.6519 32.6037 64.4475 32.6368C64.2414 32.6698 64.0143 32.6863 63.7693 32.6863C63.1706 32.6863 62.6935 32.5047 62.3512 32.1463C62.0105 31.7864 61.8174 31.2068 61.819 30.4225C61.8206 29.7092 61.991 29.1725 62.2944 28.763C62.5962 28.3568 63.057 28.1471 63.6687 28.1471C64.1798 28.1471 64.5692 28.2082 64.978 28.337C64.978 28.337 65.0754 28.3799 65.1208 28.2511C65.2311 27.944 65.3106 27.7261 65.4258 27.3892C65.4583 27.2934 65.3788 27.2522 65.348 27.2406C65.1873 27.1762 64.8093 27.0722 64.5221 27.0276C64.256 26.9863 63.9413 26.9648 63.5924 26.9648C63.0732 26.9648 62.6092 27.0557 62.2117 27.2356C61.8158 27.414 61.4799 27.6617 61.2138 27.9704C60.9477 28.2792 60.7465 28.6474 60.6119 29.0652C60.4772 29.4813 60.4091 29.9387 60.4091 30.4225C60.4091 31.4677 60.6849 32.3131 61.2333 32.9307C61.7817 33.5532 62.6043 33.8686 63.6784 33.8686C64.3128 33.8686 64.9634 33.7381 65.4323 33.5499C65.4323 33.5499 65.5216 33.5053 65.4826 33.3996L65.1825 32.5459Z" fill="white"/>
<path fill-rule="evenodd" clip-rule="evenodd" d="M71.52 28.8369C71.4145 28.4323 71.1549 28.0245 70.9845 27.8379C70.7152 27.5407 70.4491 27.3343 70.1879 27.2203C69.8472 27.0717 69.4367 26.9727 68.9856 26.9727C68.4632 26.9727 67.9878 27.0618 67.6016 27.2468C67.2155 27.43 66.891 27.6827 66.6362 27.9964C66.3815 28.3085 66.19 28.6817 66.0684 29.1044C65.9467 29.5238 65.885 29.9812 65.885 30.465C65.885 30.957 65.9483 31.4161 66.0748 31.8272C66.203 32.2433 66.4058 32.6082 66.6817 32.9121C66.9575 33.2175 67.3128 33.4553 67.7363 33.6237C68.1581 33.7889 68.6708 33.8764 69.2582 33.8731C70.4686 33.8698 71.1079 33.5957 71.3707 33.4471C71.4177 33.4206 71.4616 33.3744 71.4064 33.2423L71.1306 32.4613C71.0884 32.3457 70.9732 32.387 70.9732 32.387C70.673 32.5009 70.2463 32.704 69.2517 32.7024C68.6011 32.7007 68.1192 32.5059 67.8174 32.2004C67.5075 31.8883 67.355 31.4293 67.329 30.782L71.5216 30.7853C71.5216 30.7853 71.6319 30.7837 71.6433 30.673C71.6498 30.6284 71.7893 29.7979 71.52 28.8369ZM67.3501 29.7285C67.4102 29.3223 67.5189 28.9855 67.6892 28.7229C67.9456 28.3233 68.3366 28.1021 68.8883 28.1021C69.4383 28.1021 69.8017 28.3233 70.063 28.7229C70.2366 28.9871 70.3112 29.3372 70.342 29.7302L67.3501 29.7285Z" fill="white"/>
<path fill-rule="evenodd" clip-rule="evenodd" d="M37.9356 28.8369C37.8302 28.4323 37.5706 28.0245 37.4002 27.8379C37.1309 27.5407 36.8664 27.3343 36.6036 27.2203C36.2612 27.0717 35.8523 26.9727 35.4029 26.9727C34.8788 26.9727 34.4034 27.0618 34.0173 27.2468C33.6311 27.43 33.3066 27.6827 33.0519 27.9964C32.7971 28.3085 32.6057 28.6817 32.484 29.1044C32.3623 29.5238 32.3007 29.9812 32.3007 30.465C32.3007 30.957 32.3639 31.4161 32.4905 31.8272C32.6187 32.2433 32.8215 32.6082 33.0973 32.9121C33.3731 33.2175 33.7285 33.4553 34.1519 33.6237C34.5738 33.7889 35.0865 33.8764 35.6739 33.8731C36.8843 33.8698 37.5235 33.5957 37.7864 33.4471C37.8334 33.4206 37.8772 33.3744 37.8221 33.2423L37.5462 32.4613C37.5041 32.3457 37.3889 32.387 37.3889 32.387C37.0887 32.5009 36.662 32.704 35.6674 32.7024C35.0184 32.7007 34.5349 32.5059 34.2331 32.2004C33.9232 31.8883 33.7707 31.4293 33.7447 30.782L37.9373 30.7853C37.9373 30.7853 38.0476 30.7837 38.0589 30.673C38.0654 30.6284 38.205 29.7979 37.9356 28.8369ZM33.7658 29.7285C33.8258 29.3223 33.9345 28.9855 34.1033 28.7229C34.3612 28.3233 34.7523 28.1021 35.3023 28.1021C35.8523 28.1021 36.2174 28.3233 36.4786 28.7229C36.6506 28.9871 36.7269 29.3372 36.7561 29.7302L33.7658 29.7285Z" fill="white"/>
<path d="M26.3688 29.5259C26.1985 29.5127 25.9778 29.5061 25.715 29.5061C25.3548 29.5061 25.0076 29.5523 24.6814 29.6415C24.3537 29.7306 24.06 29.8693 23.8069 30.0543C23.5522 30.2408 23.3477 30.477 23.1985 30.7593C23.0492 31.04 22.9745 31.3719 22.9745 31.7418C22.9745 32.1199 23.0378 32.4485 23.1676 32.716C23.2958 32.9852 23.4791 33.2114 23.7144 33.3831C23.9481 33.5565 24.2352 33.6836 24.5679 33.7596C24.8972 33.8372 25.2704 33.8752 25.6793 33.8752C26.1092 33.8752 26.5376 33.8388 26.9529 33.7662C27.3651 33.6952 27.868 33.5912 28.0092 33.5581C28.1487 33.5251 28.3029 33.4822 28.3029 33.4822C28.4067 33.4558 28.3986 33.3418 28.3986 33.3418L28.397 29.44C28.397 28.583 28.1731 27.949 27.7317 27.5543C27.292 27.163 26.643 26.9648 25.8042 26.9648C25.4894 26.9648 24.9848 27.0078 24.6798 27.0705C24.6798 27.0705 23.7647 27.2505 23.3883 27.5527C23.3883 27.5527 23.3055 27.6039 23.3493 27.7227L23.6463 28.5351C23.6836 28.6408 23.7842 28.6045 23.7842 28.6045C23.7842 28.6045 23.8166 28.5913 23.8539 28.5682C24.6603 28.1223 25.6809 28.1356 25.6809 28.1356C26.1336 28.1356 26.4824 28.2297 26.7177 28.4113C26.9464 28.5913 27.0616 28.8588 27.0616 29.4285V29.6084C26.7014 29.5556 26.3688 29.5259 26.3688 29.5259ZM24.7009 32.5245C24.5354 32.3907 24.5143 32.3577 24.4591 32.2718C24.3748 32.1414 24.3326 31.9548 24.3326 31.717C24.3326 31.3422 24.4543 31.0714 24.7074 30.8914C24.7058 30.8914 25.0692 30.5711 25.9243 30.5827C26.5246 30.5909 27.0633 30.6817 27.0633 30.6817V32.6219C27.0633 32.6219 26.5311 32.7375 25.9308 32.7738C25.0773 32.825 24.6977 32.5228 24.7009 32.5245Z" fill="white"/>
<path fill-rule="evenodd" clip-rule="evenodd" d="M60.1932 27.3256C60.2257 27.2298 60.1575 27.1836 60.13 27.172C60.0586 27.1456 59.7016 27.068 59.4274 27.0498C58.9001 27.0168 58.6081 27.1076 58.3452 27.2265C58.084 27.3454 57.7968 27.5386 57.6378 27.7582L57.6362 27.2381C57.6362 27.1671 57.5859 27.1093 57.5161 27.1093H56.4404C56.3706 27.1093 56.3203 27.1671 56.3203 27.2381V33.6051C56.3203 33.6761 56.3771 33.7339 56.4485 33.7339H57.5502C57.6199 33.7339 57.6767 33.6761 57.6767 33.6051V30.4249C57.6767 29.9972 57.7238 29.5729 57.8163 29.3054C57.9071 29.0395 58.0304 28.8298 58.183 28.6779C58.3355 28.526 58.5107 28.4203 58.7022 28.3609C58.8969 28.2998 59.1127 28.28 59.2635 28.28C59.4842 28.28 59.7243 28.3378 59.7243 28.3378C59.8055 28.346 59.8509 28.2948 59.8785 28.2222C59.9499 28.0257 60.1543 27.4412 60.1932 27.3256Z" fill="white"/>
<path fill-rule="evenodd" clip-rule="evenodd" d="M49.8514 24.3758C49.7167 24.3328 49.5967 24.3048 49.436 24.2767C49.2738 24.247 49.0823 24.2305 48.8665 24.2305C48.1088 24.2305 47.5101 24.4484 47.0915 24.8794C46.6745 25.3071 46.3906 25.9576 46.2478 26.8146L46.1975 27.1036H45.2451C45.2451 27.1036 45.1283 27.0986 45.1039 27.2274L44.9482 28.1141C44.9368 28.1983 44.9725 28.2512 45.0845 28.2512H46.0109L45.0699 33.5928C44.9968 34.0222 44.9125 34.3755 44.8184 34.6447C44.7275 34.9105 44.6366 35.107 44.5263 35.2523C44.4192 35.391 44.3186 35.495 44.1418 35.5545C43.9974 35.6024 43.8303 35.6255 43.6485 35.6255C43.5479 35.6255 43.4133 35.609 43.3127 35.5875C43.2121 35.5677 43.1602 35.5446 43.0855 35.5132C43.0855 35.5132 42.9768 35.4703 42.933 35.5809C42.8989 35.6717 42.6523 36.3636 42.6231 36.4494C42.5939 36.5336 42.6345 36.5997 42.688 36.6195C42.8113 36.6641 42.9022 36.6938 43.0709 36.7334C43.3046 36.7896 43.5009 36.7929 43.6859 36.7929C44.072 36.7929 44.4241 36.7384 44.7145 36.6311C45.0082 36.5221 45.2629 36.3338 45.4901 36.0812C45.7335 35.8071 45.8876 35.5182 46.0352 35.1252C46.1813 34.7371 46.3046 34.2533 46.4036 33.6919L47.3479 28.2512H48.7286C48.7286 28.2512 48.8454 28.2561 48.8698 28.1273L49.0255 27.2406C49.0369 27.1564 49.0012 27.1036 48.8892 27.1036H47.549C47.5555 27.0739 47.6156 26.5934 47.7697 26.1409C47.8362 25.9477 47.9595 25.7925 48.065 25.6852C48.1672 25.5795 48.2857 25.5052 48.4155 25.4623C48.5485 25.4193 48.6994 25.3979 48.8649 25.3979C48.9915 25.3979 49.1148 25.4127 49.2089 25.4326C49.3387 25.4606 49.389 25.4755 49.423 25.4854C49.5593 25.5283 49.5772 25.487 49.6048 25.421L49.9244 24.5244C49.9617 24.4286 49.8806 24.3873 49.8514 24.3758Z" fill="white"/>
<path fill-rule="evenodd" clip-rule="evenodd" d="M31.1162 33.606C31.1162 33.677 31.0659 33.7365 30.9962 33.7365H29.8831C29.8134 33.7365 29.7631 33.6787 29.7631 33.606V24.4979C29.7631 24.4269 29.8134 24.3691 29.8831 24.3691H30.9962C31.0659 24.3691 31.1162 24.4269 31.1162 24.4979V33.606Z" fill="white"/>
</svg>
