<svg version="1.0" xmlns="http://www.w3.org/2000/svg"
 width="70" height="88" viewBox="0 0 70.000000 88.000000"
 preserveAspectRatio="xMidYMid meet">
<g transform="translate(0.000000,88.000000) scale(0.100000,-0.100000)"
fill="#CE5938" stroke="none">
<path d="M317 793 c-8 -16 -17 -54 -21 -87 -7 -61 -20 -96 -36 -96 -6 0 -10
11 -10 25 0 15 -8 40 -17 58 l-17 32 -7 -40 c-4 -22 -17 -67 -28 -99 -25 -70
-27 -120 -6 -160 8 -15 15 -32 15 -36 0 -4 -29 -2 -65 5 -36 6 -65 8 -65 4 0
-4 15 -27 33 -51 l33 -43 227 -3 226 -2 35 52 c20 28 34 53 33 54 -1 1 -33 -4
-72 -11 -38 -8 -71 -12 -73 -10 -2 2 4 17 12 34 27 50 21 127 -16 201 -17 36
-32 77 -32 92 -1 16 -4 28 -8 28 -9 0 -38 -96 -38 -127 0 -13 -4 -23 -10 -23
-5 0 -10 11 -10 24 0 14 -13 60 -29 103 -15 43 -26 84 -24 91 9 24 -17 11 -30
-15z"/>
<path d="M130 225 l0 -35 226 0 225 0 -3 33 -3 32 -222 3 -223 2 0 -35z"/>
<path d="M220 137 c0 -23 32 -59 66 -73 71 -30 162 -7 189 47 8 15 15 30 153 4 0 3 -61 5 -135 5 -103 0 -135 -3 -135 -13z"/>
</g>
</svg>
