<svg fill="none" height="64" viewBox="0 0 64 64" width="64" xmlns="http://www.w3.org/2000/svg">
<path d="m40.792 30.712h-7.612v-8.2729h-2.991v8.2729h-7.612v2.9361h7.612v8.2769h2.991v-8.2769h7.612z" fill="#e8762b"/>
<path d="m25.492 44.22h-6.823v-7.407h-2.577v7.407h-6.82198v2.2571h6.82198v7.411h2.577v-7.411h6.823z" fill="#c62035"/>
<path d="m54.1011 17.7229h-6.818v-7.4449h-2.5821v7.4449h-6.8229v2.2571h6.8229v7.3689h2.5821v-7.3689h6.818z" fill="#59869a"/>
<path d="m37.459 52.437h-4.63v-5.167h-2.206v5.167h-4.63v2h4.63v5.167h2.206v-5.167h4.63z" fill="#5a6590"/>
<path d="m25.4921 17.7229h-6.9001v-7.4449h-2.4189v7.4449h-6.90003v2.1851h6.90003v7.4499h2.4189v-7.4499h6.9001z" fill="#eb902b"/>
<path d="m59.335 31.1849h-4.625v-5.166h-2.2069v5.167h-4.625v1.9921h4.625v5.172h2.2059v-5.172h4.625z" fill="#5a6590"/>
<path clip-rule="evenodd" d="m54.1011 44.22h-6.818v-7.407h-2.5821v7.407h-6.8229v2.2571h6.8229v7.411h2.5821v-7.411h6.818z" fill="#325389" fill-rule="evenodd"/>
<g fill="#7098a5">
<path d="m30.902 5v5.069h-4.575v1.532h4.5741v5.0639h1.651v-5.0639h4.57v-1.532h-4.57v-5.069z"/>
<path d="m8.5741 26.4189v4.9621h-4.57398v1.6l4.57398-.026v5h1.609v-5.009l4.6-.0211v-1.5359h-4.6v-4.962z"/>
</g>
</svg>