<svg width="290" height="280" viewBox="0 0 290 280" fill="none" xmlns="http://www.w3.org/2000/svg">
<g filter="url(#filter0_d_2026_78448)">
<mask id="path-1-outside-1_2026_78448" maskUnits="userSpaceOnUse" x="65" y="63" width="159" height="154" fill="black">
<rect fill="white" x="65" y="63" width="159" height="154"/>
<path d="M216.865 103.56C216.822 103.42 216.771 103.282 216.712 103.148C216.617 102.905 216.503 102.661 216.388 102.436C216.296 102.293 216.194 102.155 216.083 102.024C215.939 101.825 215.78 101.637 215.606 101.462L215.187 101.125L214.787 100.826L214.577 100.732C214.529 100.682 214.47 100.644 214.405 100.62L158.732 73.2733C154.301 71.1201 149.424 70 144.48 70C139.537 70 134.66 71.1201 130.228 73.2733L74.6124 100.601L74.4408 100.713L74.2311 100.807L73.8689 101.125C73.7354 101.238 73.5638 101.35 73.4494 101.462C73.2757 101.637 73.1163 101.825 72.9727 102.024C72.8561 102.15 72.7538 102.289 72.6677 102.436C72.5326 102.661 72.4239 102.9 72.3436 103.148C72.3436 103.298 72.2101 103.41 72.172 103.56C72.0587 103.982 72.001 104.416 72.0004 104.853V150.798C71.9687 157.847 73.9491 164.764 77.7169 170.763C81.4847 176.762 86.889 181.603 93.3163 184.737L142.354 208.824C142.539 208.907 142.731 208.976 142.926 209.03L143.289 209.162C143.683 209.256 144.085 209.312 144.49 209.33C144.895 209.311 145.297 209.254 145.691 209.162L146.053 209.03C146.25 208.978 146.441 208.909 146.625 208.824L195.663 184.737C202.093 181.604 207.5 176.764 211.271 170.765C215.042 164.766 217.026 157.849 216.998 150.798V104.796C217.01 104.38 216.965 103.965 216.865 103.56Z"/>
</mask>
<path d="M216.865 103.56C216.822 103.42 216.771 103.282 216.712 103.148C216.617 102.905 216.503 102.661 216.388 102.436C216.296 102.293 216.194 102.155 216.083 102.024C215.939 101.825 215.78 101.637 215.606 101.462L215.187 101.125L214.787 100.826L214.577 100.732C214.529 100.682 214.47 100.644 214.405 100.62L158.732 73.2733C154.301 71.1201 149.424 70 144.48 70C139.537 70 134.66 71.1201 130.228 73.2733L74.6124 100.601L74.4408 100.713L74.2311 100.807L73.8689 101.125C73.7354 101.238 73.5638 101.35 73.4494 101.462C73.2757 101.637 73.1163 101.825 72.9727 102.024C72.8561 102.15 72.7538 102.289 72.6677 102.436C72.5326 102.661 72.4239 102.9 72.3436 103.148C72.3436 103.298 72.2101 103.41 72.172 103.56C72.0587 103.982 72.001 104.416 72.0004 104.853V150.798C71.9687 157.847 73.9491 164.764 77.7169 170.763C81.4847 176.762 86.889 181.603 93.3163 184.737L142.354 208.824C142.539 208.907 142.731 208.976 142.926 209.03L143.289 209.162C143.683 209.256 144.085 209.312 144.49 209.33C144.895 209.311 145.297 209.254 145.691 209.162L146.053 209.03C146.25 208.978 146.441 208.909 146.625 208.824L195.663 184.737C202.093 181.604 207.5 176.764 211.271 170.765C215.042 164.766 217.026 157.849 216.998 150.798V104.796C217.01 104.38 216.965 103.965 216.865 103.56Z" fill="white"/>
<path d="M216.865 103.56L223.659 101.876L223.615 101.699L223.562 101.524L216.865 103.56ZM216.712 103.148L210.194 105.7L210.246 105.833L210.303 105.963L216.712 103.148ZM216.388 102.436L222.627 99.2613L222.466 98.9461L222.275 98.6488L216.388 102.436ZM216.083 102.024L210.404 106.116L210.564 106.339L210.741 106.548L216.083 102.024ZM215.606 101.462L220.571 96.5274L220.296 96.2508L219.992 96.0065L215.606 101.462ZM215.187 101.125L219.572 95.6693L219.478 95.5936L219.382 95.5212L215.187 101.125ZM214.787 100.826L218.981 95.2215L218.355 94.7528L217.641 94.4339L214.787 100.826ZM214.577 100.732L209.524 105.577L210.472 106.565L211.723 107.124L214.577 100.732ZM214.405 100.62L211.319 106.903L211.639 107.06L211.973 107.183L214.405 100.62ZM158.732 73.2733L161.818 66.9904L161.805 66.9838L161.792 66.9773L158.732 73.2733ZM144.48 70V77V70ZM130.228 73.2733L127.169 66.9773L127.155 66.984L127.141 66.9908L130.228 73.2733ZM74.6124 100.601L71.5254 94.3183L71.1382 94.5086L70.7773 94.7449L74.6124 100.601ZM74.4408 100.713L77.295 107.105L77.8069 106.876L78.276 106.569L74.4408 100.713ZM74.2311 100.807L71.377 94.4152L70.4073 94.8481L69.6097 95.5492L74.2311 100.807ZM73.8689 101.125L78.3776 106.48L78.4344 106.432L78.4902 106.383L73.8689 101.125ZM73.4494 101.462L68.5438 96.4689L68.5142 96.498L68.485 96.5274L73.4494 101.462ZM72.9727 102.024L78.1104 106.779L78.4016 106.464L78.6522 106.116L72.9727 102.024ZM72.6677 102.436L78.665 106.046L78.691 106.003L78.7163 105.96L72.6677 102.436ZM72.3436 103.148L65.6825 100.996L65.3436 102.046V103.148L72.3436 103.148ZM72.172 103.56L78.9324 105.376L78.9444 105.331L78.9558 105.287L72.172 103.56ZM72.0004 104.853L65.0004 104.842V104.853H72.0004ZM72.0004 150.798L79.0003 150.83L79.0004 150.814V150.798H72.0004ZM93.3163 184.737L96.4024 178.454L96.3934 178.45L96.3843 178.445L93.3163 184.737ZM142.354 208.824L139.268 215.107L139.379 215.162L139.492 215.212L142.354 208.824ZM142.926 209.03L145.309 202.448L145.055 202.357L144.796 202.285L142.926 209.03ZM143.289 209.162L140.906 215.744L141.278 215.878L141.663 215.97L143.289 209.162ZM144.49 209.33L144.178 216.323L144.501 216.338L144.825 216.322L144.49 209.33ZM145.691 209.162L147.294 215.976L147.69 215.882L148.073 215.744L145.691 209.162ZM146.053 209.03L144.26 202.264L143.961 202.343L143.671 202.448L146.053 209.03ZM146.625 208.824L149.559 215.18L149.636 215.145L149.711 215.107L146.625 208.824ZM195.663 184.737L192.597 178.445L192.587 178.45L192.577 178.454L195.663 184.737ZM216.998 150.798H209.998V150.812L209.998 150.826L216.998 150.798ZM216.998 104.796L210.001 104.601L209.998 104.699V104.796H216.998ZM223.562 101.524C223.439 101.118 223.291 100.721 223.121 100.333L210.303 105.963C210.251 105.844 210.206 105.722 210.167 105.596L223.562 101.524ZM223.23 100.596C223.026 100.074 222.806 99.6134 222.627 99.2613L210.15 105.612C210.172 105.655 210.187 105.686 210.196 105.706C210.205 105.726 210.203 105.723 210.194 105.7L223.23 100.596ZM222.275 98.6488C222.017 98.2473 221.732 97.8638 221.425 97.5005L210.741 106.548C210.655 106.446 210.575 106.338 210.501 106.224L222.275 98.6488ZM221.763 97.9325C221.403 97.4329 221.004 96.9631 220.571 96.5274L210.642 106.397C210.556 106.311 210.476 106.217 210.404 106.116L221.763 97.9325ZM219.992 96.0065L219.572 95.6693L210.801 106.581L211.221 106.918L219.992 96.0065ZM219.382 95.5212L218.981 95.2215L210.592 106.43L210.992 106.729L219.382 95.5212ZM217.641 94.4339L217.431 94.3402L211.723 107.124L211.932 107.217L217.641 94.4339ZM219.63 95.8874C218.844 95.068 217.887 94.4447 216.838 94.0557L211.973 107.183C211.054 106.843 210.214 106.296 209.524 105.577L219.63 95.8874ZM217.491 94.3366L161.818 66.9904L155.646 79.5563L211.319 106.903L217.491 94.3366ZM161.792 66.9773C156.404 64.3592 150.48 63 144.48 63V77C148.368 77 152.198 77.8811 155.673 79.5694L161.792 66.9773ZM144.48 63C138.48 63 132.557 64.3592 127.169 66.9773L133.288 79.5694C136.762 77.8811 140.593 77 144.48 77V63ZM127.141 66.9908L71.5254 94.3183L77.6994 106.883L133.315 79.5559L127.141 66.9908ZM70.7773 94.7449L70.6057 94.8573L78.276 106.569L78.4476 106.457L70.7773 94.7449ZM71.5867 94.3215L71.377 94.4152L77.0852 107.199L77.295 107.105L71.5867 94.3215ZM69.6097 95.5492L69.2475 95.8676L78.4902 106.383L78.8525 106.065L69.6097 95.5492ZM69.3601 95.7708C69.4052 95.7327 69.4413 95.7037 69.4638 95.6858C69.4864 95.6679 69.5014 95.6564 69.5039 95.6545C69.5056 95.6531 69.5031 95.6551 69.4864 95.6677C69.4752 95.6762 69.4436 95.7 69.4145 95.7222C69.3563 95.7664 69.2397 95.8555 69.1057 95.9654C68.9733 96.074 68.7707 96.246 68.5438 96.4689L78.355 106.456C78.3103 106.5 78.2689 106.539 78.2315 106.574C78.1942 106.608 78.1599 106.639 78.1294 106.666C78.0989 106.693 78.0712 106.717 78.0471 106.738C78.0229 106.758 78.0014 106.776 77.9832 106.791C77.9474 106.82 77.9202 106.842 77.9059 106.853C77.8984 106.859 77.893 106.863 77.8904 106.865C77.8879 106.867 77.8873 106.867 77.8895 106.866C77.8917 106.864 77.8955 106.861 77.9024 106.856C77.9058 106.853 77.9095 106.85 77.914 106.847C77.9182 106.844 77.9236 106.84 77.9289 106.836C77.9397 106.828 77.9537 106.817 77.9689 106.805C77.9843 106.794 78.0024 106.78 78.0223 106.765C78.0615 106.735 78.1126 106.695 78.1706 106.649C78.2285 106.603 78.2991 106.546 78.3776 106.48L69.3601 95.7708ZM68.485 96.5274C68.0518 96.9631 67.6532 97.4329 67.2933 97.9325L78.6522 106.116C78.5795 106.217 78.4997 106.311 78.4138 106.397L68.485 96.5274ZM67.8351 97.2699C67.372 97.7704 66.9639 98.3211 66.6191 98.913L78.7163 105.96C78.5438 106.256 78.3402 106.53 78.1104 106.779L67.8351 97.2699ZM66.6704 98.8264C66.2598 99.5085 65.928 100.236 65.6825 100.996L79.0046 105.3C78.9197 105.563 78.8054 105.813 78.665 106.046L66.6704 98.8264ZM65.3436 103.148C65.3436 102.118 65.5782 101.287 65.792 100.733C65.9869 100.228 66.2013 99.8689 66.2212 99.8346C66.2309 99.818 66.2379 99.8062 66.2332 99.8141C66.2324 99.8156 66.2174 99.8409 66.2024 99.8665C66.1716 99.919 66.1015 100.039 66.0209 100.193C65.863 100.492 65.5835 101.066 65.3882 101.834L78.9558 105.287C78.7795 105.979 78.531 106.483 78.4088 106.715C78.3461 106.834 78.2951 106.921 78.2837 106.941C78.2784 106.95 78.2731 106.958 78.282 106.943C78.287 106.935 78.3037 106.907 78.3229 106.874C78.381 106.774 78.6311 106.349 78.8523 105.776C79.0922 105.155 79.3436 104.253 79.3436 103.148L65.3436 103.148ZM65.4116 101.745C65.1403 102.754 65.0019 103.796 65.0004 104.842L79.0004 104.863C79.0001 105.037 78.9771 105.21 78.9324 105.376L65.4116 101.745ZM65.0004 104.853V150.798H79.0004V104.853H65.0004ZM65.0004 150.767C64.9627 159.15 67.3188 167.368 71.7891 174.486L83.6447 167.04C80.5794 162.159 78.9746 156.544 79.0003 150.83L65.0004 150.767ZM71.7891 174.486C76.2586 181.602 82.6583 187.328 90.2483 191.029L96.3843 178.445C91.1196 175.878 86.7108 171.922 83.6447 167.04L71.7891 174.486ZM90.2301 191.02L139.268 215.107L145.441 202.541L96.4024 178.454L90.2301 191.02ZM139.492 215.212C139.999 215.44 140.522 215.628 141.057 215.776L144.796 202.285C144.939 202.324 145.08 202.375 145.217 202.437L139.492 215.212ZM140.544 215.613L140.906 215.744L145.671 202.579L145.309 202.448L140.544 215.613ZM141.663 215.97C142.488 216.167 143.331 216.285 144.178 216.323L144.801 202.337C144.839 202.339 144.877 202.344 144.915 202.353L141.663 215.97ZM144.825 216.322C145.656 216.282 146.483 216.166 147.294 215.976L144.088 202.348C144.11 202.342 144.133 202.339 144.155 202.338L144.825 216.322ZM148.073 215.744L148.436 215.613L143.671 202.448L143.309 202.579L148.073 215.744ZM147.847 215.797C148.434 215.641 149.007 215.435 149.559 215.18L143.691 202.469C143.875 202.384 144.066 202.316 144.26 202.264L147.847 215.797ZM149.711 215.107L198.749 191.02L192.577 178.454L143.539 202.541L149.711 215.107ZM198.73 191.03C206.322 187.33 212.724 181.606 217.197 174.49L205.344 167.039C202.275 171.921 197.864 175.878 192.597 178.445L198.73 191.03ZM217.197 174.49C221.671 167.373 224.031 159.156 223.998 150.77L209.998 150.826C210.021 156.542 208.413 162.158 205.344 167.039L217.197 174.49ZM223.998 150.798V104.796H209.998V150.798H223.998ZM223.995 104.992C224.025 103.943 223.912 102.895 223.659 101.876L210.07 105.244C210.018 105.034 209.995 104.818 210.001 104.601L223.995 104.992Z" fill="white" mask="url(#path-1-outside-1_2026_78448)"/>
</g>
<g clip-path="url(#clip0_2026_78448)">
<mask id="mask0_2026_78448" style="mask-type:alpha" maskUnits="userSpaceOnUse" x="104" y="88" width="82" height="105">
<path d="M186 88.0176H104V192.018H186V88.0176Z" fill="white"/>
<path fill-rule="evenodd" clip-rule="evenodd" d="M117.277 144.98L117.32 144.989L117.369 144.998C120.472 145.61 123.535 146.214 126.667 146.831C126.593 146.684 126.533 146.55 126.479 146.429C126.376 146.201 126.292 146.014 126.17 145.854C121.68 139.985 120.905 133.577 123.056 126.791C123.496 125.396 124.016 124.024 124.536 122.652L124.536 122.652C124.87 121.77 125.204 120.887 125.517 119.999C125.717 119.435 125.929 118.872 126.142 118.308H126.142C126.747 116.704 127.354 115.097 127.675 113.446C127.972 111.93 128.01 110.37 128.051 108.692C128.07 107.93 128.089 107.143 128.133 106.325C128.342 106.448 128.583 106.561 128.827 106.675H128.828C129.378 106.932 129.949 107.198 130.226 107.626C131.415 109.484 132.597 111.408 133.34 113.446C133.81 114.733 134.001 116.108 134.191 117.483C134.276 118.094 134.361 118.706 134.471 119.309C134.505 119.495 134.55 119.68 134.608 119.921L134.608 119.922C134.65 120.094 134.698 120.295 134.755 120.544C136.499 117.996 137.339 115.431 137.83 112.799C138.327 110.161 138.573 107.476 138.786 104.796C139.044 101.571 140.02 98.6155 142.313 96.1637C142.877 95.5621 143.619 95.1012 144.36 94.6419C144.689 94.4376 145.018 94.2335 145.33 94.0176C145.462 94.184 145.562 94.3023 145.635 94.3876V94.3876C145.75 94.5235 145.794 94.5756 145.782 94.6051C144.309 98.0041 145.459 101.157 146.926 104.233C149.956 110.569 152.003 117.121 152.049 124.075C152.259 122.9 152.455 121.723 152.651 120.547L152.651 120.546V120.546C153.087 117.928 153.523 115.31 154.116 112.721C154.962 109.022 156.248 105.437 159.361 102.74C159.361 103.444 159.346 104.127 159.332 104.797V104.797V104.797C159.3 106.238 159.27 107.612 159.394 108.974C159.737 112.705 161.611 115.914 163.486 119.124C163.66 119.422 163.834 119.719 164.006 120.017C167.746 126.467 168.832 133.277 166.538 140.363C166.142 141.585 165.472 142.736 164.803 143.885L164.803 143.885C164.524 144.364 164.245 144.843 163.987 145.326C163.824 145.629 163.623 145.916 163.394 146.244C163.268 146.424 163.134 146.617 162.992 146.831C169.032 145.728 174.827 144.667 180.621 143.606C180.723 143.721 180.829 143.836 180.932 143.947L180.933 143.948L180.977 143.996C180.854 144.319 180.748 144.652 180.642 144.986L180.642 144.986C180.408 145.722 180.173 146.46 179.756 147.095C177.721 150.182 175.628 153.239 173.36 156.183C172.85 156.842 171.564 157.316 170.628 157.316C153.883 157.382 137.145 157.376 120.401 157.328C119.548 157.328 118.424 156.968 117.894 156.405C114.813 153.114 112.19 149.541 110.549 145.422C110.438 145.141 110.359 144.848 110.245 144.426C110.179 144.183 110.102 143.897 110 143.546C112.484 144.035 114.892 144.51 117.277 144.98ZM145.313 170.936C143.233 170.936 141.153 170.934 139.074 170.932H139.073C132.835 170.926 126.6 170.921 120.365 170.966C118.814 170.978 118.252 170.516 118.323 169.089C118.42 167.201 118.407 165.301 118.323 163.412C118.259 162.01 118.776 161.5 120.352 161.512C126.35 161.557 132.344 161.551 138.34 161.546H138.34C140.339 161.544 142.338 161.542 144.338 161.542C146.62 161.542 148.901 161.544 151.183 161.547C157.648 161.554 164.113 161.561 170.579 161.512C172.213 161.5 172.775 161.985 172.685 163.484C172.568 165.372 172.581 167.273 172.678 169.161C172.749 170.528 172.232 170.972 170.747 170.966C164.266 170.924 157.781 170.929 151.299 170.933H151.296H151.295C149.301 170.934 147.307 170.936 145.313 170.936ZM130.41 179.926C133.744 185.393 139.228 187.281 145.075 187.539C149.067 187.461 152.323 186.754 155.275 185.057C158.77 183.067 161.141 180.31 161.89 176.485C162.071 175.544 162.155 174.65 160.637 174.65C150.559 174.656 140.488 174.657 130.417 174.645C129.267 174.645 128.789 175.16 129.06 176.131C129.119 176.343 129.177 176.557 129.235 176.771C129.528 177.863 129.827 178.974 130.41 179.926Z" fill="black"/>
</mask>
<g mask="url(#mask0_2026_78448)">
<path fill-rule="evenodd" clip-rule="evenodd" d="M117.277 144.98L117.32 144.989L117.369 144.998C120.472 145.61 123.535 146.214 126.667 146.831C126.593 146.684 126.533 146.55 126.479 146.429C126.376 146.201 126.292 146.014 126.17 145.854C121.68 139.985 120.905 133.577 123.056 126.791C123.496 125.396 124.016 124.024 124.536 122.652L124.536 122.652C124.87 121.77 125.204 120.887 125.517 119.999C125.717 119.435 125.929 118.872 126.142 118.308H126.142C126.747 116.704 127.354 115.097 127.675 113.446C127.972 111.93 128.01 110.37 128.051 108.692C128.07 107.93 128.089 107.143 128.133 106.325C128.342 106.448 128.583 106.561 128.827 106.675H128.828C129.378 106.932 129.949 107.198 130.226 107.626C131.415 109.484 132.597 111.408 133.34 113.446C133.81 114.733 134.001 116.108 134.191 117.483C134.276 118.094 134.361 118.706 134.471 119.309C134.505 119.495 134.55 119.68 134.608 119.921L134.608 119.922C134.65 120.094 134.698 120.295 134.755 120.544C136.499 117.996 137.339 115.431 137.83 112.799C138.327 110.161 138.573 107.476 138.786 104.796C139.044 101.571 140.02 98.6155 142.313 96.1637C142.877 95.5621 143.619 95.1012 144.36 94.6419C144.689 94.4376 145.018 94.2335 145.33 94.0176C145.462 94.184 145.562 94.3023 145.635 94.3876V94.3876C145.75 94.5235 145.794 94.5756 145.782 94.6051C144.309 98.0041 145.459 101.157 146.926 104.233C149.956 110.569 152.003 117.121 152.049 124.075C152.259 122.9 152.455 121.723 152.651 120.547L152.651 120.546V120.546C153.087 117.928 153.523 115.31 154.116 112.721C154.962 109.022 156.248 105.437 159.361 102.74C159.361 103.444 159.346 104.127 159.332 104.797V104.797V104.797C159.3 106.238 159.27 107.612 159.394 108.974C159.737 112.705 161.611 115.914 163.486 119.124C163.66 119.422 163.834 119.719 164.006 120.017C167.746 126.467 168.832 133.277 166.538 140.363C166.142 141.585 165.472 142.736 164.803 143.885L164.803 143.885C164.524 144.364 164.245 144.843 163.987 145.326C163.824 145.629 163.623 145.916 163.394 146.244C163.268 146.424 163.134 146.617 162.992 146.831C169.032 145.728 174.827 144.667 180.621 143.606C180.723 143.721 180.829 143.836 180.932 143.947L180.933 143.948L180.977 143.996C180.854 144.319 180.748 144.652 180.642 144.986L180.642 144.986C180.408 145.722 180.173 146.46 179.756 147.095C177.721 150.182 175.628 153.239 173.36 156.183C172.85 156.842 171.564 157.316 170.628 157.316C153.883 157.382 137.145 157.376 120.401 157.328C119.548 157.328 118.424 156.968 117.894 156.405C114.813 153.114 112.19 149.541 110.549 145.422C110.438 145.141 110.359 144.848 110.245 144.426C110.179 144.183 110.102 143.897 110 143.546C112.484 144.035 114.892 144.51 117.277 144.98ZM145.313 170.936C143.233 170.936 141.153 170.934 139.074 170.932H139.073C132.835 170.926 126.6 170.921 120.365 170.966C118.814 170.978 118.252 170.516 118.323 169.089C118.42 167.201 118.407 165.301 118.323 163.412C118.259 162.01 118.776 161.5 120.352 161.512C126.35 161.557 132.344 161.551 138.34 161.546H138.34C140.339 161.544 142.338 161.542 144.338 161.542C146.62 161.542 148.901 161.544 151.183 161.547C157.648 161.554 164.113 161.561 170.579 161.512C172.213 161.5 172.775 161.985 172.685 163.484C172.568 165.372 172.581 167.273 172.678 169.161C172.749 170.528 172.232 170.972 170.747 170.966C164.266 170.924 157.781 170.929 151.299 170.933H151.296H151.295C149.301 170.934 147.307 170.936 145.313 170.936ZM130.41 179.926C133.744 185.393 139.228 187.281 145.075 187.539C149.067 187.461 152.323 186.754 155.275 185.057C158.77 183.067 161.141 180.31 161.89 176.485C162.071 175.544 162.155 174.65 160.637 174.65C150.559 174.656 140.488 174.657 130.417 174.645C129.267 174.645 128.789 175.16 129.06 176.131C129.119 176.343 129.177 176.557 129.235 176.771C129.528 177.863 129.827 178.974 130.41 179.926Z" fill="#CE5938"/>
</g>
</g>
<defs>
<filter id="filter0_d_2026_78448" x="31" y="41" width="227" height="221.338" filterUnits="userSpaceOnUse" color-interpolation-filters="sRGB">
<feFlood flood-opacity="0" result="BackgroundImageFix"/>
<feColorMatrix in="SourceAlpha" type="matrix" values="0 0 0 0 0 0 0 0 0 0 0 0 0 0 0 0 0 0 127 0" result="hardAlpha"/>
<feOffset dy="12"/>
<feGaussianBlur stdDeviation="17"/>
<feComposite in2="hardAlpha" operator="out"/>
<feColorMatrix type="matrix" values="0 0 0 0 0.330556 0 0 0 0 0.708333 0 0 0 0 0.552137 0 0 0 0.25 0"/>
<feBlend mode="normal" in2="BackgroundImageFix" result="effect1_dropShadow_2026_78448"/>
<feBlend mode="normal" in="SourceGraphic" in2="effect1_dropShadow_2026_78448" result="shape"/>
</filter>
<clipPath id="clip0_2026_78448">
<rect width="82" height="104" fill="white" transform="translate(104 88)"/>
</clipPath>
</defs>
</svg>
