<svg width="56" height="55" viewBox="0 0 56 55" fill="none" xmlns="http://www.w3.org/2000/svg">
<path d="M19.5967 4.03768H34.3817L19.0334 49.5129C18.8757 49.9802 18.5754 50.3862 18.1747 50.6739C17.7741 50.9615 17.2934 51.1163 16.8002 51.1164H5.29384C4.92016 51.1164 4.55184 51.0275 4.21935 50.857C3.88686 50.6864 3.59976 50.4391 3.3818 50.1356C3.16383 49.8321 3.02128 49.481 2.96591 49.1115C2.91055 48.7419 2.94398 48.3645 3.06343 48.0104L17.3629 5.64121C17.5206 5.17372 17.8209 4.76748 18.2217 4.47971C18.6224 4.19194 19.1034 4.03714 19.5967 4.03711V4.03768Z" fill="url(#paint0_linear_1905_79133)"/>
<path d="M41.0814 34.5391H17.636C17.418 34.5388 17.205 34.6042 17.0248 34.7268C16.8445 34.8493 16.7053 35.0233 16.6253 35.2261C16.5454 35.4288 16.5283 35.651 16.5764 35.8636C16.6245 36.0762 16.7355 36.2694 16.895 36.418L31.9604 50.4795C32.3991 50.8887 32.9766 51.1162 33.5765 51.1161H46.8521L41.0814 34.5391Z" fill="#0078D4"/>
<path d="M19.5971 4.03713C19.0984 4.03521 18.6121 4.19282 18.2093 4.48693C17.8065 4.78104 17.5083 5.19624 17.3582 5.67189L3.08145 47.9712C2.95396 48.3266 2.91393 48.7074 2.96476 49.0815C3.01558 49.4556 3.15576 49.812 3.37344 50.1204C3.59111 50.4289 3.87988 50.6804 4.21531 50.8537C4.55074 51.0269 4.92296 51.1169 5.3005 51.1158H17.1038C17.5434 51.0373 17.9543 50.8435 18.2945 50.5542C18.6347 50.2649 18.892 49.8904 19.0401 49.4692L21.8871 41.0784L32.0568 50.5639C32.483 50.9164 33.0176 51.1113 33.5707 51.1158H46.7969L40.9961 34.5388L24.0858 34.5428L34.4355 4.03713H19.5971Z" fill="url(#paint1_linear_1905_79133)"/>
<path d="M38.4807 5.63837C38.3233 5.17164 38.0234 4.76607 37.6232 4.4788C37.2231 4.19154 36.7429 4.03705 36.2503 4.03711H19.7727C20.2653 4.03714 20.7454 4.19166 21.1455 4.47891C21.5456 4.76617 21.8456 5.17168 22.0031 5.63837L36.3031 48.0093C36.4227 48.3634 36.4562 48.7409 36.4009 49.1106C36.3456 49.4802 36.203 49.8314 35.9851 50.135C35.7671 50.4387 35.48 50.6861 35.1474 50.8567C34.8149 51.0274 34.4465 51.1164 34.0727 51.1164H50.5509C50.9247 51.1163 51.293 51.0272 51.6255 50.8565C51.9579 50.6858 52.245 50.4384 52.4629 50.1348C52.6808 49.8312 52.8233 49.48 52.8785 49.1104C52.9338 48.7408 52.9003 48.3634 52.7808 48.0093L38.4807 5.63837Z" fill="url(#paint2_linear_1905_79133)"/>
<defs>
<linearGradient id="paint0_linear_1905_79133" x1="24.9853" y1="7.52638" x2="9.63086" y2="52.8874" gradientUnits="userSpaceOnUse">
<stop stop-color="#114A8B"/>
<stop offset="1" stop-color="#0669BC"/>
</linearGradient>
<linearGradient id="paint1_linear_1905_79133" x1="29.7822" y1="28.6653" x2="26.2304" y2="29.8662" gradientUnits="userSpaceOnUse">
<stop stop-opacity="0.3"/>
<stop offset="0.071" stop-opacity="0.2"/>
<stop offset="0.321" stop-opacity="0.1"/>
<stop offset="0.623" stop-opacity="0.05"/>
<stop offset="1" stop-opacity="0"/>
</linearGradient>
<linearGradient id="paint2_linear_1905_79133" x1="27.8284" y1="6.20278" x2="44.6831" y2="51.1067" gradientUnits="userSpaceOnUse">
<stop stop-color="#3CCBF4"/>
<stop offset="1" stop-color="#2892DF"/>
</linearGradient>
</defs>
</svg>
