<svg width="216" height="209" viewBox="0 0 216 209" fill="none" xmlns="http://www.w3.org/2000/svg">
<g filter="url(#filter0_d_1905_79131)">
<path d="M161.246 78.5158C161.215 78.4118 161.177 78.3098 161.134 78.2102C161.063 78.0296 160.978 77.849 160.894 77.6823C160.825 77.5757 160.75 77.4736 160.668 77.3767C160.562 77.2288 160.444 77.0895 160.315 76.9599L160.005 76.7099L159.708 76.4876L159.553 76.4181C159.518 76.3812 159.474 76.3527 159.426 76.3348L118.223 56.0528C114.944 54.4558 111.335 53.625 107.676 53.625C104.017 53.625 100.408 54.4558 97.1282 56.0528L55.9677 76.3209L55.8407 76.4042L55.6855 76.4737L55.4174 76.7099C55.3186 76.7932 55.1916 76.8766 55.107 76.9599C54.9784 77.0895 54.8605 77.2288 54.7542 77.3767C54.6679 77.4701 54.5922 77.5726 54.5284 77.6823C54.4285 77.8487 54.348 78.0258 54.2886 78.2102C54.2886 78.3213 54.1898 78.4047 54.1616 78.5158C54.0777 78.8286 54.0351 79.1508 54.0346 79.4743V113.551C54.0111 118.779 55.4768 123.909 58.2653 128.358C61.0538 132.808 65.0534 136.398 69.8102 138.723L106.102 156.588C106.239 156.649 106.381 156.7 106.526 156.74L106.794 156.838C107.085 156.907 107.383 156.949 107.683 156.963C107.982 156.948 108.28 156.907 108.572 156.838L108.84 156.74C108.985 156.702 109.127 156.651 109.263 156.588L145.556 138.723C150.314 136.399 154.315 132.809 157.106 128.36C159.897 123.91 161.366 118.78 161.345 113.551V79.4326C161.354 79.1241 161.321 78.8157 161.246 78.5158Z" fill="white"/>
<path d="M164.644 77.6757L164.622 77.587L164.596 77.4996C164.531 77.2873 164.456 77.0785 164.369 76.8742C164.251 76.5792 164.124 76.3127 164.014 76.0974L163.934 75.94L163.839 75.7913C163.713 75.5952 163.577 75.4064 163.43 75.2255C163.237 74.9676 163.027 74.7236 162.8 74.495L162.663 74.3566L162.511 74.2342L162.2 73.9842L162.153 73.9462L162.105 73.91L161.809 73.6877L161.495 73.4528L161.265 73.3497C161.146 73.2794 161.024 73.2156 160.899 73.1585L119.769 52.9126L119.762 52.9093L119.756 52.906C115.997 51.0759 111.864 50.125 107.676 50.125C103.488 50.125 99.3542 51.0759 95.5958 52.906L95.5889 52.9094L95.582 52.9128L54.4216 73.1809L54.2278 73.2763L54.1549 73.3242L53.7708 73.4961L53.372 73.8473L53.1733 74.0224L53.1353 74.0512C53.0973 74.0802 53.0303 74.1316 52.9551 74.1934C52.8807 74.2545 52.7717 74.3474 52.6515 74.4658L52.6367 74.4803L52.6221 74.495C52.4092 74.7097 52.2104 74.9381 52.0271 75.1787C51.837 75.404 51.666 75.6453 51.516 75.9003C51.3124 76.2423 51.1429 76.6037 51.0103 76.9795C50.9359 77.1392 50.8474 77.3573 50.7779 77.6211C50.6173 78.2239 50.5355 78.845 50.5346 79.4692V79.4743V113.543C50.5097 119.434 52.1622 125.211 55.2996 130.217C58.4375 135.224 62.9332 139.257 68.2706 141.866C68.2716 141.867 68.2725 141.867 68.2735 141.867L104.557 159.728L104.612 159.755L104.669 159.781C104.918 159.892 105.174 159.988 105.435 160.068L105.6 160.128L105.787 160.195L105.979 160.242C106.487 160.363 107.005 160.436 107.527 160.459L107.689 160.466L107.851 160.459C108.364 160.434 108.875 160.362 109.375 160.244L109.574 160.198L109.765 160.128L109.918 160.072C110.197 159.989 110.469 159.886 110.733 159.764L110.771 159.746L110.809 159.728L147.091 141.868C147.093 141.867 147.095 141.866 147.096 141.865C152.434 139.257 156.931 135.225 160.071 130.219C163.211 125.214 164.867 119.437 164.845 113.545V79.473C164.857 78.8676 164.789 78.2634 164.644 77.6757Z" stroke="white" stroke-width="7"/>
</g>
<path d="M98.5967 76.0377H113.382L98.0334 121.513C97.8757 121.98 97.5754 122.386 97.1747 122.674C96.7741 122.962 96.2934 123.116 95.8002 123.116H84.2938C83.9202 123.116 83.5518 123.028 83.2194 122.857C82.8869 122.686 82.5998 122.439 82.3818 122.136C82.1638 121.832 82.0213 121.481 81.9659 121.111C81.9106 120.742 81.944 120.364 82.0634 120.01L96.3629 77.6412C96.5206 77.1737 96.8209 76.7675 97.2217 76.4797C97.6224 76.1919 98.1034 76.0371 98.5967 76.0371V76.0377Z" fill="url(#paint0_linear_1905_79131)"/>
<path d="M120.081 106.539H96.636C96.418 106.539 96.205 106.604 96.0248 106.727C95.8445 106.849 95.7053 107.023 95.6253 107.226C95.5454 107.429 95.5283 107.651 95.5764 107.864C95.6245 108.076 95.7355 108.269 95.895 108.418L110.96 122.48C111.399 122.889 111.977 123.116 112.576 123.116H125.852L120.081 106.539Z" fill="#0078D4"/>
<path d="M98.5971 76.0371C98.0984 76.0352 97.6121 76.1928 97.2093 76.4869C96.8065 76.781 96.5083 77.1962 96.3582 77.6719L82.0814 119.971C81.954 120.327 81.9139 120.707 81.9648 121.082C82.0156 121.456 82.1558 121.812 82.3734 122.12C82.5911 122.429 82.8799 122.68 83.2153 122.854C83.5507 123.027 83.923 123.117 84.3005 123.116H96.1038C96.5434 123.037 96.9543 122.843 97.2945 122.554C97.6347 122.265 97.892 121.89 98.0401 121.469L100.887 113.078L111.057 122.564C111.483 122.916 112.018 123.111 112.571 123.116H125.797L119.996 106.539L103.086 106.543L113.435 76.0371H98.5971Z" fill="url(#paint1_linear_1905_79131)"/>
<path d="M117.481 77.6384C117.323 77.1716 117.023 76.7661 116.623 76.4788C116.223 76.1915 115.743 76.0371 115.25 76.0371H98.7727C99.2653 76.0371 99.7454 76.1917 100.146 76.4789C100.546 76.7662 100.846 77.1717 101.003 77.6384L115.303 120.009C115.423 120.363 115.456 120.741 115.401 121.111C115.346 121.48 115.203 121.831 114.985 122.135C114.767 122.439 114.48 122.686 114.147 122.857C113.815 123.027 113.447 123.116 113.073 123.116H129.551C129.925 123.116 130.293 123.027 130.625 122.857C130.958 122.686 131.245 122.438 131.463 122.135C131.681 121.831 131.823 121.48 131.879 121.11C131.934 120.741 131.9 120.363 131.781 120.009L117.481 77.6384Z" fill="url(#paint2_linear_1905_79131)"/>
<defs>
<filter id="filter0_d_1905_79131" x="23.0343" y="22.625" width="169.312" height="165.346" filterUnits="userSpaceOnUse" color-interpolation-filters="sRGB">
<feFlood flood-opacity="0" result="BackgroundImageFix"/>
<feColorMatrix in="SourceAlpha" type="matrix" values="0 0 0 0 0 0 0 0 0 0 0 0 0 0 0 0 0 0 127 0" result="hardAlpha"/>
<feOffset/>
<feGaussianBlur stdDeviation="12"/>
<feComposite in2="hardAlpha" operator="out"/>
<feColorMatrix type="matrix" values="0 0 0 0 0.1925 0 0 0 0 0.6 0 0 0 0 0.431685 0 0 0 0.25 0"/>
<feBlend mode="normal" in2="BackgroundImageFix" result="effect1_dropShadow_1905_79131"/>
<feBlend mode="normal" in="SourceGraphic" in2="effect1_dropShadow_1905_79131" result="shape"/>
</filter>
<linearGradient id="paint0_linear_1905_79131" x1="103.985" y1="79.5264" x2="88.6309" y2="124.887" gradientUnits="userSpaceOnUse">
<stop stop-color="#114A8B"/>
<stop offset="1" stop-color="#0669BC"/>
</linearGradient>
<linearGradient id="paint1_linear_1905_79131" x1="108.782" y1="100.665" x2="105.23" y2="101.866" gradientUnits="userSpaceOnUse">
<stop stop-opacity="0.3"/>
<stop offset="0.071" stop-opacity="0.2"/>
<stop offset="0.321" stop-opacity="0.1"/>
<stop offset="0.623" stop-opacity="0.05"/>
<stop offset="1" stop-opacity="0"/>
</linearGradient>
<linearGradient id="paint2_linear_1905_79131" x1="106.828" y1="78.2028" x2="123.683" y2="123.107" gradientUnits="userSpaceOnUse">
<stop stop-color="#3CCBF4"/>
<stop offset="1" stop-color="#2892DF"/>
</linearGradient>
</defs>
</svg>
