<svg width="215" height="209" viewBox="0 0 215 209" fill="none" xmlns="http://www.w3.org/2000/svg">
<g filter="url(#filter0_d_1905_79125)">
<path d="M160.957 78.5158C160.926 78.4118 160.888 78.3098 160.844 78.2102C160.774 78.0296 160.689 77.849 160.604 77.6823C160.536 77.5757 160.461 77.4736 160.379 77.3767C160.272 77.2288 160.154 77.0895 160.026 76.9599L159.716 76.7099L159.419 76.4876L159.264 76.4181C159.229 76.3812 159.185 76.3527 159.137 76.3348L117.934 56.0528C114.655 54.4558 111.045 53.625 107.387 53.625C103.728 53.625 100.118 54.4558 96.839 56.0528L55.6785 76.3209L55.5515 76.4042L55.3963 76.4737L55.1282 76.7099C55.0295 76.7932 54.9025 76.8766 54.8178 76.9599C54.6893 77.0895 54.5713 77.2288 54.465 77.3767C54.3787 77.4701 54.303 77.5726 54.2393 77.6823C54.1393 77.8487 54.0588 78.0258 53.9994 78.2102C53.9994 78.3213 53.9006 78.4047 53.8724 78.5158C53.7885 78.8286 53.7459 79.1508 53.7454 79.4743V113.551C53.7219 118.779 55.1876 123.909 57.9761 128.358C60.7646 132.808 64.7642 136.398 69.521 138.723L105.813 156.588C105.95 156.649 106.092 156.7 106.237 156.74L106.505 156.838C106.796 156.907 107.094 156.949 107.394 156.963C107.693 156.948 107.991 156.907 108.283 156.838L108.551 156.74C108.696 156.702 108.838 156.651 108.974 156.588L145.266 138.723C150.025 136.399 154.026 132.809 156.817 128.36C159.608 123.91 161.077 118.78 161.056 113.551V79.4326C161.065 79.1241 161.031 78.8157 160.957 78.5158Z" fill="white"/>
<path d="M164.355 77.6757L164.333 77.587L164.307 77.4996C164.242 77.2873 164.166 77.0785 164.08 76.8742C163.962 76.5792 163.834 76.3127 163.725 76.0974L163.645 75.94L163.55 75.7913C163.424 75.5952 163.287 75.4064 163.141 75.2255C162.948 74.9676 162.738 74.7236 162.511 74.495L162.373 74.3566L162.222 74.2342L161.911 73.9842L161.864 73.9462L161.816 73.91L161.519 73.6877L161.206 73.4528L160.976 73.3497C160.857 73.2794 160.735 73.2156 160.609 73.1585L119.48 52.9126L119.473 52.9093L119.467 52.906C115.708 51.0759 111.575 50.125 107.387 50.125C103.199 50.125 99.065 51.0759 95.3066 52.906L95.2997 52.9094L95.2928 52.9128L54.1324 73.1809L53.9386 73.2763L53.8657 73.3242L53.4816 73.4961L53.0828 73.8473L52.8841 74.0224L52.8461 74.0512C52.8081 74.0802 52.7411 74.1316 52.6659 74.1934C52.5915 74.2545 52.4826 74.3474 52.3623 74.4658L52.3476 74.4803L52.333 74.495C52.12 74.7097 51.9212 74.9381 51.7379 75.1787C51.5478 75.404 51.3768 75.6453 51.2268 75.9003C51.0232 76.2423 50.8537 76.6037 50.7211 76.9795C50.6467 77.1392 50.5583 77.3573 50.4887 77.6211C50.3282 78.2239 50.2463 78.845 50.2454 79.4692V79.4743V113.543C50.2205 119.434 51.873 125.211 55.0104 130.217C58.1483 135.224 62.644 139.257 67.9814 141.866C67.9824 141.867 67.9834 141.867 67.9843 141.867L104.268 159.728L104.323 159.755L104.379 159.781C104.629 159.892 104.885 159.988 105.146 160.068L105.311 160.128L105.497 160.195L105.69 160.242C106.198 160.363 106.716 160.436 107.238 160.459L107.4 160.466L107.561 160.459C108.075 160.434 108.585 160.362 109.086 160.244L109.284 160.198L109.476 160.128L109.629 160.072C109.908 159.989 110.18 159.886 110.444 159.764L110.482 159.746L110.52 159.728L146.802 141.868C146.804 141.867 146.806 141.866 146.807 141.865C152.145 139.257 156.642 135.225 159.782 130.219C162.922 125.214 164.578 119.437 164.556 113.545V79.473C164.568 78.8676 164.5 78.2634 164.355 77.6757Z" stroke="white" stroke-width="7"/>
</g>
<path d="M91.9905 99.3348C91.9905 100.191 92.0828 100.886 92.2443 101.395C92.4289 101.905 92.6596 102.46 92.9827 103.062C93.098 103.247 93.1442 103.433 93.1442 103.595C93.1442 103.826 93.0057 104.058 92.7058 104.289L91.2521 105.262C91.0444 105.4 90.8368 105.47 90.6522 105.47C90.4214 105.47 90.1907 105.354 89.9599 105.146C89.6369 104.799 89.36 104.428 89.1293 104.058C88.8985 103.664 88.6678 103.224 88.414 102.692C86.6142 104.822 84.3529 105.887 81.6301 105.887C79.6919 105.887 78.1459 105.331 77.0152 104.22C75.8846 103.108 75.3077 101.627 75.3077 99.7747C75.3077 97.8068 76 96.2093 77.4075 95.0054C78.815 93.8015 80.6841 93.1996 83.0607 93.1996C83.8452 93.1996 84.6528 93.2691 85.5066 93.3848C86.3603 93.5006 87.2372 93.6858 88.1601 93.8942V92.2041C88.1601 90.4446 87.7909 89.2175 87.0756 88.4998C86.3373 87.7821 85.0912 87.4349 83.3145 87.4349C82.5069 87.4349 81.6763 87.5275 80.8225 87.7358C79.9688 87.9442 79.1381 88.1989 78.3305 88.523C77.9613 88.6851 77.6844 88.7777 77.5229 88.824C77.3614 88.8703 77.246 88.8934 77.1537 88.8934C76.8306 88.8934 76.6691 88.6619 76.6691 88.1757V87.0413C76.6691 86.6709 76.7153 86.393 76.8306 86.231C76.946 86.0689 77.1537 85.9069 77.4767 85.7448C78.2843 85.3281 79.2534 84.9808 80.3841 84.703C81.5147 84.402 82.7146 84.2631 83.9837 84.2631C86.7295 84.2631 88.737 84.8882 90.0292 86.1384C91.2982 87.3886 91.9443 89.287 91.9443 91.8337V99.3348H91.9905ZM82.6223 102.854C83.3837 102.854 84.1683 102.715 84.999 102.437C85.8296 102.159 86.568 101.65 87.191 100.955C87.5602 100.516 87.8371 100.029 87.9755 99.4737C88.114 98.918 88.2063 98.2467 88.2063 97.4595V96.4871C87.5371 96.3251 86.8218 96.1862 86.0834 96.0936C85.3451 96.0009 84.6298 95.9546 83.9145 95.9546C82.3685 95.9546 81.2378 96.2556 80.4764 96.8807C79.7149 97.5058 79.3457 98.3856 79.3457 99.5431C79.3457 100.631 79.6226 101.442 80.1995 101.997C80.7533 102.576 81.5609 102.854 82.6223 102.854ZM101.151 105.354C100.736 105.354 100.459 105.285 100.274 105.123C100.09 104.984 99.928 104.66 99.7896 104.22L94.3671 86.3236C94.2287 85.8606 94.1595 85.5596 94.1595 85.3975C94.1595 85.0271 94.344 84.8187 94.7132 84.8187H96.9745C97.4129 84.8187 97.7129 84.8882 97.8744 85.0503C98.059 85.1892 98.1975 85.5133 98.3359 85.9532L102.212 101.28L105.812 85.9532C105.927 85.4901 106.066 85.1892 106.25 85.0503C106.435 84.9113 106.758 84.8187 107.173 84.8187H109.019C109.458 84.8187 109.758 84.8882 109.942 85.0503C110.127 85.1892 110.288 85.5133 110.381 85.9532L114.026 101.465L118.018 85.9532C118.157 85.4901 118.318 85.1892 118.48 85.0503C118.664 84.9113 118.964 84.8187 119.38 84.8187H121.526C121.895 84.8187 122.102 85.004 122.102 85.3975C122.102 85.5133 122.079 85.629 122.056 85.768C122.033 85.9069 121.987 86.0921 121.895 86.3467L116.334 104.243C116.195 104.706 116.034 105.007 115.849 105.146C115.665 105.285 115.365 105.377 114.972 105.377H112.988C112.55 105.377 112.25 105.308 112.065 105.146C111.881 104.984 111.719 104.683 111.627 104.22L108.05 89.287L104.497 104.197C104.381 104.66 104.243 104.961 104.058 105.123C103.874 105.285 103.551 105.354 103.135 105.354H101.151ZM130.801 105.979C129.602 105.979 128.402 105.84 127.248 105.563C126.094 105.285 125.194 104.984 124.594 104.636C124.225 104.428 123.971 104.197 123.879 103.988C123.787 103.78 123.741 103.548 123.741 103.34V102.159C123.741 101.673 123.925 101.442 124.271 101.442C124.41 101.442 124.548 101.465 124.687 101.511C124.825 101.557 125.033 101.65 125.264 101.743C126.048 102.09 126.902 102.368 127.802 102.553C128.725 102.738 129.625 102.831 130.548 102.831C132.001 102.831 133.132 102.576 133.917 102.067C134.701 101.557 135.116 100.816 135.116 99.8673C135.116 99.219 134.909 98.6865 134.493 98.2467C134.078 97.8068 133.293 97.4132 132.163 97.0428L128.817 96.0009C127.133 95.4685 125.887 94.6813 125.125 93.6395C124.364 92.6208 123.971 91.4864 123.971 90.2825C123.971 89.3101 124.179 88.4535 124.594 87.7127C125.01 86.9718 125.564 86.3236 126.256 85.8143C126.948 85.2818 127.733 84.8882 128.656 84.6104C129.579 84.3326 130.548 84.2168 131.563 84.2168C132.071 84.2168 132.601 84.2399 133.109 84.3094C133.64 84.3789 134.124 84.4715 134.609 84.5641C135.07 84.6798 135.509 84.7956 135.924 84.9345C136.339 85.0734 136.662 85.2123 136.893 85.3512C137.216 85.5364 137.447 85.7216 137.585 85.93C137.724 86.1152 137.793 86.3699 137.793 86.694V87.7821C137.793 88.2683 137.608 88.523 137.262 88.523C137.078 88.523 136.778 88.4304 136.385 88.2452C135.07 87.6432 133.593 87.3423 131.955 87.3423C130.64 87.3423 129.602 87.5506 128.886 87.9905C128.171 88.4304 127.802 89.1018 127.802 90.051C127.802 90.6992 128.033 91.2549 128.494 91.6948C128.956 92.1346 129.809 92.5745 131.032 92.9681L134.309 94.0099C135.97 94.5424 137.17 95.2832 137.885 96.2325C138.601 97.1817 138.947 98.2698 138.947 99.4737C138.947 100.469 138.739 101.372 138.347 102.159C137.931 102.946 137.378 103.641 136.662 104.197C135.947 104.775 135.093 105.192 134.101 105.493C133.063 105.817 131.978 105.979 130.801 105.979Z" fill="#252F3E"/>
<path d="M135.163 117.231C127.571 122.857 116.542 125.843 107.058 125.843C93.7673 125.843 81.7917 120.912 72.7466 112.716C72.0313 112.068 72.6773 111.188 73.5311 111.698C83.3146 117.393 95.3825 120.843 107.866 120.843C116.288 120.843 125.541 119.083 134.055 115.471C135.324 114.893 136.409 116.305 135.163 117.231ZM138.324 113.619C137.355 112.369 131.909 113.017 129.44 113.318C128.702 113.411 128.586 112.763 129.256 112.277C133.594 109.221 140.723 110.1 141.554 111.119C142.385 112.161 141.323 119.315 137.262 122.741C136.639 123.274 136.039 122.996 136.316 122.301C137.239 120.009 139.293 114.846 138.324 113.619Z" fill="#FF9900"/>
<defs>
<filter id="filter0_d_1905_79125" x="22.7451" y="22.625" width="169.312" height="165.346" filterUnits="userSpaceOnUse" color-interpolation-filters="sRGB">
<feFlood flood-opacity="0" result="BackgroundImageFix"/>
<feColorMatrix in="SourceAlpha" type="matrix" values="0 0 0 0 0 0 0 0 0 0 0 0 0 0 0 0 0 0 127 0" result="hardAlpha"/>
<feOffset/>
<feGaussianBlur stdDeviation="12"/>
<feComposite in2="hardAlpha" operator="out"/>
<feColorMatrix type="matrix" values="0 0 0 0 0.1925 0 0 0 0 0.6 0 0 0 0 0.431685 0 0 0 0.25 0"/>
<feBlend mode="normal" in2="BackgroundImageFix" result="effect1_dropShadow_1905_79125"/>
<feBlend mode="normal" in="SourceGraphic" in2="effect1_dropShadow_1905_79125" result="shape"/>
</filter>
</defs>
</svg>
