<svg width="212" height="71" viewBox="0 0 212 71" fill="none" xmlns="http://www.w3.org/2000/svg">
<g clip-path="url(#clip0_1384_86860)">
<path d="M0.079628 33.4705C1.51963 32.9605 2.52963 33.9205 3.37963 34.4905C7.13963 36.9905 11.1196 39.0805 15.0196 41.3305C18.2396 43.2005 21.5496 44.9405 24.6296 47.0705C25.8796 47.9405 27.3796 48.4505 28.8396 49.1605C29.2896 48.8105 28.9996 48.2105 28.9996 47.7005C29.0296 44.4605 28.9596 41.2205 29.0396 37.9905C29.0696 36.6805 28.6196 35.9205 27.4696 35.3005C24.6596 33.7905 22.0496 31.9205 19.2496 30.4305C16.3196 28.8605 13.4096 27.2505 10.5696 25.5505C7.57963 23.7605 4.47963 22.1605 1.45963 20.4205C0.659628 19.9605 0.619628 19.1305 0.109628 18.5405C-0.060372 18.3505 -0.090372 17.7405 0.299628 17.4205C0.979628 16.8705 1.54963 16.2405 2.34963 15.7805C4.97963 14.2805 7.67963 12.8905 10.1796 11.1405C11.4096 10.2805 12.8996 9.7005 14.2196 8.9105C17.2196 7.1205 20.4996 5.7805 23.1996 3.5005C25.4496 2.8305 27.2496 1.2805 29.3496 0.290503C30.1896 -0.0994968 30.7596 -0.0994969 31.5796 0.260503C33.4296 1.0705 35.1096 2.1805 36.8496 3.1705C39.9396 4.9405 42.8896 6.9405 46.1296 8.4605C48.2996 9.4805 50.3496 10.7705 52.3396 12.1105C54.1496 13.3305 56.0596 14.3805 57.9896 15.3405C58.9796 15.8305 59.6996 16.6905 60.7696 17.0405C61.1896 17.1805 61.5396 17.6505 61.4096 18.2505C61.3596 18.4905 61.3996 18.7505 61.3996 19.0005C61.3996 29.9605 61.3796 40.9105 61.4296 51.8705C61.4296 52.8505 60.9596 53.2105 60.2896 53.6105C56.6296 55.8105 52.7896 57.6805 49.2496 60.0805C47.7896 61.0705 45.9496 61.4505 44.6096 62.7005C41.5196 63.6405 39.1996 65.9605 36.2796 67.2605C34.5496 68.0305 32.9896 69.2905 31.2796 70.2205C30.5696 70.6005 30.3096 70.5605 29.6496 70.2005C26.9296 68.7205 24.1996 67.2505 21.6096 65.5405C20.6996 64.9305 19.7296 64.3005 18.7996 63.8805C17.0196 63.0805 15.4696 61.9405 13.7296 61.0905C10.6596 59.6005 7.82963 57.6605 4.89963 55.9005C3.64963 55.1505 2.29963 54.5405 1.04963 53.7705C0.429628 53.3905 0.039628 53.0905 0.039628 52.3305C0.089628 46.0505 0.079628 39.7605 0.079628 33.4705ZM2.57963 38.1105C2.57963 42.2105 2.60963 46.0005 2.55963 49.8005C2.54963 50.4905 2.90963 50.8305 3.29963 51.2505C3.84963 51.8405 4.59963 52.2205 5.23963 52.6005C9.88963 55.3705 14.7096 57.8505 19.3096 60.7205C20.6796 61.5705 22.1896 62.2105 23.5696 63.0405C25.4296 64.1605 27.3196 65.1905 29.2096 66.2505C30.2096 66.8105 30.8796 66.7705 31.8296 66.2305C34.6396 64.6205 37.6096 63.2705 40.3496 61.5505C43.4396 59.6105 46.5996 57.8305 49.8096 56.1005C51.9196 54.9705 53.8596 53.5205 55.9896 52.3705C56.4996 52.0905 57.1396 51.8705 57.5896 51.3905C58.0996 50.8405 58.4796 50.3605 58.4796 49.5005C58.4296 39.8805 58.4396 30.2505 58.4696 20.6305C58.4696 19.8105 58.2896 19.2705 57.5196 18.8705C55.7396 17.9305 54.0496 16.8305 52.3196 15.8205C48.9096 13.8305 45.4496 11.9105 42.0396 9.9205C40.9696 9.3005 39.9196 8.6405 38.8396 8.0305C36.2096 6.5505 33.5696 5.1005 30.9496 3.6205C30.6196 3.4305 30.4196 3.4305 30.0796 3.6105C28.7896 4.2905 27.3796 4.7905 26.1696 5.5805C22.7296 7.8505 19.0996 9.7805 15.5596 11.8805C11.9396 14.0205 8.14963 15.8805 4.58963 18.1805C5.19963 18.6705 5.75963 19.1005 6.33963 19.5105C8.06963 20.7305 10.0996 21.4005 11.7496 22.7605C12.5596 23.4305 13.6296 23.7905 14.6396 24.1805C15.4696 24.5005 16.3096 24.5405 17.1696 24.0205C18.6196 23.1305 20.1496 22.3905 21.6196 21.5305C24.1596 20.0305 26.6696 18.4705 29.1996 16.9705C30.1996 16.3805 31.0696 16.4705 32.1296 17.1905C34.3696 18.7105 36.8496 19.8805 39.0796 21.4105C41.2096 22.8605 43.7496 23.5805 45.6896 25.3305C46.9196 25.4305 46.9896 26.2705 46.9796 27.2505C46.9596 32.4805 46.9196 37.7005 47.0096 42.9305C47.0296 44.0405 46.5396 44.7805 45.7896 45.1405C44.7396 45.6505 43.8696 46.3905 42.7696 46.8605C40.7196 47.7305 38.8096 48.9605 36.8996 50.1405C35.1196 51.2405 33.2996 52.2605 31.4896 53.3205C30.3696 53.9805 29.4696 53.6905 28.6896 53.1605C24.9596 50.6305 20.9696 48.5405 17.0896 46.2705C15.7496 45.4905 14.3396 44.8505 13.0396 44.0205C9.76963 41.9405 6.48963 39.8905 2.57963 38.1105ZM18.8596 26.6005C20.3796 27.5905 21.6696 28.3105 22.9196 29.0705C25.2396 30.4805 27.6796 31.6605 29.9796 33.0805C30.3896 33.3405 30.6096 33.3005 31.0296 33.0905C33.1696 32.0205 35.2396 30.8105 37.2996 29.6405C38.8796 28.7405 40.5296 27.8105 41.9896 26.6305C41.7596 26.4005 41.6096 26.1405 41.3996 26.0605C39.4296 25.3105 37.7396 24.0705 35.9396 23.0305C34.2596 22.0605 32.4296 21.3405 30.9296 20.0705C30.6296 19.8105 30.3996 19.8605 30.0696 20.0605C29.4096 20.4605 28.6696 20.7105 28.0296 21.1405C26.2296 22.3505 24.2996 23.3505 22.3996 24.3905C21.2496 25.0205 20.1596 25.7805 18.8596 26.6005ZM43.2196 29.8505C42.9996 29.8805 42.7896 29.8805 42.5496 30.0005C39.3396 31.5405 36.4296 33.6205 33.2596 35.2205C32.2396 35.7305 31.9896 36.2205 31.9996 37.1905C32.0296 40.9205 32.0096 44.6405 32.0096 48.3705C32.0096 48.6905 31.9196 49.0305 32.2696 49.2605C32.4896 49.2305 32.6996 49.2505 32.9496 49.1005C36.1396 47.2005 39.3396 45.3205 42.5696 43.4905C43.1496 43.1605 43.5496 43.0205 43.5296 42.1605C43.4396 38.2705 43.4896 34.3805 43.4896 30.4805C43.4796 30.2305 43.4596 30.0105 43.2196 29.8505Z" fill="#666666"/>
<path d="M137.169 33.8305C136.679 33.8305 136.269 33.8205 135.869 33.8305C135.219 33.8505 134.409 33.6605 133.949 33.9805C133.179 34.5205 134.289 35.0005 134.329 35.6505C134.489 38.1105 133.369 40.8605 130.519 42.2605C129.189 42.9205 127.819 43.5905 126.209 43.3005C124.999 43.0805 123.939 44.1505 122.679 43.7905C122.229 43.6605 121.759 43.8605 121.269 43.5605C120.709 43.2205 120.649 43.3305 119.839 44.1205C122.159 44.6805 124.469 45.1005 126.839 45.3805C129.089 45.6405 131.489 46.0305 133.239 47.9505C134.819 49.6805 134.979 51.5805 134.549 53.7205C134.079 56.0805 132.189 56.9705 130.289 57.6905C128.369 58.4205 126.379 58.9605 124.229 58.7605C122.579 58.6105 120.909 58.7805 119.249 58.7205C117.269 58.6505 115.359 58.1305 113.419 57.7605C112.849 57.6505 112.789 57.4205 112.799 56.9605C112.819 55.4705 112.809 53.9805 112.809 52.2905C114.809 52.4505 116.719 52.1205 118.789 52.6405C120.819 53.1505 123.079 52.7405 125.239 52.7605C125.649 52.7605 125.799 52.4505 126.029 52.2505C126.399 51.9205 126.429 51.3505 125.979 51.3205C125.429 51.2805 125.229 50.7105 124.689 50.7605C122.339 50.9605 120.189 49.8705 117.879 49.7305C115.849 49.6105 113.739 47.4205 113.299 45.4705C113.099 44.6005 113.609 43.8205 113.899 43.2305C114.439 42.1305 114.269 41.5605 113.509 40.7205C110.889 37.8205 111.199 33.3505 114.019 30.9005C115.399 29.7005 117.139 28.9505 118.899 28.9105C124.949 28.7705 131.009 28.8605 137.159 28.8605C137.169 30.4705 137.169 32.0305 137.169 33.8305ZM123.879 33.8305C123.469 33.8305 123.049 33.8205 122.639 33.8305C120.569 33.8805 120.269 34.1605 120.309 36.1305C120.319 36.7405 120.159 37.3405 120.649 37.9705C121.609 39.2105 122.879 38.7305 124.039 38.7805C124.789 38.8105 124.869 38.2805 125.839 37.1405C126.879 35.9105 125.659 35.0705 125.679 34.0505C125.689 33.5805 124.669 33.9205 124.129 33.8205C124.049 33.8205 123.969 33.8305 123.879 33.8305Z" fill="#666666"/>
<path d="M110.411 39.1395C110.261 44.1495 108.151 47.2395 104.321 49.2795C102.161 50.4295 99.8611 51.0795 97.4611 50.7195C93.9511 50.1895 90.9111 48.8495 88.8211 45.6495C87.2511 43.2395 86.6411 40.6795 86.9411 37.9895C87.1811 35.8695 87.9911 33.7695 89.4111 32.0695C90.8611 30.3395 92.7211 28.9695 94.9311 28.6195C96.6211 28.3495 98.3011 27.0895 100.191 28.2995C100.841 28.7095 101.831 28.4695 102.721 28.7795C105.811 29.8495 108.121 31.6395 109.431 34.6595C109.551 34.9395 109.781 35.1295 109.841 35.4895C110.071 36.9095 110.571 38.2895 110.411 39.1395ZM98.5511 43.7895C101.351 43.7695 103.351 41.7195 103.361 39.1295C103.371 37.7995 102.691 36.9095 101.831 36.0395C100.871 35.0595 99.7211 34.7895 98.3711 34.7895C96.9411 34.7895 95.9711 35.4395 95.0411 36.3795C94.2011 37.2195 93.8711 38.2995 93.9211 39.3595C93.9811 40.4995 94.3211 41.6295 95.2811 42.4995C96.2811 43.3995 97.3411 43.9795 98.5511 43.7895Z" fill="#666666"/>
<path d="M211.59 39.6199C211.4 40.7099 211.74 41.9899 211.38 43.3099C210.69 45.7899 209 47.3699 207.02 48.7799C205.02 50.2099 202.8 50.6799 200.37 50.8199C198.28 50.9399 196.45 50.3099 194.66 49.5099C191.97 48.3099 190.13 46.1799 189.17 43.4399C187.8 39.5099 188.68 35.7599 190.9 32.4099C192.09 30.6199 194.22 29.8199 196.1 28.8299C196.77 28.4799 197.41 28.3199 198.15 28.3399C199.23 28.3699 200.31 28.3699 201.39 28.3399C203.88 28.2899 206 29.1899 207.83 30.8199C208.5 31.4199 209.66 31.5299 209.74 32.7199C211.32 34.3099 211.81 36.2499 211.6 38.4199C211.56 38.7599 211.59 39.0899 211.59 39.6199ZM195.62 39.4999C195.62 41.1099 195.95 41.9699 196.88 42.7999C197.9 43.7099 199.25 44.2199 200.47 44.1899C201.59 44.1599 203.05 43.8199 203.78 42.7899C204.42 41.8899 205.1 40.8999 205.12 39.6399C205.15 38.2799 204.46 37.2099 203.72 36.2699C202.93 35.2699 201.44 34.8499 200.39 34.9699C199.3 35.0899 197.88 34.9999 196.95 36.1899C196.12 37.2299 195.43 38.2199 195.62 39.4999Z" fill="#666666"/>
<path d="M138.97 50.2705C138.85 50.0905 138.76 50.0205 138.76 49.9605C138.77 48.1405 138.78 46.3205 138.8 44.5005C139.97 43.3305 141.2 42.2005 142.31 40.9705C144.18 38.9005 146.67 37.5105 148.45 35.3505C148.59 35.1805 148.72 34.9305 148.71 34.7205C148.68 34.2605 148.3 34.3305 147.97 34.3305C147.64 34.3405 147.31 34.3305 146.97 34.3305C145.06 34.3305 143.15 34.3505 141.24 34.3205C140.16 34.3105 139.78 33.9405 139.75 32.8905C139.72 31.9005 139.72 30.9005 139.75 29.9005C139.78 28.7005 140.12 28.3505 141.36 28.3505C145.68 28.3305 150 28.3405 154.32 28.3405C155.23 28.3405 156.15 28.3905 157.06 28.3205C157.68 28.2705 158.1 28.6905 158.61 28.8005C159.19 28.9205 159.21 29.1905 159.2 29.6305C159.19 30.3805 159.05 31.1605 159.22 31.8605C159.76 33.9805 158.37 35.1905 157 36.1305C156.19 36.6905 155.49 37.3205 154.8 37.9805C152.74 39.9705 150.74 42.0105 148.54 44.2005C150.19 44.2005 151.58 44.2005 153.05 44.2005C153.37 43.9405 153.19 43.5005 153.2 43.1105C153.23 42.2105 153.64 41.7705 154.57 41.7805C156.05 41.8005 157.54 41.7905 159.2 41.7905C159.2 44.2405 159.2 46.6305 159.2 49.0105C159.2 49.8105 158.72 50.1305 158.02 50.2605C157.94 50.2705 157.85 50.2605 157.77 50.2605C151.48 50.2705 145.18 50.2705 138.97 50.2705Z" fill="#666666"/>
<path d="M86.4507 44.2905C86.0807 45.8805 86.6407 47.2305 86.8907 48.6305C87.0407 49.4705 86.5807 49.6705 85.9607 49.9705C83.5007 51.1405 79.7207 51.1205 77.4007 50.0105C75.4707 49.0905 74.3407 47.6805 74.3807 45.3405C74.4707 39.7105 74.4107 34.0805 74.4107 28.4405C74.4107 27.7905 74.4107 27.1505 74.4107 26.3705C73.9807 26.3705 73.6607 26.4005 73.3507 26.3605C72.2207 26.2305 71.9407 25.9405 71.9207 24.8805C71.9007 23.3105 71.9107 21.7305 71.9107 20.1305C72.4807 19.6605 73.1607 19.9205 73.7807 19.9105C75.8507 19.8705 77.9307 19.8905 80.0007 19.9005C82.3707 19.9105 82.3807 19.9105 82.3807 22.1805C82.3907 27.4005 82.3807 32.6205 82.3807 37.8305C82.3807 39.2405 82.3807 40.6505 82.3807 42.0505C82.3807 43.8205 82.7607 44.2105 84.5607 44.2905C85.1307 44.3105 85.6907 44.2905 86.4507 44.2905Z" fill="#666666"/>
<path d="M185.609 28.9297C185.609 36.0397 185.609 43.0497 185.609 50.1697C182.989 50.1697 180.379 50.1697 177.669 50.1697C177.669 46.3297 177.669 42.5397 177.669 38.7397C177.669 38.2397 177.689 37.7497 177.669 37.2497C177.619 36.2297 177.309 35.9397 176.179 35.8197C175.929 35.7897 175.679 35.8197 175.189 35.8197C175.189 34.6997 175.189 33.5797 175.189 32.4497C175.189 31.2997 175.189 30.1497 175.189 28.9297C178.629 28.9297 182.009 28.9297 185.609 28.9297Z" fill="#666666"/>
<path d="M180.9 18.3999C182.16 18.2999 183.2 18.6099 184 19.4999C184.82 20.4099 185.12 21.5099 185.16 22.7399C185.22 24.5099 182.65 27.2199 180.47 26.9099C179.39 26.7599 178.47 26.4899 177.74 25.6899C176.94 24.8199 176.26 23.7099 176.26 22.6299C176.26 21.5499 176.95 20.4399 177.75 19.5699C178.62 18.5999 179.71 18.2399 180.9 18.3999Z" fill="#666666"/>
<path d="M168.689 50.2706C165.719 50.2706 164.229 48.7206 164.169 45.9906C164.149 44.8906 164.319 43.8006 165.139 43.1806C166.099 42.4506 167.169 41.7306 168.529 41.7906C170.599 41.8806 172.519 44.0506 172.709 46.2306C172.829 47.6606 171.899 48.4706 171.239 49.3506C170.659 50.1306 169.569 50.5406 168.689 50.2706Z" fill="#666666"/>
</g>
<defs>
<clipPath id="clip0_1384_86860">
<rect width="211.64" height="70.51" fill="white"/>
</clipPath>
</defs>
</svg>
