<svg width="223" height="71" viewBox="0 0 223 44" fill="none" xmlns="http://www.w3.org/2000/svg">
<g clip-path="url(#clip0_1384_86798)">
<path d="M222.66 14.0098C220.04 16.0198 217.15 17.2498 213.55 16.9298C212.9 20.2398 212.26 23.4298 211.61 26.7298C214.16 27.3598 217.04 27.1098 218.83 29.4798C219.73 30.6698 219.8 32.0798 219.51 33.8398C215.05 33.6398 210.5 34.4498 206.03 33.3798C202.65 32.5798 201.56 30.7098 202.13 27.3598C202.7 23.9598 203.38 20.5698 204.04 17.0198C200.99 17.0198 198.01 17.0198 195.02 17.0198C195.87 12.3698 198.44 10.6398 205.47 9.94982C205.77 8.33982 206.08 6.66982 206.41 5.00982C206.73 3.40982 207.07 1.81982 207.43 0.109817C210.22 -0.0201829 212.84 0.0698171 214.75 2.34982C216.75 4.72982 214.98 7.39982 215.13 10.0498C217.7 10.0498 220.19 10.0498 222.67 10.0498C222.66 11.3698 222.66 12.6898 222.66 14.0098Z" fill="#666666"/>
<path d="M6.55977 0.04995C16.8698 0.04995 26.9198 -0.10005 36.9598 0.10995C42.6798 0.22995 44.2998 2.60995 43.1798 8.10995C42.8798 9.55995 42.6898 11.03 42.3798 12.4799C41.2198 17.7799 38.6598 20.14 33.1598 20.36C27.6898 20.57 22.1998 20.41 16.3698 20.41C19.1198 11.84 26.3098 13.95 32.4798 13.43C33.3698 11.49 33.5898 9.41995 33.7898 7.11995C27.4898 7.11995 21.2898 7.11995 14.7398 7.11995C13.6598 10.1899 13.4098 13.71 12.6398 17.1C11.9798 19.99 11.5798 22.93 10.9898 25.83C9.78977 31.7099 6.68977 34.02 0.00976562 33.75C2.19977 22.4599 4.37977 11.2399 6.55977 0.04995Z" fill="#666666"/>
<path d="M103.2 24.9099C102.6 25.5099 102.58 26.0499 102.69 26.8399C110.58 26.8399 118.43 26.8399 126.29 26.8399C126.21 30.7399 123.17 33.6299 118.6 33.7599C111.88 33.9499 105.14 33.9499 98.4202 33.7599C94.2702 33.6499 92.4002 31.3199 92.9802 27.2399C93.5102 23.4999 94.1602 19.7599 95.1202 16.0999C96.1602 12.1399 99.4002 10.4099 103.17 10.2599C109.72 9.99994 116.29 10.0399 122.84 10.2299C125.44 10.2999 127.99 11.1999 128.72 14.2499C129.41 17.1099 127.72 21.3899 125.3 23.0299C123.32 24.3799 121.07 24.8799 118.72 24.8899C113.58 24.9199 108.43 24.9099 103.2 24.9099ZM104.85 17.0699C103.43 18.6199 104.01 20.6499 102.81 22.9199C107.74 18.4899 113.17 19.8599 118.17 19.4399C118.83 18.7599 119.06 17.9999 118.96 17.0699C114.25 17.0699 109.56 17.0699 104.85 17.0699Z" fill="#666666"/>
<path d="M172.359 33.8208C169.369 33.8208 166.379 33.9008 163.399 33.8008C158.169 33.6408 156.219 31.1808 157.209 26.1708C157.699 23.6708 158.169 21.1608 158.679 18.6708C159.899 12.7808 161.529 10.8508 167.409 10.3608C174.169 9.79079 180.999 9.64079 187.759 10.5008C191.929 11.0408 193.299 13.2508 192.529 17.2608C191.969 20.1708 191.379 23.0708 190.799 25.9708C189.739 31.2608 186.999 33.6308 181.579 33.8008C178.499 33.9008 175.429 33.8208 172.359 33.8208ZM183.229 17.1508C178.119 17.1508 173.439 17.1508 168.449 17.1508C167.549 20.2508 166.889 23.3908 166.589 26.8908C171.629 27.0608 176.379 27.1108 181.319 26.8508C181.949 23.6308 182.549 20.6008 183.229 17.1508Z" fill="#999999"/>
<path d="M59.7095 10.3994C66.9195 8.84943 72.2895 11.1494 75.9395 17.0894C87.5895 8.46943 86.4995 10.1994 95.5295 10.1994C90.3295 14.3194 85.4595 18.1694 80.5695 22.0394C83.9895 25.9394 87.2995 29.7094 90.8095 33.7194C87.1895 33.7194 83.9095 33.7194 80.2395 33.7194C78.4495 31.7194 76.4295 29.4494 74.2595 27.0194C71.3395 29.2894 68.4495 31.5494 65.6595 33.7194C62.1695 33.7194 58.8095 33.7194 55.0195 33.7194C60.1095 29.6994 64.8695 25.9394 69.8495 22.0094C66.4395 18.1094 63.1095 14.2894 59.7095 10.3994Z" fill="#666666"/>
<path d="M151.691 33.7802C148.511 33.7802 145.531 33.7802 142.301 33.7802C143.211 28.9502 144.081 24.2302 145.001 19.5202C145.721 15.8102 146.811 12.1402 147.201 8.40023C147.791 2.75023 151.781 -0.289774 158.261 0.130226C156.081 11.3202 153.901 22.4702 151.691 33.7802Z" fill="#666666"/>
<path d="M137.969 33.7605C134.769 33.7605 131.729 33.7605 128.539 33.7605C130.329 24.6005 132.029 15.5105 133.899 6.45053C134.819 2.01053 138.579 -0.149466 144.509 0.210534C142.329 11.4005 140.159 22.5505 137.969 33.7605Z" fill="#666666"/>
<path d="M56.7199 10.26C55.4699 16.38 54.4499 22.45 52.9499 28.4C51.9699 32.28 48.1699 34.03 42.6699 33.72C44.1899 25.94 45.6999 18.19 47.2499 10.25C50.2299 10.26 53.2499 10.26 56.7199 10.26Z" fill="#666666"/>
<path d="M57.2906 6.80055C54.2406 6.80055 51.2806 6.80055 48.1606 6.80055C48.0306 4.47055 48.9806 2.36055 49.2506 0.0605469C52.3306 0.0605469 55.3006 0.0605469 58.4306 0.0605469C58.5106 2.36055 57.7206 4.50055 57.2906 6.80055Z" fill="#666666"/>
</g>
<defs>
<clipPath id="clip0_1384_86798">
<rect width="222.66" height="33.95" fill="white"/>
</clipPath>
</defs>
</svg>
