<svg width="223" height="71" viewBox="0 0 223 44" fill="none" xmlns="http://www.w3.org/2000/svg">
<g clip-path="url(#clip0_1384_86893)">
<path d="M222.08 10.2209C218.43 8.27092 215.44 9.84092 212.57 12.2509C212.31 11.4509 212.12 10.8609 211.92 10.2409C210.25 10.2009 208.7 9.87092 207.18 10.4809C207.18 18.0309 207.18 25.4909 207.18 33.0309C209.07 33.1609 210.76 33.3709 212.62 32.8709C212.62 29.6409 212.72 26.5109 212.6 23.3909C212.38 17.6209 214.08 14.2609 220.93 14.9409C221.66 14.5609 221.12 13.4009 222.08 13.1809V10.2209ZM40.9496 30.1009C40.5096 30.2909 40.0396 30.4309 39.6396 30.6709C34.5696 33.6709 29.1596 35.2309 23.2496 34.1409C20.5596 33.6509 17.9396 32.7709 14.8796 31.9509C17.3996 35.6109 20.2296 38.1809 23.9096 39.7309C25.7296 40.5009 27.7296 41.9209 29.5496 41.2409C34.9096 39.2309 39.0796 35.7609 40.9196 30.0709C40.9596 30.0209 40.9996 29.9609 41.0396 29.9109C41.0196 29.9709 40.9896 30.0309 40.9496 30.1009ZM131.61 12.0009C125.39 8.30092 119.97 8.65092 115.87 12.9209C111.84 17.1109 111.25 23.3409 114.48 28.2009C115.84 30.2509 117.67 31.7909 120.06 32.5509C124.16 33.8609 128.01 33.3309 131.77 30.4509C131.68 33.1909 131.16 35.2609 129.22 36.5709C124.62 39.6909 120.21 37.5909 115.83 35.7409C114.99 37.1009 113.98 38.2109 113.85 39.8609C115.85 41.5109 118.18 42.3109 120.63 42.8009C128.92 44.4309 136.24 40.6809 136.91 33.5309C137.62 25.8609 137.07 18.0709 137.07 10.2609C135.4 9.71092 133.79 9.82092 132.13 10.1509C131.95 10.7909 131.78 11.3709 131.61 12.0009ZM202.29 33.0609C202.29 25.2709 202.29 17.8009 202.29 10.3109C200.61 9.71092 199.08 9.84092 197.58 10.1809C196.6 10.5209 197.45 11.9109 196.39 12.1609C190.88 8.89092 185.93 8.82092 182.07 11.9609C178.12 15.1709 176.35 20.9109 178.49 25.8909C182.27 34.6809 188.69 35.8109 196.78 31.2809C197.28 31.7209 196.78 32.7909 197.58 33.0609C199.13 33.0609 200.61 33.0609 202.29 33.0609ZM108.29 33.1209C108.29 28.2709 108.25 23.5809 108.3 18.9009C108.34 14.8509 106.71 11.7609 102.95 10.1909C99.2196 8.63092 95.6296 9.11092 92.5596 11.9809C92.3996 12.1309 92.1696 12.2009 91.9596 12.3209C91.7896 11.5509 91.6296 10.8509 91.4596 10.0809C89.6396 9.89092 87.9396 9.70092 86.1896 10.2109C86.1896 17.9209 86.1896 25.5209 86.1896 33.3109C88.1396 33.2209 89.8296 33.1509 91.7696 33.0609C91.7696 28.8809 91.7596 24.9309 91.7696 20.9809C91.7896 17.0609 93.8596 14.6309 97.1596 14.6309C100.34 14.6209 102.3 16.9809 102.32 20.9009C102.34 24.9309 102.33 28.9509 102.33 33.1509C104.28 33.1209 105.98 33.1209 108.29 33.1209ZM141.8 10.1309C142.02 15.6109 141.32 20.9709 142.23 26.2709C143.02 30.8509 146.48 33.3809 151.79 33.6709C157.3 33.9609 161.34 31.6809 162.49 27.1309C163.9 21.5609 162.89 15.8609 163.16 10.0009C160.97 10.0209 159.19 9.54092 157.25 10.4009C157.25 14.8509 157.22 19.3009 157.26 23.7509C157.28 25.7809 156.49 27.2709 154.67 28.1709C151.37 29.8009 147.82 27.3909 147.74 23.3609C147.65 19.0009 147.72 14.6409 147.72 10.1609C145.77 9.75092 144.07 9.77092 141.8 10.1309ZM52.6096 29.1809C55.7796 34.0409 63.0596 35.4409 67.9896 32.3309C70.2696 30.8909 71.1596 28.7409 71.1196 26.2209C71.0696 23.7009 69.8096 21.8409 67.4096 20.8209C65.5796 20.0409 63.7496 19.2609 61.9296 18.4409C60.8796 17.9709 59.7196 17.5709 59.5396 16.1809C60.7696 13.2109 62.9396 13.1809 67.5996 16.0709C68.6596 15.0709 69.7096 14.0509 70.3196 12.7109C66.8296 8.85092 60.4196 8.10092 56.4296 11.0309C52.6796 13.7809 52.9596 19.3409 57.0596 21.6309C58.9396 22.6809 60.9896 23.4009 62.9396 24.3309C64.0396 24.8609 65.2896 25.3309 65.3696 26.8509C63.6596 30.0009 61.9896 29.9109 55.3796 26.2209C54.4696 27.1909 53.5196 28.2009 52.6096 29.1809ZM167.8 0.350924C167.8 11.3909 167.8 22.1509 167.8 32.9609C169.61 33.2609 171.22 33.3009 172.95 32.9509C172.95 22.0609 172.95 11.2409 172.95 0.350924C171.16 0.350924 169.6 0.350924 167.8 0.350924ZM75.6596 10.1609C75.6596 17.9109 75.6596 25.4709 75.6596 33.1109C77.6096 33.4109 79.3796 33.5809 81.1896 32.9809C81.1896 25.3409 81.1896 17.7909 81.1896 10.0909C79.3096 9.86092 77.6096 9.74092 75.6596 10.1609ZM33.1196 22.6109C35.3196 18.6009 36.0596 15.2309 36.0796 11.6109C36.1096 7.03092 34.9396 3.35092 30.0796 1.71092C26.5996 0.540925 23.1296 -0.539075 18.6896 0.290924C27.8396 5.10092 32.4996 12.1109 33.1196 22.6109ZM27.6396 12.0109C25.1996 6.52092 17.4396 1.23092 13.4196 1.81092C9.65961 2.35092 2.91961 8.78092 2.65961 12.4109C10.7496 8.15092 18.8796 7.08092 27.6396 12.0109ZM24.5796 42.7409C15.1296 38.1309 9.69961 31.6609 9.77961 20.8009C7.30961 25.0609 6.38961 28.7909 6.84961 32.8209C7.10961 35.0809 6.97961 37.5909 9.09961 39.1109C13.4296 42.2209 18.2996 43.4109 24.5796 42.7409ZM26.3796 32.0709C31.1896 32.2009 34.5396 30.9409 37.6996 28.9809C39.6196 27.7909 41.5496 26.4809 42.5496 24.4709C44.2496 21.0609 41.6396 11.9209 38.3296 9.17092C39.2296 18.9909 35.3096 26.3909 26.3796 32.0709ZM4.30961 33.7509C3.71961 23.9809 7.23961 16.4109 16.5596 10.9309C10.9696 10.9209 6.94961 12.5509 3.33961 15.3009C2.09961 16.2409 0.509612 17.2109 0.259612 18.7609C-0.630388 24.2709 0.779612 29.2909 4.30961 33.7509ZM78.3296 0.250924C76.3496 0.430925 74.8896 1.44092 74.8696 3.75092C74.8496 6.01092 76.1696 7.38092 78.3796 7.41092C80.5596 7.44092 82.0496 6.09092 82.0696 3.89092C82.0896 1.76092 80.8796 0.360924 78.3296 0.250924Z" fill="#FDFEFF"/>
<path d="M222.08 13.2C221.12 13.41 221.65 14.58 220.93 14.96C214.08 14.28 212.38 17.64 212.6 23.41C212.72 26.53 212.62 29.66 212.62 32.89C210.76 33.39 209.07 33.18 207.18 33.05C207.18 25.5 207.18 18.04 207.18 10.5C208.7 9.88003 210.25 10.22 211.92 10.26C212.12 10.88 212.31 11.47 212.57 12.27C215.45 9.86003 218.43 8.29003 222.08 10.24C222.08 11.22 222.08 12.21 222.08 13.2Z" fill="#666666"/>
<path d="M131.61 11.9999C131.78 11.3799 131.95 10.7999 132.13 10.1399C133.79 9.81986 135.4 9.70986 137.07 10.2499C137.07 18.0499 137.62 25.8399 136.91 33.5199C136.25 40.6799 128.92 44.4299 120.63 42.7899C118.18 42.3099 115.85 41.4999 113.85 39.8499C113.98 38.2099 114.99 37.0999 115.83 35.7299C120.21 37.5799 124.62 39.6799 129.22 36.5599C131.16 35.2399 131.68 33.1799 131.77 30.4399C128.01 33.3199 124.16 33.8499 120.06 32.5399C117.67 31.7799 115.84 30.2399 114.48 28.1899C111.25 23.3199 111.84 17.0899 115.87 12.9099C119.97 8.64986 125.39 8.29986 131.61 11.9999ZM131.85 21.3999C131.83 17.6899 128.69 14.6499 124.96 14.7199C121.4 14.7899 118.32 17.9099 118.31 21.4399C118.3 25.1899 121.31 28.1599 125.12 28.1599C128.95 28.1699 131.87 25.2299 131.85 21.3999Z" fill="#666666"/>
<path d="M202.29 33.0611C200.6 33.0611 199.13 33.0611 197.58 33.0611C196.77 32.7911 197.28 31.7211 196.78 31.2811C188.68 35.8111 182.26 34.6811 178.49 25.8911C176.35 20.9111 178.12 15.1711 182.07 11.9611C185.93 8.82107 190.88 8.89107 196.39 12.1611C197.45 11.9011 196.6 10.5211 197.58 10.1811C199.08 9.84107 200.62 9.71107 202.29 10.3111C202.29 17.7911 202.29 25.2711 202.29 33.0611ZM197.15 21.8111C197.11 17.7111 194.1 14.6411 190.14 14.6711C186.42 14.7011 183.32 17.8111 183.34 21.4911C183.36 25.6811 186.25 28.7011 190.24 28.6911C194.22 28.7011 197.18 25.7411 197.15 21.8111Z" fill="#666666"/>
<path d="M108.29 33.1207C105.99 33.1207 104.29 33.1207 102.32 33.1207C102.32 28.9307 102.34 24.9007 102.31 20.8707C102.29 16.9507 100.33 14.6007 97.1497 14.6007C93.8497 14.6107 91.7797 17.0407 91.7597 20.9507C91.7397 24.9007 91.7597 28.8507 91.7597 33.0307C89.8297 33.1207 88.1297 33.1907 86.1797 33.2807C86.1797 25.5007 86.1797 17.8907 86.1797 10.1807C87.9297 9.6707 89.6297 9.8607 91.4497 10.0507C91.6197 10.8207 91.7797 11.5207 91.9497 12.2907C92.1597 12.1707 92.3897 12.1007 92.5497 11.9507C95.6197 9.0807 99.2097 8.6107 102.94 10.1607C106.7 11.7307 108.34 14.8207 108.29 18.8707C108.25 23.5907 108.29 28.2807 108.29 33.1207Z" fill="#666666"/>
<path d="M141.8 10.1312C144.06 9.77118 145.77 9.75118 147.72 10.1612C147.72 14.6412 147.65 19.0012 147.74 23.3612C147.82 27.3912 151.37 29.8012 154.67 28.1712C156.49 27.2712 157.28 25.7812 157.26 23.7512C157.21 19.3012 157.25 14.8512 157.25 10.4012C159.19 9.53118 160.97 10.0112 163.16 10.0012C162.89 15.8612 163.89 21.5512 162.49 27.1312C161.34 31.6812 157.3 33.9612 151.79 33.6712C146.49 33.3912 143.02 30.8512 142.23 26.2712C141.32 20.9612 142.02 15.6112 141.8 10.1312Z" fill="#666666"/>
<path d="M52.6094 29.1794C53.5194 28.1994 54.4694 27.1894 55.3794 26.2094C61.9894 29.8894 63.6594 29.9894 65.3694 26.8394C65.2894 25.3194 64.0494 24.8494 62.9394 24.3194C60.9994 23.3894 58.9394 22.6694 57.0594 21.6194C52.9594 19.3294 52.6694 13.7694 56.4294 11.0194C60.4194 8.09943 66.8294 8.83943 70.3194 12.6994C69.7094 14.0394 68.6494 15.0594 67.5994 16.0594C62.9394 13.1694 60.7594 13.2094 59.5394 16.1694C59.7294 17.5594 60.8894 17.9594 61.9394 18.4294C63.7494 19.2494 65.5794 20.0294 67.4194 20.8094C69.8194 21.8294 71.0794 23.6894 71.1294 26.2094C71.1794 28.7294 70.2794 30.8794 67.9994 32.3194C63.0594 35.4394 55.7894 34.0394 52.6094 29.1794Z" fill="#666666"/>
<path d="M167.799 0.349609C169.599 0.349609 171.159 0.349609 172.949 0.349609C172.949 11.2396 172.949 22.0596 172.949 32.9496C171.229 33.2996 169.609 33.2596 167.799 32.9596C167.799 22.1496 167.799 11.3896 167.799 0.349609Z" fill="#666666"/>
<path d="M75.6602 10.16C77.6202 9.73997 79.3102 9.85997 81.1902 10.09C81.1902 17.8 81.1902 25.35 81.1902 32.98C79.3802 33.58 77.6102 33.4 75.6602 33.11C75.6602 25.46 75.6602 17.91 75.6602 10.16Z" fill="#666666"/>
<path d="M33.1195 22.6103C32.4995 12.1103 27.8395 5.10035 18.6895 0.290347C23.1295 -0.539653 26.5895 0.530347 30.0795 1.71035C34.9395 3.35035 36.1095 7.03035 36.0795 11.6103C36.0595 15.2303 35.3195 18.6003 33.1195 22.6103Z" fill="#666666"/>
<path d="M40.9189 30.0605C39.0789 35.7505 34.9089 39.2205 29.5489 41.2305C27.7289 41.9105 25.7289 40.4905 23.9089 39.7205C20.2289 38.1705 17.3889 35.6005 14.8789 31.9405C17.9389 32.7505 20.5589 33.6305 23.2489 34.1305C29.1589 35.2205 34.5689 33.6605 39.6389 30.6605C40.0489 30.4205 40.5089 30.2805 40.9489 30.0905L40.9189 30.0605Z" fill="#666666"/>
<path d="M27.6402 12.0113C18.8702 7.08127 10.7402 8.15127 2.66016 12.4113C2.92016 8.78127 9.66016 2.35127 13.4102 1.81127C17.4402 1.23127 25.2002 6.52127 27.6402 12.0113Z" fill="#666666"/>
<path d="M24.5799 42.7408C18.2899 43.4208 13.4299 42.2208 9.09987 39.1108C6.96987 37.5808 7.09987 35.0808 6.84987 32.8208C6.38987 28.7908 7.31987 25.0708 9.77987 20.8008C9.69987 31.6608 15.1299 38.1308 24.5799 42.7408Z" fill="#666666"/>
<path d="M26.3789 32.0699C35.3089 26.3799 39.2289 18.9799 38.3289 9.16992C41.6389 11.9099 44.2589 21.0599 42.5489 24.4699C41.5489 26.4799 39.6189 27.7799 37.6989 28.9799C34.5489 30.9399 31.1889 32.1999 26.3789 32.0699Z" fill="#666666"/>
<path d="M4.30973 33.7497C0.779732 29.2897 -0.620268 24.2697 0.259732 18.7597C0.509732 17.2097 2.09973 16.2397 3.33973 15.2997C6.94973 12.5597 10.9697 10.9197 16.5597 10.9297C7.22973 16.4097 3.71973 23.9797 4.30973 33.7497Z" fill="#666666"/>
<path d="M78.3292 0.25C80.8792 0.36 82.0892 1.76 82.0692 3.9C82.0492 6.09 80.5592 7.45 78.3792 7.42C76.1792 7.39 74.8592 6.02 74.8692 3.76C74.8892 1.44 76.3492 0.43 78.3292 0.25Z" fill="#666666"/>
<path d="M40.9499 30.1002C40.9799 30.0402 41.0099 29.9702 41.0399 29.9102C40.9999 29.9602 40.9599 30.0202 40.9199 30.0702C40.9199 30.0602 40.9499 30.1002 40.9499 30.1002Z" fill="#666666"/>
<path d="M131.851 21.4001C131.871 25.2401 128.951 28.1701 125.121 28.1701C121.301 28.1701 118.301 25.2101 118.311 21.4501C118.321 17.9101 121.401 14.8001 124.961 14.7301C128.691 14.6501 131.831 17.6901 131.851 21.4001Z" fill="#FDFEFF"/>
<path d="M197.15 21.8101C197.19 25.7401 194.22 28.7001 190.24 28.7001C186.25 28.7001 183.36 25.6901 183.34 21.5001C183.32 17.8101 186.42 14.7001 190.14 14.6801C194.1 14.6401 197.11 17.7101 197.15 21.8101Z" fill="#FDFEFF"/>
</g>
<defs>
<clipPath id="clip0_1384_86893">
<rect width="222.08" height="43.17" fill="white"/>
</clipPath>
</defs>
</svg>
