<svg className="w-full" width="25" height="24" viewBox="0 0 25 24" fill="none" xmlns="http://www.w3.org/2000/svg">
<path d="M23.8816 0.429688C18.9209 1.00066 13.7798 3.65427 11.4663 7.84828C10.3253 9.90216 10.0186 12.5968 11.9804 14.355C13.5723 15.7845 16.3548 16.2527 17.9738 14.5891C19.7552 12.757 19.0246 10.0706 17.2432 8.49731C15.5288 7.0799 13.32 6.25941 11.0063 6.18054C6.6183 5.93818 2.1762 8.1769 0.597791 11.993C-1.0663 16.0227 0.845829 21.1368 5.06695 23.1702C6.34771 23.7863 7.48867 22.0159 6.2034 21.3956C3.35324 20.0195 1.91463 16.9428 2.32953 14.0921C2.7805 11.1181 5.44576 8.96969 8.64317 8.36996C10.2427 8.07301 11.9019 8.19552 13.428 8.72324C14.8756 9.2367 16.6525 10.3663 16.7382 11.9109C16.7813 12.2389 16.7148 12.5711 16.5475 12.8642C16.3802 13.1574 16.1197 13.3977 15.8001 13.554C15.58 13.6289 15.3437 13.6557 15.1101 13.632C14.7815 13.5896 14.4647 13.4906 14.1766 13.3403C12.5576 12.5188 12.5351 10.7443 13.207 9.27778C14.0549 7.4334 15.7686 5.85192 17.5589 4.75926C19.4403 3.57091 21.6039 2.80516 23.8726 2.52464C24.1687 2.5164 24.4503 2.40556 24.6598 2.21473C24.8693 2.0239 24.991 1.76745 25 1.4977C24.9988 1.22568 24.8797 0.965098 24.6685 0.772744C24.4573 0.58039 24.1712 0.471849 23.8726 0.470768L23.8816 0.429688Z" fill="#1B1F1D"/>
</svg>
