<svg width="42" height="42" viewBox="0 0 42 42" fill="none" xmlns="http://www.w3.org/2000/svg">
<path fill-rule="evenodd" clip-rule="evenodd" d="M41.3438 21C41.3438 32.2355 32.2355 41.3438 21 41.3438C9.76446 41.3438 0.65625 32.2355 0.65625 21C0.65625 9.76446 9.76446 0.65625 21 0.65625C32.2355 0.65625 41.3438 9.76446 41.3438 21ZM16.9312 28.875H13.3875V17.4563H16.9312V28.875ZM13.125 13.8469C13.125 12.7313 14.0438 11.8125 15.1594 11.8125C16.275 11.8125 17.1938 12.7313 17.1938 13.8469C17.1938 14.9625 16.275 15.8813 15.1594 15.8813C14.0438 15.8813 13.125 14.9625 13.125 13.8469ZM22.575 19.0312C23.0344 18.1125 24.2156 17.1938 25.9219 17.1938C29.5312 17.1938 30.1875 19.5563 30.1875 22.6406V28.875H26.5781V23.2969C26.5781 21.9844 26.5781 20.2781 24.7406 20.2781C22.9031 20.2781 22.6406 21.7219 22.6406 23.2313V28.875H19.0969V17.4563H22.5094V19.0312H22.575Z" fill="currentColor"/>
</svg>
