<svg width="244" height="155" viewBox="0 0 244 155" fill="none" xmlns="http://www.w3.org/2000/svg">
<g clip-path="url(#slidedice)">
<path d="M9.53564 108.995C9.53564 107.525 9.94157 106.174 10.7534 104.942C11.5793 103.71 13.147 102.276 15.4565 100.638C14.0988 98.9864 13.189 97.6566 12.7271 96.6488C12.2651 95.641 12.0342 94.6402 12.0342 93.6464C12.0342 91.3228 12.7201 89.5031 14.0918 88.1874C15.4635 86.8716 17.3252 86.2137 19.6768 86.2137C21.7764 86.2137 23.512 86.8296 24.8838 88.0614C26.2555 89.2792 26.9414 90.8189 26.9414 92.6805C26.9414 93.9123 26.6265 95.0531 25.9966 96.1029C25.3807 97.1387 24.2959 98.2305 22.7422 99.3783L20.4956 101.037L27.2983 109.162C28.2502 107.343 28.7261 105.32 28.7261 103.095H32.2324C32.2324 106.664 31.3716 109.624 29.6499 111.976L34.0171 117.204H29.356L27.3193 114.789C26.2835 115.713 25.0658 116.42 23.666 116.91C22.2803 117.386 20.8665 117.624 19.4248 117.624C16.4434 117.624 14.0498 116.833 12.2441 115.251C10.4385 113.67 9.53564 111.584 9.53564 108.995ZM19.4248 114.453C21.4824 114.453 23.3651 113.67 25.0728 112.102L17.6191 103.179L16.9263 103.682C14.5887 105.404 13.4199 107.175 13.4199 108.995C13.4199 110.646 13.9518 111.969 15.0156 112.963C16.0934 113.957 17.5632 114.453 19.4248 114.453ZM15.9185 93.5204C15.9185 94.8641 16.7443 96.5438 18.396 98.5594L20.8735 96.8168C21.8254 96.1449 22.4762 95.508 22.8262 94.9061C23.1761 94.2902 23.3511 93.5484 23.3511 92.6805C23.3511 91.7427 23.0011 90.9659 22.3013 90.35C21.6014 89.7201 20.7196 89.4052 19.6558 89.4052C18.508 89.4052 17.5981 89.7971 16.9263 90.5809C16.2544 91.3508 15.9185 92.3306 15.9185 93.5204Z" fill="#F1F6F3"/>
<path d="M168.513 140.54C160.013 140.54 154.776 134.426 154.776 126.908C154.776 118.068 161.006 110.376 169.708 110.875C174.914 111.22 179.773 113.61 183.224 117.523C184.72 112.826 187.12 108.467 190.289 104.692C184.976 99.7919 178.281 97.3589 169.822 97.3589C152.479 97.3589 139.833 110.434 139.833 128.104C139.833 143.917 151.609 154.173 167.525 154.173C174.683 154.173 181.225 152.201 186.425 147.954C184.045 143.802 182.478 139.234 181.808 134.496C178.154 138.579 171.703 140.54 168.513 140.54Z" fill="#F1F6F3"/>
<path d="M83.181 82.298H55.475L41.843 152.964H72.821C99.969 152.964 114.911 132.905 114.911 112.064C114.911 93.4241 103.461 82.298 83.181 82.298ZM72.704 139.878H59.6169L68.342 95.3851H80.342C92.454 95.3851 98.882 102.369 98.882 112.95C98.879 127.882 87.647 139.878 72.7 139.878H72.704Z" fill="#F1F6F3"/>
<path d="M243.147 130.725C243.648 128.246 243.905 125.724 243.913 123.195C243.913 108.147 234.423 97.3579 218.283 97.3579C200.939 97.3579 188.942 111.64 188.942 128.428C188.942 144.028 199.742 154.172 216.323 154.172C225.256 154.172 231.37 151.666 236.603 147.629L229.955 138.139C226.683 140.865 221.984 142.061 217.738 142.061C209.238 142.061 203.444 138.035 203.444 131.7C203.444 131.271 203.561 130.946 203.561 130.726L243.147 130.725ZM218.609 109.563C224.502 109.563 230.164 113.38 230.164 120.04C230.164 120.368 230.129 120.695 230.058 121.015H204.109C206.391 113.276 212.831 109.563 218.609 109.563Z" fill="#F1F6F3"/>
<path d="M135.561 59.2681C127.061 59.2681 121.824 53.154 121.824 45.636C121.824 36.796 128.054 29.103 136.756 29.603C141.962 29.9484 146.821 32.338 150.272 36.251C151.767 31.5538 154.168 27.1945 157.337 23.4189C152.023 18.5189 145.329 16.0859 136.871 16.0859C119.526 16.0859 106.881 29.1611 106.881 46.8311C106.881 62.6441 118.657 72.8999 134.574 72.8999C141.731 72.8999 148.274 70.9279 153.474 66.6809C151.094 62.5291 149.527 57.9615 148.857 53.2229C145.202 57.3069 138.751 59.2681 135.561 59.2681Z" fill="#F1F6F3"/>
<path d="M210.195 49.4531C210.696 46.9743 210.953 44.4521 210.961 41.9231C210.961 26.8751 201.471 16.0859 185.333 16.0859C167.988 16.0859 155.991 30.368 155.991 47.156C155.991 62.756 166.791 72.9011 183.372 72.9011C192.305 72.9011 198.419 70.3949 203.652 66.3579L197.004 56.8679C193.732 59.5949 189.033 60.7891 184.787 60.7891C176.287 60.7891 170.492 56.763 170.492 50.428C170.492 49.999 170.609 49.6741 170.609 49.4541L210.195 49.4531ZM185.657 28.291C191.55 28.291 197.212 32.1081 197.212 38.7681C197.212 39.0956 197.177 39.422 197.107 39.7419H171.159C173.44 32.0039 179.879 28.291 185.659 28.291H185.657Z" fill="#F1F6F3"/>
<path d="M0 63.7949L7.52502 52.1267C11.995 56.3797 18.1021 59.1057 26.8251 59.1057C32.6041 59.1057 42.3101 56.9248 42.3101 49.9458C42.3101 45.5838 36.748 43.6219 30.969 42.2029C19.954 39.4769 8.61206 34.2428 8.61206 22.0288C8.61206 7.96181 20.935 0.00171125 36.64 0.00171125C45.3254 -0.0450126 53.8149 2.58201 60.9561 7.52588L53.215 19.4119C48.2067 15.684 42.1182 13.6932 35.875 13.7419C31.405 13.7419 24.3151 15.4868 24.3151 21.0488C24.3151 24.5368 28.46 26.1728 35.115 28.2488C47.001 31.8488 58.015 36.9729 58.015 49.5139C58.015 65.7619 42.094 72.9597 26.499 72.9597C11.342 72.9547 3.163 66.9579 0 63.7949Z" fill="#F1F6F3"/>
<path d="M72.905 0.000854492H87.517L73.559 71.756H59.165L72.905 0.000854492Z" fill="#F1F6F3"/>
<path d="M91.1079 17.23H105.72L95.142 71.7559H80.642L91.1079 17.23Z" fill="#F1F6F3"/>
<path d="M93.943 0.0880737H108.556L106.556 11.017H92.056L93.943 0.0880737Z" fill="#F1F6F3"/>
<path d="M124.539 102.324H139.153L129.304 152.968H114.804L124.539 102.324Z" fill="#F1F6F3"/>
<path d="M127.375 85.1801H141.987L139.993 96.109H125.493L127.375 85.1801Z" fill="#F1F6F3"/>
</g>
<defs>
<clipPath id="slidedice">
<rect width="243.912" height="154.171" fill="white"/>
</clipPath>
</defs>
</svg>
