<svg width="42" height="42" viewBox="0 0 42 42" fill="none" xmlns="http://www.w3.org/2000/svg">
<path fill-rule="evenodd" clip-rule="evenodd" d="M41.3438 21C41.3438 32.2355 32.2355 41.3438 21 41.3438C9.76446 41.3438 0.65625 32.2355 0.65625 21C0.65625 9.76446 9.76446 0.65625 21 0.65625C32.2355 0.65625 41.3438 9.76446 41.3438 21ZM22.3781 21.8531V30.8438H18.7688V21.8531H15.75V18.375H18.7031V15.75C18.7031 12.7969 20.5406 11.1562 23.2313 11.1562C24.4781 11.1562 25.5938 11.2219 25.9219 11.2875V14.4375H24.0844C22.6406 14.4375 22.3781 15.1595 22.3781 16.1439V18.375H25.8563L25.3969 21.8531H22.3781Z" fill="currentColor"/>
</svg>
