<svg width="156" height="62" viewBox="0 0 156 62" fill="none" xmlns="http://www.w3.org/2000/svg">
<path d="M51.3701 21.9908C51.3595 21.9555 51.3467 21.9209 51.332 21.8871C51.3081 21.8259 51.2795 21.7646 51.2509 21.7081C51.2278 21.672 51.2023 21.6373 51.1747 21.6045C51.1388 21.5543 51.0989 21.5071 51.0555 21.4631L50.9506 21.3783L50.8505 21.3029L50.7981 21.2794C50.7861 21.2668 50.7715 21.2572 50.7552 21.2511L36.8353 14.3722C35.7273 13.8306 34.5079 13.5488 33.2719 13.5488C32.0358 13.5488 30.8164 13.8306 29.7085 14.3722L15.8028 21.2464L15.7599 21.2746L15.7075 21.2982L15.6169 21.3783C15.5836 21.4066 15.5407 21.4348 15.5121 21.4631C15.4686 21.5071 15.4288 21.5543 15.3929 21.6045C15.3637 21.6362 15.3381 21.6709 15.3166 21.7081C15.2828 21.7646 15.2556 21.8246 15.2356 21.8871C15.2356 21.9248 15.2022 21.9531 15.1927 21.9908C15.1643 22.0969 15.1499 22.2062 15.1498 22.3159V33.8733C15.1418 35.6465 15.637 37.3864 16.5791 38.8954C17.5211 40.4045 18.8723 41.6223 20.4794 42.4107L32.7403 48.4697C32.7866 48.4906 32.8344 48.5079 32.8833 48.5215L32.9739 48.5545C33.0724 48.5782 33.173 48.5924 33.2742 48.5969C33.3755 48.592 33.476 48.5778 33.5746 48.5545L33.6651 48.5215C33.7143 48.5084 33.7621 48.4911 33.8082 48.4697L46.0691 42.4107C47.6767 41.6225 49.0286 40.4049 49.9714 38.8959C50.9143 37.3869 51.4104 35.6469 51.4035 33.8733V22.3018C51.4064 22.1971 51.3952 22.0925 51.3701 21.9908ZM30.7763 16.483C31.5525 16.102 32.4075 15.9037 33.2742 15.9037C34.141 15.9037 34.9959 16.102 35.7722 16.483L47.5564 22.3018L37.4168 27.3054L35.7627 28.1205C34.9872 28.5015 34.133 28.6998 33.2671 28.6998C32.4011 28.6998 31.5469 28.5015 30.7715 28.1205L29.1173 27.3054L21.2421 23.409L22.0573 23.4844C23.0093 23.555 23.9654 23.555 24.9175 23.4844C25.8709 23.4043 26.8244 23.3147 27.7778 23.2582C29.6846 23.164 31.5915 23.0478 33.4983 22.9096C35.4051 22.7494 37.312 22.6222 39.2188 22.4384C39.246 22.4344 39.271 22.4215 39.29 22.4019C39.309 22.3823 39.3208 22.357 39.3237 22.33C39.3264 22.2995 39.3169 22.2692 39.2973 22.2454C39.2778 22.2217 39.2496 22.2064 39.2188 22.2028C37.312 22.0144 35.4051 21.873 33.4983 21.7317C31.5915 21.5903 29.6846 21.4584 27.7778 21.3642C26.8244 21.3123 25.8709 21.2181 24.9175 21.138C23.9654 21.0673 23.0093 21.0673 22.0573 21.138C21.7855 21.138 21.5091 21.1898 21.2421 21.2134L30.7763 16.483ZM17.5238 33.8733V24.2147L28.059 29.4351C29.2647 30.0282 30.2788 30.9423 30.9872 32.0744C31.6955 33.2066 32.0699 34.5117 32.0682 35.8428V43.8288C31.8441 43.3577 31.5915 42.9101 31.3579 42.4578C30.9373 41.7045 30.4558 40.986 29.9182 40.3093C29.3652 39.6403 28.8075 38.9759 28.2688 38.288C27.2296 36.9123 26.1681 35.5475 25.0844 34.1937C23.9784 32.8462 22.9106 31.4846 21.7808 30.1559C21.7633 30.135 21.7393 30.1205 21.7126 30.1145C21.6858 30.1085 21.6579 30.1115 21.633 30.1229C21.6048 30.1388 21.584 30.1649 21.5751 30.1958C21.5662 30.2266 21.5699 30.2597 21.5853 30.2878C22.391 31.8238 23.249 33.3268 24.0833 34.858C24.9175 36.3893 25.7994 37.864 26.6861 39.3529C27.1295 40.0973 27.5299 40.8653 27.9446 41.638C28.3589 42.3958 28.8373 43.1177 29.3748 43.7958C29.5559 44.0267 29.7514 44.267 29.9468 44.4743L21.5472 40.3093C20.3331 39.7178 19.3119 38.8005 18.6004 37.6624C17.8889 36.5242 17.5158 35.2112 17.5238 33.8733ZM45.0013 40.3093L34.4708 45.5344V35.8428C34.4665 34.5069 34.8418 33.1968 35.5539 32.0614C36.2661 30.9261 37.2865 30.0112 38.499 29.4209L43.6188 26.8814L46.9224 25.2465C46.6984 25.5056 46.4791 25.7648 46.2646 26.0333C45.7112 26.7261 45.2154 27.4619 44.782 28.2336C44.3577 29.011 43.943 29.7931 43.4901 30.5564C42.5875 32.0767 41.6993 33.6063 40.8253 35.1454C39.9768 36.7003 39.0949 38.2362 38.2558 39.8005C38.2391 39.827 38.2332 39.8588 38.2394 39.8895C38.2456 39.9201 38.2634 39.9473 38.2892 39.9654C38.3023 39.9742 38.3171 39.9803 38.3326 39.9834C38.3481 39.9865 38.3641 39.9866 38.3796 39.9835C38.3952 39.9804 38.4099 39.9743 38.4231 39.9655C38.4362 39.9568 38.4474 39.9455 38.4561 39.9324C39.6002 38.5755 40.6966 37.1808 41.793 35.8051C42.8895 34.4293 43.9859 33.0205 45.0585 31.6118C45.5924 30.9051 46.1645 30.2266 46.7079 29.5387C47.2669 28.8513 47.766 28.1184 48.2 27.3478C48.4765 26.8767 48.7291 26.3725 48.977 25.8543V33.8639C48.9901 35.1981 48.6245 36.5093 47.9218 37.6485C47.219 38.7878 46.2073 39.7096 45.0013 40.3093Z" fill="#1B1F1D"/>
<path d="M65.9642 43.0823L70.5686 43.1137L70.651 30.9719L74.4027 30.9975L74.4317 26.7222L70.68 26.6966L70.6869 25.6706C70.6974 24.1315 71.5558 23.2822 72.9201 23.2915C73.4317 23.295 73.8746 23.3664 74.2491 23.4716C74.4533 23.5414 74.6234 23.611 74.7937 23.6463L74.8227 19.3711C74.5503 19.3008 74.2438 19.2303 73.9375 19.1256C73.3927 18.9851 72.6092 18.8429 71.7565 18.8371C68.3459 18.8138 66.1141 20.9876 66.0872 24.9551L66.0756 26.6652L63.5176 26.6478L63.4886 30.9231L66.0466 30.9405L65.9642 43.0823Z" fill="#1B1F1D"/>
<path d="M76.0297 43.151L80.6341 43.1824L80.7478 26.4233L76.1434 26.3919L76.0297 43.151ZM75.8348 21.6012C75.8255 22.9693 76.977 24.1743 78.4436 24.1843C79.9102 24.1943 81.112 23.0054 81.1213 21.6373C81.1306 20.2692 79.9791 19.0642 78.5125 19.0542C77.0459 19.0442 75.8441 20.2331 75.8348 21.6012Z" fill="#1B1F1D"/>
<path d="M82.498 43.1951L87.1024 43.2265L87.1627 34.3339C87.1778 32.1108 88.723 30.5821 90.7694 30.5961C92.6794 30.6091 93.8309 31.8141 93.817 33.8662L93.7532 43.2719L98.3576 43.3033L98.4261 33.2136C98.4551 28.9383 95.7451 26.1835 92.3344 26.1603C90.6973 26.1491 89.4648 26.8248 88.6416 27.5032C88.1613 27.9104 87.749 28.3522 87.3704 28.8627L87.1998 28.8615L87.2161 26.4674L82.6117 26.436L82.498 43.1951Z" fill="#1B1F1D"/>
<path d="M108.607 39.4397C106.22 39.4235 104.356 37.5295 104.374 34.9644C104.391 32.3992 106.28 30.5309 108.667 30.5472C111.055 30.5634 112.918 32.4574 112.9 35.0225C112.883 37.5877 110.994 39.456 108.607 39.4397ZM99.7694 34.933C99.7369 39.7213 103.633 43.6813 108.578 43.715C113.523 43.7488 117.472 39.8423 117.505 35.0539C117.537 30.2656 113.642 26.3056 108.696 26.2719C103.751 26.2381 99.8019 30.1446 99.7694 34.933Z" fill="#1B1F1D"/>
<path d="M118.682 36.7722C118.653 41.0474 121.363 43.8022 124.773 43.8255C126.376 43.8364 127.643 43.161 128.466 42.4825C128.946 42.0754 129.359 41.6335 129.737 41.1231L129.908 41.1242L129.892 43.5184L134.496 43.5498L134.61 26.7907L130.005 26.7593L129.945 35.6519C129.93 37.875 128.385 39.4036 126.338 39.3897C124.428 39.3766 123.277 38.1717 123.291 36.1195L123.355 26.7139L118.75 26.6825L118.682 36.7722Z" fill="#1B1F1D"/>
<path d="M138.96 37.7656C138.933 41.733 141.135 43.9371 144.546 43.9604C145.399 43.9662 146.184 43.8689 146.73 43.7358C147.038 43.6353 147.345 43.569 147.619 43.4683L147.648 39.193C147.477 39.2602 147.306 39.3275 147.101 39.3603C146.725 39.4603 146.281 39.5257 145.77 39.5222C144.406 39.5129 143.559 38.652 143.569 37.1129L143.607 31.4696L147.359 31.4951L147.388 27.2199L143.636 27.1943L143.671 22.0639L139.578 22.036L139.558 25.1142C139.548 26.4823 138.93 27.1622 137.668 27.1536L136.133 27.1431L136.104 31.4184L139.003 31.4382L138.96 37.7656Z" fill="#1B1F1D"/>
</svg>
