<svg width="156" height="62" viewBox="0 0 156 62" fill="none" xmlns="http://www.w3.org/2000/svg">
<path d="M51.3699 21.9908C51.3592 21.9555 51.3465 21.9209 51.3317 21.8871C51.3079 21.8259 51.2793 21.7646 51.2507 21.7081C51.2276 21.672 51.2021 21.6373 51.1744 21.6045C51.1385 21.5543 51.0987 21.5071 51.0552 21.4631L50.9504 21.3783L50.8503 21.3029L50.7978 21.2794C50.7859 21.2668 50.7712 21.2572 50.7549 21.2511L36.835 14.3722C35.7271 13.8306 34.5077 13.5488 33.2716 13.5488C32.0355 13.5488 30.8161 13.8306 29.7082 14.3722L15.8026 21.2464L15.7597 21.2746L15.7073 21.2982L15.6167 21.3783C15.5833 21.4066 15.5404 21.4348 15.5118 21.4631C15.4684 21.5071 15.4285 21.5543 15.3926 21.6045C15.3635 21.6362 15.3379 21.6709 15.3164 21.7081C15.2826 21.7646 15.2554 21.8246 15.2353 21.8871C15.2353 21.9248 15.2019 21.9531 15.1924 21.9908C15.1641 22.0969 15.1497 22.2062 15.1495 22.3159V33.8733C15.1416 35.6465 15.6367 37.3864 16.5788 38.8954C17.5209 40.4045 18.8721 41.6223 20.4791 42.4107L32.7401 48.4697C32.7863 48.4906 32.8342 48.5079 32.8831 48.5215L32.9737 48.5545C33.0722 48.5782 33.1727 48.5924 33.274 48.5969C33.3752 48.592 33.4758 48.5778 33.5743 48.5545L33.6649 48.5215C33.714 48.5084 33.7619 48.4911 33.8079 48.4697L46.0689 42.4107C47.6764 41.6225 49.0283 40.4049 49.9712 38.8959C50.9141 37.3869 51.4102 35.6469 51.4032 33.8733V22.3018C51.4062 22.1971 51.3949 22.0925 51.3699 21.9908ZM30.776 16.483C31.5523 16.102 32.4073 15.9037 33.274 15.9037C34.1407 15.9037 34.9957 16.102 35.7719 16.483L47.5562 22.3018L37.4166 27.3054L35.7624 28.1205C34.987 28.5015 34.1328 28.6998 33.2668 28.6998C32.4009 28.6998 31.5467 28.5015 30.7713 28.1205L29.1171 27.3054L21.2419 23.409L22.057 23.4844C23.0091 23.555 23.9652 23.555 24.9173 23.4844C25.8707 23.4043 26.8241 23.3147 27.7775 23.2582C29.6844 23.164 31.5912 23.0478 33.498 22.9096C35.4049 22.7494 37.3117 22.6222 39.2186 22.4384C39.2457 22.4344 39.2708 22.4215 39.2897 22.4019C39.3087 22.3823 39.3206 22.357 39.3234 22.33C39.3261 22.2995 39.3167 22.2692 39.2971 22.2454C39.2775 22.2217 39.2493 22.2064 39.2186 22.2028C37.3117 22.0144 35.4049 21.873 33.498 21.7317C31.5912 21.5903 29.6844 21.4584 27.7775 21.3642C26.8241 21.3123 25.8707 21.2181 24.9173 21.138C23.9652 21.0673 23.0091 21.0673 22.057 21.138C21.7853 21.138 21.5088 21.1898 21.2419 21.2134L30.776 16.483ZM17.5235 33.8733V24.2147L28.0588 29.4351C29.2645 30.0282 30.2786 30.9423 30.9869 32.0744C31.6953 33.2066 32.0696 34.5117 32.0679 35.8428V43.8288C31.8439 43.3577 31.5912 42.9101 31.3576 42.4578C30.937 41.7045 30.4556 40.986 29.918 40.3093C29.365 39.6403 28.8072 38.9759 28.2685 38.288C27.2293 36.9123 26.1678 35.5475 25.0841 34.1937C23.9782 32.8462 22.9103 31.4846 21.7805 30.1559C21.7631 30.135 21.7391 30.1205 21.7123 30.1145C21.6856 30.1085 21.6576 30.1115 21.6328 30.1229C21.6046 30.1388 21.5838 30.1649 21.5748 30.1958C21.5659 30.2266 21.5696 30.2597 21.5851 30.2878C22.3907 31.8238 23.2488 33.3268 24.083 34.858C24.9173 36.3893 25.7992 37.864 26.6859 39.3529C27.1292 40.0973 27.5296 40.8653 27.9444 41.638C28.3587 42.3958 28.8371 43.1177 29.3745 43.7958C29.5557 44.0267 29.7511 44.267 29.9466 44.4743L21.5469 40.3093C20.3328 39.7178 19.3116 38.8005 18.6001 37.6624C17.8886 36.5242 17.5155 35.2112 17.5235 33.8733ZM45.001 40.3093L34.4705 45.5344V35.8428C34.4662 34.5069 34.8415 33.1968 35.5537 32.0614C36.2658 30.9261 37.2863 30.0112 38.4987 29.4209L43.6186 26.8814L46.9222 25.2465C46.6981 25.5056 46.4788 25.7648 46.2643 26.0333C45.711 26.7261 45.2152 27.4619 44.7818 28.2336C44.3575 29.011 43.9427 29.7931 43.4899 30.5564C42.5873 32.0767 41.699 33.6063 40.8251 35.1454C39.9765 36.7003 39.0946 38.2362 38.2556 39.8005C38.2388 39.827 38.2329 39.8588 38.2391 39.8895C38.2453 39.9201 38.2632 39.9473 38.289 39.9654C38.3021 39.9742 38.3168 39.9803 38.3323 39.9834C38.3479 39.9865 38.3639 39.9866 38.3794 39.9835C38.3949 39.9804 38.4097 39.9743 38.4228 39.9655C38.4359 39.9568 38.4472 39.9455 38.4558 39.9324C39.5999 38.5755 40.6964 37.1808 41.7928 35.8051C42.8892 34.4293 43.9856 33.0205 45.0582 31.6118C45.5922 30.9051 46.1642 30.2266 46.7077 29.5387C47.2667 28.8513 47.7658 28.1184 48.1998 27.3478C48.4762 26.8767 48.7289 26.3725 48.9768 25.8543V33.8639C48.9898 35.1981 48.6243 36.5093 47.9215 37.6485C47.2188 38.7878 46.207 39.7096 45.001 40.3093Z" fill="white"/>
<path d="M65.9646 43.0823L70.569 43.1137L70.6513 30.9719L74.4031 30.9975L74.4321 26.7222L70.6803 26.6966L70.6873 25.6706C70.6977 24.1315 71.5562 23.2822 72.9205 23.2915C73.4321 23.295 73.875 23.3664 74.2495 23.4716C74.4537 23.5414 74.6237 23.611 74.794 23.6463L74.823 19.3711C74.5506 19.3008 74.2441 19.2303 73.9379 19.1256C73.3931 18.9851 72.6096 18.8429 71.7569 18.8371C68.3462 18.8138 66.1144 20.9876 66.0875 24.9551L66.0759 26.6652L63.5179 26.6478L63.4889 30.9231L66.0469 30.9405L65.9646 43.0823Z" fill="white"/>
<path d="M76.0301 43.151L80.6345 43.1824L80.7482 26.4233L76.1437 26.3919L76.0301 43.151ZM75.8352 21.6012C75.8259 22.9693 76.9774 24.1743 78.444 24.1843C79.9106 24.1943 81.1124 23.0054 81.1217 21.6373C81.131 20.2692 79.9795 19.0642 78.5129 19.0542C77.0463 19.0442 75.8444 20.2331 75.8352 21.6012Z" fill="white"/>
<path d="M82.4984 43.1951L87.1028 43.2265L87.1631 34.3339C87.1782 32.1108 88.7234 30.5821 90.7698 30.5961C92.6798 30.6091 93.8313 31.8141 93.8174 33.8662L93.7536 43.2719L98.358 43.3033L98.4264 33.2136C98.4554 28.9383 95.7454 26.1835 92.3348 26.1603C90.6976 26.1491 89.4652 26.8248 88.642 27.5032C88.1617 27.9104 87.7494 28.3522 87.3707 28.8627L87.2002 28.8615L87.2164 26.4674L82.612 26.436L82.4984 43.1951Z" fill="white"/>
<path d="M108.607 39.4397C106.22 39.4235 104.357 37.5295 104.374 34.9644C104.392 32.3992 106.28 30.5309 108.668 30.5472C111.055 30.5634 112.918 32.4574 112.901 35.0225C112.883 37.5877 110.995 39.456 108.607 39.4397ZM99.7698 34.933C99.7373 39.7213 103.633 43.6813 108.578 43.715C113.524 43.7488 117.473 39.8423 117.505 35.0539C117.538 30.2656 113.642 26.3056 108.697 26.2719C103.751 26.2381 99.8022 30.1446 99.7698 34.933Z" fill="white"/>
<path d="M118.682 36.7722C118.653 41.0474 121.363 43.8022 124.774 43.8255C126.377 43.8364 127.643 43.161 128.467 42.4825C128.947 42.0754 129.359 41.6335 129.738 41.1231L129.908 41.1242L129.892 43.5184L134.496 43.5498L134.61 26.7907L130.006 26.7593L129.945 35.6519C129.93 37.875 128.385 39.4036 126.339 39.3897C124.429 39.3766 123.277 38.1717 123.291 36.1195L123.355 26.7139L118.751 26.6825L118.682 36.7722Z" fill="white"/>
<path d="M138.96 37.7656C138.934 41.733 141.136 43.9371 144.546 43.9604C145.399 43.9662 146.184 43.8689 146.731 43.7358C147.038 43.6353 147.346 43.569 147.619 43.4683L147.648 39.193C147.477 39.2602 147.306 39.3275 147.102 39.3603C146.726 39.4603 146.282 39.5257 145.77 39.5222C144.406 39.5129 143.559 38.652 143.57 37.1129L143.608 31.4696L147.36 31.4951L147.389 27.2199L143.637 27.1943L143.672 22.0639L139.579 22.036L139.558 25.1142C139.549 26.4823 138.93 27.1622 137.668 27.1536L136.133 27.1431L136.104 31.4184L139.003 31.4382L138.96 37.7656Z" fill="white"/>
</svg>
