<svg width="167" height="42" viewBox="0 0 167 42" fill="none" xmlns="http://www.w3.org/2000/svg">
<path d="M21.384 41.949L21.276 41.91C21.217 41.8929 21.1592 41.8718 21.103 41.847L6.399 34.587C4.47619 33.6476 2.85519 32.1881 1.72 30.374C0.588578 28.5716 -0.00819217 26.4851 -0.000996168 24.357V10.506C-0.00151266 10.3742 0.0159845 10.243 0.0510058 10.116C0.0620058 10.071 0.101009 10.037 0.101009 9.991C0.125718 9.91595 0.159279 9.84411 0.201 9.777C0.22617 9.73181 0.25673 9.68984 0.292003 9.652C0.334505 9.59178 0.382005 9.53525 0.434001 9.483C0.469001 9.449 0.521008 9.416 0.560008 9.383L0.669002 9.283L0.730998 9.255L0.783 9.221L17.466 0.983002C18.7977 0.333554 20.2599 -0.00398254 21.7415 -0.00398254C23.2231 -0.00398254 24.6853 0.333554 26.017 0.983002L42.717 9.227C42.7369 9.23374 42.7548 9.24544 42.769 9.261L42.832 9.289L42.951 9.38L43.077 9.48C43.1288 9.53269 43.1766 9.58918 43.22 9.649C43.2534 9.68836 43.2838 9.73014 43.311 9.774C43.346 9.841 43.38 9.916 43.411 9.988C43.4286 10.0288 43.444 10.0705 43.457 10.113C43.4872 10.235 43.501 10.3604 43.498 10.486V24.357C43.5047 26.4852 42.9091 28.572 41.78 30.376C40.6424 32.1887 39.0207 33.6472 37.098 34.587L22.387 41.848C22.3317 41.8734 22.2746 41.8945 22.216 41.911L22.107 41.95C21.8718 42.0178 21.6222 42.0178 21.387 41.95L21.384 41.949ZM34.156 15.977L28.013 19.021C26.5624 19.7246 25.3381 20.8207 24.479 22.185C23.626 23.542 23.1752 25.1131 23.179 26.716V38.331L35.813 32.07C37.2541 31.3536 38.4664 30.2487 39.313 28.88C40.1553 27.5188 40.5943 25.9466 40.579 24.346V14.746C40.279 15.367 39.979 15.971 39.647 16.535C39.1254 17.4592 38.5266 18.3377 37.857 19.161C37.205 19.984 36.518 20.798 35.879 21.645C34.591 23.333 33.279 25.022 31.96 26.67C30.641 28.318 29.328 29.99 27.96 31.616C27.9503 31.6322 27.9369 31.6459 27.921 31.656C27.9052 31.6666 27.8876 31.6741 27.869 31.678C27.8504 31.6806 27.8316 31.6806 27.813 31.678C27.7853 31.6721 27.7599 31.6582 27.7398 31.6382C27.7198 31.6181 27.7059 31.5927 27.7 31.565C27.6929 31.5281 27.7001 31.4899 27.72 31.458C28.726 29.583 29.784 27.742 30.803 25.879C31.8517 24.0357 32.9183 22.2023 34.003 20.379C34.546 19.463 35.045 18.527 35.553 17.595C36.0741 16.6696 36.669 15.7877 37.332 14.958C37.589 14.636 37.852 14.326 38.121 14.016L34.156 15.977ZM2.848 24.357C2.83861 25.9623 3.28677 27.5371 4.14001 28.897C4.99843 30.2648 6.22357 31.3642 7.67601 32.07L17.753 37.061C17.518 36.812 17.284 36.523 17.067 36.247C16.4232 35.4351 15.8495 34.57 15.352 33.661C14.852 32.734 14.374 31.814 13.841 30.922C12.778 29.137 11.719 27.371 10.719 25.535C9.719 23.699 8.68801 21.899 7.71901 20.059C7.70117 20.0252 7.69722 19.9857 7.708 19.949C7.71653 19.914 7.73858 19.8838 7.76933 19.8651C7.80007 19.8464 7.837 19.8406 7.872 19.849C7.90425 19.8558 7.9332 19.8734 7.95401 19.899C9.31001 21.491 10.592 23.122 11.919 24.737C13.219 26.3597 14.4923 27.995 15.739 29.643C16.385 30.468 17.054 31.264 17.718 32.067C18.3617 32.8768 18.9389 33.7372 19.444 34.64C19.725 35.183 20.028 35.72 20.297 36.283V26.713C20.2974 25.1165 19.8475 23.5523 18.999 22.2C18.1443 20.8399 16.9274 19.7449 15.485 19.038L2.846 12.781L2.848 24.357ZM16.757 16.486L18.741 17.463C19.6734 17.9191 20.6976 18.1561 21.7355 18.1561C22.7734 18.1561 23.7976 17.9191 24.73 17.463L26.714 16.486L38.879 10.486L24.74 3.514C23.807 3.05722 22.7819 2.81975 21.743 2.81975C20.7042 2.81975 19.679 3.05722 18.746 3.514L7.309 9.186C7.629 9.157 7.961 9.095 8.287 9.095C9.42945 9.0108 10.5766 9.0108 11.719 9.095C12.862 9.195 14.007 9.304 15.151 9.366C17.439 9.478 19.726 9.636 22.014 9.806C24.302 9.976 26.589 10.144 28.877 10.37C28.914 10.3752 28.9477 10.3937 28.972 10.422C28.9939 10.4488 29.0051 10.4828 29.0032 10.5174C29.0014 10.552 28.9867 10.5847 28.962 10.609C28.9397 10.6331 28.9096 10.6487 28.877 10.653C26.589 10.872 24.301 11.025 22.014 11.217C19.7267 11.3837 17.439 11.5233 15.151 11.636C14.007 11.703 12.863 11.81 11.719 11.906C10.5766 11.9919 9.42938 11.9919 8.287 11.906L7.309 11.817L16.757 16.486ZM141.318 29.4C140.236 29.4134 139.16 29.2444 138.135 28.9C137.302 28.6215 136.54 28.1645 135.902 27.561C135.319 26.996 134.874 26.3045 134.602 25.54C134.315 24.7209 134.174 23.8579 134.184 22.99V12.971H137.5V22.741C137.484 23.3737 137.577 24.0045 137.774 24.606C137.933 25.0845 138.201 25.5195 138.556 25.877C138.9 26.2014 139.311 26.4453 139.761 26.591C140.262 26.7523 140.786 26.8313 141.313 26.825C141.843 26.8308 142.37 26.7518 142.875 26.591C143.33 26.4481 143.746 26.204 144.093 25.877C144.45 25.5196 144.72 25.0847 144.881 24.606C145.072 24.0032 145.162 23.3731 145.148 22.741V12.971H148.464V23.018C148.476 23.8872 148.331 24.7515 148.035 25.569C147.759 26.3326 147.312 27.0232 146.728 27.588C146.091 28.1931 145.328 28.6505 144.494 28.928C143.517 29.2417 142.497 29.4009 141.471 29.4H141.318ZM120.332 29.4H120.276C119.139 29.4001 118.009 29.2209 116.927 28.869C115.897 28.5348 114.947 27.9926 114.136 27.276C113.323 26.5441 112.678 25.6453 112.244 24.641C111.307 22.3072 111.307 19.7018 112.244 17.368C112.687 16.3627 113.342 15.4651 114.164 14.737C114.977 14.0196 115.926 13.4734 116.955 13.131C119.132 12.4231 121.478 12.4231 123.655 13.131C124.686 13.4683 125.636 14.0151 126.446 14.737C127.255 15.4706 127.9 16.3673 128.338 17.368C128.849 18.5102 129.108 19.7488 129.099 21C129.122 22.2479 128.883 23.4867 128.399 24.637C127.975 25.6426 127.334 26.5422 126.522 27.272C125.709 27.987 124.76 28.529 123.731 28.865C122.651 29.2169 121.523 29.3962 120.387 29.396L120.332 29.4ZM122.532 26.408C123.17 26.1437 123.741 25.7422 124.206 25.232C124.686 24.7045 125.048 24.0801 125.267 23.401C125.759 21.8388 125.759 20.1632 125.267 18.601C125.047 17.922 124.686 17.2975 124.206 16.769C123.741 16.2595 123.169 15.8584 122.532 15.594C121.824 15.3052 121.064 15.163 120.299 15.176C119.534 15.1653 118.774 15.3074 118.065 15.594C117.426 15.8607 116.854 16.2657 116.39 16.78C115.919 17.3137 115.56 17.9362 115.334 18.611C114.844 20.1711 114.844 21.8439 115.334 23.404C115.554 24.0815 115.914 24.7053 116.39 25.235C116.856 25.7447 117.427 26.1462 118.065 26.411C118.775 26.6972 119.534 26.8393 120.299 26.829C121.064 26.8399 121.824 26.6964 122.532 26.407V26.408ZM91.29 29.073V12.973H93.981C94.681 13.6343 95.4253 14.4037 96.214 15.281C97.0027 16.1583 97.8123 17.084 98.643 18.058C99.4503 19.014 100.234 19.9767 100.993 20.946C101.752 21.9153 102.428 22.8153 103.019 23.646V12.971H106.28V29.052H103.489C102.889 28.169 102.233 27.226 101.501 26.208C100.769 25.19 100.011 24.174 99.229 23.142C98.447 22.11 97.65 21.117 96.841 20.165C96.032 19.213 95.261 18.315 94.534 17.559V29.072L91.29 29.073ZM158.122 29.053V15.5H152.539L152.561 12.97H166.999V15.5H161.415V29.052L158.122 29.053ZM82.004 29.053V12.971H85.292V29.052L82.004 29.053ZM65.949 29.053V12.971H77.389V15.452H69.238V19.546H76.499V22.027H69.242V29.053H65.949Z" fill="currentColor"/>
</svg>
