<svg width="47" height="34" viewBox="0 0 47 34" fill="none" xmlns="http://www.w3.org/2000/svg">
<path d="M22.441 0H13.126L3.176 14.552C1.271 17.381 -1.44355e-07 20.009 -1.44355e-07 23.243C-0.0663949 24.6018 0.14988 25.9595 0.635147 27.2304C1.12041 28.5013 1.86412 29.6577 2.81922 30.6264C3.77433 31.5952 4.92006 32.3552 6.18396 32.8584C7.44785 33.3616 8.80242 33.5971 10.162 33.55C11.4905 33.5818 12.8115 33.3409 14.0433 32.8423C15.2751 32.3437 16.3917 31.5979 17.3241 30.651C18.2565 29.7041 18.9849 28.5761 19.4644 27.3368C19.9439 26.0974 20.1643 24.7729 20.112 23.445C20.2003 21.7096 19.8132 19.9829 18.9923 18.4513C18.1715 16.9198 16.948 15.6414 15.454 14.754L22.441 0ZM46.658 0H37.343L27.393 14.552C25.488 17.381 24.217 20.009 24.217 23.243C24.1506 24.6018 24.3669 25.9595 24.8521 27.2304C25.3374 28.5013 26.0811 29.6577 27.0362 30.6264C27.9913 31.5952 29.1371 32.3552 30.401 32.8584C31.6649 33.3616 33.0194 33.5971 34.379 33.55C35.7075 33.5818 37.0285 33.3409 38.2603 32.8423C39.4921 32.3437 40.6087 31.5979 41.5411 30.651C42.4735 29.7041 43.2019 28.5761 43.6814 27.3368C44.1609 26.0974 44.3813 24.7729 44.329 23.445C44.4173 21.7096 44.0302 19.9829 43.2093 18.4513C42.3885 16.9198 41.165 15.6414 39.671 14.754L46.658 0Z" fill="#F87979"/>
</svg>
