<svg width="42" height="42" viewBox="0 0 42 42" fill="none" xmlns="http://www.w3.org/2000/svg">
<path fill-rule="evenodd" clip-rule="evenodd" d="M41.3438 21C41.3438 32.2355 32.2355 41.3438 21 41.3438C9.76446 41.3438 0.65625 32.2355 0.65625 21C0.65625 9.76446 9.76446 0.65625 21 0.65625C32.2355 0.65625 41.3438 9.76446 41.3438 21ZM29.0063 15.1594C29.925 15.0938 30.7125 14.8313 31.5 14.5031C30.9094 15.3563 30.1875 16.0781 29.4 16.7344V17.2593C29.4 22.9687 25.0688 29.5312 17.1281 29.5312C14.7 29.5312 12.4031 28.875 10.5 27.628C10.8281 27.6936 11.2219 27.6938 11.55 27.6938C13.5844 27.6938 15.4875 27.0375 16.9312 25.8563C15.0937 25.7906 13.4531 24.5436 12.9281 22.8375C13.1906 22.903 13.4531 22.903 13.7156 22.903C14.0593 22.903 14.353 22.8531 14.684 22.7967C14.7322 22.7885 14.7812 22.7802 14.8313 22.7719C12.8625 22.378 11.3531 20.6719 11.3531 18.5718V18.5063C11.9437 18.8344 12.6 19.0312 13.3219 19.0312C12.2062 18.2437 11.4187 16.9312 11.4187 15.4219C11.4187 14.6343 11.6156 13.9125 12.0094 13.2563C14.1094 15.8813 17.2594 17.5875 20.8687 17.7844C20.8031 17.4563 20.7375 17.128 20.7375 16.7999C20.7375 14.3718 22.7063 12.4688 25.0688 12.4688C26.25 12.4688 27.3656 12.9938 28.1531 13.8469C29.1375 13.65 30.0562 13.3218 30.9094 12.7969C30.5812 13.7811 29.925 14.6344 29.0063 15.1594Z" fill="currentColor"/>
</svg>
